<svg width="283" height="283" viewBox="0 0 283 283" fill="none" xmlns="http://www.w3.org/2000/svg">
<path d="M153.935 260.32C221.111 260.32 275.569 229.456 275.569 191.382C275.569 153.309 221.111 122.445 153.935 122.445C86.7589 122.445 32.3018 153.309 32.3018 191.382C32.3018 229.456 86.7589 260.32 153.935 260.32Z" fill="#F5F5F5"/>
<path d="M231.092 223.463C247.156 223.463 260.179 215.327 260.179 205.291C260.179 195.254 247.156 187.119 231.092 187.119C215.028 187.119 202.005 195.254 202.005 205.291C202.005 215.327 215.028 223.463 231.092 223.463Z" fill="#E6E6E6"/>
<path d="M39.0541 152.54C38.7055 148.358 37.7365 144.25 36.1788 140.352C33.6148 134.052 28.7076 127.724 23.0533 126.539C17.3989 125.355 15.0104 129.134 16.199 132.856C17.2291 136.06 21.4289 138.722 24.6211 141.519C27.8133 144.317 33.7677 151.107 35.4204 157.61L38.6126 157.96L39.0541 152.54Z" fill="#5F80F8"/>
<g opacity="0.15">
<path opacity="0.15" d="M39.0541 152.54C38.7055 148.358 37.7365 144.25 36.1788 140.352C33.6148 134.052 28.7076 127.724 23.0533 126.539C17.3989 125.355 15.0104 129.134 16.199 132.856C17.2291 136.06 21.4289 138.722 24.6211 141.519C27.8133 144.317 33.7677 151.107 35.4204 157.61L38.6126 157.96L39.0541 152.54Z" fill="black"/>
</g>
<path d="M36.8634 155.461C36.7722 155.461 36.6847 155.426 36.6192 155.363C36.5537 155.3 36.5154 155.214 36.5125 155.123C35.9182 138.699 19.8098 129.517 19.6343 129.416C19.5576 129.367 19.5023 129.291 19.4798 129.203C19.4573 129.116 19.4694 129.023 19.5135 128.943C19.5576 128.864 19.6304 128.805 19.7171 128.777C19.8037 128.75 19.8976 128.756 19.9796 128.795C20.1494 128.891 36.6143 138.271 37.22 155.083C37.223 155.177 37.1891 155.267 37.1256 155.336C37.062 155.405 36.974 155.446 36.8804 155.45L36.8634 155.461Z" fill="white"/>
<path d="M41.5952 181.45C41.5952 181.45 38.3011 183.526 33.1505 182.64C31.485 182.42 29.933 181.677 28.7187 180.52C27.3886 179.155 27.1792 177.779 26.8057 175.951C26.7028 175.188 26.4406 174.454 26.0359 173.797C24.9039 172.285 22.7305 172.314 20.8966 171.919C18.293 171.355 15.8988 169.494 15.1461 166.95C14.3933 164.406 15.6158 161.31 18.0836 160.306L15.0555 158.371C14.1142 157.821 13.2436 157.158 12.4632 156.397C11.6842 155.622 11.2188 154.588 11.1558 153.493C11.1558 151.891 12.35 150.459 13.8216 149.804C15.3291 149.224 16.9648 149.057 18.559 149.319C20.174 149.516 21.7613 149.895 23.2908 150.447C23.7076 150.635 24.1581 150.736 24.6152 150.746C25.2102 150.641 25.7679 150.385 26.234 150.002C29.6979 147.746 35.3409 147.898 37.1974 152.196C37.4691 152.827 37.6332 153.504 37.9276 154.125C39.003 156.443 42.0311 155.743 43.9894 156.826C44.604 157.214 45.1255 157.732 45.5167 158.343C45.908 158.954 46.1595 159.644 46.2534 160.362C46.644 162.652 46.0044 165.264 45.5799 167.525C45.1554 169.787 44.6177 171.891 44.0007 174.034C43.497 175.805 42.9423 177.559 42.3537 179.302C42.2292 179.662 41.9575 181.225 41.5952 181.45Z" fill="#5F80F8"/>
<path d="M43.6666 176.16C41.9404 171.427 39.1054 167.173 35.3974 163.752C35.3588 163.67 35.2899 163.605 35.2049 163.572C34.1365 162.574 33.0162 161.632 31.8485 160.752C31.4073 157.706 31.7984 154.598 32.9805 151.756C33.0203 151.671 33.0248 151.574 32.9929 151.487C32.9611 151.399 32.8955 151.327 32.8107 151.288C32.7259 151.248 32.6288 151.244 32.5407 151.275C32.4526 151.307 32.3807 151.372 32.341 151.457C31.1687 154.197 30.7186 157.191 31.0335 160.154C26.2894 156.744 21.0264 154.116 15.4459 152.371C15.3551 152.348 15.2591 152.361 15.1778 152.407C15.0966 152.453 15.0364 152.529 15.01 152.619C14.9972 152.664 14.9935 152.71 14.9991 152.757C15.0048 152.803 15.0196 152.848 15.0428 152.888C15.066 152.929 15.0971 152.964 15.1342 152.992C15.1714 153.021 15.2138 153.041 15.2591 153.053C15.4062 153.092 25.4471 155.935 33.756 163.205C28.662 162.319 22.5888 164.767 22.3114 164.897C22.2335 164.926 22.1685 164.982 22.1281 165.054C22.0877 165.127 22.0744 165.212 22.0907 165.293C22.1071 165.374 22.1519 165.447 22.2172 165.499C22.2825 165.55 22.3641 165.577 22.4473 165.574C22.4922 165.582 22.5382 165.582 22.5831 165.574C22.651 165.54 29.7883 162.664 34.8314 164.226C38.494 167.573 41.3002 171.744 43.0157 176.391C43.0394 176.461 43.0844 176.521 43.1444 176.563C43.2043 176.606 43.2761 176.629 43.3497 176.628H43.4685C43.5132 176.611 43.554 176.586 43.5884 176.553C43.6228 176.52 43.6502 176.48 43.6687 176.437C43.6872 176.393 43.6966 176.346 43.6963 176.298C43.6959 176.251 43.6858 176.204 43.6666 176.16Z" fill="white"/>
<path d="M41.7085 180.96C41.7687 181.785 42.0236 182.584 42.4524 183.293C42.8812 184.002 43.4719 184.599 44.1763 185.037L113.2 224.732C113.963 225.118 114.806 225.319 115.662 225.319C116.518 225.319 117.361 225.118 118.124 224.732L212.55 170.407C213.292 170.014 213.914 169.428 214.347 168.71C214.78 167.992 215.009 167.17 215.009 166.332C215.009 165.495 214.78 164.673 214.347 163.955C213.914 163.237 213.292 162.65 212.55 162.257L143.538 122.552C142.774 122.168 141.931 121.968 141.075 121.968C140.22 121.968 139.377 122.168 138.613 122.552L44.1763 176.888C43.4723 177.325 42.8819 177.922 42.4531 178.629C42.0243 179.337 41.7691 180.135 41.7085 180.96Z" fill="#37474F"/>
<path d="M115.651 220.017V225.324C114.795 225.348 113.948 225.154 113.189 224.76L44.1481 185.037C43.4266 184.658 42.8188 184.096 42.3867 183.406C41.9546 182.717 41.7136 181.926 41.6883 181.114C41.6629 180.301 41.8542 179.497 42.2426 178.782C42.6309 178.068 43.2025 177.468 43.899 177.045C42.7953 177.835 42.8802 178.991 44.1481 179.719L113.2 219.424C113.953 219.826 114.797 220.03 115.651 220.017Z" fill="#263238"/>
<path d="M39.3991 176.972C38.7136 176.507 38.1474 175.889 37.7462 175.165C37.3451 174.442 37.1202 173.635 37.0898 172.81V90.7422C37.1363 89.8913 37.3834 89.0632 37.8112 88.3253C38.239 87.5874 38.8354 86.9604 39.5519 86.4953L133.978 32.1708C134.711 31.7831 135.525 31.5729 136.355 31.5572C137.185 31.5415 138.007 31.7208 138.755 32.0806C139.44 32.5453 140.006 33.1642 140.408 33.8872C140.809 34.6103 141.034 35.4172 141.064 36.2429V118.311C141.018 119.161 140.77 119.989 140.343 120.727C139.915 121.465 139.318 122.092 138.602 122.557L44.1762 176.888C43.4421 177.273 42.6274 177.482 41.7977 177.496C40.9681 177.511 40.1465 177.331 39.3991 176.972Z" fill="#455A64"/>
<path d="M43.8818 177.034C43.1752 177.35 42.4079 177.508 41.6336 177.497C40.8593 177.486 40.0967 177.307 39.3991 176.972C38.7136 176.507 38.1474 175.889 37.7462 175.165C37.3451 174.442 37.1202 173.635 37.0898 172.81V90.7422C37.1169 89.8885 37.3666 89.0566 37.8143 88.3283L42.4329 90.9791C41.9891 91.7092 41.7398 92.54 41.7084 93.393V175.466C41.7084 176.921 42.6593 177.57 43.8818 177.034Z" fill="#263238"/>
<path d="M41.7085 93.4043V175.466C41.7085 177.034 42.8405 177.666 44.1763 176.888L138.602 122.557C139.319 122.092 139.915 121.465 140.343 120.727C140.771 119.989 141.018 119.161 141.064 118.311V36.2429C141.064 34.6806 139.96 34.0433 138.602 34.8273L44.1763 89.1517C43.4579 89.6168 42.86 90.2444 42.4311 90.9834C42.0023 91.7224 41.7547 92.5519 41.7085 93.4043Z" fill="#37474F"/>
<path d="M44.1759 179.719L113.2 219.424C113.963 219.808 114.806 220.008 115.662 220.008C116.517 220.008 117.36 219.808 118.124 219.424L212.55 165.1C213.914 164.316 213.914 163.047 212.55 162.28L143.537 122.574C142.774 122.191 141.93 121.991 141.075 121.991C140.22 121.991 139.377 122.191 138.613 122.574L44.1759 176.888C42.8118 177.666 42.8118 178.935 44.1759 179.719Z" fill="#455A64"/>
<path d="M45.5005 93.7089L136.542 41.3415C137.357 40.8734 138.019 41.2569 138.019 42.1931V113.257C137.991 113.768 137.842 114.265 137.585 114.707C137.329 115.15 136.971 115.527 136.542 115.806L45.5005 168.146C44.6798 168.614 44.0176 168.236 44.0176 167.294V96.23C44.0491 95.7233 44.1997 95.2311 44.4573 94.7932C44.7149 94.3553 45.0723 93.9838 45.5005 93.7089Z" fill="#FAFAFA"/>
<path d="M52.1852 177.593L139.836 127.16C140.217 126.965 140.639 126.864 141.067 126.864C141.495 126.864 141.917 126.965 142.298 127.16L146.781 129.737C146.928 129.789 147.055 129.884 147.146 130.011C147.236 130.138 147.284 130.29 147.284 130.445C147.284 130.6 147.236 130.752 147.146 130.879C147.055 131.006 146.928 131.101 146.781 131.153L59.1187 181.58C58.7377 181.775 58.3157 181.876 57.8877 181.876C57.4596 181.876 57.0376 181.775 56.6566 181.58L52.1852 179.008C52.038 178.957 51.9105 178.861 51.8203 178.734C51.7301 178.607 51.6816 178.456 51.6816 178.3C51.6816 178.145 51.7301 177.993 51.8203 177.867C51.9105 177.74 52.038 177.644 52.1852 177.593Z" fill="#37474F"/>
<path d="M63.7374 184.242L151.388 133.815C151.77 133.623 152.192 133.523 152.619 133.523C153.047 133.523 153.468 133.623 153.85 133.815L181.426 149.68C181.573 149.732 181.7 149.827 181.791 149.954C181.881 150.081 181.929 150.233 181.929 150.388C181.929 150.543 181.881 150.695 181.791 150.822C181.7 150.949 181.573 151.044 181.426 151.096L93.8769 201.45C93.4945 201.643 93.0717 201.744 92.643 201.744C92.2142 201.744 91.7915 201.643 91.4091 201.45L63.743 185.658C63.5929 185.61 63.462 185.515 63.3688 185.389C63.2757 185.262 63.2252 185.109 63.2246 184.952C63.224 184.795 63.2732 184.642 63.3653 184.514C63.4574 184.387 63.5877 184.291 63.7374 184.242Z" fill="#263238"/>
<path d="M142.309 156.488L145.049 154.914C145.168 154.846 145.162 154.734 145.049 154.66L141.873 152.833C141.806 152.798 141.731 152.78 141.656 152.78C141.58 152.78 141.505 152.798 141.438 152.833L138.693 154.412C138.574 154.474 138.579 154.587 138.693 154.66L141.862 156.488C141.931 156.523 142.008 156.542 142.086 156.542C142.163 156.542 142.24 156.523 142.309 156.488ZM136.893 150.216L134.142 151.806C134.023 151.874 134.034 151.987 134.142 152.06L137.311 153.882C137.38 153.917 137.455 153.935 137.532 153.935C137.609 153.935 137.685 153.917 137.753 153.882L140.498 152.303C140.611 152.235 140.606 152.122 140.498 152.049L137.323 150.227C137.256 150.194 137.182 150.176 137.108 150.176C137.033 150.176 136.959 150.194 136.893 150.227V150.216ZM128.023 155.36L123.382 158.027C123.263 158.095 123.269 158.208 123.382 158.281L126.552 160.109C126.621 160.142 126.696 160.159 126.773 160.159C126.849 160.159 126.925 160.142 126.993 160.109L131.634 157.441C131.753 157.373 131.742 157.26 131.634 157.187L128.482 155.36C128.411 155.322 128.333 155.303 128.253 155.303C128.173 155.303 128.094 155.322 128.023 155.36ZM132.88 152.54L130.135 154.119C130.021 154.187 130.027 154.299 130.135 154.373L133.31 156.2C133.378 156.233 133.452 156.251 133.528 156.251C133.603 156.251 133.678 156.233 133.746 156.2L136.491 154.621C136.604 154.553 136.598 154.44 136.491 154.373L133.315 152.54C133.248 152.505 133.173 152.487 133.098 152.487C133.022 152.487 132.947 152.505 132.88 152.54ZM122.126 158.744L119.381 160.317C119.267 160.385 119.273 160.498 119.381 160.571L122.556 162.398C122.623 162.433 122.698 162.451 122.774 162.451C122.85 162.451 122.924 162.433 122.992 162.398L125.737 160.819C125.85 160.757 125.844 160.644 125.737 160.571L122.55 158.744C122.483 158.709 122.408 158.691 122.332 158.691C122.256 158.691 122.182 158.709 122.114 158.744H122.126ZM118.113 161.05L115.373 162.63C115.254 162.692 115.26 162.804 115.373 162.878L118.549 164.705C118.616 164.738 118.691 164.756 118.766 164.756C118.842 164.756 118.917 164.738 118.984 164.705L121.729 163.126C121.848 163.058 121.837 162.945 121.729 162.872L118.56 161.045C118.49 161.006 118.411 160.986 118.331 160.985C118.251 160.984 118.172 161.003 118.101 161.039L118.113 161.05ZM130.599 168.473L133.344 166.893C133.457 166.826 133.451 166.713 133.344 166.64L130.169 164.818C130.101 164.783 130.026 164.765 129.951 164.765C129.875 164.765 129.8 164.783 129.733 164.818L126.988 166.397C126.869 166.465 126.88 166.578 126.988 166.651L130.157 168.473C130.225 168.504 130.299 168.519 130.374 168.517C130.448 168.515 130.521 168.496 130.587 168.461L130.599 168.473ZM126.586 170.779L129.331 169.2C129.45 169.133 129.438 169.02 129.331 168.946L126.161 167.125C126.093 167.09 126.017 167.072 125.941 167.072C125.864 167.072 125.788 167.09 125.72 167.125L122.975 168.704C122.861 168.772 122.867 168.884 122.975 168.958L126.15 170.785C126.217 170.814 126.291 170.828 126.364 170.825C126.438 170.822 126.509 170.802 126.574 170.768L126.586 170.779ZM122.573 173.086L125.318 171.507C125.437 171.439 125.431 171.327 125.318 171.259L122.148 169.431C122.081 169.397 122.006 169.379 121.93 169.379C121.855 169.379 121.78 169.397 121.713 169.431L118.967 171.011C118.849 171.078 118.854 171.191 118.967 171.264L122.143 173.092C122.209 173.12 122.282 173.133 122.354 173.13C122.426 173.127 122.497 173.108 122.562 173.075L122.573 173.086ZM118.566 175.393L121.311 173.814C121.424 173.752 121.418 173.639 121.311 173.566L118.107 171.716C118.04 171.681 117.965 171.663 117.889 171.663C117.813 171.663 117.739 171.681 117.671 171.716L114.926 173.289C114.807 173.357 114.819 173.47 114.926 173.543L118.096 175.37C118.165 175.41 118.244 175.431 118.324 175.433C118.404 175.435 118.483 175.417 118.554 175.382L118.566 175.393ZM138.308 158.823L141.053 157.243C141.166 157.176 141.16 157.063 141.053 156.99L137.877 155.162C137.81 155.129 137.735 155.112 137.66 155.112C137.584 155.112 137.509 155.129 137.442 155.162L134.697 156.741C134.583 156.809 134.589 156.922 134.697 156.99L137.872 158.817C137.938 158.848 138.011 158.863 138.085 158.862C138.158 158.861 138.23 158.844 138.296 158.811L138.308 158.823ZM134.606 166.155L140.73 162.63C140.849 162.562 140.838 162.449 140.73 162.381L133.01 157.948C132.941 157.914 132.866 157.896 132.789 157.896C132.712 157.896 132.637 157.914 132.568 157.948L129.404 159.77C129.286 159.838 129.291 159.951 129.404 160.024L133.48 162.37C133.61 162.444 133.615 162.556 133.48 162.618L130.95 164.079C130.831 164.147 130.836 164.26 130.95 164.333L134.125 166.155C134.196 166.195 134.277 166.216 134.36 166.216C134.442 166.216 134.523 166.195 134.595 166.155H134.606ZM114.105 163.335L111.36 164.914C111.242 164.982 111.253 165.094 111.36 165.162L114.53 166.989C114.598 167.024 114.674 167.042 114.751 167.042C114.827 167.042 114.903 167.024 114.971 166.989L117.711 165.41C117.83 165.342 117.824 165.23 117.711 165.156L114.536 163.329C114.466 163.297 114.39 163.282 114.313 163.285C114.236 163.288 114.161 163.309 114.094 163.346L114.105 163.335ZM110.093 165.641L107.347 167.221C107.234 167.288 107.24 167.401 107.347 167.474L110.523 169.296C110.59 169.331 110.665 169.349 110.741 169.349C110.816 169.349 110.891 169.331 110.959 169.296L113.704 167.717C113.817 167.649 113.811 167.536 113.704 167.463L110.528 165.641C110.459 165.607 110.381 165.589 110.303 165.591C110.225 165.593 110.149 165.614 110.081 165.653L110.093 165.641ZM90.0505 191.518C90.1182 191.551 90.1928 191.568 90.2684 191.568C90.344 191.568 90.4185 191.551 90.4863 191.518L93.2314 189.939C93.3503 189.871 93.3446 189.758 93.2314 189.69L90.0618 187.863C89.993 187.83 89.9175 187.812 89.8411 187.812C89.7646 187.812 89.6891 187.83 89.6203 187.863L86.8809 189.442C86.762 189.51 86.7677 189.623 86.8809 189.696L90.0505 191.518ZM77.9947 184.124L75.2496 185.703C75.1364 185.771 75.142 185.883 75.2496 185.957L78.4248 187.778C78.4922 187.813 78.5669 187.831 78.6427 187.831C78.7186 187.831 78.7933 187.813 78.8607 187.778L81.6058 186.199C81.719 186.132 81.7133 186.019 81.6058 185.945L78.4305 184.124C78.3631 184.089 78.2884 184.071 78.2126 184.071C78.1368 184.071 78.0621 184.089 77.9947 184.124ZM84.4527 189.538C84.5205 189.571 84.5951 189.589 84.6706 189.589C84.7462 189.589 84.8208 189.571 84.8886 189.538L87.6337 187.959C87.7469 187.891 87.7412 187.778 87.6337 187.705L84.4584 185.878C84.391 185.843 84.3163 185.825 84.2405 185.825C84.1647 185.825 84.09 185.843 84.0226 185.878L81.2775 187.457C81.1643 187.525 81.1699 187.632 81.2775 187.705L84.4527 189.538ZM97.1198 192.922L99.8649 191.343C99.9838 191.281 99.9725 191.168 99.8649 191.095L96.6953 189.267C96.6269 189.233 96.5513 189.215 96.4746 189.215C96.3978 189.215 96.3222 189.233 96.2538 189.267L93.5087 190.841C93.3955 190.909 93.4012 191.021 93.5087 191.095L96.684 192.922C96.7509 192.958 96.8254 192.977 96.9012 192.978C96.977 192.979 97.052 192.961 97.1198 192.928V192.922ZM92.6711 195.223C92.7398 195.257 92.8153 195.274 92.8918 195.274C92.9683 195.274 93.0438 195.257 93.1125 195.223L95.852 193.644C95.9708 193.576 95.9652 193.464 95.852 193.39L92.6767 191.563C92.6093 191.528 92.5346 191.51 92.4588 191.51C92.383 191.51 92.3083 191.528 92.2409 191.563L89.4845 193.148C89.3656 193.21 89.3713 193.323 89.4845 193.396L92.6711 195.223ZM82.0076 181.8L79.2625 183.379C79.1437 183.447 79.1493 183.56 79.2625 183.627L82.4321 185.455C82.4995 185.489 82.5742 185.507 82.65 185.507C82.7258 185.507 82.8006 185.489 82.8679 185.455L85.613 183.876C85.7319 183.808 85.7262 183.695 85.613 183.622L82.4378 181.794C82.3699 181.764 82.2959 181.749 82.2214 181.751C82.1469 181.753 82.0738 181.771 82.0076 181.806V181.8ZM102.061 170.261L99.3159 171.84C99.197 171.907 99.2084 172.02 99.3159 172.094L102.485 173.915C102.554 173.95 102.63 173.968 102.706 173.968C102.783 173.968 102.859 173.95 102.927 173.915L105.672 172.336C105.785 172.268 105.78 172.156 105.672 172.082L102.497 170.261C102.429 170.227 102.354 170.21 102.278 170.211C102.202 170.212 102.128 170.231 102.061 170.266V170.261ZM86.0319 179.499L83.2868 181.078C83.1736 181.146 83.1792 181.259 83.2868 181.326L86.462 183.154C86.5294 183.188 86.6041 183.206 86.6799 183.206C86.7558 183.206 86.8305 183.188 86.8979 183.154L89.643 181.574C89.7618 181.507 89.7505 181.394 89.643 181.321L86.4734 179.493C86.4042 179.461 86.3285 179.444 86.252 179.445C86.1755 179.446 86.1002 179.465 86.0319 179.499ZM106.085 167.959L103.346 169.539C103.227 169.606 103.233 169.719 103.346 169.792L106.521 171.614C106.588 171.649 106.663 171.667 106.739 171.667C106.815 171.667 106.89 171.649 106.957 171.614L109.702 170.035C109.821 169.967 109.815 169.854 109.702 169.781L106.532 167.959C106.461 167.921 106.381 167.901 106.3 167.901C106.219 167.901 106.14 167.921 106.068 167.959H106.085ZM98.065 172.573L95.3199 174.152C95.2067 174.22 95.2124 174.333 95.3199 174.406L98.4839 176.228C98.5516 176.261 98.6262 176.278 98.7018 176.278C98.7774 176.278 98.8519 176.261 98.9197 176.228L101.665 174.648C101.784 174.581 101.772 174.468 101.665 174.4L98.4839 172.584C98.4174 172.548 98.3432 172.528 98.2673 172.526C98.1915 172.524 98.1163 172.54 98.048 172.573H98.065ZM94.0577 174.88L91.3127 176.459C91.1938 176.527 91.1995 176.639 91.3127 176.713L94.4879 178.54C94.5553 178.575 94.63 178.593 94.7058 178.593C94.7816 178.593 94.8564 178.575 94.9237 178.54L97.6688 176.961C97.7877 176.893 97.782 176.78 97.6688 176.713L94.4936 174.885C94.4241 174.848 94.3467 174.829 94.2679 174.828C94.1891 174.827 94.1112 174.844 94.0408 174.88H94.0577ZM90.0448 177.192L87.2997 178.771C87.1809 178.833 87.1922 178.946 87.2997 179.019L90.4693 180.847C90.5377 180.882 90.6133 180.9 90.6901 180.9C90.7668 180.9 90.8424 180.882 90.9108 180.847L93.6559 179.273C93.7691 179.206 93.7634 179.093 93.6559 179.019L90.4806 177.192C90.4111 177.155 90.3333 177.135 90.2542 177.135C90.1752 177.135 90.0974 177.155 90.0278 177.192H90.0448ZM110.545 180.012L113.29 178.433C113.409 178.365 113.404 178.252 113.29 178.179L110.115 176.352C110.047 176.318 109.973 176.301 109.897 176.301C109.822 176.301 109.747 176.318 109.679 176.352L106.934 177.931C106.815 177.999 106.821 178.111 106.934 178.179L110.11 180.006C110.175 180.037 110.247 180.053 110.32 180.052C110.392 180.051 110.464 180.034 110.528 180.001L110.545 180.012ZM145.773 145.14L143.028 146.719C142.915 146.787 142.921 146.9 143.028 146.967L146.203 148.795C146.271 148.829 146.345 148.847 146.421 148.847C146.497 148.847 146.572 148.829 146.639 148.795L149.384 147.216C149.503 147.148 149.492 147.035 149.384 146.962L146.215 145.134C146.144 145.097 146.066 145.078 145.986 145.077C145.906 145.076 145.828 145.093 145.756 145.129L145.773 145.14ZM140.917 147.932L138.177 149.511C138.059 149.579 138.064 149.691 138.177 149.765L141.353 151.587C141.42 151.621 141.495 151.639 141.571 151.639C141.646 151.639 141.721 151.621 141.789 151.587L144.534 150.007C144.652 149.94 144.647 149.827 144.534 149.754L141.364 147.932C141.294 147.892 141.214 147.869 141.133 147.867C141.052 147.866 140.972 147.884 140.9 147.921L140.917 147.932ZM149.786 142.856L147.041 144.435C146.922 144.497 146.933 144.61 147.041 144.683L150.211 146.511C150.279 146.544 150.355 146.561 150.431 146.561C150.508 146.561 150.583 146.544 150.652 146.511L153.397 144.931C153.51 144.864 153.505 144.751 153.397 144.678L150.222 142.85C150.155 142.808 150.078 142.784 149.999 142.779C149.92 142.774 149.841 142.789 149.769 142.822L149.786 142.856ZM129.025 164.186L131.77 162.607C131.884 162.539 131.878 162.427 131.77 162.353L128.595 160.532C128.528 160.497 128.453 160.479 128.377 160.479C128.301 160.479 128.227 160.497 128.159 160.532L125.414 162.111C125.301 162.178 125.307 162.291 125.414 162.365L128.589 164.186C128.657 164.213 128.73 164.224 128.803 164.218C128.875 164.212 128.946 164.19 129.008 164.152L129.025 164.186ZM154.235 140.555C154.166 140.52 154.091 140.502 154.014 140.502C153.937 140.502 153.862 140.52 153.793 140.555L151.054 142.128C150.935 142.196 150.941 142.309 151.054 142.382L154.229 144.209C154.297 144.244 154.371 144.262 154.447 144.262C154.523 144.262 154.598 144.244 154.665 144.209L157.41 142.63C157.529 142.568 157.523 142.455 157.41 142.382L154.235 140.555ZM114.558 177.722L117.303 176.149C117.422 176.081 117.411 175.968 117.303 175.895L114.134 174.068C114.065 174.033 113.99 174.015 113.913 174.015C113.836 174.015 113.761 174.033 113.692 174.068L110.936 175.607C110.823 175.669 110.828 175.782 110.936 175.855L114.111 177.683C114.177 177.717 114.251 177.736 114.326 177.737C114.4 177.738 114.474 177.721 114.541 177.688L114.558 177.722ZM163.744 149.426L166.489 147.847C166.608 147.78 166.596 147.667 166.489 147.599L163.319 145.772C163.251 145.737 163.175 145.719 163.098 145.719C163.022 145.719 162.946 145.737 162.878 145.772L160.138 147.351C160.019 147.419 160.025 147.531 160.138 147.605L163.314 149.432C163.381 149.456 163.453 149.465 163.524 149.458C163.596 149.451 163.665 149.429 163.727 149.393L163.744 149.426ZM155.203 149.127L157.948 147.548C158.061 147.481 158.055 147.368 157.948 147.294L154.773 145.473C154.705 145.438 154.63 145.42 154.555 145.42C154.479 145.42 154.404 145.438 154.337 145.473L151.592 147.052C151.473 147.12 151.484 147.232 151.592 147.306L154.761 149.127C154.83 149.154 154.904 149.165 154.977 149.159C155.051 149.153 155.122 149.131 155.186 149.094L155.203 149.127ZM158.769 143.166C158.7 143.131 158.625 143.113 158.548 143.113C158.471 143.113 158.395 143.131 158.327 143.166L155.588 144.745C155.469 144.813 155.474 144.926 155.588 144.999L158.763 146.821C158.83 146.855 158.905 146.873 158.981 146.873C159.057 146.873 159.131 146.855 159.199 146.821L161.944 145.242C162.063 145.174 162.057 145.061 161.944 144.988L158.769 143.166ZM159.612 142.675L167.321 147.114C167.389 147.147 167.463 147.165 167.539 147.165C167.614 147.165 167.689 147.147 167.757 147.114L170.502 145.535C170.615 145.467 170.609 145.354 170.502 145.287L162.793 140.848C162.725 140.815 162.65 140.797 162.575 140.797C162.499 140.797 162.425 140.815 162.357 140.848L159.612 142.427C159.465 142.461 159.47 142.574 159.612 142.641V142.675ZM150.307 147.751L147.562 149.331C147.449 149.398 147.454 149.511 147.562 149.584L150.737 151.406C150.804 151.441 150.879 151.459 150.955 151.459C151.031 151.459 151.105 151.441 151.173 151.406L153.918 149.827C154.037 149.759 154.025 149.646 153.918 149.573L150.748 147.751C150.679 147.711 150.601 147.689 150.521 147.686C150.441 147.683 150.362 147.699 150.29 147.734L150.307 147.751ZM120.105 165.1L117.36 166.679C117.241 166.747 117.252 166.86 117.36 166.933L120.53 168.76C120.598 168.795 120.674 168.813 120.75 168.813C120.827 168.813 120.903 168.795 120.971 168.76L123.71 167.181C123.829 167.113 123.824 167.006 123.71 166.933L120.558 165.111C120.489 165.073 120.412 165.053 120.333 165.051C120.254 165.049 120.176 165.066 120.105 165.1ZM159.278 151.694C159.346 151.728 159.422 151.746 159.499 151.746C159.575 151.746 159.651 151.728 159.719 151.694L162.465 150.114C162.578 150.052 162.572 149.94 162.465 149.866L159.272 148.028C159.204 147.994 159.13 147.977 159.054 147.977C158.979 147.977 158.904 147.994 158.836 148.028L156.091 149.607C155.972 149.675 155.984 149.787 156.091 149.861L159.278 151.694ZM124.112 162.793L121.373 164.372C121.254 164.44 121.26 164.553 121.373 164.626L124.548 166.454C124.616 166.487 124.69 166.504 124.766 166.504C124.842 166.504 124.916 166.487 124.984 166.454L127.729 164.874C127.848 164.807 127.842 164.694 127.729 164.626L124.559 162.799C124.491 162.762 124.414 162.743 124.337 162.742C124.259 162.741 124.182 162.758 124.112 162.793ZM94.0521 189.2C94.1199 189.233 94.1944 189.25 94.27 189.25C94.3456 189.25 94.4201 189.233 94.4879 189.2L97.233 187.62C97.3462 187.553 97.3405 187.44 97.233 187.372L94.0577 185.545C93.9904 185.51 93.9157 185.492 93.8398 185.492C93.764 185.492 93.6893 185.51 93.6219 185.545L90.8768 187.124C90.7636 187.192 90.7693 187.305 90.8768 187.378L94.0521 189.2ZM88.0185 183.56L85.2734 185.133C85.1546 185.201 85.1602 185.314 85.2734 185.387L88.443 187.214C88.5114 187.249 88.587 187.267 88.6638 187.267C88.7405 187.267 88.8161 187.249 88.8845 187.214L91.624 185.635C91.7428 185.573 91.7372 185.46 91.624 185.387L88.4544 183.56C88.387 183.525 88.3123 183.507 88.2364 183.507C88.1606 183.507 88.0859 183.525 88.0185 183.56ZM98.4839 186.944L101.223 185.364C101.342 185.297 101.337 185.184 101.223 185.111L98.048 183.289C97.9807 183.254 97.906 183.236 97.8301 183.236C97.7543 183.236 97.6796 183.254 97.6122 183.289L94.8671 184.868C94.7483 184.936 94.7539 185.049 94.8671 185.122L98.0367 186.944C98.1058 186.979 98.1825 186.998 98.2603 186.998C98.3381 186.998 98.4148 186.979 98.4839 186.944ZM102.491 184.637L105.236 183.058C105.355 182.99 105.344 182.877 105.236 182.804L102.067 180.982C101.998 180.948 101.923 180.929 101.846 180.929C101.769 180.929 101.694 180.948 101.625 180.982L98.8801 182.561C98.7669 182.629 98.7725 182.742 98.8801 182.815L102.055 184.637C102.127 184.671 102.206 184.687 102.285 184.683C102.364 184.679 102.441 184.655 102.508 184.614L102.491 184.637ZM106.504 182.33L109.249 180.751C109.362 180.683 109.357 180.57 109.249 180.497L106.074 178.67C106.006 178.636 105.932 178.619 105.856 178.619C105.78 178.619 105.706 178.636 105.638 178.67L102.893 180.249C102.774 180.317 102.785 180.429 102.893 180.497L106.063 182.325C106.135 182.359 106.214 182.376 106.294 182.373C106.374 182.37 106.452 182.348 106.521 182.308L106.504 182.33ZM92.0088 181.275L89.2637 182.855C89.1505 182.922 89.1562 183.035 89.2637 183.108L92.439 184.936C92.5068 184.969 92.5813 184.986 92.6569 184.986C92.7325 184.986 92.807 184.969 92.8748 184.936L95.6199 183.357C95.7388 183.289 95.7275 183.176 95.6199 183.108L92.4503 181.281C92.3859 181.246 92.3145 181.225 92.2412 181.22C92.1679 181.215 92.0943 181.226 92.0258 181.253L92.0088 181.275ZM96.0218 178.969L93.2767 180.548C93.1578 180.616 93.1691 180.728 93.2767 180.802L96.4463 182.629C96.515 182.662 96.5905 182.68 96.667 182.68C96.7435 182.68 96.819 182.662 96.8877 182.629L99.6329 181.05C99.7461 180.982 99.7404 180.869 99.6329 180.802L96.4576 178.974C96.3946 178.938 96.3241 178.917 96.2515 178.912C96.1788 178.907 96.1061 178.919 96.0387 178.946L96.0218 178.969ZM112.068 169.719L109.328 171.298C109.21 171.366 109.215 171.479 109.328 171.546L112.504 173.374C112.571 173.408 112.646 173.427 112.722 173.427C112.797 173.427 112.872 173.408 112.94 173.374L115.685 171.795C115.803 171.727 115.798 171.614 115.685 171.541L112.515 169.713C112.445 169.68 112.368 169.663 112.291 169.664C112.213 169.665 112.137 169.684 112.068 169.719ZM108.061 172.026L105.315 173.605C105.197 173.673 105.208 173.786 105.315 173.853L108.485 175.681C108.553 175.715 108.629 175.733 108.706 175.733C108.783 175.733 108.858 175.715 108.927 175.681L111.672 174.101C111.785 174.034 111.779 173.921 111.672 173.848L108.496 172.02C108.43 171.99 108.357 171.974 108.284 171.975C108.21 171.976 108.138 171.993 108.072 172.026H108.061ZM116.081 167.412L113.336 168.992C113.223 169.054 113.228 169.166 113.336 169.24L116.511 171.067C116.578 171.102 116.653 171.12 116.729 171.12C116.805 171.12 116.879 171.102 116.947 171.067L119.692 169.494C119.805 169.426 119.799 169.313 119.692 169.24L116.517 167.412C116.451 167.38 116.378 167.363 116.304 167.363C116.231 167.363 116.158 167.38 116.092 167.412H116.081ZM100.04 176.639L97.2953 178.219C97.1764 178.286 97.1821 178.399 97.2953 178.472L100.471 180.294C100.538 180.329 100.613 180.347 100.688 180.347C100.764 180.347 100.839 180.329 100.906 180.294L103.651 178.715C103.77 178.647 103.765 178.534 103.651 178.461L100.476 176.639C100.41 176.607 100.338 176.59 100.264 176.59C100.19 176.59 100.118 176.607 100.052 176.639H100.04ZM104.048 174.333L101.303 175.912C101.189 175.98 101.195 176.092 101.303 176.166L104.478 177.987C104.545 178.022 104.62 178.04 104.696 178.04C104.772 178.04 104.846 178.022 104.914 177.987L107.659 176.408C107.778 176.34 107.766 176.228 107.659 176.154L104.483 174.333C104.418 174.3 104.345 174.283 104.271 174.283C104.198 174.283 104.125 174.3 104.059 174.333H104.048ZM101.121 190.621L103.867 189.042C103.98 188.974 103.974 188.861 103.867 188.794L100.686 186.944C100.618 186.909 100.544 186.891 100.468 186.891C100.392 186.891 100.317 186.909 100.25 186.944L97.5047 188.523C97.3858 188.591 97.3972 188.703 97.5047 188.777L100.674 190.604C100.744 190.643 100.822 190.665 100.901 190.668C100.981 190.67 101.06 190.655 101.133 190.621H101.121ZM77.5815 188.252L74.4119 186.43C74.3435 186.396 74.2679 186.378 74.1912 186.378C74.1144 186.378 74.0388 186.396 73.9704 186.43L71.2253 188.01C71.1121 188.077 71.1178 188.19 71.2253 188.263L74.4006 190.085C74.468 190.12 74.5427 190.138 74.6185 190.138C74.6943 190.138 74.769 190.12 74.8364 190.085L77.5815 188.506C77.7287 188.438 77.7173 188.325 77.5928 188.252H77.5815ZM83.5924 190.012L80.4228 188.184C80.3541 188.151 80.2786 188.134 80.2021 188.134C80.1256 188.134 80.0501 188.151 79.9813 188.184L75.759 190.61C75.6458 190.677 75.6514 190.79 75.759 190.863L78.9342 192.691C79.0016 192.725 79.0763 192.744 79.1521 192.744C79.228 192.744 79.3027 192.725 79.3701 192.691L83.5924 190.266C83.7679 190.198 83.7283 190.085 83.6037 190.012H83.5924ZM72.7139 184.727L69.5443 182.9C69.4759 182.865 69.4003 182.847 69.3236 182.847C69.2468 182.847 69.1712 182.865 69.1028 182.9L65.7068 184.846C65.5936 184.913 65.5993 185.026 65.7068 185.094L68.8821 186.921C68.9495 186.956 69.0242 186.974 69.1 186.974C69.1758 186.974 69.2505 186.956 69.3179 186.921L72.7139 184.975C72.8611 184.908 72.8497 184.795 72.7252 184.727H72.7139ZM75.3062 183.233C75.3736 183.267 75.4483 183.285 75.5241 183.285C75.5999 183.285 75.6746 183.267 75.742 183.233L78.4871 181.653C78.6003 181.586 78.5946 181.473 78.4871 181.4L75.3062 179.612C75.2388 179.577 75.1641 179.559 75.0883 179.559C75.0124 179.559 74.9377 179.577 74.8704 179.612L72.1253 181.191C72.0121 181.259 72.0177 181.371 72.1253 181.445L75.3062 183.233ZM89.1958 192.02L86.0319 190.187C85.9645 190.152 85.8898 190.134 85.814 190.134C85.7382 190.134 85.6634 190.152 85.5961 190.187L80.3153 193.221C80.2021 193.289 80.2077 193.401 80.3153 193.475L83.4905 195.297C83.5579 195.331 83.6326 195.349 83.7084 195.349C83.7843 195.349 83.859 195.331 83.9264 195.297L89.2015 192.262C89.326 192.2 89.3203 192.087 89.1958 192.02ZM91.8277 195.72L88.6525 193.892C88.5847 193.859 88.5101 193.841 88.4345 193.841C88.359 193.841 88.2844 193.859 88.2166 193.892L84.8206 195.832C84.7074 195.9 84.7131 196.013 84.8206 196.086L87.9959 197.913C88.0637 197.947 88.1382 197.964 88.2138 197.964C88.2894 197.964 88.3639 197.947 88.4317 197.913L91.8277 195.973C91.9579 195.9 91.9522 195.787 91.8277 195.714V195.72ZM105.134 166.076C105.203 166.109 105.279 166.126 105.355 166.126C105.432 166.126 105.507 166.109 105.576 166.076L108.321 164.496C108.434 164.429 108.428 164.316 108.321 164.248L105.146 162.421C105.078 162.386 105.004 162.368 104.928 162.368C104.852 162.368 104.777 162.386 104.71 162.421L101.965 164C101.846 164.068 101.857 164.181 101.965 164.254L105.134 166.076ZM97.1142 170.689C97.1825 170.724 97.2582 170.742 97.3349 170.742C97.4116 170.742 97.4873 170.724 97.5556 170.689L100.295 169.11C100.414 169.048 100.408 168.935 100.295 168.862L97.1198 167.034C97.052 167.001 96.9775 166.984 96.9019 166.984C96.8263 166.984 96.7518 167.001 96.684 167.034L93.9559 168.614C93.837 168.681 93.8427 168.794 93.9559 168.867L97.1142 170.689ZM79.3248 180.92C79.3932 180.955 79.4688 180.973 79.5455 180.973C79.6222 180.973 79.6979 180.955 79.7663 180.92L82.5057 179.341C82.6246 179.273 82.6189 179.16 82.5057 179.087L79.3304 177.265C79.2631 177.231 79.1883 177.213 79.1125 177.213C79.0367 177.213 78.962 177.231 78.8946 177.265L76.1495 178.845C76.0307 178.912 76.042 179.025 76.1495 179.098L79.3248 180.92ZM101.127 168.382C101.195 168.416 101.269 168.433 101.345 168.433C101.421 168.433 101.495 168.416 101.563 168.382L104.308 166.803C104.427 166.736 104.416 166.623 104.308 166.555L101.138 164.728C101.07 164.693 100.994 164.675 100.918 164.675C100.841 164.675 100.765 164.693 100.697 164.728L97.9518 166.307C97.8386 166.375 97.8443 166.487 97.9518 166.561L101.127 168.382ZM93.1069 172.996C93.1743 173.031 93.249 173.049 93.3248 173.049C93.4006 173.049 93.4753 173.031 93.5427 172.996L96.2878 171.422C96.401 171.355 96.3953 171.242 96.2878 171.169L93.1125 169.341C93.0451 169.307 92.9704 169.289 92.8946 169.289C92.8188 169.289 92.7441 169.307 92.6767 169.341L89.9316 170.92C89.8184 170.982 89.8241 171.095 89.9316 171.169L93.1069 172.996ZM94.0351 196.007C93.9667 195.972 93.8911 195.954 93.8144 195.954C93.7376 195.954 93.662 195.972 93.5936 196.007L89.3713 198.438C89.2581 198.506 89.2637 198.618 89.3713 198.686L92.5465 200.514C92.6139 200.548 92.6886 200.566 92.7644 200.566C92.8403 200.566 92.915 200.548 92.9824 200.514L97.2047 198.083C97.3179 198.015 97.3123 197.902 97.2047 197.829L94.0351 196.007ZM87.3507 176.307C87.4184 176.34 87.493 176.357 87.5686 176.357C87.6441 176.357 87.7187 176.34 87.7865 176.307L90.5316 174.727C90.6448 174.66 90.6391 174.547 90.5316 174.474L87.3563 172.646C87.2885 172.613 87.214 172.596 87.1384 172.596C87.0628 172.596 86.9883 172.613 86.9205 172.646L84.1754 174.225C84.0622 174.293 84.0679 174.406 84.1754 174.474L87.3507 176.307ZM83.3377 178.613C83.4051 178.648 83.4798 178.666 83.5556 178.666C83.6314 178.666 83.7062 178.648 83.7735 178.613L86.5186 177.034C86.6375 176.967 86.6318 176.854 86.5186 176.78L83.349 174.953C83.2803 174.92 83.2048 174.902 83.1283 174.902C83.0518 174.902 82.9763 174.92 82.9076 174.953L80.1681 176.532C80.0493 176.6 80.0549 176.713 80.1681 176.78L83.3377 178.613ZM168.34 153.233C168.272 153.199 168.197 153.181 168.122 153.181C168.046 153.181 167.971 153.199 167.904 153.233L161.146 157.119C161.033 157.187 161.038 157.3 161.146 157.373L164.321 159.201C164.389 159.234 164.463 159.251 164.539 159.251C164.614 159.251 164.689 159.234 164.757 159.201L171.526 155.36C171.645 155.292 171.639 155.179 171.526 155.112L168.34 153.233ZM159.47 158.309C159.403 158.276 159.328 158.259 159.252 158.259C159.177 158.259 159.102 158.276 159.035 158.309L156.289 159.889C156.176 159.956 156.182 160.069 156.289 160.137L159.465 161.964C159.532 161.997 159.607 162.015 159.683 162.015C159.758 162.015 159.833 161.997 159.901 161.964L162.646 160.385C162.759 160.317 162.753 160.204 162.646 160.131L159.47 158.309ZM105.134 188.263L107.879 186.684C107.998 186.617 107.993 186.504 107.879 186.436L104.71 184.688C104.642 184.653 104.568 184.635 104.492 184.635C104.416 184.635 104.341 184.653 104.274 184.688L101.529 186.267C101.41 186.335 101.416 186.447 101.529 186.521L104.704 188.348C104.775 188.376 104.85 188.388 104.926 188.382C105.002 188.376 105.075 188.353 105.14 188.314L105.134 188.263ZM151.444 162.929C151.377 162.894 151.302 162.876 151.227 162.876C151.151 162.876 151.076 162.894 151.009 162.929L148.264 164.508C148.145 164.575 148.156 164.688 148.264 164.762L151.433 166.583C151.502 166.618 151.577 166.636 151.654 166.636C151.731 166.636 151.806 166.618 151.875 166.583L154.62 165.004C154.733 164.936 154.727 164.824 154.62 164.75L151.444 162.929ZM172.347 150.904C172.278 150.869 172.203 150.851 172.126 150.851C172.049 150.851 171.974 150.869 171.905 150.904L169.16 152.483C169.047 152.551 169.053 152.664 169.16 152.737L172.336 154.559C172.403 154.593 172.478 154.611 172.553 154.611C172.629 154.611 172.704 154.593 172.771 154.559L175.516 152.98C175.635 152.912 175.624 152.799 175.516 152.726L172.347 150.904ZM179.529 150.419L171.82 145.986C171.753 145.951 171.678 145.933 171.603 145.933C171.527 145.933 171.452 145.951 171.385 145.986L168.64 147.565C168.521 147.627 168.532 147.74 168.64 147.813L176.343 152.246C176.411 152.281 176.487 152.299 176.564 152.299C176.64 152.299 176.716 152.281 176.784 152.246L179.529 150.667C179.665 150.656 179.66 150.543 179.535 150.47L179.529 150.419ZM136.457 171.546C136.389 171.513 136.314 171.496 136.239 171.496C136.163 171.496 136.089 171.513 136.021 171.546L132.625 173.487C132.506 173.554 132.517 173.667 132.625 173.74L135.795 175.568C135.863 175.601 135.939 175.619 136.015 175.619C136.092 175.619 136.167 175.601 136.236 175.568L139.632 173.628C139.745 173.56 139.74 173.447 139.632 173.374L136.457 171.546ZM146.594 165.771C146.526 165.736 146.452 165.718 146.376 165.718C146.3 165.718 146.225 165.736 146.158 165.771L141.936 168.202C141.822 168.27 141.828 168.382 141.936 168.456L145.111 170.277C145.178 170.312 145.253 170.33 145.329 170.33C145.405 170.33 145.479 170.312 145.547 170.277L149.769 167.847C149.882 167.779 149.877 167.666 149.769 167.598L146.594 165.771ZM127.174 176.944C127.107 176.909 127.032 176.891 126.956 176.891C126.881 176.891 126.806 176.909 126.739 176.944L104.15 189.916C104.031 189.984 104.042 190.096 104.15 190.17L107.319 191.997C107.388 192.031 107.463 192.048 107.54 192.048C107.616 192.048 107.692 192.031 107.761 191.997L130.344 179.025C130.463 178.957 130.457 178.845 130.344 178.777L127.174 176.944ZM103.323 190.666C103.255 190.631 103.179 190.613 103.102 190.613C103.026 190.613 102.95 190.631 102.882 190.666L99.4857 192.606C99.3725 192.674 99.3782 192.787 99.4857 192.86L102.661 194.682C102.728 194.716 102.803 194.734 102.879 194.734C102.955 194.734 103.029 194.716 103.097 194.682L106.493 192.736C106.612 192.674 106.6 192.561 106.493 192.488L103.323 190.666ZM131.821 174.271C131.753 174.236 131.677 174.218 131.601 174.218C131.524 174.218 131.448 174.236 131.38 174.271L127.984 176.211C127.865 176.278 127.871 176.391 127.984 176.465L131.159 178.286C131.226 178.321 131.301 178.339 131.377 178.339C131.453 178.339 131.527 178.321 131.595 178.286L134.991 176.34C135.11 176.278 135.098 176.166 134.991 176.092L131.821 174.271ZM98.6763 193.339C98.6089 193.305 98.5342 193.287 98.4584 193.287C98.3826 193.287 98.3079 193.305 98.2405 193.339L94.8445 195.285C94.7256 195.353 94.737 195.466 94.8445 195.539L98.0141 197.361C98.0825 197.395 98.1581 197.414 98.2348 197.414C98.3116 197.414 98.3872 197.395 98.4556 197.361L101.852 195.415C101.97 195.347 101.965 195.234 101.852 195.167L98.6763 193.339ZM141.126 168.93C141.058 168.895 140.982 168.877 140.906 168.877C140.829 168.877 140.753 168.895 140.685 168.93L137.289 170.875C137.17 170.943 137.176 171.056 137.289 171.123L140.464 172.951C140.532 172.984 140.606 173.001 140.682 173.001C140.758 173.001 140.832 172.984 140.9 172.951L144.296 171.005C144.415 170.937 144.403 170.825 144.296 170.751L141.126 168.93ZM155.48 160.667C155.411 160.634 155.336 160.616 155.259 160.616C155.183 160.616 155.107 160.634 155.039 160.667L152.299 162.246C152.18 162.314 152.186 162.427 152.299 162.494L155.474 164.322C155.542 164.356 155.617 164.374 155.692 164.374C155.768 164.374 155.843 164.356 155.91 164.322L158.655 162.742C158.774 162.675 158.769 162.562 158.655 162.489L155.48 160.667ZM164.27 154.311L167.009 152.731C167.128 152.664 167.123 152.551 167.009 152.478L163.834 150.656C163.767 150.621 163.692 150.603 163.616 150.603C163.541 150.603 163.466 150.621 163.398 150.656L160.653 152.235C160.534 152.303 160.54 152.416 160.653 152.489L163.823 154.311C163.89 154.343 163.963 154.361 164.038 154.361C164.113 154.361 164.186 154.343 164.253 154.311H164.27ZM146.334 154.192L149.079 152.613C149.197 152.551 149.186 152.438 149.079 152.365L145.909 150.537C145.84 150.504 145.765 150.487 145.688 150.487C145.612 150.487 145.536 150.504 145.468 150.537L142.722 152.117C142.609 152.184 142.615 152.297 142.722 152.37L145.898 154.198C145.963 154.229 146.035 154.244 146.108 154.243C146.18 154.242 146.252 154.225 146.317 154.192H146.334ZM137.278 169.854L145.298 165.241C145.411 165.173 145.405 165.06 145.298 164.987L142.066 163.16C141.998 163.126 141.924 163.109 141.848 163.109C141.772 163.109 141.698 163.126 141.63 163.16L133.604 167.768C133.485 167.835 133.491 167.948 133.604 168.021L136.774 169.843C136.843 169.882 136.922 169.904 137.002 169.906C137.082 169.908 137.161 169.89 137.232 169.854H137.278ZM159.85 156.606C159.917 156.641 159.992 156.659 160.067 156.659C160.143 156.659 160.218 156.641 160.285 156.606L163.031 155.027C163.144 154.959 163.138 154.846 163.031 154.773L159.855 152.951C159.788 152.917 159.713 152.899 159.637 152.899C159.562 152.899 159.487 152.917 159.419 152.951L156.674 154.531C156.561 154.598 156.567 154.711 156.674 154.784L159.85 156.606ZM155.752 154.012L158.497 152.433C158.61 152.365 158.604 152.252 158.497 152.179L155.322 150.351C155.254 150.317 155.179 150.299 155.104 150.299C155.028 150.299 154.953 150.317 154.886 150.351L152.141 151.931C152.027 151.993 152.033 152.105 152.141 152.179L155.316 154.006C155.377 154.034 155.443 154.048 155.511 154.049C155.578 154.05 155.644 154.037 155.706 154.012H155.752ZM133.265 172.161L136.01 170.582C136.123 170.514 136.117 170.402 136.01 170.334L132.834 168.507C132.767 168.472 132.692 168.454 132.616 168.454C132.541 168.454 132.466 168.472 132.399 168.507L129.653 170.086C129.54 170.153 129.546 170.266 129.653 170.34L132.829 172.167C132.891 172.193 132.957 172.205 133.025 172.204C133.092 172.203 133.158 172.189 133.219 172.161H133.265ZM150.98 161.71C151.048 161.745 151.122 161.763 151.198 161.763C151.274 161.763 151.349 161.745 151.416 161.71L154.161 160.131C154.28 160.063 154.274 159.951 154.161 159.883L150.986 158.056C150.918 158.022 150.844 158.005 150.768 158.005C150.693 158.005 150.618 158.022 150.55 158.056L147.805 159.635C147.686 159.702 147.692 159.815 147.805 159.889L150.98 161.71ZM113.211 183.706L115.956 182.127C116.069 182.059 116.064 181.947 115.956 181.873L112.781 180.052C112.714 180.017 112.639 179.999 112.563 179.999C112.487 179.999 112.413 180.017 112.345 180.052L109.6 181.631C109.481 181.698 109.493 181.811 109.6 181.885L112.77 183.706C112.832 183.733 112.9 183.746 112.968 183.745C113.037 183.745 113.104 183.729 113.166 183.701L113.211 183.706ZM117.218 181.4L119.964 179.82C120.082 179.753 120.077 179.64 119.964 179.567L116.794 177.739C116.726 177.706 116.652 177.689 116.576 177.689C116.5 177.689 116.426 177.706 116.358 177.739L113.613 179.318C113.494 179.386 113.5 179.499 113.613 179.567L116.788 181.394C116.847 181.419 116.911 181.432 116.975 181.432C117.039 181.432 117.103 181.419 117.162 181.394L117.218 181.4ZM109.198 186.013L111.943 184.434C112.062 184.366 112.051 184.253 111.943 184.18L108.774 182.358C108.705 182.324 108.63 182.306 108.553 182.306C108.476 182.306 108.401 182.324 108.332 182.358L105.587 183.938C105.474 184.005 105.48 184.118 105.587 184.191L108.762 186.013C108.824 186.04 108.891 186.053 108.958 186.052C109.026 186.051 109.092 186.036 109.153 186.007L109.198 186.013ZM125.199 176.792L127.939 175.218C128.057 175.15 128.052 175.038 127.939 174.964L124.763 173.137C124.696 173.102 124.621 173.084 124.545 173.084C124.47 173.084 124.395 173.102 124.327 173.137L121.582 174.716C121.463 174.778 121.475 174.891 121.582 174.964L124.752 176.792C124.821 176.827 124.898 176.846 124.975 176.846C125.053 176.846 125.13 176.827 125.199 176.792ZM121.186 179.104L123.931 177.525C124.044 177.457 124.039 177.344 123.931 177.271L120.756 175.444C120.688 175.41 120.614 175.393 120.538 175.393C120.462 175.393 120.388 175.41 120.32 175.444L117.575 177.023C117.462 177.091 117.468 177.203 117.575 177.271L120.75 179.098C120.819 179.13 120.894 179.145 120.97 179.143C121.045 179.142 121.119 179.122 121.186 179.087V179.104ZM129.206 174.485L131.951 172.906C132.07 172.838 132.059 172.725 131.951 172.658L128.782 170.83C128.713 170.797 128.638 170.779 128.561 170.779C128.485 170.779 128.409 170.797 128.34 170.83L125.601 172.409C125.482 172.477 125.488 172.59 125.601 172.663L128.776 174.491C128.845 174.52 128.919 174.533 128.994 174.529C129.068 174.525 129.141 174.504 129.206 174.468V174.485ZM147.556 140.352C147.624 140.386 147.7 140.404 147.777 140.404C147.854 140.404 147.929 140.386 147.998 140.352L150.743 138.772C150.856 138.71 150.85 138.598 150.743 138.524L149.899 138.039C149.831 138.005 149.755 137.987 149.679 137.987C149.602 137.987 149.526 138.005 149.458 138.039L146.713 139.618C146.6 139.686 146.605 139.799 146.713 139.872L147.556 140.352ZM127.825 153.042C127.893 153.076 127.967 153.094 128.043 153.094C128.119 153.094 128.194 153.076 128.261 153.042L131.006 151.462C131.119 151.395 131.114 151.282 131.006 151.209L127.831 149.387C127.764 149.352 127.689 149.334 127.613 149.334C127.537 149.334 127.463 149.352 127.395 149.387L124.65 150.966C124.537 151.034 124.543 151.147 124.65 151.22L127.825 153.042ZM135.84 148.411C135.907 148.446 135.982 148.464 136.058 148.464C136.134 148.464 136.208 148.446 136.276 148.411L139.021 146.832C139.14 146.764 139.128 146.652 139.021 146.578L135.851 144.751C135.782 144.717 135.707 144.7 135.63 144.7C135.554 144.7 135.478 144.717 135.41 144.751L132.665 146.33C132.551 146.398 132.557 146.511 132.665 146.578L135.84 148.411ZM122.918 155.845C122.987 155.878 123.062 155.895 123.139 155.895C123.215 155.895 123.291 155.878 123.36 155.845L126.105 154.266C126.218 154.198 126.212 154.085 126.105 154.012L122.929 152.184C122.862 152.151 122.787 152.134 122.711 152.134C122.636 152.134 122.561 152.151 122.494 152.184L119.748 153.764C119.63 153.826 119.641 153.938 119.748 154.012L122.918 155.845ZM131.827 150.718C131.895 150.753 131.971 150.771 132.048 150.771C132.124 150.771 132.2 150.753 132.268 150.718L135.008 149.139C135.127 149.071 135.121 148.958 135.008 148.885L131.833 147.063C131.765 147.029 131.69 147.011 131.615 147.011C131.539 147.011 131.464 147.029 131.397 147.063L128.652 148.642C128.533 148.71 128.538 148.823 128.652 148.896L131.827 150.718ZM114.898 160.436C114.965 160.47 115.04 160.488 115.116 160.488C115.192 160.488 115.266 160.47 115.334 160.436L118.079 158.856C118.198 158.789 118.192 158.676 118.079 158.603L114.898 156.815C114.83 156.78 114.756 156.762 114.68 156.762C114.604 156.762 114.529 156.78 114.462 156.815L111.717 158.394C111.598 158.462 111.604 158.574 111.717 158.648L114.898 160.436ZM118.916 158.18C118.984 158.214 119.059 158.232 119.134 158.232C119.21 158.232 119.285 158.214 119.352 158.18L122.097 156.6C122.216 156.533 122.205 156.42 122.097 156.347L118.922 154.519C118.854 154.486 118.78 154.469 118.704 154.469C118.629 154.469 118.554 154.486 118.486 154.519L115.741 156.099C115.628 156.166 115.634 156.279 115.741 156.347L118.916 158.18ZM139.536 144.976C139.603 145.011 139.678 145.029 139.754 145.029C139.83 145.029 139.904 145.011 139.972 144.976L142.717 143.397C142.836 143.33 142.83 143.217 142.717 143.143L141.873 142.658C141.806 142.624 141.731 142.606 141.656 142.606C141.58 142.606 141.505 142.624 141.438 142.658L138.693 144.238C138.574 144.305 138.585 144.418 138.693 144.491L139.536 144.976ZM151.569 138.056C151.637 138.089 151.711 138.107 151.787 138.107C151.862 138.107 151.937 138.089 152.005 138.056L154.75 136.477C154.869 136.409 154.863 136.296 154.75 136.229L153.907 135.744C153.839 135.709 153.764 135.691 153.689 135.691C153.613 135.691 153.538 135.709 153.471 135.744L150.726 137.323C150.607 137.391 150.618 137.503 150.726 137.577L151.569 138.056ZM158.236 141.891C158.304 141.925 158.379 141.942 158.454 141.942C158.53 141.942 158.605 141.925 158.672 141.891L161.417 140.312C161.536 140.244 161.525 140.132 161.417 140.064L158.242 138.237C158.175 138.202 158.1 138.184 158.024 138.184C157.948 138.184 157.874 138.202 157.806 138.237L155.061 139.816C154.948 139.884 154.954 139.996 155.061 140.07L158.236 141.891ZM168.26 152.043L171.005 150.464C171.124 150.396 171.113 150.284 171.005 150.21L167.836 148.383C167.767 148.35 167.692 148.332 167.615 148.332C167.539 148.332 167.463 148.35 167.394 148.383L164.649 149.962C164.536 150.03 164.542 150.143 164.649 150.21L167.825 152.038C167.895 152.067 167.971 152.08 168.047 152.074C168.122 152.068 168.196 152.044 168.26 152.004V152.043ZM143.549 142.681C143.617 142.714 143.691 142.732 143.767 142.732C143.842 142.732 143.917 142.714 143.985 142.681L146.73 141.102C146.843 141.034 146.837 140.921 146.73 140.848L145.886 140.363C145.819 140.328 145.744 140.31 145.668 140.31C145.593 140.31 145.518 140.328 145.451 140.363L142.705 141.942C142.587 142.01 142.592 142.123 142.705 142.196L143.549 142.681ZM110.891 162.804C110.959 162.839 111.035 162.857 111.111 162.857C111.188 162.857 111.264 162.839 111.332 162.804L114.077 161.225C114.19 161.158 114.185 161.045 114.077 160.971L110.902 159.15C110.835 159.115 110.76 159.097 110.684 159.097C110.608 159.097 110.533 159.115 110.466 159.15L107.721 160.729C107.602 160.797 107.613 160.909 107.721 160.983L110.891 162.804Z" fill="#455A64"/>
<path d="M128.68 186.758L155.763 171.152C156.221 170.921 156.727 170.8 157.241 170.8C157.754 170.8 158.26 170.921 158.718 171.152L174.249 180.085C175.064 180.559 175.064 181.321 174.249 181.777L147.16 197.389C146.703 197.623 146.197 197.744 145.683 197.744C145.169 197.744 144.663 197.623 144.206 197.389L128.675 188.455C127.865 187.987 127.865 187.226 128.68 186.758Z" fill="#263238"/>
<path d="M134.6 49.4518V53.5746L72.9571 89.0389C72.5326 89.2815 72.1873 89.0841 72.1873 88.5934L72.2326 87.1157C71.8651 86.9696 71.4866 86.8527 71.1006 86.766L52.6377 97.3861C52.4129 97.5333 52.2257 97.7308 52.091 97.9629C51.9564 98.195 51.8781 98.4552 51.8623 98.7228V100.279C51.8493 100.547 51.7728 100.808 51.639 101.04C51.5052 101.273 51.3179 101.47 51.0925 101.616L48.9644 102.84V98.7228C48.9773 98.4552 49.0538 98.1945 49.1876 97.9621C49.3215 97.7297 49.5088 97.5323 49.7341 97.3861L133.83 49.0062C134.255 48.7637 134.6 48.9611 134.6 49.4518Z" fill="#5F80F8"/>
<path d="M134.606 111.187C134.591 111.454 134.514 111.714 134.379 111.946C134.244 112.177 134.056 112.373 133.83 112.518L49.7341 160.898C49.3096 161.146 48.9644 160.943 48.9644 160.453V102.84L51.0925 101.616C51.517 101.374 52.2245 97.6343 52.6377 97.3862L71.1006 86.766C71.5251 86.5235 72.5326 89.2815 72.9571 89.022L134.6 53.5746V111.187H134.606Z" fill="#EBEBEB"/>
<path d="M52.6379 118.632L89.5751 97.3636C89.9996 97.1154 90.3448 97.3185 90.3448 97.8092V133.984C90.3319 134.252 90.2554 134.512 90.1216 134.745C89.9877 134.977 89.8004 135.175 89.5751 135.321L52.6379 156.589C52.2134 156.832 51.8682 156.634 51.8682 156.144V119.969C51.8811 119.701 51.9576 119.44 52.0915 119.208C52.2253 118.976 52.4126 118.778 52.6379 118.632Z" fill="#FAFAFA"/>
<path d="M52.6379 109.078L130.933 64.0368C131.357 63.7887 131.702 63.9917 131.702 64.4824V69.9024C131.689 70.1691 131.612 70.4287 131.478 70.66C131.344 70.8914 131.157 71.0879 130.933 71.2335L52.6379 116.28C52.2134 116.523 51.8682 116.325 51.8682 115.835V110.415C51.8811 110.147 51.9576 109.886 52.0915 109.654C52.2253 109.421 52.4126 109.224 52.6379 109.078Z" fill="#455A64"/>
<path d="M102.672 84.589V86.0215C102.672 86.3205 102.881 86.4389 103.136 86.2923L125.895 73.1962V70.692L103.136 83.7881C103.001 83.8761 102.889 83.9944 102.808 84.1335C102.728 84.2726 102.681 84.4286 102.672 84.589Z" fill="#FAFAFA"/>
<path d="M128.334 69.2877C128.595 69.1411 128.799 69.2877 128.799 69.5528V70.991C128.79 71.1516 128.744 71.3079 128.663 71.4471C128.583 71.5864 128.47 71.7045 128.334 71.7918L125.895 73.1962V70.692L128.334 69.2877Z" fill="#5F80F8"/>
<path d="M128.16 71.256L127.882 71.1714C127.912 71.0571 127.927 70.9397 127.927 70.8217C127.938 70.7144 127.92 70.6062 127.877 70.5074C127.833 70.4087 127.765 70.3227 127.678 70.2577C127.619 70.2219 127.55 70.203 127.48 70.203C127.411 70.203 127.342 70.2219 127.282 70.2577C127.105 70.3875 126.961 70.5575 126.863 70.7536C126.764 70.9498 126.714 71.1665 126.716 71.3857C126.707 71.493 126.725 71.6009 126.769 71.6994C126.812 71.7979 126.88 71.884 126.965 71.9497C127.019 71.9791 127.079 71.9946 127.141 71.9949C127.219 71.9925 127.295 71.9691 127.361 71.9272C127.565 71.7904 127.719 71.5929 127.803 71.3632L128.075 71.4478H128.103C128.124 71.4487 128.145 71.4426 128.163 71.4303C128.18 71.4181 128.193 71.4004 128.199 71.3801C128.208 71.3581 128.209 71.3336 128.202 71.3109C128.195 71.2882 128.18 71.2688 128.16 71.256ZM127.282 71.7749C127.253 71.7923 127.22 71.8015 127.186 71.8015C127.152 71.8015 127.119 71.7923 127.09 71.7749C127.035 71.7237 126.993 71.6601 126.967 71.5895C126.941 71.5189 126.933 71.4433 126.943 71.3688C126.94 71.1872 126.979 71.0073 127.055 70.8424C127.131 70.6775 127.244 70.5317 127.384 70.4157C127.422 70.3932 127.465 70.3797 127.509 70.3762C127.531 70.3679 127.555 70.3679 127.577 70.3762C127.673 70.4269 127.724 70.5792 127.724 70.7766C127.736 70.9661 127.702 71.1557 127.625 71.3294C127.548 71.5032 127.431 71.6559 127.282 71.7749Z" fill="#FAFAFA"/>
<path d="M134.6 53.5746V58.5886L48.9644 107.854V102.84L50.5548 101.926C50.9793 101.678 51.1208 101.306 51.3246 100.59L51.8623 98.7228C51.8935 98.4592 51.9784 98.2047 52.1117 97.9748C52.245 97.745 52.424 97.5447 52.6377 97.3862L71.1006 86.766C71.1828 86.6931 71.2816 86.6411 71.3884 86.6146C71.4953 86.5881 71.6069 86.5879 71.7139 86.614C71.8208 86.6401 71.9198 86.6917 72.0023 86.7644C72.0847 86.837 72.1482 86.9286 72.1873 87.0311L72.8496 88.2268C73.0929 88.6442 73.2118 88.8923 73.6363 88.6442L134.6 53.5746Z" fill="#E6E6E6"/>
<path d="M130.978 52.0405C131.544 51.7303 131.951 51.9785 131.951 52.6045C131.935 52.9432 131.838 53.2731 131.669 53.5673C131.5 53.8614 131.263 54.1113 130.978 54.2965C130.412 54.6067 129.999 54.3529 129.999 53.7325C130.014 53.393 130.111 53.0622 130.282 52.7678C130.452 52.4735 130.691 52.224 130.978 52.0405Z" fill="#455A64"/>
<path d="M127.469 54.054C128.006 53.7438 128.442 53.992 128.442 54.618C128.426 54.9567 128.329 55.2866 128.16 55.5807C127.991 55.8749 127.754 56.1248 127.469 56.31C126.903 56.6202 126.495 56.3664 126.495 55.746C126.511 55.4072 126.608 55.0771 126.777 54.7829C126.946 54.4887 127.183 54.2389 127.469 54.054Z" fill="#455A64"/>
<path d="M123.954 56.0957C124.492 55.7855 124.928 56.0336 124.928 56.6597C124.911 56.9983 124.814 57.3283 124.645 57.6224C124.476 57.9166 124.239 58.1665 123.954 58.3517C123.388 58.6619 122.98 58.4081 122.98 57.7877C122.996 57.4489 123.093 57.1188 123.262 56.8246C123.432 56.5304 123.669 56.2805 123.954 56.0957Z" fill="#455A64"/>
<path opacity="0.5" d="M57.5113 99.1345C57.5113 99.0612 57.4377 99.0725 57.4094 99.1345L57.2396 99.5406C56.9566 99.5068 56.6113 99.7831 56.3793 100.274C56.0793 100.911 56.0793 101.661 56.3793 101.966C56.4546 102.037 56.5526 102.079 56.6561 102.085C56.7596 102.091 56.862 102.061 56.9453 102C57.1953 101.84 57.3923 101.611 57.5113 101.34C57.5509 101.255 57.5509 101.159 57.5113 101.125C57.4717 101.092 57.4094 101.125 57.3754 101.204C57.149 101.678 56.8094 101.887 56.5604 101.673C56.4466 101.484 56.3864 101.269 56.3864 101.049C56.3864 100.83 56.4466 100.614 56.5604 100.426C56.7189 100.088 56.9509 99.8621 57.1264 99.8621L57.0019 100.167C56.9679 100.246 57.0019 100.325 57.0472 100.291L57.5452 99.9692C57.5643 99.9524 57.5792 99.9314 57.589 99.908C57.5988 99.8846 57.6032 99.8592 57.6018 99.8339L57.5113 99.1345Z" fill="#455A64"/>
<path opacity="0.5" d="M70.5628 89.0559L71.0099 88.1196C71.0352 88.0759 71.0486 88.0263 71.0486 87.9758C71.0486 87.9253 71.0352 87.8757 71.0099 87.832C70.9533 87.7812 70.8684 87.832 70.8175 87.9391L70.376 88.8754L69.9345 88.4467C69.8779 88.4016 69.7987 88.4467 69.7421 88.5595C69.7167 88.6033 69.7034 88.6529 69.7034 88.7034C69.7034 88.7538 69.7167 88.8034 69.7421 88.8472L70.1836 89.2758L69.7421 90.2064C69.7162 90.251 69.7026 90.3016 69.7026 90.3531C69.7026 90.4045 69.7162 90.4551 69.7421 90.4997C69.7562 90.5094 69.773 90.5146 69.7902 90.5146C69.8074 90.5146 69.8241 90.5094 69.8383 90.4997C69.8799 90.469 69.913 90.4282 69.9345 90.3812L70.376 89.4506L70.8175 89.8736C70.8238 89.88 70.8313 89.885 70.8395 89.8884C70.8478 89.8918 70.8566 89.8936 70.8656 89.8936C70.8745 89.8936 70.8834 89.8918 70.8916 89.8884C70.8999 89.885 70.9074 89.88 70.9137 89.8736C70.9565 89.8467 70.9901 89.8073 71.0099 89.7609C71.0357 89.7163 71.0493 89.6657 71.0493 89.6142C71.0493 89.5627 71.0357 89.5122 71.0099 89.4676L70.5628 89.0559Z" fill="#455A64"/>
<path d="M59.124 100.285V98.7228C59.137 98.4552 59.2135 98.1945 59.3473 97.9621C59.4811 97.7297 59.6684 97.5323 59.8938 97.3861L129.478 57.376C129.902 57.1335 130.248 57.3309 130.248 57.8215V59.3838C130.235 59.6514 130.158 59.9122 130.024 60.1446C129.89 60.3769 129.703 60.5743 129.478 60.7205L59.8938 100.731C59.4693 100.973 59.124 100.776 59.124 100.285Z" fill="#FAFAFA"/>
<path d="M129.047 58.2051L129.251 58.6337C129.26 58.6406 129.271 58.6443 129.282 58.6443C129.294 58.6443 129.305 58.6406 129.313 58.6337L129.772 58.4589C129.84 58.4589 129.874 58.5322 129.817 58.6281L129.489 59.2428C129.479 59.2816 129.479 59.3225 129.489 59.3613L129.568 59.9253C129.568 60.0099 129.5 60.1283 129.438 60.1227L129.03 60.0719C129.014 60.0711 128.998 60.075 128.984 60.083C128.97 60.091 128.959 60.1028 128.951 60.117L128.544 60.6359C128.476 60.7149 128.402 60.6867 128.414 60.5852L128.493 59.9422C128.5 59.9283 128.504 59.9128 128.504 59.8971C128.504 59.8813 128.5 59.8658 128.493 59.852L128.159 59.6151C128.108 59.5756 128.159 59.4402 128.21 59.3838L128.663 59.0398C128.696 59.012 128.72 58.9745 128.73 58.9326L128.934 58.2727C128.9 58.1881 128.991 58.1374 129.047 58.2051Z" stroke="#E0E0E0" stroke-width="0.75" stroke-miterlimit="10"/>
<g opacity="0.5">
<path opacity="0.5" d="M131.159 57.1899C131.112 57.1888 131.066 57.1758 131.025 57.1521C130.984 57.1284 130.95 57.0948 130.927 57.0545C130.892 56.9923 130.883 56.919 130.902 56.8504C130.921 56.7818 130.966 56.7234 131.028 56.6879L133.202 55.4358C133.262 55.4113 133.33 55.4093 133.392 55.4303C133.453 55.4512 133.506 55.4937 133.539 55.5499C133.572 55.606 133.583 55.6722 133.571 55.7362C133.559 55.8002 133.525 55.8577 133.473 55.8983L131.311 57.1504C131.266 57.1805 131.213 57.1945 131.159 57.1899Z" fill="#455A64"/>
<path opacity="0.5" d="M131.159 58.442C131.112 58.4409 131.066 58.4278 131.025 58.4042C130.984 58.3805 130.951 58.3469 130.927 58.3066C130.91 58.2762 130.899 58.2428 130.894 58.2082C130.89 58.1736 130.893 58.1386 130.903 58.1051C130.912 58.0716 130.928 58.0402 130.95 58.0129C130.971 57.9855 130.998 57.9627 131.029 57.9456L133.202 56.6879C133.262 56.6634 133.33 56.6614 133.392 56.6824C133.454 56.7033 133.506 56.7457 133.539 56.8019C133.572 56.8581 133.583 56.9243 133.571 56.9883C133.559 57.0523 133.525 57.1098 133.474 57.1504L131.312 58.4081C131.265 58.4335 131.212 58.4452 131.159 58.442Z" fill="#455A64"/>
<path opacity="0.5" d="M131.159 59.6941C131.1 59.6941 131.043 59.6747 130.996 59.6388C130.949 59.603 130.916 59.5528 130.901 59.496C130.886 59.4393 130.891 59.3792 130.914 59.3253C130.937 59.2713 130.977 59.2264 131.029 59.1978L133.202 57.9457C133.232 57.9267 133.266 57.9141 133.301 57.9087C133.336 57.9033 133.372 57.9051 133.407 57.9141C133.441 57.9231 133.474 57.939 133.502 57.961C133.53 57.9829 133.553 58.0103 133.57 58.0416C133.605 58.1031 133.615 58.1759 133.597 58.2444C133.579 58.313 133.535 58.3717 133.474 58.4082L131.312 59.6602C131.265 59.6856 131.212 59.6974 131.159 59.6941Z" fill="#455A64"/>
</g>
<path d="M69.5556 127.16C72.663 124.007 73.461 122.574 73.461 121.311C73.461 120.048 72.929 119.252 71.2763 120.183C70.1091 120.833 69.2347 121.902 68.8311 123.172C68.7278 123.439 68.5651 123.679 68.3554 123.875C68.1456 124.07 67.8942 124.215 67.6199 124.3L65.4635 124.774C64.9484 124.892 64.6031 124.565 64.7276 124.052C65.6729 120.211 68.0557 116.664 71.4008 114.74C75.4194 112.428 77.7626 114.176 77.7626 118.079C77.7626 121.83 75.7816 124.96 73.8006 127.21C73.4316 127.682 73.2163 128.255 73.1837 128.852V130.126C73.1677 130.412 73.0846 130.69 72.941 130.938C72.7975 131.186 72.5976 131.396 72.3573 131.553L69.7085 133.076C69.25 133.341 68.8821 133.127 68.8821 132.602V128.756C68.9223 128.164 69.1593 127.602 69.5556 127.16Z" fill="#455A64"/>
<path d="M68.8312 138.366C68.8254 137.583 69.0244 136.812 69.4084 136.129C69.7925 135.445 70.3485 134.873 71.0216 134.469C72.4423 133.646 73.1837 134.373 73.1837 135.862C73.1954 136.646 73.0021 137.418 72.623 138.105C72.2439 138.791 71.692 139.367 71.0216 139.776C69.567 140.611 68.8312 139.855 68.8312 138.366Z" fill="#455A64"/>
<path d="M156.595 36.288L154.518 35.0811C154.317 34.9846 154.093 34.9446 153.87 34.9655C153.648 34.9863 153.436 35.0673 153.256 35.1995L101.54 64.9449C101.024 65.2805 100.594 65.7326 100.285 66.2646C99.976 66.7967 99.7973 67.3937 99.7632 68.0074V142.123C99.7433 142.338 99.7791 142.555 99.8673 142.752C99.9555 142.95 100.093 143.121 100.267 143.251L102.361 144.458L153.233 113.381C153.749 113.045 154.178 112.593 154.486 112.061C154.794 111.529 154.972 110.932 155.005 110.319L156.595 36.288Z" fill="#5F80F8"/>
<path opacity="0.15" d="M102.328 144.458L100.262 143.268C100.087 143.139 99.9497 142.967 99.8623 142.77C99.7749 142.572 99.7409 142.354 99.7637 142.14V68.0074C99.7872 67.3574 99.9824 66.7251 100.33 66.1744L102.447 67.3757C102.097 67.9276 101.902 68.5622 101.881 69.2143V143.335C101.856 143.545 101.883 143.757 101.962 143.953C102.04 144.149 102.165 144.322 102.328 144.458Z" fill="black"/>
<path d="M103.618 66.1574L155.333 36.4064C156.312 35.8424 157.105 36.2993 157.105 37.4273V111.543C157.072 112.156 156.894 112.753 156.586 113.285C156.278 113.817 155.849 114.269 155.333 114.605L103.618 144.356C102.638 144.92 101.84 144.463 101.84 143.335V69.2143C101.875 68.6016 102.054 68.0057 102.363 67.4747C102.672 66.9437 103.102 66.4925 103.618 66.1574Z" fill="#5F80F8"/>
<path opacity="0.4" d="M154.518 35.0811L156.544 36.2486C156.348 36.178 156.138 36.1556 155.931 36.183C155.724 36.2105 155.527 36.2872 155.356 36.4065L103.64 66.1575C103.148 66.4602 102.738 66.8785 102.446 67.3757L100.346 66.1744C100.638 65.6739 101.048 65.2519 101.54 64.9449L153.228 35.2277C153.408 35.0958 153.62 35.0155 153.843 34.9957C154.065 34.9758 154.289 35.017 154.49 35.1149L154.518 35.0811Z" fill="white"/>
<path d="M109.487 69.0677L150.901 45.2387C151.643 44.8101 152.243 45.1597 152.243 46.0114V109.411C152.218 109.875 152.083 110.327 151.85 110.729C151.617 111.132 151.292 111.474 150.901 111.729L109.487 135.513C108.746 135.936 108.14 135.592 108.14 134.74V71.397C108.162 70.93 108.296 70.475 108.531 70.0699C108.765 69.6647 109.093 69.3212 109.487 69.0677Z" fill="white"/>
<path d="M142.304 83.0267L142.723 82.6827C142.031 81.9356 141.133 81.4096 140.142 81.1711L140.006 81.69C140.885 81.9065 141.683 82.3705 142.304 83.0267Z" fill="#37474F"/>
<path d="M143.226 85.1304L142.372 84.2957C142.169 84.0856 142.056 83.8057 142.056 83.5146C142.056 83.2234 142.169 82.9435 142.372 82.7334C142.582 82.5318 142.863 82.4192 143.155 82.4192C143.448 82.4192 143.729 82.5318 143.939 82.7334L144.788 83.5682C144.991 83.7782 145.104 84.0581 145.104 84.3493C145.104 84.6405 144.991 84.9204 144.788 85.1304C144.578 85.3304 144.298 85.442 144.007 85.442C143.716 85.442 143.437 85.3304 143.226 85.1304Z" fill="#5F80F8"/>
<path d="M150.76 104.408L152.673 107.668C152.673 107.668 165.204 101.046 165.912 100.178C166.619 99.3094 166.574 97.5553 166.682 96.6078C166.857 95.0286 166.274 93.6694 166.189 93.0997C166.048 92.1071 167.48 92.0507 168.187 93.4325C168.708 94.4364 168.753 95.587 169.195 95.5982C169.827 95.1558 170.416 94.6554 170.955 94.1037C171.73 93.2577 173.134 91.8477 174.198 92.0394C174.379 92.0813 174.543 92.1762 174.669 92.3119C174.795 92.4477 174.878 92.618 174.906 92.8008C174.936 93.3837 175.07 93.9566 175.302 94.4928C175.475 94.6963 175.616 94.9244 175.721 95.1696C175.755 95.5335 175.755 95.8998 175.721 96.2638C175.766 96.7883 176.287 97.0082 176.343 97.5215C176.327 97.9169 176.283 98.3108 176.213 98.7002C176.213 98.954 176.292 99.174 176.292 99.4278C176.238 99.9489 176.011 100.437 175.647 100.815C174.587 102.046 173.331 103.094 171.928 103.917C170.796 104.662 169.28 105.322 167.966 106.021C166.653 106.72 151.903 118.012 149.939 116.681C149.136 116.117 147.019 113.426 144.794 110.415" fill="#FFA8A7"/>
<path d="M144.331 110.804C142.07 107.667 139.991 104.404 138.105 101.03C135.841 94.7128 138.405 90.5053 138.405 90.5053C138.405 90.5053 141.659 89.5014 144.37 93.7652C145.565 95.6434 148.689 100.922 150.738 104.408" fill="#FFA8A7"/>
<path d="M132.71 90.6012C132.71 90.6012 136.299 89.1517 138.625 89.304C140.951 89.4563 142.672 90.1105 144.381 92.8459C146.645 96.495 150.432 102.801 150.432 102.801C148.832 106.079 146.278 108.801 143.102 110.612L136.152 100.167L132.71 90.6012Z" fill="#455A64"/>
<path d="M121.323 96.918C120.126 97.8785 119.243 99.1724 118.787 100.635C118.256 102.402 117.997 104.239 118.017 106.083V117.955L117.864 140.425C125.426 142.991 135.037 140.73 143.102 131.796C143.102 131.796 142.655 103.032 142.655 98.3336C142.655 98.1193 142.655 97.905 142.655 97.685C142.361 91.0242 136.593 87.9335 130.911 91.137L126.134 93.8216L121.339 96.918H121.323Z" fill="#F0F0F0"/>
<path d="M123.954 69.5866C123.954 69.5866 120.247 69.2989 119.426 72.728C118.673 75.7849 124.265 87.8545 124.141 87.6515C124.016 87.4484 123.954 69.5866 123.954 69.5866Z" fill="#263238"/>
<path d="M137.046 62.6832C137.046 62.6832 135.671 58.9947 128.992 61.6173C125.596 62.9539 124.322 67.1444 124.322 67.1444L137.046 62.6832Z" fill="#5F80F8"/>
<path opacity="0.4" d="M137.046 62.6832C137.046 62.6832 135.671 58.9947 128.992 61.6173C125.596 62.9539 124.322 67.1444 124.322 67.1444L137.046 62.6832Z" fill="black"/>
<path d="M126.501 72.4799C126.501 77.5559 130.067 80.703 134.471 79.5242C138.874 78.3455 142.44 73.3202 142.44 68.2442C142.44 63.1682 138.642 63.1682 134.239 64.3526C129.835 65.537 126.501 67.4151 126.501 72.4799Z" fill="#263238"/>
<path d="M122.341 80.5C122.341 80.5 123.513 86.5348 123.983 87.4541C124.124 87.7204 124.331 87.9472 124.583 88.1137C124.835 88.2802 125.125 88.3811 125.426 88.4072L125.347 83.9629L122.341 80.5Z" fill="#263238"/>
<path d="M123.813 71.0135C123.349 71.0885 122.906 71.2623 122.516 71.5232C122.125 71.784 121.795 72.1257 121.549 72.525C120.587 73.9181 121.125 77.3359 122.33 80.5L124.538 80.201L123.813 71.0135Z" fill="#263238"/>
<path d="M125.217 80.0262C124.77 80.4492 124.141 79.6371 123.592 79.1238C123.043 78.6106 121.26 78.1876 120.366 80.5846C119.472 82.9816 121.153 85.4858 122.562 85.6211C124.985 85.8467 125.347 83.963 125.347 83.963L125.426 94.2672C129.496 98.5649 136.616 93.5002 133.413 91.5995V88.537C134.524 88.4415 135.621 88.2143 136.678 87.8602C138.461 87.065 139.582 85.153 140.125 82.7842C140.991 78.9885 141.32 76.0162 140.584 69.2087C139.78 61.7414 132.009 63.7379 127.815 67.8946C123.621 72.0513 125.217 80.0262 125.217 80.0262Z" fill="#FFA8A7"/>
<path d="M125.216 80.9117C124.99 80.9793 124.141 79.5863 123.592 79.152C122.828 78.5542 123.813 71.0417 123.813 71.0417C122.93 69.1015 124.56 66.1744 126.263 64.9843C127.487 64.2012 128.869 63.6949 130.31 63.501C131.533 63.2829 132.752 63.1156 133.967 62.999C135.452 62.9216 136.931 62.7445 138.393 62.4689C139.537 62.1984 140.646 61.7972 141.698 61.2732C142.626 60.8502 143.396 61.8034 142.575 63.3882C141.841 64.8296 140.82 66.1074 139.576 67.1444C135.965 69.846 131.77 70.4946 128.12 70.895C127.299 70.9853 127.118 71.9497 126.676 74.5723C126.286 76.8509 125.963 80.6691 125.216 80.9117Z" fill="#263238"/>
<path d="M121.034 71.0755L118.351 70.1336C118.73 69.1466 119.642 68.5601 120.377 68.8195C121.113 69.0789 121.413 70.0885 121.034 71.0755Z" fill="#263238"/>
<path d="M133.407 88.537C133.407 88.537 129.445 88.678 128.041 88.1986C127.202 87.9071 126.511 87.2997 126.117 86.5066C126.308 87.3403 126.681 88.122 127.209 88.7964C128.228 90.0203 133.407 89.7383 133.407 89.7383V88.537Z" fill="#F28F8F"/>
<path d="M132.445 76.9637C132.442 77.2092 132.364 77.4481 132.223 77.6493C132.082 77.8504 131.883 78.0046 131.652 78.0917C131.217 78.2045 130.86 77.8717 130.86 77.3472C130.856 77.0959 130.93 76.8496 131.072 76.6417C131.214 76.4339 131.417 76.2745 131.652 76.1854C132.094 76.0895 132.445 76.3997 132.445 76.9637Z" fill="#263238"/>
<path d="M131.171 73.4951L129.473 75.0348C129.353 74.7468 129.328 74.4289 129.399 74.1255C129.47 73.8222 129.634 73.5485 129.869 73.3428C129.953 73.2442 130.06 73.1678 130.18 73.1204C130.301 73.073 130.432 73.056 130.561 73.0711C130.69 73.0862 130.813 73.1328 130.919 73.2068C131.025 73.2807 131.112 73.3798 131.171 73.4951Z" fill="#263238"/>
<path d="M133.05 83.1282L134.867 83.4271C134.815 83.7149 134.662 83.9751 134.437 84.1618C134.211 84.3486 133.926 84.4499 133.633 84.448C133.129 84.369 132.869 83.7768 133.05 83.1282Z" fill="#F28F8F"/>
<path d="M139.763 72.0061L138.207 71.0417C138.529 70.4777 139.129 70.1788 139.559 70.4438C139.777 70.6354 139.918 70.8994 139.956 71.1868C139.993 71.4742 139.925 71.7653 139.763 72.0061Z" fill="#263238"/>
<path d="M139.084 74.9163C139.088 75.1693 139.014 75.4173 138.871 75.6264C138.728 75.8355 138.523 75.9953 138.286 76.0838C137.844 76.1966 137.487 75.8639 137.487 75.3393C137.483 75.0872 137.558 74.84 137.701 74.6319C137.844 74.4238 138.048 74.265 138.286 74.1775C138.727 74.0591 139.084 74.3918 139.084 74.9163Z" fill="#263238"/>
<path d="M135.145 75.2322L135.235 80.7707L138.093 79.2817L135.145 75.2322Z" fill="#F28F8F"/>
<path d="M109.346 130.544C111.576 107.702 115.181 99.5858 120.83 97.3128C122.726 98.7905 123.032 105.53 120.886 110.589C120.886 110.589 116.166 125.738 115.792 130.893C115.554 135.715 115.734 140.547 116.33 145.337C116.36 145.625 116.451 145.904 116.596 146.154C116.742 146.405 116.938 146.622 117.173 146.793C118.379 147.616 118.272 148.767 119.121 149.878C119.788 150.746 120.422 150.915 120.253 151.231C120.111 151.547 119.866 151.806 119.557 151.964C119.248 152.122 118.894 152.17 118.555 152.1C118.013 151.913 117.512 151.626 117.077 151.254C117.397 152.47 117.9 153.63 118.571 154.694C120.1 157.159 119.986 158.789 116.24 159.246C113.891 159.533 112.221 158.044 111.185 152.173C110.891 150.481 110.166 147.436 109.889 145.247C109.085 139.004 108.983 134.221 109.346 130.544Z" fill="#FFA8A7"/>
<path d="M122.448 96.2299C122.448 96.2299 118.339 97.5497 116.222 100.827C114.106 104.103 111.989 109.405 110.381 118.875C110.381 118.875 112.872 122.45 119.669 119.692C119.669 119.692 122.89 107.645 123.269 102.857C123.66 97.6343 122.448 96.2299 122.448 96.2299Z" fill="#455A64"/>
<path d="M126.269 62.8637C122.426 65.2607 120.767 68.171 120.671 71.679C120.638 74.0889 120.734 76.4987 120.96 78.8982C120.236 79.4176 119.639 80.0931 119.214 80.8743C118.789 81.6556 118.546 82.5224 118.503 83.4102C118.503 85.7847 120.433 87.1947 122.816 86.5574C124.012 86.2047 125.069 85.4915 125.841 84.5158C126.614 83.5402 127.064 82.35 127.129 81.1091C127.178 80.3388 126.936 79.5781 126.452 78.9761C125.967 78.3741 125.274 77.9742 124.509 77.8548C124.027 74.5041 124.037 71.1016 124.537 67.7536C125.392 62.6776 134.912 59.7504 137.046 62.6776C136.406 60.1509 131.612 59.5079 126.269 62.8637Z" fill="#5F80F8"/>
<path opacity="0.15" d="M126.269 62.8637C122.426 65.2607 120.767 68.171 120.671 71.679C120.638 74.0889 120.734 76.4987 120.96 78.8982C120.236 79.4176 119.639 80.0931 119.214 80.8743C118.789 81.6556 118.546 82.5224 118.503 83.4102C118.503 85.7847 120.433 87.1947 122.816 86.5574C124.012 86.2047 125.069 85.4915 125.841 84.5158C126.614 83.5402 127.064 82.35 127.129 81.1091C127.178 80.3388 126.936 79.5781 126.452 78.9761C125.967 78.3741 125.274 77.9742 124.509 77.8548C124.027 74.5041 124.037 71.1016 124.537 67.7536C125.392 62.6776 134.912 59.7504 137.046 62.6776C136.406 60.1509 131.612 59.5079 126.269 62.8637Z" fill="black"/>
<path d="M124.882 81.707C124.894 81.4545 124.843 81.203 124.734 80.975C124.625 80.747 124.46 80.5496 124.256 80.4004C124.051 80.2511 123.812 80.1549 123.561 80.1201C123.31 80.0853 123.054 80.1131 122.816 80.2011C122.243 80.3704 121.737 80.7123 121.367 81.1799C120.997 81.6475 120.782 82.2178 120.75 82.8124C120.742 83.0636 120.795 83.3131 120.907 83.5387C121.018 83.7643 121.183 83.9591 121.388 84.1058C121.593 84.2525 121.831 84.3466 122.081 84.3797C122.331 84.4128 122.586 84.384 122.822 84.2957C123.391 84.1275 123.894 83.7887 124.262 83.3255C124.631 82.8623 124.847 82.2971 124.882 81.707Z" fill="#5F80F8"/>
<path d="M92.2921 117.944C92.199 118.034 92.1138 118.132 92.0374 118.237C91.9014 118.404 91.7995 118.596 91.7374 118.801C91.6964 118.92 91.6964 119.049 91.7374 119.168C91.7525 119.252 91.7941 119.329 91.8562 119.388C91.8861 119.422 91.9204 119.452 91.9581 119.478L89.8809 118.282C89.7977 118.236 89.729 118.168 89.6828 118.085C89.6498 118.006 89.6328 117.922 89.6328 117.837C89.6328 117.752 89.6498 117.667 89.6828 117.589C89.7281 117.449 89.7928 117.316 89.8752 117.194C89.9826 117.033 90.1038 116.882 90.2375 116.743L92.2921 117.944Z" fill="#5F80F8"/>
<path d="M92.3096 117.921C91.2285 119.049 91.6078 119.811 93.1586 119.613L101.841 118.615V108.051L92.3096 117.921Z" fill="#5F80F8"/>
<path d="M92.3091 117.921C91.6243 118.632 91.528 119.196 91.9356 119.472L89.8583 118.277C89.4225 118.006 89.5188 117.431 90.2093 116.709L99.7464 106.856L101.846 108.068L92.3091 117.921Z" fill="#5F80F8"/>
<path opacity="0.15" d="M92.2921 117.944C92.199 118.034 92.1138 118.132 92.0374 118.237C91.9059 118.407 91.8045 118.598 91.7374 118.801C91.7041 118.921 91.7041 119.048 91.7374 119.168C91.7539 119.251 91.7953 119.328 91.8562 119.388C91.8861 119.422 91.9204 119.452 91.9581 119.478L89.8809 118.282C89.7977 118.236 89.729 118.168 89.6828 118.085C89.6498 118.006 89.6328 117.922 89.6328 117.837C89.6328 117.752 89.6498 117.667 89.6828 117.589C89.7305 117.45 89.7951 117.317 89.8752 117.194C89.9826 117.033 90.1038 116.882 90.2375 116.743L92.2921 117.944Z" fill="black"/>
<path opacity="0.4" d="M101.846 108.051L92.3091 117.921L90.2036 116.709L99.7464 106.856L101.846 108.051Z" fill="white"/>
<path d="M150.76 104.408L152.673 107.668C152.673 107.668 165.205 101.047 165.912 100.178C166.62 99.3094 166.574 97.5554 166.682 96.6078C166.857 95.0286 166.274 93.6694 166.189 93.0998C166.02 91.8872 167.769 92.1692 168.323 92.6486C168.688 93.0351 168.991 93.4743 169.223 93.9514C169.495 94.4026 170.004 95.8746 170.525 95.9649C170.933 96.0382 171.742 95.4629 172.076 95.2148C173.451 94.177 174.3 92.7388 175.359 91.4247C175.547 91.142 175.809 90.9158 176.117 90.7704C176.387 90.7169 176.666 90.7251 176.933 90.7944C177.2 90.8638 177.447 90.9925 177.657 91.1709C178.103 91.4194 178.489 91.762 178.789 92.1748C178.971 92.4841 179.101 92.8214 179.173 93.1731C179.739 95.5644 178.506 97.5836 177.051 99.3771C175.591 101.141 173.86 102.664 171.923 103.889C170.791 104.634 169.274 105.293 167.961 105.993C166.648 106.692 152.577 118.44 150.607 117.109C148.253 115.284 146.143 113.165 144.331 110.804" fill="#FFA8A7"/>
<path d="M243.199 84.0306C247.727 84.0306 250.104 85.3842 251.983 89.5522C253.783 93.5397 259.369 105.107 259.092 107.91C258.815 110.713 247.342 122.648 247.342 122.648L244.065 118.7L251.174 106.799L244.172 96.7037L243.199 84.0306Z" fill="#FFA8A7"/>
<path d="M232.207 206.774C232.207 206.774 232.716 208.314 232.994 209.667C233.214 210.739 233.526 212.527 233.146 213.333C232.767 214.14 231.301 214.659 229.026 214.642C227.549 214.642 225.251 215.629 223.677 216.509C222.104 217.388 218.668 217.772 216.948 217.569C214.921 217.332 212.821 216.159 212.493 215.313C212.165 214.467 211.887 213.333 217.378 211.579C217.423 211.579 224.017 209.425 226.326 206.881L232.207 206.774Z" fill="#263238"/>
<path d="M232.208 206.926L231.16 206.797L226.327 206.892C224.017 209.436 217.424 211.579 217.378 211.591L216.501 211.884C215.544 212.651 216.354 213.954 218.618 214.14C220.882 214.326 227.94 211.974 229.502 211.224C230.322 210.845 231.013 210.237 231.493 209.474C231.973 208.711 232.222 207.826 232.208 206.926Z" fill="#FFA8A7"/>
<path d="M232.207 204.856C232.207 204.856 232.207 206.17 232.207 206.926C232.207 207.682 231.324 208.799 229.015 208.714C227.396 208.658 226.264 208.223 226.326 206.892V204.992L232.207 204.856Z" fill="#FFA8A7"/>
<path d="M247.704 198.128C248.118 198.297 248.202 199.098 248.219 200.683C248.219 201.878 248.44 203.977 247.02 204.36C245.599 204.744 243.544 204.467 242.673 203.317C241.586 201.878 240.856 200.615 239.277 198.85C237.924 197.321 236.447 195.889 235.949 193.774C235.49 191.867 235.949 191.061 237.245 190.542C238.541 190.023 239.735 190.452 241.546 191.958C242.052 192.299 242.592 192.584 243.159 192.809C244.365 193.187 247.286 197.959 247.704 198.128Z" fill="#263238"/>
<path d="M247.744 196.661L247.687 198.607C247.687 198.607 246.385 201.151 242.757 198.607C242.678 198.415 242.35 194.659 242.35 194.659L247.744 196.661Z" fill="#FFA8A7"/>
<path d="M243.176 192.821C242.609 192.596 242.068 192.31 241.563 191.969C240.103 191.501 237.035 192.042 238.41 194.163C239.563 195.906 241.038 197.415 242.757 198.607C244.399 199.414 244.97 198.415 244.97 198.415L244.404 193.853C244.078 193.421 243.658 193.068 243.176 192.821Z" fill="#FFA8A7"/>
<path d="M250.393 169.77C249.668 163.391 248.281 159.708 248.281 159.708C248.281 159.708 249.51 151.124 250.472 142.895C252.736 123.567 251.23 123.257 248.491 116.534C248.491 116.534 223.626 113.347 222.585 123.652C221.289 136.483 221.877 161.366 222.093 165.918C222.308 170.469 222.659 172.528 224.04 182.059C225.07 189.318 226.049 205.183 226.049 205.183C229.309 207.056 232.445 204.856 232.445 204.856C232.445 204.856 235.563 185.348 235.49 180.097C235.426 176.21 234.855 172.348 233.792 168.608C233.792 168.608 235.909 147.695 236.446 144.356C236.446 144.356 237.046 151.028 237.267 155.58C237.488 160.131 238.722 164.502 239.814 172.979C240.759 180.311 242.333 195.669 242.333 195.669C245.593 197.541 247.868 196.695 247.868 196.695C247.868 196.695 251.111 176.143 250.393 169.77Z" fill="#5F80F8"/>
<path d="M232.677 79.8571L233.588 89.4902L242.078 88.9544L241.399 78.2722L232.677 79.8571Z" fill="#FFA8A7"/>
<path d="M249.707 88.1196C248.841 85.5704 247.087 84.0758 243.198 84.0306L241.766 84.0758C241.495 85.497 237.312 86.6476 233.18 85.2038C232.614 85.356 231.001 85.6493 230.101 85.7678L228.12 86.0554C225.115 87.0368 223.785 92.2594 223.496 100.499C223.207 108.739 221.968 126.41 221.968 126.41C221.968 126.41 228.437 129.861 238.648 128.525C247.789 127.329 251.343 121.943 251.026 122.631C249.955 118.06 248.371 113.624 246.306 109.405C251.117 97.6118 250.987 91.9041 249.707 88.1196Z" fill="#455A64"/>
<path d="M233.588 128.818C235.28 128.836 236.971 128.734 238.648 128.513C246.98 127.425 250.67 122.873 251.015 122.574C249.945 118.019 248.365 113.598 246.306 109.394C248.74 103.438 249.906 99.0387 250.302 95.649C249.906 98.1194 246.244 107.685 241.45 110.556C241.45 110.556 244.156 110.973 246.47 114.143C248.785 117.312 246.884 128.135 233.588 128.818Z" fill="#37474F"/>
<path d="M230.102 85.7565C226.111 86.2584 222.676 86.9691 221.221 90.872C219.302 96.1869 216.359 101.077 212.556 105.265C210.077 107.91 199.9 112.975 197.608 112.597C195.315 112.219 193.249 108.965 192.072 109.642C190.895 110.319 193.476 112.642 193.334 113.218C193.193 113.793 189.061 112.597 187.108 111.215C185.156 109.834 183.995 113.799 186.542 116.765C189.089 119.732 193.855 119.963 199.04 118.931C204.224 117.899 213.699 114.831 217.463 111.334C222.398 106.737 223.298 104.239 225.438 100.279C232.252 95.0117 230.102 85.7565 230.102 85.7565Z" fill="#FFA8A7"/>
<path d="M228.234 67.8946C228.234 67.8946 225.03 64.0876 227.543 60.3765C230.509 55.9998 235.728 54.5222 242.18 56.4285C245.372 57.3704 250.064 61.7696 250.302 67.9397C250.483 72.6942 237.103 75.8357 237.318 79.0956L228.234 67.8946Z" fill="#263238"/>
<path d="M226.4 69.2877C226.4 69.2877 224.521 72.1077 224.764 72.4235C225.205 72.7116 225.694 72.9198 226.208 73.0383L226.4 69.2877Z" fill="#F28F8F"/>
<path d="M232.122 60.3145C230.294 61.2563 227.136 62.9935 226.321 69.7051C225.489 76.5915 227.028 78.9829 227.968 79.8853C228.608 80.4944 231.89 80.7143 233.628 80.1842C235.773 79.5243 240.42 77.2401 242.588 73.6869C245.146 69.502 245.672 63.9297 242.718 61.7414C238.535 58.6676 233.668 59.5192 232.122 60.3145Z" fill="#FFA8A7"/>
<path d="M231.584 60.6077C231.584 60.6077 229.988 66.8907 231.896 70.8612C231.896 70.8612 233.028 68.4078 235.128 69.1128C237.227 69.8178 237.063 72.6491 235.388 74.093C234.961 74.5084 234.424 74.7947 233.84 74.9184C233.256 75.0422 232.648 74.9985 232.088 74.7923C232.088 74.7923 232.145 78.2722 235.128 79.6483C235.128 79.6483 241.354 82.6206 247.014 76.6197C252.108 71.1714 251.468 61.3917 243.935 58.9157C236.401 56.4397 231.584 60.6077 231.584 60.6077Z" fill="#263238"/>
<path d="M256.93 87.1157C255.743 87.1157 254.567 86.8821 253.47 86.4282C252.373 85.9742 251.377 85.309 250.539 84.4706C249.701 83.6322 249.037 82.6371 248.585 81.5425C248.134 80.4478 247.904 79.2752 247.908 78.0917V66.5635C250.3 66.5635 252.593 67.5101 254.284 69.195C255.975 70.88 256.925 73.1652 256.925 75.5481L256.93 87.1157Z" fill="#263238"/>
<path d="M226.728 57.7877C223.926 60.6077 223.768 68.8478 231.896 70.8669L237.222 56.3213C234.12 54.3078 229.23 55.2384 226.728 57.7877Z" fill="#263238"/>
<path d="M231.081 73.106C230.877 73.0385 230.689 72.9312 230.528 72.7901C230.367 72.6491 230.235 72.4773 230.142 72.2849C230.048 72.0925 229.994 71.8834 229.983 71.6698C229.971 71.4562 230.003 71.2426 230.076 71.0414C230.149 70.8403 230.262 70.6558 230.407 70.4987C230.553 70.3417 230.729 70.2153 230.924 70.127C231.12 70.0387 231.331 69.9903 231.546 69.9847C231.76 69.9791 231.974 70.0163 232.173 70.0942L231.081 73.106Z" fill="#263238"/>
<path opacity="0.1" d="M236.458 144.367L237.81 135.744C240.535 135.419 243.157 134.511 245.497 133.082C245.497 133.082 243.799 135.625 239.327 136.686L237.946 146.674L237.38 157.136L236.458 144.367Z" fill="black"/>
</svg>
