<svg width="344" height="342" viewBox="0 0 344 342" fill="none" xmlns="http://www.w3.org/2000/svg">
<path d="M174.204 316.835C260.446 316.835 330.358 274.069 330.358 221.314C330.358 168.559 260.446 125.793 174.204 125.793C87.9624 125.793 18.0498 168.559 18.0498 221.314C18.0498 274.069 87.9624 316.835 174.204 316.835Z" fill="#9B51E0"/>
<path opacity="0.7" d="M174.204 316.835C260.446 316.835 330.358 274.069 330.358 221.314C330.358 168.559 260.446 125.793 174.204 125.793C87.9624 125.793 18.0498 168.559 18.0498 221.314C18.0498 274.069 87.9624 316.835 174.204 316.835Z" fill="white"/>
<path d="M162.573 39.3413L180.031 49.3462L178.2 28.5043L162.573 39.3413Z" fill="#263238"/>
<path d="M173.501 44.7563L144.483 111.374L125.138 91.9439L108.214 143.298L91.2904 125.253L76.7815 169.665L59.8579 151.626L64.2071 147.588L74.2365 158.282L88.7454 113.87L105.696 131.936L122.517 80.9023L142.521 100.994L168.033 42.4102L173.501 44.7563Z" fill="#37474F"/>
<path d="M76.7817 169.665L82.16 172.754L96.024 130.306L91.2906 125.253L76.7817 169.665Z" fill="#455A64"/>
<path d="M113.592 146.388L108.214 143.298L125.137 91.9439L129.974 96.6906L113.592 146.388Z" fill="#455A64"/>
<path d="M149.861 114.464L144.483 111.374L173.501 44.7563L178.879 47.8458L149.861 114.464Z" fill="#455A64"/>
<path d="M64.207 147.588L75.5946 154.129L74.2363 158.282L64.207 147.588Z" fill="#263238"/>
<path d="M88.7456 113.87L97.2177 118.726L107.432 126.651L105.697 131.936L88.7456 113.87Z" fill="#263238"/>
<path d="M122.517 80.9023L130.989 85.7513L144.414 96.6429L142.521 100.994L122.517 80.9023Z" fill="#263238"/>
<path d="M167.464 41.2985L184.916 51.3035L183.304 30.482L167.464 41.2985Z" fill="#455A64"/>
<path d="M178.2 28.5042L183.304 30.482L167.464 41.2985L162.573 39.3412L178.2 28.5042Z" fill="#37474F"/>
<path d="M180.031 49.3461L184.916 51.3035L178.879 47.8457L178.584 48.5209L180.031 49.3461Z" fill="#263238"/>
<path opacity="0.15" d="M104.938 279.741C106.688 280.73 107.909 281.705 109.74 281.787C112.405 281.804 114.988 280.87 117.019 279.155C116.322 280.215 115.386 281.099 114.284 281.735C113.182 282.371 111.945 282.742 110.673 282.817C109.523 282.894 108.374 282.646 107.359 282.102C106.345 281.558 105.505 280.739 104.938 279.741Z" fill="black"/>
<path opacity="0.15" d="M105.213 282.537C106.025 283.159 106.956 283.607 107.95 283.855C108.944 284.102 109.978 284.144 110.989 283.976C110.989 283.976 110.104 284.767 107.936 284.406C105.769 284.044 105.213 282.537 105.213 282.537Z" fill="black"/>
<path opacity="0.15" d="M143.69 256.307C147.806 257.787 150.386 259.533 149.864 260.734C149.343 261.934 146.798 263.837 146.798 263.837C146.798 263.837 150.31 261.934 151.264 260.863C152.217 259.793 151.202 258.776 148.52 257.637C146.982 256.967 145.356 256.52 143.69 256.307Z" fill="black"/>
<path opacity="0.1" d="M116.292 285.695C122.336 283.649 128.88 279.325 134.492 276.399C140.416 273.303 146.181 269.914 151.765 266.244C153.411 265.167 155.161 263.857 155.538 261.934C155.84 260.4 155.257 259.752 153.994 258.845C151.457 257.018 148.646 255.598 145.666 254.637C144.327 254.088 142.896 253.789 141.448 253.757C139.781 253.832 138.127 254.064 136.474 254.296C134.416 254.589 132.358 255.66 130.52 256.533C128.503 257.487 126.548 258.579 124.593 259.629L111.716 266.674C107.052 269.231 104.506 270.582 98.9842 274.135C97.8934 274.817 94.9711 276.617 94.9231 277.906C94.875 279.195 95.8697 280.3 96.8782 281.139C102.243 285.572 109.741 287.891 116.292 285.695Z" fill="black"/>
<path d="M134.718 246.289C131.974 244.741 128.372 244.761 124.311 246.705C114.707 251.308 106.139 264.942 105.213 277.156C104.691 284.072 106.722 289.05 110.323 291.24C111.25 291.799 114.831 293.818 115.688 294.322C118.432 295.945 122.095 295.959 126.232 293.981C135.836 289.385 144.397 275.751 145.323 263.53C145.858 256.505 143.752 251.479 140.041 249.351L134.718 246.289Z" fill="#9B51E0"/>
<path opacity="0.25" d="M134.718 246.289C131.974 244.741 128.372 244.761 124.311 246.705C114.707 251.308 106.139 264.942 105.213 277.156C104.691 284.072 106.722 289.05 110.323 291.24C111.25 291.799 114.831 293.818 115.688 294.322C118.432 295.945 122.095 295.959 126.232 293.981C135.836 289.385 144.397 275.751 145.323 263.53C145.858 256.505 143.752 251.479 140.041 249.351L134.718 246.289Z" fill="black"/>
<path opacity="0.1" d="M143.883 271.011L114.913 254.377C109.658 260.652 105.816 269.211 105.213 277.163C104.691 284.079 106.722 289.057 110.323 291.246C111.25 291.806 114.831 293.824 115.688 294.329C118.432 295.952 122.095 295.966 126.232 293.988C133.915 290.319 140.905 280.88 143.883 271.011Z" fill="black"/>
<path opacity="0.1" d="M106.818 269.17C105.977 271.765 105.439 274.446 105.213 277.163C104.691 284.079 106.722 289.057 110.323 291.246C111.25 291.806 114.831 293.824 115.688 294.329C118.432 295.952 122.095 295.966 126.232 293.988C130.028 292.028 133.349 289.27 135.966 285.906L106.818 269.17Z" fill="black"/>
<path d="M129.586 249.74C119.982 254.343 111.421 267.977 110.495 280.198C109.569 292.419 116.614 298.612 126.232 293.988C135.849 289.364 144.397 275.758 145.323 263.537C146.249 251.315 139.204 245.143 129.586 249.74Z" fill="#9B51E0"/>
<path opacity="0.2" d="M129.586 249.74C119.982 254.343 111.421 267.977 110.495 280.198C109.569 292.419 116.614 298.612 126.232 293.988C135.849 289.364 144.397 275.758 145.323 263.537C146.249 251.315 139.204 245.143 129.586 249.74Z" fill="black"/>
<path d="M139.114 266.326C138.527 270.454 137.053 274.408 134.793 277.92C132.453 281.651 129.572 284.583 126.684 286.172C123.618 287.864 120.874 287.857 118.946 286.172C117.018 284.488 116.202 281.398 116.703 277.429C117.291 273.301 118.765 269.347 121.025 265.835C123.364 262.098 126.245 259.172 129.14 257.576C132.193 255.898 134.937 255.898 136.864 257.576C138.792 259.254 139.574 262.377 139.114 266.326Z" fill="#9B51E0"/>
<path opacity="0.4" d="M139.114 266.326C138.527 270.454 137.053 274.408 134.793 277.92C132.453 281.651 129.572 284.583 126.684 286.172C123.618 287.864 120.874 287.857 118.946 286.172C117.018 284.488 116.202 281.398 116.703 277.429C117.291 273.301 118.765 269.347 121.025 265.835C123.364 262.098 126.245 259.172 129.14 257.576C132.193 255.898 134.937 255.898 136.864 257.576C138.792 259.254 139.574 262.377 139.114 266.326Z" fill="black"/>
<path d="M140.823 251.268C138.161 248.935 134.327 248.792 130.019 250.845C125.532 253 121.101 257.255 117.616 262.848C114.221 268.126 112.129 274.127 111.51 280.362C111.099 285.818 112.333 290.128 114.995 292.46C117.657 294.793 121.492 294.943 125.8 292.883C130.293 290.735 134.718 286.479 138.202 280.887C141.604 275.6 143.694 269.586 144.301 263.339C144.719 257.883 143.485 253.6 140.823 251.268ZM136.865 257.583C138.786 259.267 139.609 262.357 139.115 266.326C138.527 270.454 137.053 274.408 134.793 277.92C132.454 281.651 129.573 284.583 126.685 286.172C123.618 287.864 120.874 287.857 118.946 286.172C117.019 284.488 116.202 281.398 116.703 277.429C117.291 273.301 118.765 269.347 121.025 265.835C123.364 262.098 126.246 259.172 129.14 257.576C132.193 255.898 134.937 255.898 136.865 257.583Z" fill="#9B51E0"/>
<path opacity="0.2" d="M135.059 275.725C139.327 267.952 139.586 259.915 135.639 257.773C131.692 255.63 125.032 260.195 120.764 267.967C116.496 275.74 116.237 283.777 120.184 285.919C124.131 288.062 130.791 283.497 135.059 275.725Z" fill="black"/>
<path d="M135.059 275.725C139.327 267.952 139.586 259.915 135.639 257.773C131.692 255.63 125.032 260.195 120.764 267.967C116.496 275.74 116.237 283.777 120.184 285.919C124.131 288.062 130.791 283.497 135.059 275.725Z" fill="#9B51E0"/>
<path opacity="0.6" d="M135.059 275.725C139.327 267.952 139.586 259.915 135.639 257.773C131.692 255.63 125.032 260.195 120.764 267.967C116.496 275.74 116.237 283.777 120.184 285.919C124.131 288.062 130.791 283.497 135.059 275.725Z" fill="black"/>
<path d="M136.666 264.703C135.781 272.123 130.403 280.696 124.654 283.853C122.281 285.163 120.216 285.333 118.672 284.57C117.602 283.042 117.143 280.655 117.506 277.586C118.391 270.173 123.769 261.593 129.518 258.435C131.892 257.126 133.956 256.955 135.5 257.753C136.57 259.247 137.03 261.634 136.666 264.703Z" fill="#9B51E0"/>
<path opacity="0.5" d="M136.666 264.703C135.781 272.123 130.403 280.696 124.654 283.853C122.281 285.163 120.216 285.333 118.672 284.57C117.602 283.042 117.143 280.655 117.506 277.586C118.391 270.173 123.769 261.593 129.518 258.435C131.892 257.126 133.956 256.955 135.5 257.753C136.57 259.247 137.03 261.634 136.666 264.703Z" fill="black"/>
<path d="M133.586 265.801C133.133 265.474 132.008 264.908 131.466 264.58C131.238 264.425 130.968 264.342 130.691 264.342C130.414 264.342 130.144 264.425 129.916 264.58L130.403 263.1C129.672 262.742 128.967 262.337 128.29 261.886C128.02 261.859 127.748 261.894 127.494 261.989C126.938 262.221 126.442 262.578 126.047 263.032C125.117 264.068 124.337 265.227 123.728 266.476L122.575 265.862L120.799 269.832L121.039 270.002L121.855 270.609C121.168 272.068 120.767 273.645 120.675 275.253C120.675 275.369 120.675 275.472 120.675 275.574C120.627 276.72 120.874 277.579 121.471 278.009C121.917 278.329 123.296 279.039 123.584 279.216C124.153 279.625 124.771 279.461 125.402 278.957L124.99 280.218L127.11 281.432C128.4 281.385 129.895 279.836 131.473 276.863L132.536 277.627L134.334 273.623L133.257 272.887C133.85 271.453 134.233 269.942 134.395 268.399V268.365C134.464 267.144 134.21 266.251 133.586 265.801Z" fill="#9B51E0"/>
<path d="M123.152 271.237L123.975 271.837C123.284 273.295 122.882 274.872 122.788 276.481C122.788 276.597 122.788 276.699 122.788 276.808C122.747 277.954 122.994 278.807 123.584 279.236C124.222 279.693 124.915 279.441 125.642 278.8C125.704 278.745 125.765 278.67 125.827 278.623L126.019 278.418C126.08 278.355 126.137 278.289 126.191 278.22C126.212 278.192 126.235 278.164 126.259 278.138C126.3 278.084 126.348 278.036 126.39 277.975C126.776 277.486 127.138 276.979 127.473 276.454C127.645 276.181 127.816 275.908 127.981 275.622C128.228 275.219 128.468 274.81 128.667 274.415C128.756 274.251 128.845 274.101 128.935 273.951C129.38 273.12 129.882 272.32 130.437 271.557C130.677 271.257 130.876 271.086 131.048 271.059C131.141 271.045 131.237 271.067 131.315 271.121C131.631 271.352 131.631 272.157 130.883 273.849C130.135 275.54 129.346 276.406 128.777 276.311L127.076 281.501C128.365 281.453 129.861 279.905 131.439 276.931L132.502 277.695L134.299 273.692L133.256 272.887C133.85 271.453 134.233 269.942 134.395 268.399V268.365C134.464 267.145 134.21 266.251 133.586 265.801C132.214 264.785 130.581 267.001 129.072 269.525C127.7 271.891 126.616 274.128 125.937 273.617C125.518 273.303 125.717 272.253 126.307 270.971C127.247 268.884 128.139 268.44 128.598 268.556L130.403 263.1C130.133 263.077 129.862 263.112 129.607 263.203C129.05 263.435 128.555 263.792 128.159 264.246C127.202 265.338 126.395 266.551 125.758 267.854L124.695 267.076L122.912 271.046L123.152 271.237Z" fill="#9B51E0"/>
<path d="M122.912 271.059L124.805 267.588L125.759 267.867L124.695 267.09L122.912 271.059Z" fill="#F5F5F5"/>
<path d="M129.915 263.544L128.598 268.577L130.402 263.121C130.133 263.098 129.861 263.133 129.607 263.223C129.05 263.456 128.555 263.813 128.159 264.266C127.816 264.635 127.5 265.027 127.212 265.439L127.226 265.385C127.916 264.517 128.853 263.875 129.915 263.544Z" fill="#F5F5F5"/>
<path d="M128.797 276.297L127.096 281.487L128.9 276.631C129.673 276.235 130.271 275.57 130.581 274.762C130.862 274.188 131.091 273.59 131.267 272.976C131.178 273.235 131.068 273.508 130.924 273.828C130.108 275.574 129.367 276.365 128.797 276.297Z" fill="#F5F5F5"/>
<path d="M131.459 276.89L132.461 277.415L134.32 273.651L132.522 277.654L131.459 276.89Z" fill="#F5F5F5"/>
<path opacity="0.3" d="M122.774 276.808C122.774 276.699 122.774 276.597 122.774 276.481C122.868 274.872 123.271 273.295 123.961 271.837L123.138 271.236L122.898 271.059L124.682 267.09L125.745 267.867C126.381 266.565 127.188 265.351 128.146 264.26C128.541 263.806 129.037 263.449 129.593 263.216C129.848 263.126 130.12 263.091 130.389 263.114L130.156 263.837L130.389 263.114C129.659 262.756 128.953 262.35 128.276 261.9C128.007 261.873 127.734 261.908 127.48 262.002C126.924 262.235 126.429 262.592 126.033 263.046C125.104 264.082 124.323 265.241 123.714 266.49L122.562 265.876L120.785 269.845L121.025 270.016L121.842 270.623C121.154 272.082 120.754 273.658 120.662 275.267C120.662 275.383 120.662 275.485 120.662 275.588C120.614 276.733 120.861 277.593 121.457 278.022C121.903 278.343 123.282 279.052 123.57 279.229C122.98 278.807 122.733 277.954 122.774 276.808Z" fill="black"/>
<path opacity="0.3" d="M130.903 273.808C131.651 272.137 131.651 271.339 131.336 271.08C131.258 271.026 131.162 271.004 131.068 271.018C130.897 271.018 130.698 271.216 130.458 271.516C129.902 272.279 129.4 273.079 128.955 273.91C128.866 274.06 128.777 274.21 128.688 274.374C128.454 274.769 128.214 275.179 128.002 275.581C127.837 275.867 127.665 276.14 127.494 276.413C127.159 276.938 126.797 277.445 126.41 277.934C126.369 277.995 126.321 278.043 126.28 278.097C126.255 278.123 126.232 278.151 126.211 278.179C126.157 278.248 126.1 278.314 126.04 278.377L125.848 278.582C125.786 278.629 125.724 278.704 125.662 278.759L125.443 278.936L125.031 280.198L127.151 281.412L128.852 276.222C129.367 276.365 130.108 275.574 130.903 273.808Z" fill="black"/>
<path opacity="0.3" d="M126.307 270.991C125.717 272.3 125.518 273.323 125.937 273.637C126.623 274.128 127.672 271.891 129.072 269.545C130.581 267.022 132.186 264.805 133.586 265.821C133.133 265.494 132.008 264.928 131.466 264.601C131.238 264.445 130.967 264.362 130.691 264.362C130.414 264.362 130.144 264.445 129.916 264.601L128.599 268.577C128.139 268.461 127.227 268.904 126.307 270.991Z" fill="black"/>
<path opacity="0.1" d="M126.307 270.991C125.717 272.3 125.518 273.323 125.937 273.637C126.623 274.128 127.672 271.891 129.072 269.545C130.581 267.022 132.186 264.805 133.586 265.821C133.133 265.494 132.008 264.928 131.466 264.601C131.238 264.445 130.967 264.362 130.691 264.362C130.414 264.362 130.144 264.445 129.916 264.601L128.599 268.577C128.139 268.461 127.227 268.904 126.307 270.991Z" fill="black"/>
<path opacity="0.4" d="M120.799 269.845L122.912 271.059L123.975 271.837L121.855 270.623L120.799 269.845Z" fill="black"/>
<path opacity="0.1" d="M122.788 276.481C122.882 274.872 123.285 273.295 123.975 271.837L121.855 270.623C121.168 272.082 120.767 273.658 120.675 275.267C120.675 275.383 120.675 275.485 120.675 275.588C120.627 276.733 120.874 277.593 121.471 278.022C121.917 278.343 123.296 279.052 123.584 279.23C122.994 278.8 122.747 277.947 122.788 276.802C122.781 276.699 122.781 276.597 122.788 276.481Z" fill="black"/>
<path opacity="0.1" d="M127.46 276.44C127.124 276.965 126.763 277.472 126.376 277.961C126.335 278.022 126.287 278.07 126.246 278.125C126.221 278.151 126.198 278.178 126.177 278.207C126.123 278.275 126.066 278.341 126.005 278.404L125.813 278.609C125.752 278.657 125.69 278.732 125.628 278.786L125.409 278.964L124.997 280.225L127.117 281.439L128.818 276.249L127.913 275.751L127.46 276.44Z" fill="black"/>
<path d="M125.642 292.488C132.317 289.507 138.203 280.894 138.203 280.894C134.697 286.486 130.293 290.742 125.8 292.89C121.492 294.936 117.657 294.8 114.995 292.467C114.995 292.46 118.85 295.522 125.642 292.488Z" fill="#F5F5F5"/>
<path d="M115.771 263.803C119.324 257.542 124.291 252.277 129.587 249.74C135.075 247.107 139.753 248.008 142.559 251.547C142.559 251.547 137.839 246.016 129.559 250.279C121.279 254.541 115.771 263.803 115.771 263.803Z" fill="#F5F5F5"/>
<path opacity="0.15" d="M52.3015 209.304C49.4066 211.909 48.5971 212.619 48.9607 213.594C49.3242 214.569 53.5431 216.963 53.5431 216.963C53.5431 216.963 49.7153 215.899 48.3844 214.876C47.0536 213.853 47.1428 213.021 48.3844 211.65C49.6261 210.279 52.3015 209.304 52.3015 209.304Z" fill="black"/>
<path opacity="0.15" d="M88.5569 190.597C92.522 193.604 95.2317 195.664 93.0776 198.024C90.9236 200.384 82.918 204.387 82.918 204.387C82.918 204.387 91.0265 201.945 94.4839 199.026C97.9414 196.107 93.8391 193.25 88.5569 190.597Z" fill="black"/>
<path opacity="0.15" d="M47.0333 211.302C46.2444 212.414 45.8808 213.887 47.2322 215.162C47.2322 215.162 45.6338 214.637 45.6475 213.232C45.6817 212.816 45.8286 212.417 46.0726 212.077C46.3165 211.737 46.6485 211.47 47.0333 211.302Z" fill="black"/>
<path opacity="0.1" d="M61.7822 220.161C67.8327 218.115 74.3703 213.798 79.9818 210.873C85.9088 207.776 91.6438 204.373 97.2621 200.718C98.9017 199.633 100.651 198.324 101.028 196.401C101.33 194.866 100.747 194.225 99.4848 193.318C96.9478 191.488 94.1376 190.066 91.1567 189.103C89.8183 188.557 88.3909 188.259 86.9447 188.223C85.2777 188.305 83.6176 188.53 81.9712 188.769C79.9132 189.062 77.8552 190.133 76.0098 191.006C73.9999 191.961 72.0379 193.052 70.0828 194.102L57.2134 201.147C52.5418 203.698 50.0036 205.048 44.4744 208.608C43.3905 209.29 40.4613 211.084 40.4133 212.373C40.3653 213.662 41.36 214.774 42.3684 215.606C47.7329 220.039 55.2309 222.364 61.7822 220.161Z" fill="black"/>
<path d="M79.9955 175.988C77.2515 174.44 73.65 174.454 69.582 176.404C59.978 181.001 51.4167 194.634 50.4906 206.856C49.9624 213.771 51.9929 218.75 55.6013 220.932C56.5274 221.491 60.1083 223.51 60.959 224.015C63.703 225.645 67.3731 225.658 71.5028 223.681C81.1068 219.077 89.6749 205.444 90.601 193.229C91.1293 186.205 89.0301 181.178 85.3188 179.051C84.4339 178.546 80.901 176.5 79.9955 175.988Z" fill="#9B51E0"/>
<path opacity="0.25" d="M79.9955 175.988C77.2515 174.44 73.65 174.454 69.582 176.404C59.978 181.001 51.4167 194.634 50.4906 206.856C49.9624 213.771 51.9929 218.75 55.6013 220.932C56.5274 221.491 60.1083 223.51 60.959 224.015C63.703 225.645 67.3731 225.658 71.5028 223.681C81.1068 219.077 89.6749 205.444 90.601 193.229C91.1293 186.205 89.0301 181.178 85.3188 179.051C84.4339 178.546 80.901 176.5 79.9955 175.988Z" fill="black"/>
<path opacity="0.1" d="M89.1604 200.697L60.1907 184.07C54.929 190.365 51.0806 198.897 50.4906 206.856C49.9624 213.771 51.9929 218.75 55.6013 220.932C56.5274 221.491 60.1083 223.51 60.959 224.015C63.703 225.645 67.3731 225.658 71.5028 223.681C79.2066 220.005 86.1832 210.573 89.1604 200.697Z" fill="black"/>
<path opacity="0.1" d="M52.089 198.863C51.2536 201.458 50.7174 204.14 50.4906 206.856C49.9624 213.771 51.9929 218.75 55.6013 220.932C56.5274 221.491 60.1083 223.51 60.959 224.015C63.703 225.645 67.3731 225.658 71.5028 223.681C75.3085 221.723 78.6397 218.966 81.2646 215.599L52.089 198.863Z" fill="black"/>
<path d="M74.8641 179.453C65.2601 184.05 56.692 197.683 55.7659 209.904C54.8398 222.126 61.885 228.318 71.5027 223.701C81.1204 219.084 89.6749 205.464 90.6009 193.25C91.5271 181.035 84.4818 174.829 74.8641 179.453Z" fill="#9B51E0"/>
<path opacity="0.2" d="M74.8641 179.453C65.2601 184.05 56.692 197.683 55.7659 209.904C54.8398 222.126 61.885 228.318 71.5027 223.701C81.1204 219.084 89.6749 205.464 90.6009 193.25C91.5271 181.035 84.4818 174.829 74.8641 179.453Z" fill="black"/>
<path d="M84.3927 196.012C83.8003 200.14 82.3242 204.093 80.064 207.606C77.7247 211.336 74.8435 214.269 71.9555 215.858C68.8959 217.543 66.1451 217.543 64.2243 215.858C62.3035 214.173 61.4803 211.084 61.981 207.115C62.5631 202.986 64.035 199.032 66.296 195.521C68.6352 191.783 71.5164 188.858 74.4114 187.269C77.4709 185.584 80.2149 185.584 82.1357 187.269C84.0565 188.953 84.8591 192.063 84.3927 196.012Z" fill="#9B51E0"/>
<path opacity="0.4" d="M84.3927 196.012C83.8003 200.14 82.3242 204.093 80.064 207.606C77.7247 211.336 74.8435 214.269 71.9555 215.858C68.8959 217.543 66.1451 217.543 64.2243 215.858C62.3035 214.173 61.4803 211.084 61.981 207.115C62.5631 202.986 64.035 199.032 66.296 195.521C68.6352 191.783 71.5164 188.858 74.4114 187.269C77.4709 185.584 80.2149 185.584 82.1357 187.269C84.0565 188.953 84.8591 192.063 84.3927 196.012Z" fill="black"/>
<path d="M86.0666 180.96C83.4118 178.628 79.5702 178.478 75.2621 180.537C70.7756 182.686 66.3441 186.948 62.8661 192.54C59.388 198.133 57.2546 204.346 56.7881 210.047C56.3696 215.503 57.6113 219.82 60.2661 222.146C62.9209 224.472 66.7625 224.635 71.0706 222.569C75.5639 220.421 79.9886 216.165 83.4735 210.579C86.9584 204.994 89.1467 198.76 89.5789 193.059C89.9905 187.589 88.7626 183.292 86.0666 180.96ZM82.1084 187.269C84.036 188.953 84.8524 192.043 84.3653 196.012C83.7729 200.14 82.2969 204.093 80.0366 207.606C77.6974 211.336 74.8162 214.269 71.9281 215.858C68.8686 217.543 66.1177 217.543 64.1969 215.858C62.2761 214.173 61.4529 211.084 61.9537 207.115C62.5358 202.986 64.0076 199.032 66.2686 195.521C68.6079 191.783 71.4891 188.858 74.384 187.269C77.471 185.591 80.215 185.591 82.1358 187.269H82.1084Z" fill="#9B51E0"/>
<path opacity="0.2" d="M80.3351 205.424C84.603 197.652 84.8629 189.614 80.9156 187.472C76.9683 185.33 70.3086 189.894 66.0407 197.666C61.7728 205.439 61.5129 213.476 65.4602 215.619C69.4075 217.761 76.0672 213.197 80.3351 205.424Z" fill="black"/>
<path d="M80.3351 205.424C84.603 197.652 84.8629 189.614 80.9156 187.472C76.9683 185.33 70.3086 189.894 66.0407 197.666C61.7728 205.439 61.5129 213.476 65.4602 215.619C69.4075 217.761 76.0672 213.197 80.3351 205.424Z" fill="#9B51E0"/>
<path opacity="0.6" d="M80.3351 205.424C84.603 197.652 84.8629 189.614 80.9156 187.472C76.9683 185.33 70.3086 189.894 66.0407 197.666C61.7728 205.439 61.5129 213.476 65.4602 215.619C69.4075 217.761 76.0672 213.197 80.3351 205.424Z" fill="black"/>
<path d="M81.9503 194.389C81.0654 201.809 75.6871 210.382 69.9453 213.546C67.5649 214.849 65.5 215.026 63.9565 214.228C62.8863 212.707 62.4267 210.32 62.7903 207.251C63.6821 199.831 69.0535 191.258 74.8022 188.094C77.1757 186.791 79.2475 186.614 80.791 187.412C81.8474 188.933 82.307 191.32 81.9503 194.389Z" fill="#9B51E0"/>
<path opacity="0.5" d="M81.9503 194.389C81.0654 201.809 75.6871 210.382 69.9453 213.546C67.5649 214.849 65.5 215.026 63.9565 214.228C62.8863 212.707 62.4267 210.32 62.7903 207.251C63.6821 199.831 69.0535 191.258 74.8022 188.094C77.1757 186.791 79.2475 186.614 80.791 187.412C81.8474 188.933 82.307 191.32 81.9503 194.389Z" fill="black"/>
<path d="M78.8568 195.487C78.404 195.159 77.2859 194.593 76.7439 194.273C76.5156 194.117 76.2454 194.034 75.9687 194.034C75.6921 194.034 75.4218 194.117 75.1936 194.273L75.6806 192.793C74.9487 192.434 74.2407 192.028 73.5609 191.579C73.2918 191.55 73.0197 191.583 72.7651 191.674C72.2116 191.913 71.7174 192.269 71.3177 192.718C70.3909 193.743 69.6106 194.891 68.999 196.128L67.8534 195.514L66.0698 199.483L66.3099 199.661L67.1331 200.261C66.4427 201.719 66.0398 203.296 65.9463 204.905C65.9463 205.021 65.9463 205.13 65.9463 205.233C65.9051 206.378 66.1521 207.238 66.742 207.66C67.1879 207.974 68.5737 208.683 68.8618 208.861C69.4312 209.263 70.0486 209.099 70.6797 208.602L70.2681 209.863L72.381 211.077C73.6775 211.03 75.1661 209.481 76.7439 206.501L77.8072 207.272L79.6045 203.268L78.5207 202.58C79.114 201.143 79.4975 199.63 79.6594 198.085V198.051C79.7417 196.83 79.4879 195.944 78.8568 195.487Z" fill="#9B51E0"/>
<path d="M68.4296 200.922L69.2459 201.522C68.5598 202.982 68.1594 204.558 68.066 206.167C68.066 206.29 68.066 206.392 68.066 206.494C68.0249 207.64 68.2649 208.499 68.8618 208.922C69.4929 209.372 70.1926 209.12 70.9198 208.479L71.0981 208.301L71.2971 208.097C71.3553 208.034 71.4102 207.968 71.4617 207.899L71.5372 207.817L71.6675 207.66C72.0311 207.203 72.3947 206.672 72.7445 206.133C72.916 205.867 73.0875 205.587 73.259 205.301C73.506 204.898 73.7461 204.489 73.945 204.1L74.2194 203.63C74.6662 202.8 75.1681 202 75.7218 201.236C75.955 200.943 76.1539 200.772 76.3323 200.745C76.3776 200.735 76.4246 200.735 76.4697 200.746C76.5148 200.757 76.557 200.777 76.593 200.806C76.9154 201.038 76.9086 201.836 76.1677 203.5C75.3719 205.273 74.631 206.058 74.0548 205.962L72.3467 211.152C73.6432 211.105 75.1318 209.556 76.7096 206.576L77.7729 207.347L79.5702 203.343L78.5207 202.58C79.114 201.143 79.4975 199.63 79.6594 198.085V198.051C79.728 196.83 79.4742 195.944 78.8431 195.487C77.4711 194.471 75.8384 196.687 74.3361 199.217C72.9641 201.577 71.8802 203.814 71.201 203.309C70.7757 203.002 70.9815 201.979 71.5715 200.67C72.5044 198.576 73.3962 198.14 73.8627 198.249L75.6669 192.793C75.3978 192.763 75.1254 192.796 74.8711 192.888C74.3158 193.126 73.8212 193.485 73.4237 193.939C72.4657 195.029 71.6561 196.239 71.0158 197.54L69.9525 196.769L68.1758 200.731L68.4296 200.922Z" fill="#9B51E0"/>
<path d="M68.1895 200.745L70.0828 197.274L71.0295 197.553L69.9662 196.782L68.1895 200.745Z" fill="#F5F5F5"/>
<path d="M75.1936 193.229L73.8765 198.262L75.6806 192.806C75.4115 192.777 75.1392 192.81 74.8849 192.902C74.3295 193.14 73.8349 193.499 73.4374 193.952C73.0904 194.324 72.7717 194.72 72.4839 195.139L72.5319 195.084C73.2118 194.215 74.1393 193.568 75.1936 193.229Z" fill="#F5F5F5"/>
<path d="M74.0685 205.955L72.3467 211.152L74.1509 206.296C74.9232 205.9 75.5216 205.235 75.8316 204.428C76.1133 203.851 76.3428 203.251 76.5176 202.634C76.4284 202.893 76.3186 203.173 76.1814 203.487C75.3857 205.267 74.6448 206.051 74.0685 205.955Z" fill="#F5F5F5"/>
<path d="M76.73 206.576L77.7384 207.101L79.5906 203.343L77.7933 207.347L76.73 206.576Z" fill="#F5F5F5"/>
<path opacity="0.3" d="M68.0524 206.494C68.0524 206.392 68.0524 206.29 68.0524 206.167C68.1457 204.558 68.5462 202.982 69.2323 201.522L68.4159 200.922L68.1758 200.745L69.9526 196.782L71.0159 197.553C71.6562 196.253 72.4657 195.042 73.4237 193.952C73.8212 193.499 74.3158 193.14 74.8712 192.902C75.1255 192.81 75.3978 192.777 75.667 192.806L75.4269 193.523L75.667 192.806C74.935 192.447 74.227 192.042 73.5472 191.592C73.2781 191.564 73.006 191.597 72.7515 191.688C72.1979 191.926 71.7037 192.282 71.304 192.731C70.3772 193.757 69.597 194.904 68.9853 196.141L67.8397 195.528L66.0561 199.497L66.2962 199.674L67.1194 200.274C66.429 201.733 66.0261 203.309 65.9326 204.919C65.9326 205.035 65.9326 205.144 65.9326 205.246C65.8915 206.392 66.1384 207.251 66.7284 207.674C67.1743 207.988 68.56 208.697 68.8481 208.874C68.2307 208.499 68.0112 207.64 68.0524 206.494Z" fill="black"/>
<path opacity="0.3" d="M76.1813 203.493C76.9222 201.829 76.929 201.031 76.6066 200.799C76.5706 200.77 76.5284 200.75 76.4833 200.739C76.4382 200.729 76.3912 200.728 76.3459 200.738C76.1676 200.738 75.9686 200.936 75.7354 201.229C75.1817 201.993 74.6798 202.793 74.233 203.623L73.9586 204.094C73.7323 204.482 73.4922 204.891 73.2726 205.294C73.1011 205.58 72.9296 205.86 72.7581 206.126C72.4083 206.665 72.0721 207.197 71.6811 207.654L71.5508 207.81L71.4753 207.892C71.4238 207.961 71.3689 208.027 71.3107 208.09L71.1117 208.295L70.9334 208.472L70.7139 208.656L70.3022 209.918L72.4151 211.132L74.1164 205.935C74.6446 206.051 75.3855 205.267 76.1813 203.493Z" fill="black"/>
<path opacity="0.3" d="M71.5852 200.684C70.9952 201.993 70.7894 203.016 71.2148 203.323C71.9008 203.814 72.9503 201.577 74.3498 199.231C75.8521 196.701 77.4574 194.457 78.8568 195.5C78.404 195.173 77.2859 194.607 76.7439 194.286C76.5156 194.131 76.2454 194.048 75.9687 194.048C75.6921 194.048 75.4218 194.131 75.1936 194.286L73.8764 198.262C73.41 198.153 72.5182 198.59 71.5852 200.684Z" fill="black"/>
<path opacity="0.1" d="M71.5852 200.684C70.9952 201.993 70.7894 203.016 71.2148 203.323C71.9008 203.814 72.9503 201.577 74.3498 199.231C75.8521 196.701 77.4574 194.457 78.8568 195.5C78.404 195.173 77.2859 194.607 76.7439 194.286C76.5156 194.131 76.2454 194.048 75.9687 194.048C75.6921 194.048 75.4218 194.131 75.1936 194.286L73.8764 198.262C73.41 198.153 72.5182 198.59 71.5852 200.684Z" fill="black"/>
<path opacity="0.4" d="M66.0698 199.531L68.1896 200.745L69.246 201.522L67.1331 200.308L66.0698 199.531Z" fill="black"/>
<path opacity="0.1" d="M68.066 206.167C68.1594 204.558 68.5598 202.982 69.2459 201.522L67.1331 200.308C66.4427 201.767 66.0398 203.344 65.9463 204.953C65.9463 205.069 65.9463 205.178 65.9463 205.28C65.9051 206.426 66.1521 207.285 66.742 207.708C67.1879 208.022 68.5737 208.731 68.8618 208.908C68.265 208.486 68.0249 207.626 68.066 206.481C68.0523 206.392 68.0592 206.29 68.066 206.167Z" fill="black"/>
<path opacity="0.1" d="M72.7308 206.126C72.3809 206.665 72.0448 207.197 71.6538 207.654L71.5234 207.81L71.448 207.892C71.3965 207.961 71.3415 208.027 71.2833 208.09L71.0844 208.295L70.906 208.472L70.6865 208.656L70.2749 209.918L72.3878 211.132L74.0891 205.935L73.1767 205.423C73.0326 205.676 72.8748 205.908 72.7308 206.126Z" fill="black"/>
<path d="M70.9197 222.18C77.5945 219.193 83.4735 210.586 83.4735 210.586C79.968 216.172 75.5639 220.427 71.0706 222.576C66.7625 224.622 62.9347 224.492 60.2661 222.153C60.2661 222.146 64.1146 225.215 70.9197 222.18Z" fill="#F5F5F5"/>
<path d="M61.0483 193.488C64.6018 187.228 69.5685 181.963 74.8644 179.432C80.3524 176.8 85.0309 177.693 87.8366 181.233C87.8366 181.233 83.1101 175.702 74.8026 179.971C66.4952 184.241 61.0483 193.488 61.0483 193.488Z" fill="#F5F5F5"/>
<path opacity="0.15" d="M95.3755 193.727C97.0013 195.091 98.2087 197.192 96.672 198.617C96.672 198.617 98.4831 197.649 98.2979 196.448C98.1126 195.248 95.3755 193.727 95.3755 193.727Z" fill="black"/>
<path opacity="0.1" d="M254.822 279.346C259.83 277.661 265.256 274.074 269.914 271.646C274.826 269.081 279.601 266.276 284.238 263.23C285.61 262.336 287.044 261.245 287.359 259.649C287.613 258.381 287.126 257.849 286.083 257.092C283.98 255.576 281.648 254.4 279.175 253.607C278.066 253.154 276.883 252.906 275.684 252.877C274.305 252.959 272.931 253.109 271.568 253.327C269.88 253.566 268.138 254.452 266.628 255.175C264.961 255.973 263.336 256.86 261.717 257.747L251.043 263.584C247.173 265.706 245.067 266.824 240.485 269.77C239.586 270.35 237.158 271.816 237.124 272.894C237.089 273.971 237.906 274.878 238.743 275.574C243.16 279.25 249.403 281.173 254.822 279.346Z" fill="black"/>
<path d="M272.789 251.281C270.045 249.726 266.443 249.747 262.375 251.69C252.771 256.294 244.21 269.927 243.284 282.148C242.756 289.064 244.786 294.036 248.395 296.225C249.321 296.784 252.902 298.803 253.752 299.308C256.496 300.931 260.167 300.944 264.296 298.973C273.9 294.37 282.468 280.737 283.394 268.515C283.923 261.491 281.823 256.471 278.112 254.337C277.227 253.832 273.694 251.793 272.789 251.281Z" fill="#9B51E0"/>
<path opacity="0.25" d="M272.789 251.281C270.045 249.726 266.443 249.747 262.375 251.69C252.771 256.294 244.21 269.927 243.284 282.148C242.756 289.064 244.786 294.036 248.395 296.225C249.321 296.784 252.902 298.803 253.752 299.308C256.496 300.931 260.167 300.944 264.296 298.973C273.9 294.37 282.468 280.737 283.394 268.515C283.923 261.491 281.823 256.471 278.112 254.337C277.227 253.832 273.694 251.793 272.789 251.281Z" fill="black"/>
<path opacity="0.1" d="M281.954 275.99L252.984 259.363C247.722 265.63 243.888 274.189 243.284 282.148C242.756 289.064 244.786 294.036 248.395 296.225C249.321 296.784 252.902 298.803 253.752 299.308C256.496 300.931 260.167 300.944 264.296 298.973C271.973 295.297 278.977 285.845 281.954 275.99Z" fill="black"/>
<path opacity="0.1" d="M244.882 274.149C244.047 276.747 243.511 279.43 243.284 282.149C242.756 289.064 244.786 294.036 248.395 296.225C249.321 296.784 252.902 298.803 253.752 299.308C256.496 300.931 260.167 300.944 264.296 298.973C268.093 297.011 271.414 294.251 274.031 290.885L244.882 274.149Z" fill="black"/>
<path d="M267.658 254.725C258.054 259.322 249.485 272.955 248.559 285.176C247.633 297.398 254.678 303.59 264.296 298.973C273.914 294.356 282.468 280.737 283.394 268.515C284.32 256.294 277.275 250.122 267.658 254.725Z" fill="#9B51E0"/>
<path opacity="0.2" d="M267.658 254.725C258.054 259.322 249.485 272.955 248.559 285.176C247.633 297.398 254.678 303.59 264.296 298.973C273.914 294.356 282.468 280.737 283.394 268.515C284.32 256.294 277.275 250.122 267.658 254.725Z" fill="black"/>
<path d="M277.186 271.305C276.596 275.433 275.119 279.387 272.857 282.899C270.518 286.629 267.637 289.562 264.749 291.158C261.689 292.842 258.939 292.835 257.018 291.158C255.097 289.48 254.274 286.384 254.774 282.414C255.357 278.286 256.828 274.331 259.089 270.82C261.429 267.083 264.31 264.157 267.205 262.561C270.264 260.884 273.008 260.884 274.929 262.561C276.85 264.239 277.653 267.356 277.186 271.305Z" fill="#9B51E0"/>
<path opacity="0.4" d="M277.186 271.305C276.596 275.433 275.119 279.387 272.857 282.899C270.518 286.629 267.637 289.562 264.749 291.158C261.689 292.842 258.939 292.835 257.018 291.158C255.097 289.48 254.274 286.384 254.774 282.414C255.357 278.286 256.828 274.331 259.089 270.82C261.429 267.083 264.31 264.157 267.205 262.561C270.264 260.884 273.008 260.884 274.929 262.561C276.85 264.239 277.653 267.356 277.186 271.305Z" fill="black"/>
<path d="M278.887 256.246C276.233 253.92 272.391 253.77 268.083 255.823C263.597 257.978 259.165 262.241 255.687 267.826C252.209 273.412 250.014 279.639 249.582 285.34C249.163 290.796 250.405 295.106 253.06 297.439C255.714 299.771 259.556 299.921 263.864 297.862C268.357 295.713 272.782 291.458 276.267 285.865C279.752 280.273 281.94 274.053 282.372 268.345C282.784 262.882 281.577 258.565 278.887 256.246ZM274.929 262.561C276.857 264.246 277.673 267.335 277.186 271.305C276.596 275.433 275.12 279.387 272.858 282.899C270.518 286.629 267.637 289.562 264.749 291.158C261.689 292.842 258.939 292.835 257.018 291.158C255.097 289.48 254.274 286.384 254.775 282.414C255.357 278.286 256.829 274.331 259.09 270.82C261.429 267.083 264.31 264.157 267.205 262.561C270.264 260.877 273.008 260.877 274.929 262.561Z" fill="#9B51E0"/>
<path opacity="0.2" d="M267.582 263.414C273.331 260.256 277.269 263.707 276.384 271.127C275.499 278.548 270.121 287.12 264.372 290.278C258.623 293.436 254.686 289.985 255.571 282.565C256.455 275.144 261.834 266.572 267.582 263.414Z" fill="black"/>
<path d="M267.582 263.414C273.331 260.256 277.269 263.707 276.384 271.127C275.499 278.548 270.121 287.12 264.372 290.278C258.623 293.436 254.686 289.985 255.571 282.565C256.455 275.144 261.834 266.572 267.582 263.414Z" fill="#9B51E0"/>
<path opacity="0.6" d="M267.582 263.414C273.331 260.256 277.269 263.707 276.384 271.127C275.499 278.548 270.121 287.12 264.372 290.278C258.623 293.436 254.686 289.985 255.571 282.565C256.455 275.144 261.834 266.572 267.582 263.414Z" fill="black"/>
<path d="M274.716 269.681C273.831 277.102 268.453 285.674 262.711 288.832C260.331 290.141 258.266 290.312 256.723 289.548C255.652 288.02 255.193 285.633 255.556 282.564C256.448 275.151 261.82 266.572 267.568 263.414C269.942 262.104 272.014 261.934 273.557 262.732C274.641 264.225 275.101 266.612 274.716 269.681Z" fill="#9B51E0"/>
<path opacity="0.5" d="M274.716 269.681C273.831 277.102 268.453 285.674 262.711 288.832C260.331 290.141 258.266 290.312 256.723 289.548C255.652 288.02 255.193 285.633 255.556 282.564C256.448 275.151 261.82 266.572 267.568 263.414C269.942 262.104 272.014 261.934 273.557 262.732C274.641 264.225 275.101 266.612 274.716 269.681Z" fill="black"/>
<path d="M271.65 270.78C271.198 270.452 270.079 269.886 269.537 269.566C269.309 269.41 269.039 269.327 268.762 269.327C268.486 269.327 268.215 269.41 267.987 269.566L268.474 268.086C267.742 267.724 267.034 267.317 266.354 266.865C266.085 266.842 265.813 266.877 265.559 266.967C265.002 267.2 264.507 267.557 264.111 268.011C263.182 269.047 262.401 270.206 261.792 271.455L260.647 270.841L258.863 274.81L259.103 274.988L259.927 275.588C259.236 277.046 258.833 278.623 258.74 280.232C258.74 280.348 258.74 280.45 258.74 280.559C258.699 281.705 258.946 282.558 259.536 282.987C259.981 283.308 261.367 284.017 261.655 284.195C262.225 284.597 262.842 284.433 263.473 283.935L263.062 285.19L265.174 286.404C266.471 286.363 267.96 284.808 269.537 281.835L270.601 282.599L272.398 278.602L271.335 277.831C271.929 276.398 272.312 274.886 272.473 273.344V273.31C272.535 272.123 272.281 271.237 271.65 270.78Z" fill="#9B51E0"/>
<path d="M261.223 276.215L262.039 276.815C261.353 278.275 260.953 279.851 260.859 281.46C260.859 281.576 260.859 281.685 260.859 281.787C260.818 282.933 261.058 283.785 261.655 284.215C262.286 284.665 262.986 284.413 263.713 283.772L263.892 283.594L264.091 283.39C264.149 283.327 264.204 283.261 264.255 283.192L264.331 283.11L264.461 282.953C264.825 282.496 265.188 281.964 265.538 281.426C265.709 281.16 265.881 280.88 266.052 280.593C266.299 280.191 266.54 279.782 266.738 279.393L267.013 278.923C267.46 278.092 267.962 277.293 268.515 276.529C268.748 276.229 268.947 276.058 269.126 276.031C269.217 276.018 269.311 276.04 269.386 276.092C269.709 276.331 269.702 277.129 268.961 278.82C268.165 280.594 267.425 281.378 266.848 281.282L265.147 286.472C266.444 286.431 267.932 284.876 269.51 281.903L270.573 282.667L272.371 278.67L271.307 277.9C271.901 276.466 272.285 274.954 272.446 273.412V273.378C272.515 272.157 272.261 271.271 271.63 270.814C270.258 269.797 268.625 272.014 267.123 274.544C265.751 276.904 264.667 279.141 263.988 278.636C263.562 278.329 263.768 277.306 264.358 275.997C265.291 273.903 266.183 273.467 266.649 273.576L268.453 268.12C268.184 268.09 267.912 268.123 267.658 268.215C267.103 268.451 266.608 268.807 266.21 269.259C265.251 270.35 264.441 271.563 263.802 272.866L262.739 272.089L260.997 276.038L261.223 276.215Z" fill="#9B51E0"/>
<path d="M260.983 276.038L262.876 272.566L263.823 272.846L262.76 272.069L260.983 276.038Z" fill="#F5F5F5"/>
<path d="M267.987 268.522L266.67 273.569L268.474 268.113C268.205 268.083 267.933 268.116 267.678 268.208C267.123 268.444 266.628 268.8 266.231 269.252C265.886 269.623 265.568 270.017 265.277 270.432C265.297 270.414 265.313 270.394 265.325 270.37C266.007 269.504 266.934 268.86 267.987 268.522Z" fill="#F5F5F5"/>
<path d="M266.862 281.248L265.161 286.438L266.965 281.589C267.737 281.193 268.336 280.528 268.645 279.721C268.927 279.144 269.157 278.544 269.331 277.927C269.242 278.186 269.133 278.459 268.995 278.779C268.179 280.559 267.438 281.344 266.862 281.248Z" fill="#F5F5F5"/>
<path d="M269.523 281.869L270.532 282.394L272.384 278.636L270.594 282.633L269.523 281.869Z" fill="#F5F5F5"/>
<path opacity="0.3" d="M260.846 281.787C260.846 281.685 260.846 281.576 260.846 281.46C260.939 279.851 261.34 278.275 262.026 276.815L261.209 276.215L260.969 276.038L262.746 272.068L263.809 272.846C264.448 271.543 265.257 270.329 266.217 269.238C266.615 268.787 267.109 268.43 267.665 268.195C267.919 268.102 268.191 268.07 268.46 268.099L268.22 268.781L268.46 268.099C267.728 267.738 267.02 267.33 266.341 266.878C266.071 266.856 265.8 266.891 265.545 266.981C264.988 267.214 264.493 267.571 264.097 268.024C263.168 269.06 262.388 270.219 261.779 271.468L260.633 270.855L258.85 274.824L259.09 275.001L259.913 275.601C259.222 277.06 258.82 278.636 258.726 280.246C258.726 280.362 258.726 280.464 258.726 280.573C258.685 281.719 258.932 282.571 259.522 283.001C259.968 283.321 261.353 284.031 261.642 284.208C261.045 283.799 260.805 282.933 260.846 281.787Z" fill="black"/>
<path opacity="0.3" d="M268.975 278.786C269.716 277.122 269.722 276.324 269.4 276.058C269.324 276.006 269.231 275.984 269.139 275.997C268.961 275.997 268.762 276.195 268.529 276.495C267.975 277.259 267.473 278.058 267.026 278.888L266.752 279.359C266.526 279.748 266.286 280.157 266.066 280.559C265.895 280.846 265.723 281.125 265.552 281.391C265.202 281.93 264.866 282.462 264.475 282.919L264.344 283.076L264.269 283.158C264.217 283.226 264.162 283.292 264.104 283.356L263.905 283.56L263.727 283.738L263.507 283.922L263.096 285.177L265.209 286.39L266.91 281.2C267.438 281.344 268.179 280.559 268.975 278.786Z" fill="black"/>
<path opacity="0.3" d="M264.379 275.976C263.789 277.286 263.583 278.309 264.008 278.616C264.694 279.107 265.744 276.87 267.143 274.524C268.646 271.993 270.251 269.75 271.65 270.793C271.197 270.466 270.079 269.9 269.537 269.579C269.309 269.424 269.039 269.341 268.762 269.341C268.485 269.341 268.215 269.424 267.987 269.579L266.67 273.569C266.203 273.446 265.312 273.883 264.379 275.976Z" fill="black"/>
<path opacity="0.1" d="M264.379 275.976C263.789 277.286 263.583 278.309 264.008 278.616C264.694 279.107 265.744 276.87 267.143 274.524C268.646 271.993 270.251 269.75 271.65 270.793C271.197 270.466 270.079 269.9 269.537 269.579C269.309 269.424 269.039 269.341 268.762 269.341C268.485 269.341 268.215 269.424 267.987 269.579L266.67 273.569C266.203 273.446 265.312 273.883 264.379 275.976Z" fill="black"/>
<path opacity="0.4" d="M258.863 274.824L260.983 276.038L262.039 276.815L259.927 275.601L258.863 274.824Z" fill="black"/>
<path opacity="0.1" d="M260.859 281.46C260.953 279.851 261.353 278.275 262.039 276.815L259.927 275.615C259.236 277.074 258.833 278.65 258.74 280.259C258.74 280.375 258.74 280.478 258.74 280.587C258.699 281.733 258.946 282.585 259.535 283.015C259.981 283.335 261.367 284.044 261.655 284.222C261.058 283.792 260.818 282.94 260.859 281.794C260.846 281.685 260.853 281.576 260.859 281.46Z" fill="black"/>
<path opacity="0.1" d="M265.524 281.419C265.174 281.958 264.838 282.489 264.447 282.946L264.317 283.103L264.241 283.185C264.19 283.254 264.135 283.32 264.077 283.383L263.878 283.588L263.699 283.765L263.48 283.949L263.068 285.204L265.181 286.418L266.883 281.228L265.97 280.709C265.799 280.969 265.668 281.194 265.524 281.419Z" fill="black"/>
<path d="M263.741 297.473C270.415 294.486 276.294 285.879 276.294 285.879C272.789 291.471 268.385 295.727 263.892 297.875C259.583 299.921 255.756 299.785 253.087 297.453C253.06 297.439 256.922 300.508 263.741 297.473Z" fill="#F5F5F5"/>
<path d="M253.842 268.795C257.395 262.534 262.362 257.269 267.658 254.739C273.146 252.106 277.824 253 280.63 256.539C280.63 256.539 275.904 251.008 267.596 255.271C259.289 259.533 253.842 268.795 253.842 268.795Z" fill="#F5F5F5"/>
<path opacity="0.15" d="M244.944 271.482C243.057 272.696 242.68 273.221 244.711 274.708C246.887 276.111 249.146 277.384 251.475 278.52C251.475 278.52 246.673 277.47 243.668 275.322C240.663 273.173 242.124 272.294 244.944 271.482Z" fill="black"/>
<path opacity="0.1" d="M192.307 269.436C189.515 271.523 186.236 273.18 182.744 273.235C184.213 275.082 185.991 276.664 187.999 277.913C190.029 279.163 192.429 279.681 194.797 279.38C197.541 278.943 199.853 277.177 201.719 275.158C203.585 273.139 205.149 270.827 207.001 268.829C208.62 267.104 210.767 265.528 213.127 265.753C211.529 264.378 209.772 263.196 207.893 262.234C205.266 261.006 202.535 260.904 200.196 262.759C197.507 264.894 195.065 267.37 192.307 269.436Z" fill="black"/>
<path d="M212.976 262.916C200.443 265.821 204.806 274.326 192.273 277.238L183.259 270.807C194.722 270.125 192.088 260.577 203.482 259.547L212.976 262.916Z" fill="#9B51E0"/>
<path opacity="0.3" d="M207.605 263.462C201.396 267.022 201.342 271.803 195.133 275.363C194.343 275.132 193.511 275.08 192.698 275.213L187.896 271.932C188.14 271.847 188.342 271.671 188.458 271.441C188.497 271.347 188.508 271.244 188.491 271.144C188.474 271.044 188.43 270.951 188.362 270.875C195.977 268.229 193.487 263.475 201.101 260.829C201.483 260.995 201.896 261.08 202.312 261.08C202.729 261.08 203.141 260.995 203.523 260.829L208.119 262.575C207.879 262.648 207.671 262.799 207.529 263.005C207.486 263.074 207.47 263.157 207.484 263.237C207.498 263.318 207.541 263.39 207.605 263.441V263.462ZM208.497 263.407C207.934 263.189 208.147 262.759 209.135 262.534L203.557 260.488C203.216 260.674 202.838 260.782 202.45 260.803C202.062 260.824 201.673 260.759 201.314 260.611C192.931 263.134 195.888 268.277 187.505 270.8C188.067 271.175 187.875 271.693 186.929 271.878L192.396 275.615C193.282 275.363 194.229 275.435 195.065 275.819C201.959 272.171 201.63 267.083 208.531 263.434L208.497 263.407Z" fill="black"/>
<g opacity="0.3">
<path opacity="0.3" d="M195.223 266.156C195.79 265.497 196.556 265.039 197.408 264.851C198.259 264.663 199.148 264.755 199.942 265.112C201.459 265.794 201.774 267.581 200.786 269.088C200.276 269.812 199.512 270.321 198.644 270.515C197.777 270.71 196.867 270.575 196.094 270.138C195.744 269.962 195.437 269.711 195.197 269.402C194.956 269.093 194.788 268.735 194.705 268.353C194.621 267.972 194.625 267.576 194.714 267.196C194.804 266.816 194.978 266.461 195.223 266.156ZM200.237 268.809C200.437 268.562 200.578 268.274 200.652 267.966C200.726 267.658 200.731 267.337 200.665 267.028C200.599 266.718 200.465 266.426 200.273 266.174C200.08 265.922 199.834 265.715 199.551 265.569C198.913 265.283 198.197 265.212 197.515 265.369C196.832 265.525 196.22 265.9 195.772 266.435C195.575 266.685 195.436 266.975 195.365 267.284C195.295 267.593 195.294 267.914 195.362 268.224C195.431 268.534 195.568 268.824 195.764 269.075C195.959 269.326 196.208 269.531 196.492 269.675C197.115 270.013 197.843 270.11 198.534 269.948C199.225 269.785 199.832 269.375 200.237 268.795V268.809Z" fill="black"/>
</g>
<path opacity="0.1" d="M115.379 212.325H115.297C115.441 214.194 115.674 216.322 116.669 217.952C117.391 219.425 118.477 220.692 119.824 221.635C121.583 222.782 123.689 223.281 125.779 223.046C128.756 222.746 131.425 221.164 134.169 219.977C138.086 218.286 142.469 217.365 146.64 218.266C145.097 213.526 139.979 211.446 135.362 211.296C133.922 211.248 132.399 211.712 130.958 211.916C129.339 212.148 127.707 212.319 126.074 212.434C122.806 212.67 119.525 212.67 116.257 212.434L115.379 212.325Z" fill="black"/>
<path d="M146.633 215.824C134.285 212.319 133.922 221.853 121.546 218.347L116.799 208.37C127.165 213.287 129.518 203.698 139.986 208.295L146.633 215.824Z" fill="#9B51E0"/>
<path opacity="0.3" d="M141.674 213.717C134.512 213.826 132.015 217.747 124.846 217.863C124.266 217.28 123.563 216.833 122.788 216.554C121.745 214.508 121.34 213.676 120.305 211.602C120.56 211.645 120.823 211.589 121.039 211.446C121.118 211.382 121.177 211.298 121.211 211.203C121.245 211.108 121.252 211.005 121.231 210.907C129.181 212.271 129.326 206.91 137.276 208.274C137.525 208.605 137.84 208.881 138.202 209.085C138.563 209.289 138.962 209.417 139.375 209.461L142.545 213.205C142.299 213.154 142.043 213.185 141.818 213.294C141.746 213.335 141.692 213.4 141.664 213.478C141.637 213.555 141.638 213.64 141.667 213.717H141.674ZM142.462 214.112C142.085 213.648 142.462 213.376 143.45 213.655L139.588 209.154C139.197 209.146 138.814 209.051 138.465 208.876C138.116 208.702 137.81 208.452 137.571 208.145C129.01 206.303 129.085 212.237 120.524 210.388C120.826 210.989 120.408 211.35 119.488 211.07C120.661 213.437 121.128 214.392 122.294 216.758C123.189 216.972 123.981 217.491 124.53 218.225C132.337 218.368 134.656 213.996 142.462 214.133V214.112Z" fill="black"/>
<g opacity="0.3">
<path opacity="0.3" d="M129.751 210.143C130.556 209.873 131.423 209.844 132.245 210.062C133.066 210.279 133.804 210.732 134.368 211.364C135.335 212.591 134.759 214.092 133.16 214.876C132.367 215.23 131.475 215.301 130.635 215.079C129.794 214.857 129.056 214.354 128.544 213.655C128.331 213.36 128.191 213.019 128.138 212.66C128.084 212.3 128.118 211.933 128.236 211.59C128.355 211.246 128.554 210.935 128.817 210.684C129.081 210.432 129.401 210.247 129.751 210.143ZM132.838 214.426C134.128 213.819 134.58 212.564 133.798 211.555C133.345 211.043 132.748 210.677 132.084 210.506C131.42 210.334 130.72 210.365 130.073 210.593C129.789 210.681 129.53 210.835 129.318 211.042C129.106 211.249 128.946 211.503 128.852 211.784C128.758 212.064 128.733 212.363 128.778 212.655C128.824 212.948 128.938 213.225 129.113 213.464C129.531 214.022 130.129 214.421 130.806 214.595C131.484 214.768 132.201 214.706 132.838 214.419V214.426Z" fill="black"/>
</g>
<path opacity="0.1" d="M287.874 195.228C284.149 196.796 280.726 198.112 276.562 197.56C277.741 197.717 278.86 199.892 279.491 200.772C281.453 203.534 284.005 206.037 287.613 206.146C289.921 206.134 292.188 205.543 294.205 204.428C296.263 203.384 298.143 202.068 300.119 200.902C302.863 199.279 306.389 197.546 309.634 198.856C309.345 198.74 308.783 197.233 308.577 196.919C308.119 196.229 307.596 195.585 307.013 194.996C305.896 193.852 304.586 192.91 303.144 192.213C301.868 191.599 300.304 190.883 298.857 190.924C297.279 190.965 295.632 191.797 294.205 192.397C292.072 193.284 290.007 194.327 287.874 195.228Z" fill="black"/>
<path d="M309.62 194.955C296.106 194.334 299.673 204.469 286.159 203.821C282.763 199.947 281.069 198.01 277.68 194.13C289.733 195.616 288.175 186.887 300.235 188.367L309.62 194.955Z" fill="#9B51E0"/>
<g opacity="0.3">
<path opacity="0.3" d="M304.365 194.109C297.292 195.855 295.447 201.338 288.532 202.389C287.822 201.941 287.033 201.633 286.207 201.482C284.601 199.531 283.373 198.378 281.768 196.428C282.008 196.395 282.224 196.27 282.372 196.08C282.428 195.991 282.462 195.891 282.473 195.787C282.484 195.683 282.47 195.578 282.434 195.48C290.583 195.125 289.801 189.615 297.951 189.26C298.694 189.591 299.479 189.82 300.283 189.942C302.033 191.306 303.281 191.954 305.03 193.352C304.798 193.371 304.58 193.47 304.413 193.632C304.36 193.697 304.328 193.777 304.319 193.86C304.311 193.943 304.327 194.028 304.365 194.102V194.109ZM305.552 194.443C305.03 194.027 305.339 193.639 306.389 193.727C304.296 192.097 302.883 191.354 300.784 189.724C299.842 189.645 298.933 189.346 298.129 188.851C289.033 188.728 290.405 195.057 281.309 194.934C281.796 195.521 281.487 196.005 280.479 195.882C282.372 198.208 283.737 199.551 285.63 201.87C286.62 201.92 287.561 202.31 288.292 202.975C296.469 202.245 297.539 196.046 305.552 194.443Z" fill="black"/>
</g>
<g opacity="0.3">
<path opacity="0.3" d="M295.591 197.308C294.576 198.338 292.717 198.188 291.523 197.035C290.33 195.882 290.234 194.266 291.256 193.366C292.278 192.466 294.13 192.622 295.324 193.645C295.6 193.857 295.828 194.124 295.993 194.43C296.158 194.735 296.257 195.071 296.282 195.417C296.307 195.763 296.259 196.11 296.14 196.436C296.021 196.762 295.834 197.059 295.591 197.308ZM296.092 197.771C296.395 197.47 296.63 197.108 296.781 196.709C296.932 196.311 296.996 195.885 296.969 195.46C296.942 195.034 296.824 194.62 296.623 194.244C296.422 193.867 296.143 193.538 295.804 193.277C294.336 192.036 292.01 191.824 290.748 192.909C289.486 193.993 289.561 195.957 291.036 197.396C292.511 198.835 294.844 199.06 296.092 197.771Z" fill="black"/>
</g>
<path opacity="0.15" d="M203.037 198.235C203.037 198.235 198.118 201.338 200.052 206.637C200.052 206.637 196.938 204.046 198.598 200.834C199.032 200.041 199.674 199.381 200.456 198.924C201.237 198.466 202.129 198.228 203.037 198.235Z" fill="black"/>
<path opacity="0.15" d="M256.194 208.602C256.194 208.602 257.511 214.385 251.036 215.954C251.036 215.954 255.296 216.029 256.949 213.437C258.252 211.432 256.194 208.602 256.194 208.602Z" fill="black"/>
<path opacity="0.15" d="M230.86 194.634C230.86 194.634 248.504 192.377 258.719 200.806C268.933 209.236 263.912 216.097 263.912 216.097C263.912 216.097 271.917 207.163 260.612 199.217C245.335 188.483 230.86 194.634 230.86 194.634Z" fill="black"/>
<path opacity="0.15" d="M193.261 205.635C193.261 205.635 188.843 214.037 202.275 220.073C214.493 225.57 228.453 222.412 228.453 222.412C228.453 222.412 217.477 228.68 201.815 222.132C186.476 215.728 193.261 205.635 193.261 205.635Z" fill="black"/>
<path d="M196.176 99.7612C198.296 94.9872 197.782 92.5729 191.319 94.2711C187.265 95.335 184.007 98.1994 183.403 107.911C183.225 110.694 183.334 113.913 183.403 120.426C183.437 127.512 183.937 134.588 184.898 141.609C185.208 144.391 186.029 147.094 187.32 149.581C194.688 163.515 204.998 172.817 209.958 181.806C216.194 181.39 224.858 171.18 220.248 164.79C214.945 162.56 200.32 146.519 198.296 138.874C197.356 135.348 196.348 131.829 195.497 128.276C195.017 126.264 194.578 124.238 194.235 122.192C193.892 120.146 193.24 118.046 194.05 116.143C194.595 115.044 195.229 113.991 195.943 112.992C196.703 111.839 197.322 110.601 197.788 109.302C198.144 108.062 198.568 106.842 199.057 105.647C199.298 105.108 199.558 104.569 199.84 104.044C200.059 103.635 200.388 103.171 200.169 102.68C199.778 101.78 198.042 102.387 197.487 102.83C196.604 103.661 195.857 104.623 195.271 105.681C195.12 105.899 194.866 106.145 194.626 106.022C194.386 105.899 194.427 105.647 194.454 105.429C194.585 104.389 194.838 103.368 195.209 102.387C195.552 101.521 195.785 100.627 196.176 99.7612Z" fill="#FFD8B4"/>
<path d="M195.744 129.415C195.744 129.415 198.056 137.353 198.899 139.876C199.743 142.4 204.6 149.759 212.29 157.833C218.149 163.971 221.531 164.463 221.531 164.463L209.869 184.356C209.58 181.062 198.316 167.409 193.473 160.643C188.63 153.878 185.406 148.129 184.596 142.911C184.046 138.926 183.753 134.91 183.718 130.888C183.718 130.888 190.16 132.272 195.744 129.415Z" fill="#F5F5F5"/>
<path d="M234.243 165.131C239.868 165.983 246.303 166.427 250.247 166.965C254.555 167.545 256.092 171.057 256.092 178.375C256.092 189.165 250.542 207.149 250.542 207.149C250.542 212.332 213.176 215.879 209.766 204.728C209.766 204.728 209.588 188.803 209.938 182.638C210.548 171.787 216.859 164.844 220.914 164.538C220.866 164.565 224.549 163.699 234.243 165.131Z" fill="white"/>
<path d="M245.348 133.316C245.348 133.316 248.291 134.332 248.95 136.821C249.519 138.983 248.216 143.641 245.89 148.606C243.565 153.571 241.726 156.422 240.684 157.711C240 158.489 239.043 158.977 238.008 159.075L239.38 152.937L240.457 148.695C240.457 148.695 238.447 144.384 238.756 141.247C239.161 137.203 240.32 135.75 240.32 135.75L245.348 133.316Z" fill="#263238"/>
<path d="M245.904 134.209L250.556 133.118C250.415 132.472 250.027 131.907 249.473 131.541C248.92 131.176 248.245 131.039 247.592 131.16C247.277 131.247 246.983 131.395 246.727 131.596C246.471 131.796 246.258 132.046 246.101 132.331C245.944 132.615 245.845 132.927 245.811 133.25C245.778 133.573 245.809 133.899 245.904 134.209Z" fill="#263238"/>
<path d="M239.271 138.308C238.808 140.579 237.678 142.663 236.024 144.295C234.37 145.928 232.267 147.037 229.979 147.481C227.691 147.925 225.323 147.685 223.172 146.791C221.022 145.896 219.187 144.388 217.898 142.457C216.61 140.526 215.927 138.259 215.935 135.941C215.943 133.624 216.642 131.361 217.943 129.439C219.245 127.516 221.09 126.021 223.247 125.141C225.403 124.262 227.773 124.038 230.058 124.497C231.575 124.802 233.018 125.401 234.302 126.26C235.587 127.119 236.689 128.221 237.544 129.504C238.4 130.787 238.993 132.224 239.289 133.735C239.585 135.246 239.579 136.8 239.271 138.308Z" fill="#263238"/>
<path d="M240.451 148.006C241.308 149.111 242.618 146.956 243.675 146.219C244.731 145.482 247.832 144.821 248.648 148.088C249.465 151.354 245.904 155.099 243.579 155.549C240.711 156.101 239.278 153.503 239.278 153.503L239.168 165.281C234.702 170.519 228.26 172.701 226.689 175.19C226.552 172.681 221.75 166.959 224.535 164.817L224.638 159.675C224.638 159.675 221.03 159.497 219.377 158.897C216.633 157.888 215.563 155.487 215.322 152.234C214.938 147.044 216.043 138.669 219.857 129.503C223.527 127.682 234.482 130.274 240.313 135.805C238.152 144.146 239.586 146.901 240.451 148.006Z" fill="#FFD8B4"/>
<path d="M219.644 122.397C219.697 122.32 219.769 122.259 219.854 122.218C219.938 122.177 220.031 122.159 220.124 122.165C220.264 122.208 220.387 122.294 220.474 122.41C221.147 123.199 221.881 123.933 222.669 124.606C222.66 123.428 222.878 122.258 223.314 121.162C223.575 120.48 224.096 118.919 225.002 118.919C225.537 118.919 225.901 119.437 226.216 119.867C229.042 123.788 233.872 123.188 238.036 124.15C241.507 124.954 245.452 127.205 246.35 130.901C246.769 132.593 246.563 134.25 244.923 135.034C243.473 135.634 241.901 135.889 240.334 135.778C233.124 135.6 222.56 136.46 218.698 128.958C218.134 127.844 217.993 126.566 218.3 125.357C218.506 124.285 218.956 123.275 219.617 122.404L219.644 122.397Z" fill="#263238"/>
<path d="M224.638 159.675C224.638 159.675 231.231 159.675 233.687 158.959C235.128 158.546 236.41 157.709 237.364 156.558C236.767 157.78 235.929 158.87 234.901 159.764C232.843 161.496 224.611 161.359 224.611 161.359L224.638 159.675Z" fill="#FFC38C"/>
<path d="M229.372 143.825C229.332 144.075 229.367 144.33 229.473 144.56C229.578 144.79 229.749 144.984 229.965 145.118C230.18 145.252 230.43 145.32 230.684 145.313C230.938 145.307 231.185 145.227 231.393 145.083C231.602 144.938 231.763 144.736 231.857 144.502C231.951 144.267 231.974 144.01 231.922 143.763C231.87 143.515 231.747 143.289 231.566 143.111C231.386 142.933 231.157 142.811 230.908 142.761C230.563 142.702 230.208 142.78 229.92 142.979C229.632 143.178 229.435 143.482 229.372 143.825Z" fill="#263238"/>
<path d="M234.682 141.261L232.624 138.867C232.306 139.154 232.111 139.551 232.08 139.977C232.05 140.402 232.185 140.823 232.459 141.152C232.595 141.308 232.762 141.434 232.949 141.525C233.136 141.615 233.339 141.667 233.547 141.677C233.755 141.687 233.962 141.655 234.157 141.584C234.352 141.512 234.53 141.403 234.682 141.261Z" fill="#263238"/>
<path d="M221.895 136.207L218.917 137.346C218.982 137.543 219.087 137.724 219.225 137.879C219.363 138.033 219.531 138.159 219.719 138.247C219.907 138.335 220.111 138.384 220.319 138.391C220.527 138.398 220.734 138.363 220.927 138.287C221.327 138.131 221.651 137.828 221.831 137.44C222.011 137.053 222.034 136.611 221.895 136.207Z" fill="#263238"/>
<path d="M218.965 141.329C218.927 141.497 218.922 141.671 218.952 141.841C218.982 142.01 219.045 142.173 219.138 142.318C219.231 142.463 219.352 142.588 219.495 142.687C219.637 142.785 219.797 142.855 219.967 142.891C220.234 142.961 220.515 142.949 220.775 142.857C221.035 142.765 221.261 142.597 221.424 142.375C221.586 142.154 221.678 141.888 221.687 141.614C221.695 141.34 221.62 141.07 221.472 140.838C221.324 140.607 221.109 140.426 220.855 140.318C220.601 140.21 220.321 140.18 220.05 140.233C219.78 140.286 219.531 140.419 219.338 140.615C219.144 140.81 219.014 141.059 218.965 141.329Z" fill="#263238"/>
<path d="M225.317 142.263L223.451 149.39L219.74 147.235L225.317 142.263Z" fill="#FFC38C"/>
<path d="M223.199 151.776C225.429 152.117 226.176 151.776 225.943 152.717C225.672 153.404 225.169 153.975 224.521 154.333C223.873 154.692 223.119 154.815 222.39 154.681C221.746 154.558 221.171 154.203 220.774 153.685C220.376 153.167 220.185 152.521 220.236 151.872C220.366 150.835 221.196 151.462 223.199 151.776Z" fill="#B16668"/>
<path d="M223.199 154.257C225.113 153.964 225.943 154.175 225.943 153.636C225.942 153.528 225.928 153.421 225.902 153.316C225.869 153.201 225.826 153.089 225.772 152.982C225.737 152.927 225.703 152.866 225.662 152.811C225.635 152.762 225.605 152.714 225.573 152.668C225.076 152.549 224.553 152.606 224.094 152.829C223.634 153.052 223.267 153.426 223.055 153.889C222.998 154.025 222.957 154.167 222.932 154.312L223.199 154.257Z" fill="#FFC38C"/>
<path d="M233.378 173.274C229.536 177.052 228.267 177.775 226.552 177.864C224.837 177.953 221.908 173.908 222.1 171.726L221.03 173.438C221.03 173.438 222.038 179.282 226.058 180.087C230.078 180.892 235.395 174.406 235.395 174.406L233.378 173.274Z" fill="#37474F"/>
<path d="M228.754 178.007C228.754 179.371 229.275 179.548 229.275 179.548C229.275 179.548 227.705 182.004 226.25 182.324C226.25 182.324 225.317 180.919 223.294 181.772C222.957 181.211 222.756 180.581 222.705 179.93C222.654 179.28 222.754 178.626 222.999 178.021C223.32 177.334 223.867 176.776 224.549 176.438C225.832 176.009 227.293 176.357 229.001 177.073C228.8 177.341 228.711 177.676 228.754 178.007Z" fill="#455A64"/>
<path d="M226.223 182.324C226.004 186.02 226.223 200.622 226.909 206.535C227.437 211.309 225.88 212.932 220.008 217.604C219.164 218.286 213.779 218.818 209.718 218.538C208.14 218.436 206.144 217.856 207.255 216.097C208.367 214.337 210.322 211.036 210.994 210.75C212.976 209.884 216.983 208.056 218.3 206.501C219.617 204.946 220.962 187.296 223.28 181.772C225.599 176.247 226.223 182.324 226.223 182.324Z" fill="#455A64"/>
<path d="M239.202 161.564C240.025 161.625 240.444 161.748 241.116 163.078C241.877 164.592 242.536 165.97 242.536 165.97C242.025 168.09 241.092 170.086 239.792 171.842C238.394 173.809 236.687 175.541 234.736 176.97C233.834 175.92 232.867 174.927 231.841 173.997C231.367 173.554 230.76 173.278 230.113 173.212C229.466 173.145 228.815 173.292 228.26 173.629C228.757 172.653 229.365 171.738 230.071 170.901C230.572 170.375 232.609 169.762 235.395 168.023C237.129 166.863 238.455 165.194 239.188 163.249L239.202 161.564Z" fill="#F0F0F0"/>
<path d="M226.059 173.144C226.059 171.658 225.126 170.546 224.879 170.062C224.158 168.698 224.543 167.593 224.536 166.427C224.529 165.26 224.584 162.642 224.584 162.642C224.063 162.64 223.557 162.811 223.144 163.127C222.732 163.443 222.437 163.887 222.306 164.388C221.716 165.847 220.475 167.641 220.475 170.928C220.475 173.888 220.749 174.427 220.749 174.427C221.623 173.639 222.57 172.933 223.575 172.319C223.786 172.183 224.026 172.096 224.275 172.064C224.525 172.033 224.778 172.058 225.017 172.137C225.256 172.216 225.473 172.348 225.654 172.522C225.834 172.697 225.972 172.909 226.059 173.144Z" fill="#F0F0F0"/>
<path d="M270.971 111.58C270.768 108.904 270.153 106.275 269.146 103.785C267.02 99.011 267.541 96.5967 274.003 98.2949C278.051 99.352 281.549 102.503 282.187 112.18C282.415 116.27 282.394 120.369 282.126 124.456C281.44 131.904 280.5 138.724 279.574 144.916C279.021 148.274 278.044 151.548 276.665 154.662C267.747 172.681 261.113 177.727 255.049 189.035C247.915 188.203 247.229 171.746 248.834 167.566C248.834 167.566 263.569 153.121 266.059 145.633C268.351 138.731 271.657 126.68 271.486 120.903" fill="#FFD8B4"/>
<path d="M248.189 166.74C252.847 163.439 260.482 153.257 262.595 150.918C264.708 148.579 269.304 134.502 269.304 134.502C269.304 134.502 273.886 137.339 280.966 135.266C280.951 138.917 280.688 142.563 280.177 146.178C279.306 152.705 276.939 157.172 272.212 165.206C267.486 173.24 254.575 191.176 254.575 191.176C252.48 189.963 250.711 188.263 249.422 186.221C248.133 184.179 247.361 181.856 247.173 179.453C246.59 171.167 248.189 166.74 248.189 166.74Z" fill="#F5F5F5"/>
<path d="M259.377 49.6274C262.986 47.5814 267.733 47.5814 273.097 50.173C285.761 56.2291 297.011 74.1794 298.232 90.2609C298.918 99.3656 296.25 105.947 291.503 108.791C290.282 109.534 285.576 112.201 284.451 112.883C280.822 115.024 276.006 115.038 270.566 112.44C257.902 106.383 246.652 88.4332 245.431 72.3516C244.745 63.1037 247.489 56.4883 252.387 53.6853C253.533 52.9964 258.184 50.3025 259.377 49.6274Z" fill="#9B51E0"/>
<path opacity="0.25" d="M259.377 49.6274C262.986 47.5814 267.733 47.5814 273.097 50.173C285.761 56.2291 297.011 74.1794 298.232 90.2609C298.918 99.3656 296.25 105.947 291.503 108.791C290.282 109.534 285.576 112.201 284.451 112.883C280.822 115.024 276.006 115.038 270.566 112.44C257.902 106.383 246.652 88.4332 245.431 72.3516C244.745 63.1037 247.489 56.4883 252.387 53.6853C253.533 52.9964 258.184 50.3025 259.377 49.6274Z" fill="black"/>
<path opacity="0.1" d="M247.311 82.1588L285.452 60.2666C292.374 68.5256 297.423 79.7854 298.219 90.2746C298.905 99.3793 296.236 105.961 291.489 108.805C290.268 109.548 285.562 112.215 284.437 112.897C280.808 115.038 275.992 115.052 270.552 112.453C260.441 107.577 251.234 95.1577 247.311 82.1588Z" fill="black"/>
<path opacity="0.1" d="M296.113 79.7377C297.214 83.1545 297.921 86.685 298.219 90.2609C298.905 99.3656 296.236 105.947 291.489 108.791C290.268 109.534 285.562 112.201 284.437 112.883C280.808 115.024 275.992 115.038 270.552 112.44C265.956 110.237 261.545 106.465 257.738 101.794L296.113 79.7377Z" fill="black"/>
<path d="M245.417 72.3244C246.638 88.406 257.889 106.356 270.552 112.412C283.216 118.469 292.504 110.366 291.27 94.2507C290.035 78.135 278.832 60.2189 266.135 54.1627C253.437 48.1066 244.196 56.236 245.417 72.3244Z" fill="#9B51E0"/>
<path opacity="0.2" d="M245.417 72.3244C246.638 88.406 257.889 106.356 270.552 112.412C283.216 118.469 292.504 110.366 291.27 94.2507C290.035 78.135 278.832 60.2189 266.135 54.1627C253.437 48.1066 244.196 56.236 245.417 72.3244Z" fill="black"/>
<path d="M253.594 75.9867C254.372 81.4134 256.311 86.6111 259.281 91.2294C262.361 96.1398 266.141 99.9999 269.962 102.094C273.989 104.317 277.604 104.31 280.136 102.094C282.667 99.8771 283.716 95.7851 283.092 90.5815C282.317 85.1573 280.38 79.9617 277.412 75.3456C274.325 70.4284 270.552 66.5683 266.724 64.4745C262.697 62.2648 259.089 62.2648 256.558 64.4745C254.026 66.6842 252.97 70.7898 253.594 75.9867Z" fill="#9B51E0"/>
<path opacity="0.4" d="M253.594 75.9867C254.372 81.4134 256.311 86.6111 259.281 91.2294C262.361 96.1398 266.141 99.9999 269.962 102.094C273.989 104.317 277.604 104.31 280.136 102.094C282.667 99.8771 283.716 95.7851 283.092 90.5815C282.317 85.1573 280.38 79.9617 277.412 75.3456C274.325 70.4284 270.552 66.5683 266.724 64.4745C262.697 62.2648 259.089 62.2648 256.558 64.4745C254.026 66.6842 252.97 70.7898 253.594 75.9867Z" fill="black"/>
<path d="M246.762 72.0993C247.331 79.6013 250.192 87.7853 254.795 95.1645C259.398 102.544 265.208 108.123 271.122 110.953C276.795 113.681 281.837 113.469 285.342 110.394C288.848 107.318 290.494 101.705 289.932 94.4689C289.355 86.9669 286.502 78.7829 281.892 71.4173C277.282 64.0517 271.478 58.4593 265.565 55.6153C259.899 52.8873 254.85 53.1056 251.344 56.1746C247.839 59.2436 246.22 64.8769 246.762 72.0993ZM266.724 64.4745C270.538 66.5683 274.325 70.4284 277.412 75.3456C280.38 79.9617 282.317 85.1573 283.092 90.5815C283.716 95.7851 282.667 99.8703 280.136 102.094C277.604 104.317 273.962 104.317 269.962 102.094C266.155 99.9999 262.361 96.1398 259.281 91.2294C256.311 86.6111 254.372 81.4133 253.594 75.9867C252.97 70.7898 254.026 66.6978 256.558 64.4813C259.089 62.2648 262.697 62.2648 266.724 64.4745Z" fill="#9B51E0"/>
<path opacity="0.2" d="M278.517 101.822C283.711 99.0025 283.367 88.4224 277.749 78.1901C272.13 67.9579 263.365 61.9483 258.17 64.7674C252.976 67.5864 253.32 78.1666 258.938 88.3988C264.557 98.631 273.322 104.641 278.517 101.822Z" fill="black"/>
<path d="M278.517 101.822C283.711 99.0025 283.367 88.4224 277.749 78.1901C272.13 67.9579 263.365 61.9483 258.17 64.7674C252.976 67.5864 253.32 78.1666 258.938 88.3988C264.557 98.631 273.322 104.641 278.517 101.822Z" fill="#9B51E0"/>
<path opacity="0.6" d="M278.517 101.822C283.711 99.0025 283.367 88.4224 277.749 78.1901C272.13 67.9579 263.365 61.9483 258.17 64.7674C252.976 67.5864 253.32 78.1666 258.938 88.3988C264.557 98.631 273.322 104.641 278.517 101.822Z" fill="black"/>
<path d="M256.819 73.852C257.985 83.6182 265.051 94.9121 272.596 99.086C275.725 100.811 278.448 101.036 280.479 100.027C281.885 98.0152 282.495 94.878 282.008 90.8406C280.842 81.0744 273.776 69.7804 266.23 65.6066C263.102 63.888 260.386 63.6561 258.348 64.6654C256.942 66.6773 256.338 69.8145 256.819 73.852Z" fill="#9B51E0"/>
<path opacity="0.5" d="M256.819 73.852C257.985 83.6182 265.051 94.9121 272.596 99.086C275.725 100.811 278.448 101.036 280.479 100.027C281.885 98.0152 282.495 94.878 282.008 90.8406C280.842 81.0744 273.776 69.7804 266.23 65.6066C263.102 63.888 260.386 63.6561 258.348 64.6654C256.942 66.6773 256.338 69.8145 256.819 73.852Z" fill="black"/>
<path d="M276.678 89.9814C276.555 86.7214 274.853 84.4435 272.843 82.5544L273.804 82.7999L276.589 81.204C276.467 80.6019 276.302 80.0093 276.095 79.4308C275.727 78.4647 275.238 77.5482 274.641 76.7028C273.662 75.3339 272.456 74.1414 271.073 73.1769L270.964 70.3057L267.534 68.321L264.742 69.9237V70.6535V70.8103C264.502 70.8861 264.272 70.9891 264.056 71.1172L263.843 71.2673C263.521 71.4992 261.915 72.3312 261.271 72.7199C261.188 72.7677 261.126 72.8154 261.058 72.8632C260.324 73.4019 259.926 74.4318 259.988 76.0345C260.047 77.6061 260.52 79.1347 261.36 80.4675L261.572 80.788L261.806 81.1222L262.025 81.4086C262.057 81.4433 262.087 81.4797 262.114 81.5177C262.166 81.5925 262.223 81.6632 262.286 81.7292C262.767 82.3052 263.282 82.8518 263.829 83.366C264.069 83.591 264.316 83.8161 264.563 84.048L263.294 83.7342L260.571 85.3369C261.364 88.3746 263.216 91.0333 265.798 92.8389L265.915 95.7033L269.393 97.6198L272.178 96.0171L272.144 95.1237C272.341 95.0731 272.531 94.9951 272.706 94.8918C273.125 94.619 274.99 93.6028 275.45 93.3027C276.328 92.7503 276.774 91.6795 276.678 89.9814Z" fill="#9B51E0"/>
<path opacity="0.3" d="M276.678 89.9814C276.555 86.7214 274.853 84.4435 272.843 82.5544L273.804 82.7999L276.589 81.204C276.467 80.6019 276.302 80.0093 276.095 79.4308C275.727 78.4647 275.238 77.5482 274.641 76.7028C273.662 75.3339 272.456 74.1414 271.073 73.1769L270.964 70.3057L267.534 68.321L264.742 69.9237V70.6535V70.8103C264.502 70.8861 264.272 70.9891 264.056 71.1172L263.843 71.2673C263.521 71.4992 261.915 72.3312 261.271 72.7199C261.188 72.7677 261.126 72.8154 261.058 72.8632C260.324 73.4019 259.926 74.4318 259.988 76.0345C260.047 77.6061 260.52 79.1347 261.36 80.4675L261.572 80.788L261.806 81.1222L262.025 81.4086C262.057 81.4433 262.087 81.4797 262.114 81.5177C262.166 81.5925 262.223 81.6632 262.286 81.7292C262.767 82.3052 263.282 82.8518 263.829 83.366C264.069 83.591 264.316 83.8161 264.563 84.048L263.294 83.7342L260.571 85.3369C261.364 88.3746 263.216 91.0333 265.798 92.8389L265.915 95.7033L269.393 97.6198L272.178 96.0171L272.144 95.1237C272.341 95.0731 272.531 94.9951 272.706 94.8918C273.125 94.619 274.99 93.6028 275.45 93.3027C276.328 92.7503 276.774 91.6795 276.678 89.9814Z" fill="black"/>
<path opacity="0.1" d="M269.413 97.6061L269.304 94.7417L272.164 95.11L272.199 96.0102L269.413 97.6061Z" fill="black"/>
<path opacity="0.1" d="M267.521 84.7708L264.735 86.3666L260.571 85.33L263.356 83.7341L267.521 84.7708Z" fill="black"/>
<path opacity="0.1" d="M268.179 71.8879L270.964 70.2852L271.074 73.1564L268.289 74.7523L268.179 71.8879Z" fill="black"/>
<path d="M264.756 70.6329L264.831 72.8494C264.316 72.4947 263.71 72.2923 263.083 72.2658C262.457 72.2392 261.836 72.3896 261.292 72.6994C261.209 72.7471 261.147 72.7949 261.079 72.8426C260.345 73.3814 259.947 74.4112 260.009 76.0139C260.068 77.5855 260.541 79.1141 261.381 80.4469L261.593 80.7674L261.827 81.1016L262.046 81.3881C262.078 81.4227 262.108 81.4592 262.135 81.4972C262.187 81.5719 262.244 81.6426 262.307 81.7086C262.788 82.2847 263.303 82.8313 263.85 83.3454C264.111 83.5909 264.379 83.8364 264.653 84.0683C265.037 84.4093 265.428 84.7503 265.792 85.0436L266.238 85.405C267.073 86.0459 267.849 86.7603 268.556 87.5397C268.847 87.8665 269.067 88.2496 269.201 88.665C269.263 88.8734 269.298 89.0889 269.304 89.3061C269.338 90.1722 268.838 90.6019 267.39 89.8108C266.707 89.4668 266.111 88.9753 265.644 88.3723C265.178 87.7692 264.853 87.0699 264.694 86.3257L260.571 85.3368C261.364 88.3745 263.217 91.0332 265.799 92.8388L265.915 95.7032L269.393 97.6197L269.283 94.7553C270.731 95.3213 271.911 95.3827 272.713 94.8917C273.509 94.3733 273.921 93.3026 273.859 91.6044C273.715 87.833 271.451 85.3709 269.057 83.3113C266.814 81.4017 264.838 80.215 264.77 78.3804C264.728 77.2415 265.456 77.146 266.615 77.7735C267.334 78.1888 267.952 78.7558 268.426 79.4346C268.9 80.1133 269.218 80.8873 269.359 81.7018L273.749 82.8271C273.63 82.226 273.462 81.6354 273.248 81.0607C272.888 80.0923 272.402 79.1752 271.801 78.3327C270.821 76.9633 269.615 75.7688 268.234 74.7999L268.124 71.9287L264.694 69.9509L264.756 70.6329Z" fill="#9B51E0"/>
<path d="M264.729 69.9032L267.864 72.0515L268.289 74.7522L268.179 71.8878L264.729 69.9032Z" fill="#FAFAFA"/>
<path d="M261.401 80.4538L261.614 80.7743L261.847 81.1085L262.066 81.395C262.098 81.4296 262.128 81.4661 262.155 81.5041C262.207 81.5788 262.264 81.6495 262.327 81.7155C262.437 81.8519 262.553 81.9747 262.67 82.1042C259.926 78.8034 259.995 74.4863 261.078 73.3883C262.546 71.8811 264.81 72.8154 264.81 72.8154C264.295 72.4607 263.689 72.2583 263.062 72.2318C262.436 72.2052 261.815 72.3555 261.271 72.6654C261.188 72.7131 261.126 72.7608 261.058 72.8086C260.324 73.3474 259.926 74.3772 259.988 75.9799C260.052 77.5693 260.54 79.1132 261.401 80.4538Z" fill="#FAFAFA"/>
<path d="M268.947 90.22C269.27 90.1518 269.915 89.613 269.428 88.4536C268.941 87.2942 268.227 86.8509 266.684 85.787C267.373 86.3236 268.011 86.9217 268.591 87.5738C268.881 87.9006 269.101 88.2838 269.235 88.6991C269.297 88.9075 269.332 89.123 269.338 89.3402C269.366 89.7767 269.229 90.1109 268.947 90.22Z" fill="#FAFAFA"/>
<path d="M265.819 92.8252L266.217 95.5123L269.414 97.606L265.935 95.6896L265.819 92.8252Z" fill="#FAFAFA"/>
<path d="M261.065 85.787L264.735 86.3667L260.571 85.3369C261.022 87.1148 261.861 88.7724 263.027 90.1928C262.038 88.8958 261.366 87.3873 261.065 85.787Z" fill="#FAFAFA"/>
<path d="M263.226 90.4317L263.123 90.3154L263.226 90.4317Z" fill="#FAFAFA"/>
<path d="M271.327 110.435C262.54 106.479 254.822 95.1646 254.822 95.1646C259.439 102.523 265.236 108.123 271.149 110.953C276.822 113.681 281.864 113.469 285.37 110.394C285.342 110.394 280.266 114.431 271.327 110.435Z" fill="#F5F5F5"/>
<path d="M284.32 72.6722C279.642 64.4268 273.104 57.4977 266.135 54.1627C258.89 50.6982 252.751 51.878 249.06 56.5361C249.06 56.5361 255.275 49.2523 266.176 54.872C277.076 60.4917 284.32 72.6722 284.32 72.6722Z" fill="#F5F5F5"/>
<path d="M271.43 122.656C271.547 121.701 269.763 119.164 269.221 118.366C267.644 116.054 267.486 113.838 266.621 111.417C265.935 109.534 265.009 108.689 265.359 108.375C265.819 107.932 267.122 107.454 268.467 108.62C269.153 109.207 270.525 111.546 271.43 112.903C272.933 114.745 271.43 122.656 271.43 122.656Z" fill="#FFD8B4"/>
</svg>
