<svg width="316" height="316" viewBox="0 0 316 316" fill="none" xmlns="http://www.w3.org/2000/svg">
<g clip-path="url(#clip0)">
<path d="M375.57 266.624H-27.1997V266.824H375.57V266.624Z" fill="#EBEBEB"/>
<path d="M335.213 279.585H308.533V279.786H335.213V279.585Z" fill="#EBEBEB"/>
<path d="M274.822 276.862H228.116V277.063H274.822V276.862Z" fill="#EBEBEB"/>
<path d="M307.728 272.11H264.14V272.31H307.728V272.11Z" fill="#EBEBEB"/>
<path d="M27.0696 273.463H15.059V273.664H27.0696V273.463Z" fill="#EBEBEB"/>
<path d="M86.1157 273.463H34.2389V273.664H86.1157V273.463Z" fill="#EBEBEB"/>
<path d="M154.168 276.862H119.409V277.063H154.168V276.862Z" fill="#EBEBEB"/>
<path d="M163.713 230.697H8.17154C6.95303 230.695 5.78517 230.209 4.92431 229.347C4.06345 228.484 3.57995 227.316 3.57996 226.097V7.44931C3.59056 6.2378 4.07874 5.0794 4.93845 4.22572C5.79817 3.37204 6.95998 2.89203 8.17154 2.88995H163.713C164.933 2.88995 166.103 3.37456 166.966 4.23716C167.828 5.09975 168.313 6.26969 168.313 7.48959V226.097C168.313 227.317 167.828 228.487 166.966 229.35C166.103 230.212 164.933 230.697 163.713 230.697ZM8.17154 3.05106C7.00644 3.0532 5.8898 3.51752 5.06671 4.34212C4.24362 5.16672 3.78134 6.28422 3.78134 7.44931V226.097C3.78134 227.262 4.24362 228.38 5.06671 229.204C5.8898 230.029 7.00644 230.493 8.17154 230.495H163.713C164.879 230.493 165.997 230.029 166.821 229.205C167.645 228.38 168.109 227.263 168.112 226.097V7.44931C168.109 6.28348 167.645 5.166 166.821 4.34163C165.997 3.51726 164.879 3.05319 163.713 3.05106H8.17154Z" fill="#EBEBEB"/>
<path d="M337.96 230.697H182.41C181.191 230.695 180.022 230.209 179.16 229.347C178.298 228.485 177.812 227.316 177.81 226.097V7.44931C177.823 6.23706 178.313 5.07867 179.174 4.22521C180.035 3.37175 181.198 2.89201 182.41 2.88995H337.96C339.17 2.89415 340.33 3.37509 341.188 4.22854C342.046 5.082 342.533 6.23919 342.543 7.44931V226.097C342.543 227.314 342.061 228.482 341.202 229.344C340.343 230.206 339.177 230.692 337.96 230.697ZM182.41 3.05106C181.244 3.05319 180.127 3.51726 179.302 4.34163C178.478 5.166 178.014 6.28348 178.012 7.44931V226.097C178.014 227.263 178.478 228.38 179.302 229.205C180.127 230.029 181.244 230.493 182.41 230.495H337.96C339.126 230.493 340.243 230.029 341.067 229.205C341.892 228.38 342.356 227.263 342.358 226.097V7.44931C342.356 6.28348 341.892 5.166 341.067 4.34163C340.243 3.51726 339.126 3.05319 337.96 3.05106H182.41Z" fill="#EBEBEB"/>
<path d="M150.422 26.1701H24.967V142.273H150.422V26.1701Z" fill="#E6E6E6"/>
<path d="M153.435 26.1701H26.3768V142.273H153.435V26.1701Z" fill="#F0F0F0"/>
<path d="M149.222 137.536V30.9147L30.6059 30.9147V137.536H149.222Z" fill="#FAFAFA"/>
<path d="M99.9226 137.536L78.9785 30.9147H51.5176L72.4617 137.536H99.9226Z" fill="white"/>
<path d="M68.1923 137.536L47.2402 30.9147H34.8349L55.787 137.536H68.1923Z" fill="white"/>
<path d="M134.271 137.536L113.319 30.9147H108.767L129.711 137.536H134.271Z" fill="white"/>
<path d="M149.222 137.536V30.9147H148.682V137.536H149.222Z" fill="#E6E6E6"/>
<path opacity="0.7" d="M21.8014 25.9848V85.3692H33.9731C33.9731 85.3692 55.8435 57.7231 60.8137 28.3772C60.9425 27.6738 60.9137 26.9506 60.7292 26.2597C60.5447 25.5687 60.2091 24.9274 59.7468 24.3818C59.2845 23.8363 58.7068 23.4001 58.0555 23.1048C57.4042 22.8094 56.6955 22.6623 55.9805 22.674H25.1605C24.7217 22.6676 24.2859 22.7485 23.8787 22.912C23.4714 23.0755 23.1007 23.3184 22.7881 23.6265C22.4755 23.9345 22.2273 24.3017 22.058 24.7066C21.8886 25.1114 21.8013 25.5459 21.8014 25.9848Z" fill="#E6E6E6"/>
<path opacity="0.7" d="M21.8014 190.283V89.0828H33.9731C33.9731 89.0828 41.5532 172.859 44.4451 190.283H21.8014Z" fill="#E6E6E6"/>
<path d="M33.6266 85.3693H22.2524C21.5806 85.3693 21.036 85.9138 21.036 86.5856V87.8664C21.036 88.5382 21.5806 89.0828 22.2524 89.0828H33.6266C34.2984 89.0828 34.843 88.5382 34.843 87.8664V86.5856C34.843 85.9138 34.2984 85.3693 33.6266 85.3693Z" fill="#E0E0E0"/>
<path opacity="0.7" d="M156.882 25.9848V85.3692H144.711C144.711 85.3692 122.84 57.7231 117.87 28.3772C117.749 27.6748 117.783 26.9543 117.97 26.2665C118.158 25.5787 118.493 24.9404 118.954 24.3966C119.415 23.8528 119.99 23.4167 120.638 23.119C121.285 22.8214 121.99 22.6695 122.703 22.674H153.604C154.476 22.6825 155.31 23.0351 155.924 23.655C156.538 24.275 156.882 25.1123 156.882 25.9848Z" fill="#E6E6E6"/>
<path opacity="0.7" d="M156.882 190.283V89.0828H144.711C144.711 89.0828 137.131 172.859 134.239 190.283H156.882Z" fill="#E6E6E6"/>
<path d="M145.065 89.0828H156.439C157.111 89.0828 157.656 88.5382 157.656 87.8664V86.5856C157.656 85.9138 157.111 85.3692 156.439 85.3692H145.065C144.393 85.3692 143.849 85.9138 143.849 86.5856V87.8664C143.849 88.5382 144.393 89.0828 145.065 89.0828Z" fill="#E0E0E0"/>
<path d="M281.612 42.0956H211.683V123.173H281.612V42.0956Z" fill="#E6E6E6"/>
<path d="M286.486 42.0956H212.739V123.173H286.486V42.0956Z" fill="#F0F0F0"/>
<path d="M280.315 116.995V48.2741L218.925 48.2741V116.995H280.315Z" fill="white"/>
<path d="M264.559 98.1612H248.617C244.769 98.1484 241.082 96.6111 238.364 93.886C235.647 91.1608 234.12 87.4698 234.118 83.6212V67.6876C234.118 67.5317 234.18 67.3821 234.29 67.2718C234.4 67.1616 234.55 67.0996 234.706 67.0996H250.639C254.488 67.1017 258.179 68.6288 260.904 71.3464C263.629 74.064 265.166 77.7507 265.179 81.5993V97.5329C265.185 97.6162 265.173 97.6998 265.144 97.7782C265.115 97.8565 265.07 97.9278 265.011 97.9872C264.952 98.0467 264.882 98.093 264.804 98.123C264.726 98.153 264.642 98.166 264.559 98.1612ZM235.27 68.2837V83.589C235.266 85.3446 235.609 87.0837 236.278 88.7068C236.947 90.33 237.93 91.8053 239.169 93.0486C240.409 94.2919 241.881 95.2788 243.503 95.9529C245.124 96.6269 246.862 96.975 248.617 96.9771H263.963V81.6718C263.959 78.1309 262.55 74.7363 260.046 72.2325C257.543 69.7287 254.148 68.3202 250.607 68.316L235.27 68.2837Z" fill="#F0F0F0"/>
<path d="M204.458 153.784H191.988V263.265H204.458V153.784Z" fill="#F0F0F0"/>
<path d="M313.455 263.265H193.712V266.624H313.455V263.265Z" fill="#F0F0F0"/>
<path d="M204.466 263.265H315.187V153.784H204.466V263.265Z" fill="#F5F5F5"/>
<path d="M305.488 220.523H214.14V196.534H305.488V220.523ZM214.938 219.717H304.683V197.339H214.946L214.938 219.717Z" fill="#F0F0F0"/>
<path d="M305.488 250.36H214.14V226.371H305.488V250.36ZM214.938 249.555H304.683V227.177H214.946L214.938 249.555Z" fill="#F0F0F0"/>
<path d="M269.988 206.345H249.656C248.885 206.345 248.146 206.039 247.6 205.494C247.055 204.948 246.748 204.209 246.748 203.437C246.748 202.666 247.055 201.926 247.6 201.381C248.146 200.836 248.885 200.529 249.656 200.529H269.988C270.76 200.529 271.499 200.836 272.045 201.381C272.59 201.926 272.896 202.666 272.896 203.437C272.896 204.209 272.59 204.948 272.045 205.494C271.499 206.039 270.76 206.345 269.988 206.345ZM249.656 201.335C249.099 201.335 248.564 201.556 248.17 201.951C247.776 202.345 247.554 202.88 247.554 203.437C247.554 203.995 247.776 204.53 248.17 204.924C248.564 205.318 249.099 205.54 249.656 205.54H269.988C270.546 205.54 271.081 205.318 271.475 204.924C271.869 204.53 272.091 203.995 272.091 203.437C272.091 202.88 271.869 202.345 271.475 201.951C271.081 201.556 270.546 201.335 269.988 201.335H249.656Z" fill="#F0F0F0"/>
<path d="M305.488 190.686H214.14V166.697H305.488V190.686ZM214.938 189.88H304.683V167.502H214.946L214.938 189.88Z" fill="#F0F0F0"/>
<path d="M269.988 176.508H249.656C248.885 176.508 248.146 176.202 247.6 175.656C247.055 175.111 246.748 174.371 246.748 173.6C246.748 172.829 247.055 172.089 247.6 171.544C248.146 170.998 248.885 170.692 249.656 170.692H269.988C270.76 170.692 271.499 170.998 272.045 171.544C272.59 172.089 272.896 172.829 272.896 173.6C272.896 174.371 272.59 175.111 272.045 175.656C271.499 176.202 270.76 176.508 269.988 176.508ZM249.656 171.498C249.099 171.498 248.564 171.719 248.17 172.113C247.776 172.508 247.554 173.042 247.554 173.6C247.554 174.158 247.776 174.692 248.17 175.087C248.564 175.481 249.099 175.703 249.656 175.703H269.988C270.546 175.703 271.081 175.481 271.475 175.087C271.869 174.692 272.091 174.158 272.091 173.6C272.091 173.042 271.869 172.508 271.475 172.113C271.081 171.719 270.546 171.498 269.988 171.498H249.656Z" fill="#F0F0F0"/>
<path d="M269.988 236.182H249.656C248.885 236.182 248.146 235.876 247.6 235.331C247.055 234.785 246.748 234.046 246.748 233.274C246.748 232.503 247.055 231.764 247.6 231.218C248.146 230.673 248.885 230.366 249.656 230.366H269.988C270.76 230.366 271.499 230.673 272.045 231.218C272.59 231.764 272.896 232.503 272.896 233.274C272.896 234.046 272.59 234.785 272.045 235.331C271.499 235.876 270.76 236.182 269.988 236.182ZM249.656 231.172C249.099 231.172 248.564 231.394 248.17 231.788C247.776 232.182 247.554 232.717 247.554 233.274C247.554 233.832 247.776 234.367 248.17 234.761C248.564 235.155 249.099 235.377 249.656 235.377H269.988C270.546 235.377 271.081 235.155 271.475 234.761C271.869 234.367 272.091 233.832 272.091 233.274C272.091 232.717 271.869 232.182 271.475 231.788C271.081 231.394 270.546 231.172 269.988 231.172H249.656Z" fill="#F0F0F0"/>
<path d="M317.459 150.666H204.458V153.792H317.459V150.666Z" fill="#F0F0F0"/>
<path d="M189.547 153.784H204.458V150.658H189.547V153.784Z" fill="#E6E6E6"/>
<path d="M174.185 303.002C260.445 303.002 330.372 298.919 330.372 293.883C330.372 288.847 260.445 284.765 174.185 284.765C87.9261 284.765 17.9991 288.847 17.9991 293.883C17.9991 298.919 87.9261 303.002 174.185 303.002Z" fill="#F5F5F5"/>
<path d="M106.198 73.8662C106.351 72.0859 114.019 65.5208 122.027 70.1043C130.034 74.6878 124.242 88.5431 132.95 89.8883C127.311 95.5271 108.945 102.414 103.298 95.946C97.6509 89.4775 96.9259 71.3609 106.198 73.8662Z" fill="#263238"/>
<path d="M138.452 118.541C138.661 121.522 138.975 124.68 139.394 127.692C139.769 130.661 140.372 133.597 141.198 136.473C141.295 136.819 141.416 137.149 141.529 137.472L141.835 138.326C141.898 138.511 141.99 138.685 142.109 138.841C142.294 139.115 143.365 139.365 144.622 139.204C147.493 138.715 150.279 137.817 152.895 136.537L154.941 139.542C154.29 140.114 153.61 140.652 152.903 141.153C152.21 141.652 151.501 142.136 150.752 142.571C149.198 143.522 147.524 144.262 145.774 144.77C144.761 145.053 143.716 145.205 142.665 145.221C141.36 145.231 140.073 144.918 138.919 144.311C137.671 143.627 136.648 142.597 135.971 141.346L135.753 140.919L135.616 140.613L135.334 139.985C135.141 139.574 134.956 139.179 134.811 138.744C133.607 135.534 132.724 132.213 132.176 128.828C131.614 125.54 131.262 122.22 131.121 118.888L138.452 118.541Z" fill="#FFC3BD"/>
<path d="M134.512 110.534C141.045 115.529 140.78 124.954 140.78 124.954L129.075 127.749C129.075 127.749 125.49 118.276 126.948 114.804C128.487 111.187 130.839 107.715 134.512 110.534Z" fill="#5F80F8"/>
<path d="M152.259 137.238L156.552 132.936L158.864 139.663C158.864 139.663 155.239 141.62 151.767 139.767L152.259 137.238Z" fill="#FFC3BD"/>
<path d="M162.497 132.276L163.286 137.584L158.864 139.655L156.552 132.936L162.497 132.276Z" fill="#FFC3BD"/>
<path d="M96.66 288.293L103.233 288.929L110.072 273.294L103.499 272.649L96.66 288.293Z" fill="#FFC3BD"/>
<path d="M54.3452 265.174L59.2751 269.806L69.9324 258.101L64.9944 253.461L54.3452 265.174Z" fill="#FFC3BD"/>
<path d="M61.5547 267.583L57.8492 260.905C57.7873 260.789 57.6852 260.699 57.5621 260.654C57.439 260.608 57.3033 260.608 57.1806 260.655L51.4693 262.83C51.328 262.89 51.2008 262.979 51.096 263.091C50.9913 263.203 50.9112 263.336 50.8611 263.481C50.811 263.626 50.7919 263.78 50.8051 263.933C50.8183 264.086 50.8634 264.234 50.9376 264.368C52.2748 266.672 53.0321 267.719 54.6673 270.66C55.6662 272.464 57.6236 276.613 59.0092 279.11C60.3947 281.607 62.9322 280.366 62.5777 279.206C60.9666 273.987 61.2969 271.087 61.7722 268.783C61.8454 268.37 61.7683 267.944 61.5547 267.583Z" fill="#263238"/>
<path d="M104.103 286.899H96.0479C95.9025 286.9 95.7614 286.948 95.6463 287.037C95.5313 287.126 95.4487 287.25 95.4115 287.391L93.6313 293.779C93.5883 293.929 93.5813 294.088 93.6108 294.241C93.6403 294.395 93.7055 294.54 93.8012 294.663C93.8968 294.787 94.0202 294.887 94.1614 294.954C94.3025 295.022 94.4576 295.055 94.614 295.052C97.4576 295.052 98.8028 295.052 102.355 295.052H113.198C116.146 295.052 116.766 292.071 115.542 291.829C110.072 290.621 106.923 288.954 105.231 287.359C104.926 287.07 104.523 286.906 104.103 286.899Z" fill="#263238"/>
<path opacity="0.2" d="M110.064 273.302L106.544 281.357H99.689L103.491 272.657L110.064 273.302Z" fill="black"/>
<path opacity="0.2" d="M64.9943 253.47L69.9242 258.101L64.4305 264.135L59.5005 259.503L64.9943 253.47Z" fill="black"/>
<path d="M132.539 109.56C132.539 109.56 135.519 110.832 125.587 150.062L98.0699 147.686C99.5037 136.521 100.108 129.618 96.7488 106.168C100.67 105.705 104.619 105.527 108.566 105.637C112.751 105.702 116.926 106.062 121.06 106.716C124.932 107.471 128.763 108.42 132.539 109.56Z" fill="#5F80F8"/>
<path d="M113.488 119.548C113.464 119.556 113.439 119.556 113.415 119.548C107.462 114.651 103.749 107.095 104.941 105.314C104.956 105.289 104.981 105.27 105.009 105.263C105.038 105.255 105.068 105.259 105.094 105.274C105.12 105.291 105.139 105.317 105.146 105.347C105.154 105.377 105.15 105.408 105.134 105.435C104.055 107.103 107.744 114.522 113.431 119.258C114.865 114.933 117.306 113.201 117.33 113.185C117.356 113.173 117.384 113.171 117.411 113.178C117.438 113.186 117.462 113.202 117.478 113.225C117.494 113.248 117.502 113.276 117.5 113.303C117.498 113.331 117.486 113.358 117.467 113.378C117.467 113.378 115.002 115.126 113.593 119.492C113.587 119.509 113.578 119.524 113.565 119.537C113.552 119.549 113.537 119.559 113.52 119.564L113.488 119.548Z" fill="white"/>
<path d="M123.009 119.814C122.99 119.81 122.971 119.8 122.957 119.786C122.943 119.772 122.933 119.753 122.929 119.734C121.68 115.239 119.191 113.45 119.167 113.434C119.149 113.411 119.139 113.383 119.139 113.354C119.139 113.324 119.149 113.296 119.167 113.273C119.189 113.253 119.218 113.242 119.248 113.242C119.277 113.242 119.306 113.253 119.328 113.273C119.328 113.273 121.833 115.07 123.122 119.492C126.111 115.827 124.411 108.859 123.251 107.071C123.236 107.044 123.232 107.012 123.239 106.982C123.247 106.952 123.265 106.926 123.291 106.909C123.312 106.89 123.339 106.879 123.368 106.879C123.396 106.879 123.424 106.89 123.444 106.909C124.645 108.77 126.409 116.068 123.154 119.798C123.135 119.815 123.11 119.826 123.084 119.829C123.059 119.831 123.032 119.826 123.009 119.814Z" fill="white"/>
<path d="M111.023 91.6767C111.458 95.7608 111.611 103.196 108.566 105.637C111.525 108.381 114.829 110.729 118.394 112.621C123.178 109.318 121.06 106.716 121.06 106.716C116.67 105.258 117.032 101.947 118.128 98.8862L111.023 91.6767Z" fill="#FFC3BD"/>
<path opacity="0.2" d="M113.915 94.6169L118.12 98.8863C117.865 99.5957 117.674 100.326 117.548 101.069C115.856 100.675 113.407 98.9185 113.375 97.106C113.411 96.2515 113.593 95.4095 113.915 94.6169Z" fill="black"/>
<path d="M107.422 85.2887C109.13 91.8217 109.71 94.6169 113.713 97.3718C119.739 101.488 127.408 97.9679 127.673 91.0564C127.923 84.8376 125.096 75.2034 118.104 73.842C116.566 73.536 114.975 73.6278 113.482 74.1088C111.99 74.5899 110.645 75.4441 109.575 76.5906C108.505 77.7371 107.746 79.1379 107.369 80.6601C106.992 82.1823 107.011 83.7755 107.422 85.2887Z" fill="#FFC3BD"/>
<path d="M109.283 90.1783C111.498 93.4005 117.274 74.2045 109.79 74.8087C102.307 75.4128 103.209 83.5407 109.283 90.1783Z" fill="#263238"/>
<path d="M110.274 75.9042C114.599 78.1033 127.19 80.7374 125.466 77.2333C124.526 75.4755 123.125 74.0064 121.413 72.9834C119.702 71.9603 117.745 71.4218 115.751 71.4254C111.643 71.361 106.455 73.9709 110.274 75.9042Z" fill="#263238"/>
<path d="M106.882 90.8228C107.183 91.3969 107.593 91.9059 108.091 92.3207C108.589 92.7354 109.164 93.0476 109.782 93.2394C111.442 93.7388 112.304 92.2647 111.869 90.6858C111.482 89.26 110.153 87.2865 108.477 87.4637C108.111 87.5122 107.762 87.6515 107.464 87.8692C107.165 88.0868 106.925 88.3757 106.767 88.7096C106.608 89.0435 106.536 89.4118 106.556 89.7809C106.576 90.15 106.688 90.5082 106.882 90.8228Z" fill="#FFC3BD"/>
<path d="M125.587 150.062C125.587 150.062 134.899 191.25 128.688 220.289C124.524 239.735 109.508 279.021 109.508 279.021L97.7717 278.723C97.7717 278.723 109.138 237.496 111.466 221.28C115.494 193.545 105.424 148.322 105.424 148.322L125.587 150.062Z" fill="#263238"/>
<path opacity="0.2" d="M114.849 158.359L108.985 167.623C110.753 178.6 111.875 189.671 112.344 200.779C120.593 186.013 116.686 166.205 114.849 158.359Z" fill="black"/>
<path d="M111.16 279.633L96.66 279.263L97.5059 274.808L112.296 275.509L111.16 279.633Z" fill="#5F80F8"/>
<path d="M119.57 149.627C119.57 149.627 114.108 193.304 102.267 217.148C92.7049 236.416 67.1854 263.829 67.1854 263.829L60.6605 257.11C60.6605 257.11 77.8991 227.305 85.004 214.513C102.436 183.146 88.2261 159.205 98.0698 147.654L119.57 149.627Z" fill="#263238"/>
<path d="M67.8459 264.731L59.428 256.522L62.2232 252.72L71.1486 261.638L67.8459 264.731Z" fill="#5F80F8"/>
<path d="M97.7959 146.035L96.3459 148.387C96.2331 148.572 96.4426 148.781 96.7567 148.814L125.619 151.311C125.869 151.311 126.086 151.222 126.111 151.069L126.57 148.653C126.57 148.483 126.401 148.322 126.135 148.298L98.2631 145.881C98.1786 145.865 98.0914 145.871 98.0097 145.898C97.928 145.924 97.8544 145.971 97.7959 146.035Z" fill="#5F80F8"/>
<path opacity="0.3" d="M97.7959 146.035L96.3459 148.387C96.2331 148.572 96.4426 148.781 96.7567 148.814L125.619 151.311C125.869 151.311 126.086 151.222 126.111 151.069L126.57 148.653C126.57 148.483 126.401 148.322 126.135 148.298L98.2631 145.881C98.1786 145.865 98.0914 145.871 98.0097 145.898C97.928 145.924 97.8544 145.971 97.7959 146.035Z" fill="black"/>
<path d="M101.268 149.498L100.527 149.434C100.374 149.434 100.269 149.329 100.285 149.241L100.913 146.067C100.913 145.978 101.066 145.914 101.219 145.922L101.961 145.986C102.114 145.986 102.218 146.091 102.202 146.18L101.574 149.353C101.558 149.418 101.421 149.498 101.268 149.498Z" fill="#263238"/>
<path d="M123.501 151.391L122.751 151.327C122.606 151.327 122.494 151.23 122.518 151.134L123.138 147.968C123.138 147.871 123.299 147.807 123.444 147.823L124.193 147.887C124.338 147.887 124.443 147.984 124.427 148.081L123.799 151.246C123.783 151.343 123.646 151.407 123.501 151.391Z" fill="#263238"/>
<path d="M112.384 150.433L111.635 150.368C111.49 150.368 111.385 150.272 111.402 150.175L112.03 147.009C112.03 146.913 112.183 146.848 112.328 146.864L113.077 146.929C113.23 146.929 113.335 147.025 113.319 147.114L112.69 150.288C112.662 150.342 112.617 150.385 112.562 150.411C112.506 150.438 112.444 150.445 112.384 150.433Z" fill="#263238"/>
<path d="M118.482 85.0551C118.587 85.5949 118.958 85.9735 119.288 85.901C119.618 85.8285 119.844 85.3451 119.739 84.8054C119.634 84.2657 119.264 83.8871 118.933 83.9515C118.603 84.016 118.369 84.5235 118.482 85.0551Z" fill="#263238"/>
<path d="M124.564 83.8629C124.669 84.4027 125.039 84.7893 125.37 84.7168C125.7 84.6443 125.917 84.1529 125.813 83.6132C125.708 83.0735 125.337 82.6949 125.007 82.7674C124.677 82.8399 124.459 83.3313 124.564 83.8629Z" fill="#263238"/>
<path d="M124.862 82.8237L126.079 82.2035C126.079 82.2035 125.611 83.3393 124.862 82.8237Z" fill="#263238"/>
<path d="M122.47 85.2082C123.186 86.3432 124.053 87.3757 125.047 88.2773C124.811 88.5257 124.524 88.7199 124.206 88.8464C123.887 88.973 123.545 89.0289 123.203 89.0104L122.47 85.2082Z" fill="#ED847E"/>
<path d="M120.73 91.5719C119.595 91.5868 118.498 91.1692 117.66 90.4039C117.635 90.3782 117.621 90.3435 117.621 90.3072C117.621 90.271 117.635 90.2362 117.66 90.2106C117.673 90.1981 117.687 90.1883 117.703 90.1815C117.719 90.1748 117.736 90.1713 117.753 90.1713C117.77 90.1713 117.788 90.1748 117.803 90.1815C117.819 90.1883 117.834 90.1981 117.846 90.2106C118.362 90.6628 118.977 90.988 119.641 91.16C120.306 91.332 121.001 91.3462 121.672 91.2014C121.707 91.1942 121.744 91.2011 121.774 91.2207C121.804 91.2403 121.825 91.271 121.833 91.3061C121.837 91.323 121.837 91.3405 121.833 91.3575C121.83 91.3745 121.823 91.3906 121.813 91.4049C121.804 91.4191 121.791 91.4313 121.776 91.4406C121.762 91.45 121.746 91.4563 121.728 91.4591C121.4 91.53 121.065 91.5677 120.73 91.5719Z" fill="#263238"/>
<path d="M114.825 82.9768C114.78 82.9884 114.733 82.9884 114.688 82.9768C114.658 82.9586 114.631 82.9345 114.61 82.9059C114.589 82.8773 114.574 82.8448 114.566 82.8103C114.557 82.7757 114.556 82.7399 114.562 82.7048C114.568 82.6698 114.58 82.6363 114.599 82.6063C114.847 82.1703 115.195 81.8006 115.616 81.5285C116.037 81.2564 116.517 81.09 117.016 81.0435C117.051 81.0424 117.086 81.0483 117.118 81.0606C117.151 81.073 117.181 81.0917 117.206 81.1156C117.232 81.1396 117.252 81.1683 117.267 81.2002C117.281 81.232 117.289 81.2664 117.29 81.3013C117.291 81.3362 117.285 81.371 117.273 81.4037C117.261 81.4363 117.242 81.4662 117.218 81.4917C117.194 81.5171 117.165 81.5376 117.133 81.5519C117.102 81.5662 117.067 81.5741 117.032 81.5752C116.62 81.6196 116.224 81.762 115.878 81.9904C115.532 82.2188 115.246 82.5266 115.043 82.8882C115.015 82.9186 114.982 82.9425 114.944 82.9578C114.906 82.9732 114.866 82.9797 114.825 82.9768Z" fill="#263238"/>
<path d="M126.256 80.818C126.211 80.8292 126.164 80.8292 126.119 80.818C125.765 80.6052 125.365 80.4803 124.953 80.4537C124.541 80.4271 124.129 80.4995 123.75 80.6649C123.687 80.6966 123.614 80.7026 123.546 80.6815C123.479 80.6605 123.422 80.6141 123.388 80.5522C123.371 80.521 123.361 80.4869 123.357 80.4517C123.354 80.4165 123.358 80.381 123.368 80.3472C123.379 80.3135 123.396 80.2821 123.419 80.2551C123.441 80.228 123.469 80.2058 123.501 80.1897C123.959 79.9826 124.46 79.889 124.962 79.9171C125.464 79.9451 125.952 80.0939 126.385 80.3508C126.415 80.3676 126.442 80.3903 126.464 80.4177C126.486 80.4451 126.503 80.4765 126.512 80.5102C126.522 80.5439 126.525 80.5792 126.521 80.614C126.517 80.6489 126.506 80.6826 126.489 80.7133C126.462 80.7484 126.426 80.7763 126.385 80.7946C126.345 80.8129 126.3 80.8209 126.256 80.818Z" fill="#263238"/>
<path d="M100.672 116.471C99.5923 118.259 98.4484 120.096 97.3771 121.933C96.3057 123.769 95.2021 125.59 94.1549 127.435C93.1077 129.279 92.133 131.124 91.3033 132.961C91.0777 133.42 90.9005 133.871 90.6911 134.322C90.4816 134.773 90.3527 135.2 90.1836 135.643C90.1067 135.844 90.05 136.051 90.0144 136.263C90.0144 136.368 90.0144 136.336 89.9661 136.32C89.9178 136.304 90.103 136.626 90.7716 136.908C91.549 137.217 92.3602 137.433 93.1882 137.552C95.1724 137.839 97.1775 137.955 99.1815 137.899C103.416 137.784 107.641 137.434 111.837 136.851L112.642 140.388C108.362 141.729 103.97 142.683 99.5198 143.239C97.1831 143.542 94.8229 143.62 92.4713 143.473C91.1363 143.386 89.8179 143.129 88.5483 142.708C87.7729 142.444 87.0361 142.078 86.3573 141.62C85.4775 141.041 84.7532 140.255 84.2476 139.331C83.7421 138.407 83.4707 137.373 83.4573 136.32C83.4472 135.445 83.5666 134.574 83.8118 133.734C83.989 133.146 84.1581 132.534 84.3515 131.97C84.5448 131.406 84.7381 130.842 84.9556 130.294C85.8095 128.119 86.752 126.073 87.775 124.075C88.7981 122.078 89.8533 120.12 90.9488 118.195C92.0444 116.27 93.1883 114.393 94.453 112.508L100.672 116.471Z" fill="#FFC3BD"/>
<path d="M110.193 137.673L115.566 134.829L115.767 140.815C115.767 140.815 112.014 142.168 109.79 140.428L110.193 137.673Z" fill="#FFC3BD"/>
<path d="M118.837 135.256L118.031 140.557L115.768 140.815L115.558 134.829L118.837 135.256Z" fill="#FFC3BD"/>
<path d="M96.7487 106.168C93.3735 106.805 88.645 116.471 88.645 116.471L99.117 125.533C99.117 125.533 103.91 116.785 103.556 112.387C103.249 108.625 101.042 105.411 96.7487 106.168Z" fill="#5F80F8"/>
<path d="M62.8595 271.175C62.7695 271.174 62.6801 271.16 62.5937 271.135C61.7882 270.861 61.2565 269.363 60.9826 268.501C60.969 268.479 60.9619 268.454 60.9619 268.428C60.9619 268.403 60.969 268.378 60.9826 268.356C61.0059 268.342 61.0323 268.335 61.0591 268.335C61.086 268.335 61.1124 268.342 61.1357 268.356C61.3773 268.485 63.5523 269.637 63.6007 270.482C63.611 270.575 63.5954 270.668 63.5555 270.752C63.5157 270.836 63.4532 270.907 63.3751 270.958C63.229 271.08 63.0493 271.156 62.8595 271.175ZM61.3612 268.759C61.7398 269.959 62.2232 270.748 62.6823 270.901C62.7863 270.933 62.8966 270.936 63.0025 270.912C63.1083 270.888 63.2062 270.837 63.2865 270.764C63.3277 270.74 63.361 270.704 63.3824 270.661C63.4038 270.618 63.4125 270.57 63.4073 270.523C63.367 269.975 62.1023 269.153 61.3612 268.718V268.759Z" fill="#5F80F8"/>
<path d="M63.1899 269.073C62.4558 269.07 61.7317 268.902 61.0713 268.581C61.0515 268.568 61.0352 268.55 61.024 268.529C61.0127 268.508 61.0069 268.484 61.0069 268.461C61.0083 268.437 61.0157 268.414 61.0284 268.395C61.0411 268.375 61.0587 268.359 61.0794 268.348C61.1519 268.308 62.8596 267.365 63.778 267.695C63.8912 267.733 63.9947 267.795 64.0811 267.877C64.1674 267.959 64.2345 268.059 64.2774 268.171C64.3348 268.278 64.3541 268.402 64.3322 268.522C64.3103 268.642 64.2484 268.751 64.1566 268.831C63.8706 269.018 63.5301 269.103 63.1899 269.073ZM61.4338 268.461C62.1669 268.775 63.5846 268.968 63.9874 268.63C64.0518 268.573 64.1163 268.477 63.9874 268.275C63.9578 268.199 63.9123 268.13 63.854 268.074C63.7956 268.017 63.7257 267.973 63.6491 267.945C63.061 267.728 61.9252 268.227 61.4097 268.461H61.4338Z" fill="#5F80F8"/>
<path d="M107.688 288.204C106.945 288.188 106.205 288.097 105.481 287.93C105.453 287.923 105.429 287.907 105.41 287.886C105.392 287.864 105.38 287.838 105.376 287.81C105.375 287.781 105.382 287.753 105.396 287.729C105.41 287.705 105.431 287.685 105.457 287.673C105.787 287.52 108.679 286.166 109.484 286.666C109.552 286.711 109.606 286.774 109.64 286.848C109.674 286.922 109.687 287.004 109.678 287.085C109.671 287.232 109.632 287.376 109.562 287.505C109.492 287.635 109.394 287.747 109.275 287.834C108.799 288.124 108.243 288.253 107.688 288.204ZM105.94 287.745C106.81 287.914 108.421 288.124 109.081 287.624C109.171 287.561 109.243 287.478 109.294 287.382C109.344 287.285 109.371 287.178 109.371 287.069C109.371 286.956 109.371 286.915 109.299 286.891C108.888 286.609 107.156 287.246 105.94 287.745Z" fill="#5F80F8"/>
<path d="M105.513 287.93C105.485 287.942 105.453 287.942 105.424 287.93C105.411 287.912 105.404 287.889 105.404 287.866C105.404 287.843 105.411 287.82 105.424 287.802C105.424 287.681 106.117 284.789 107.704 284.974C108.099 285.022 108.212 285.216 108.228 285.377C108.332 286.11 106.488 287.592 105.602 287.955L105.513 287.93ZM107.519 285.2C106.504 285.2 105.908 286.883 105.714 287.552C106.673 287.052 107.986 285.852 107.922 285.377C107.922 285.377 107.922 285.24 107.632 285.208L107.519 285.2Z" fill="#5F80F8"/>
<path d="M118.772 84.024L119.997 83.3957C119.997 83.3957 119.529 84.5396 118.772 84.024Z" fill="#263238"/>
<path d="M260.08 110.164C260.04 110.72 259.992 111.114 259.935 111.573C259.879 112.033 259.814 112.443 259.742 112.87C259.597 113.732 259.428 114.578 259.242 115.424C258.866 117.109 258.4 118.774 257.849 120.41C256.725 123.718 255.199 126.875 253.306 129.811L252.564 130.906L252.379 131.172L252.266 131.333L252.097 131.559C251.852 131.85 251.582 132.119 251.292 132.364C250.344 133.216 249.215 133.839 247.989 134.185C246.108 134.691 244.153 134.863 242.213 134.692C238.787 134.41 235.418 133.639 232.208 132.405L233.078 128.933C236.108 129.242 239.158 129.304 242.197 129.118C243.483 129.045 244.749 128.773 245.951 128.313C246.263 128.184 246.539 127.982 246.757 127.725C246.668 127.845 247.208 126.919 247.562 126.339C248.971 123.738 250.108 120.998 250.953 118.163C251.388 116.729 251.759 115.279 252.081 113.829C252.242 113.096 252.387 112.363 252.516 111.638L252.685 110.55L252.83 109.56L260.08 110.164Z" fill="#B55B52"/>
<path d="M261.756 105.435C261.933 109.946 260.185 118.082 260.185 118.082L249.02 116.729C249.02 116.729 248.609 104.823 250.776 101.947C254.409 97.1382 261.595 101.166 261.756 105.435Z" fill="#263238"/>
<path d="M234.601 129.408L227.915 127.032L229.308 132.042C229.308 132.042 232.434 133.871 234.222 131.793L234.601 129.408Z" fill="#B55B52"/>
<path d="M225.619 128.313L224.701 131.849L229.316 132.042L227.923 127.032L225.619 128.313Z" fill="#B55B52"/>
<path d="M194.219 151.722C198.872 151.792 203.493 150.936 207.813 149.205C212.132 147.473 216.064 144.899 219.38 141.633C222.695 138.367 225.328 134.475 227.126 130.182C228.923 125.889 229.848 121.282 229.848 116.628C229.848 111.974 228.923 107.367 227.126 103.074C225.328 98.7816 222.695 94.8891 219.38 91.6234C216.064 88.3576 212.132 85.7839 207.813 84.052C203.493 82.32 198.872 81.4644 194.219 81.5349H189.668V151.722H194.219Z" fill="#5F80F8"/>
<path d="M189.668 151.722C209.052 151.722 224.765 136.008 224.765 116.624C224.765 97.2405 209.052 81.5269 189.668 81.5269C170.284 81.5269 154.57 97.2405 154.57 116.624C154.57 136.008 170.284 151.722 189.668 151.722Z" fill="#5F80F8"/>
<path opacity="0.4" d="M189.668 151.722C209.052 151.722 224.765 136.008 224.765 116.624C224.765 97.2405 209.052 81.5269 189.668 81.5269C170.284 81.5269 154.57 97.2405 154.57 116.624C154.57 136.008 170.284 151.722 189.668 151.722Z" fill="black"/>
<path opacity="0.2" d="M211.673 138.634C223.825 126.481 223.825 106.779 211.673 94.6262C199.521 82.4738 179.818 82.4738 167.665 94.6262C155.513 106.779 155.513 126.481 167.665 138.634C179.818 150.786 199.521 150.786 211.673 138.634Z" fill="#5F80F8"/>
<path d="M205.666 118.63C204.209 116.995 202.246 115.895 200.091 115.505C201.536 115.063 202.841 114.252 203.878 113.152C205.17 111.675 205.863 109.767 205.819 107.804C205.842 106.631 205.61 105.467 205.14 104.392C204.67 103.317 203.973 102.356 203.096 101.577C201.286 99.8959 198.687 99.0554 195.299 99.0554H193.212V93.1589H189.273V99.0554H184.392V93.1589H180.452V99.0554H171.89V106.176H174.991V127.08H171.914V134.193H180.477V140.09H184.416V134.193H189.297V140.09H193.236V134.193H193.736C195.354 134.116 196.967 133.954 198.569 133.71C200.005 133.599 201.408 133.216 202.701 132.582C204.147 131.763 205.349 130.573 206.181 129.134C207.036 127.639 207.473 125.942 207.446 124.221C207.528 122.206 206.898 120.226 205.666 118.63ZM185.922 106.176H190.715C192.366 106.176 193.518 106.466 194.179 107.038C194.517 107.34 194.782 107.714 194.955 108.132C195.128 108.551 195.204 109.003 195.178 109.455C195.206 109.924 195.131 110.393 194.958 110.83C194.786 111.267 194.52 111.661 194.179 111.984C193.518 112.564 192.342 112.854 190.651 112.854H185.922V106.176ZM195.419 125.654C194.614 126.315 193.333 126.645 191.464 126.645H185.922V119.532H191.44C193.341 119.532 194.67 119.846 195.427 120.475C195.798 120.776 196.094 121.159 196.293 121.593C196.491 122.028 196.586 122.503 196.571 122.98C196.592 123.484 196.5 123.986 196.3 124.449C196.101 124.911 195.8 125.324 195.419 125.654Z" fill="white"/>
<path d="M228.302 82.3002C228.302 82.8238 228.004 83.2508 227.665 83.2588C227.327 83.2669 227.045 82.8399 227.053 82.3244C227.061 81.8088 227.343 81.3738 227.689 81.3658C228.036 81.3577 228.31 81.7847 228.302 82.3002Z" fill="#263238"/>
<path d="M227.842 81.398L226.545 81.0274C226.545 81.0274 227.214 82.0183 227.842 81.398Z" fill="#263238"/>
<path d="M227.851 82.8157C227.363 84.0171 226.716 85.147 225.925 86.1748C226.195 86.36 226.502 86.4846 226.824 86.5402C227.147 86.5959 227.478 86.5811 227.794 86.497L227.851 82.8157Z" fill="#A02724"/>
<path d="M227.641 78.8363C227.689 78.8483 227.738 78.8483 227.786 78.8363C228.157 78.703 228.554 78.6576 228.945 78.7038C229.337 78.7499 229.712 78.8863 230.042 79.1022C230.107 79.1513 230.189 79.1725 230.27 79.1612C230.31 79.1556 230.348 79.1422 230.383 79.1217C230.418 79.1012 230.448 79.074 230.473 79.0417C230.497 79.0095 230.515 78.9727 230.525 78.9336C230.535 78.8945 230.537 78.8538 230.532 78.8138C230.526 78.7737 230.513 78.7352 230.492 78.7004C230.472 78.6656 230.444 78.6351 230.412 78.6108C230.001 78.3401 229.532 78.1674 229.044 78.106C228.555 78.0445 228.059 78.096 227.593 78.2563C227.554 78.2681 227.518 78.2877 227.487 78.3138C227.456 78.3399 227.431 78.372 227.413 78.4082C227.395 78.4443 227.384 78.4838 227.382 78.5242C227.38 78.5645 227.386 78.605 227.399 78.643C227.419 78.6938 227.452 78.7385 227.494 78.7725C227.536 78.8064 227.587 78.8285 227.641 78.8363Z" fill="#263238"/>
<path d="M243.744 87.8665C243.397 91.7894 244.71 98.2096 247.675 100.393C247.675 100.393 245.443 104.517 238.298 105.476C230.436 106.531 234.126 102.108 234.126 102.108C238.306 100.497 237.863 97.3799 236.8 94.5122L243.744 87.8665Z" fill="#B55B52"/>
<path d="M229.461 110.075C228.608 114.158 227.532 118.192 226.239 122.158C224.976 126.153 223.464 130.065 221.712 133.871L221.382 134.596C221.245 134.878 221.068 135.208 220.907 135.506C220.59 136.064 220.241 136.602 219.859 137.117C219.16 138.036 218.398 138.905 217.58 139.719C216.047 141.234 214.416 142.646 212.698 143.948C209.37 146.47 205.85 148.727 202.17 150.699L200.196 147.702C203.249 145.156 206.302 142.498 209.122 139.775C210.512 138.454 211.83 137.059 213.069 135.595C213.635 134.92 214.157 134.21 214.631 133.468C214.834 133.145 215.02 132.812 215.187 132.469L215.381 132.01L215.646 131.325C216.355 129.505 216.984 127.636 217.62 125.767C218.256 123.898 218.812 121.997 219.368 120.128C220.456 116.326 221.479 112.419 222.373 108.641L229.461 110.075Z" fill="#B55B52"/>
<path d="M202.532 150.417L198.827 152.833L196.99 149.684C196.99 149.684 200.631 145.334 202.83 148.427L202.532 150.417Z" fill="#B55B52"/>
<path d="M201.574 147.17L199.479 146.856L197.127 147.356L196.523 148.04L198.054 148.266L198.456 148.87L198.972 149.2L201.574 147.17Z" fill="#B55B52"/>
<path d="M195.146 153.147L193.108 151.504L196.99 149.7L198.827 152.849L195.146 153.147Z" fill="#B55B52"/>
<path d="M255.352 286.771L248.851 287.254L246.918 272.327L253.418 271.844L255.352 286.771Z" fill="#B55B52"/>
<path d="M296.974 267.808L291.343 271.232L281.983 259.535L287.614 256.112L296.974 267.808Z" fill="#B55B52"/>
<path d="M289.66 269.975L295 264.836C295.089 264.745 295.207 264.69 295.333 264.681C295.46 264.672 295.585 264.71 295.685 264.787L300.236 268.299C300.346 268.397 300.434 268.517 300.494 268.651C300.555 268.785 300.586 268.93 300.586 269.077C300.586 269.224 300.555 269.369 300.494 269.503C300.434 269.637 300.346 269.757 300.236 269.854C298.343 271.618 297.344 272.376 294.992 274.639C293.55 276.033 291.577 278.208 289.579 280.133C287.581 282.058 285.64 280.238 286.3 279.263C289.281 274.897 288.83 273.262 289.104 271.03C289.159 270.624 289.356 270.25 289.66 269.975Z" fill="#263238"/>
<path d="M248.448 286.327H255.754C255.88 286.326 256.003 286.37 256.099 286.451C256.195 286.533 256.259 286.646 256.278 286.771L257.261 292.546C257.281 292.69 257.271 292.838 257.23 292.977C257.189 293.117 257.118 293.247 257.023 293.357C256.927 293.467 256.809 293.555 256.676 293.615C256.544 293.675 256.399 293.707 256.254 293.706C253.7 293.706 252.468 293.513 249.254 293.513C247.28 293.513 243.196 293.714 240.465 293.714C237.734 293.714 237.525 291.016 238.653 290.774C243.72 289.679 245.693 288.164 247.369 286.746C247.667 286.482 248.05 286.334 248.448 286.327Z" fill="#263238"/>
<path opacity="0.2" d="M246.926 272.327L247.997 280.624L254.417 279.545L253.426 271.852L246.926 272.327Z" fill="black"/>
<path opacity="0.2" d="M287.614 256.112L281.983 259.543L285.858 264.376L291.609 261.098L287.614 256.112Z" fill="black"/>
<path d="M258.63 139.558L232.305 143.094C222.107 106.168 225.12 105.169 225.12 105.169C227.09 104.24 229.116 103.433 231.185 102.753L231.548 102.64C233.248 102.133 233.602 102.06 235.866 101.545C239.756 100.86 243.365 100.328 247.82 99.9334L248.625 99.869C249.431 99.8126 250.237 99.7723 251.042 99.7482C251.566 99.7482 252.081 99.7482 252.573 99.7079H255.142C255.646 99.7195 256.142 99.8355 256.598 100.049C257.055 100.262 257.462 100.567 257.794 100.946C258.127 101.324 258.377 101.768 258.529 102.248C258.681 102.728 258.732 103.235 258.679 103.736C256.439 123.238 257.156 129.618 258.63 139.558Z" fill="#263238"/>
<path opacity="0.2" d="M229.768 116.471C230.292 120.29 229.803 124.179 228.35 127.749C226.594 120.547 225.651 115.666 225.176 112.282C227.158 112.194 229.252 112.967 229.768 116.471Z" fill="black"/>
<path d="M225.345 105.065C220.842 107.642 217.709 113.789 216.766 117.357L226.36 126.138C226.36 126.138 232.563 114.2 230.944 110.969C229.252 107.61 227.053 104.09 225.345 105.065Z" fill="#263238"/>
<path d="M245.967 80.6246C245.476 87.0689 245.411 89.7594 242.092 93.0944C237.106 98.1129 229.26 96.3165 227.802 89.9608C226.497 84.2254 227.504 74.6556 233.884 72.0617C235.249 71.452 236.749 71.2084 238.236 71.355C239.724 71.5015 241.148 72.0331 242.367 72.8974C243.587 73.7617 244.56 74.9288 245.192 76.2838C245.823 77.6388 246.09 79.1349 245.967 80.6246Z" fill="#B55B52"/>
<path d="M232.684 83.2104C233.344 80.9307 228.221 78.3369 227.673 74.8408C226.964 70.3057 230.477 66.6404 233.755 68.7751C235.084 65.7382 244.106 64.4574 249.06 68.2193C254.635 72.4403 247.804 76.903 253.362 80.6407C257.792 83.6212 258.397 85.474 255.658 89.0425C253.579 91.7572 258.952 91.1772 257.591 95.7688C256.23 100.36 228.438 102.044 232.128 91.7411C235.406 82.6385 231.379 87.8664 232.684 83.2104Z" fill="#263238"/>
<path d="M234.246 82.7029C234.207 83.8979 233.799 85.0515 233.078 86.0057C232.08 87.359 230.911 86.9965 230.662 85.7479C230.404 84.6282 230.622 82.5741 231.886 81.6396C233.151 80.7052 234.238 81.3657 234.246 82.7029Z" fill="#B55B52"/>
<path d="M255.376 89.2842C255.351 89.2839 255.328 89.2755 255.308 89.2605C255.289 89.2454 255.275 89.2244 255.269 89.2008C255.262 89.1771 255.264 89.152 255.273 89.1293C255.282 89.1065 255.298 89.0874 255.319 89.0748C257.067 88.0679 258.002 86.6581 257.962 85.1921C257.913 83.3071 256.35 81.406 253.797 80.1091C250.752 78.5625 250.986 76.468 251.219 74.4703C251.453 72.4726 251.686 70.3298 248.714 68.606C248.688 68.5893 248.669 68.5639 248.66 68.5344C248.651 68.5048 248.653 68.473 248.666 68.4448C248.682 68.4188 248.708 68.4001 248.738 68.3926C248.768 68.3852 248.8 68.3894 248.827 68.4046C251.936 70.209 251.686 72.3839 251.445 74.4945C251.203 76.605 250.994 78.4658 253.861 79.9399C256.496 81.2691 258.099 83.2426 258.155 85.2162C258.155 86.8273 257.22 88.2612 255.4 89.3003C255.391 89.2962 255.383 89.2908 255.376 89.2842Z" fill="#263238"/>
<path d="M239.257 142.16C239.257 142.16 249.479 185.353 254.256 210.172C259.291 236.352 283.473 263.627 283.473 263.627L291.681 259.052C291.681 259.052 276.465 234.161 271.543 209.712C261.522 160.091 268.321 150.103 258.654 139.566L239.257 142.16Z" fill="#5F80F8"/>
<path d="M282.659 264.393L292.906 258.681L291.408 255.652L279.912 260.945L282.659 264.393Z" fill="#263238"/>
<path opacity="0.2" d="M244.686 151.544C252.637 158.448 251.775 182.96 250.945 193.964C247.61 178.272 243.599 160.808 241.279 150.699C242.084 150.07 243.228 150.304 244.686 151.544Z" fill="black"/>
<path d="M287.42 272.956C287.497 272.968 287.576 272.968 287.654 272.956C288.459 272.956 289.418 271.699 289.901 270.958C289.917 270.932 289.925 270.903 289.925 270.873C289.925 270.843 289.917 270.814 289.901 270.789C289.885 270.762 289.86 270.741 289.831 270.73C289.802 270.718 289.77 270.716 289.74 270.724C289.482 270.773 287.154 271.264 286.848 272.037C286.814 272.122 286.803 272.214 286.816 272.305C286.828 272.395 286.865 272.481 286.921 272.553C287.036 272.74 287.212 272.883 287.42 272.956ZM289.426 271.127C288.749 272.094 288.097 272.666 287.646 272.674C287.549 272.674 287.455 272.649 287.371 272.6C287.288 272.552 287.219 272.483 287.17 272.4C287.145 272.369 287.128 272.332 287.121 272.292C287.114 272.253 287.117 272.212 287.13 272.174C287.299 271.763 288.5 271.353 289.426 271.135V271.127Z" fill="#5F80F8"/>
<path d="M232.7 143.11C232.7 143.11 228.1 194.399 230.573 213.942C233.183 234.29 246.466 278.554 246.466 278.554L255.835 277.346C255.835 277.346 248.223 233.476 246.869 213.337C245.395 191.37 251.944 140.509 251.944 140.509L232.7 143.11Z" fill="#5F80F8"/>
<path d="M244.501 279.11L257.865 277.386L257.655 273.439L243.164 274.84L244.501 279.11Z" fill="#263238"/>
<path d="M287.767 270.942C288.433 271.122 289.131 271.158 289.813 271.046C289.84 271.039 289.864 271.025 289.884 271.005C289.904 270.985 289.918 270.961 289.925 270.934C289.931 270.908 289.93 270.881 289.923 270.856C289.916 270.831 289.903 270.808 289.885 270.789C289.829 270.732 288.556 269.419 287.614 269.459C287.492 269.461 287.372 269.49 287.263 269.544C287.155 269.599 287.059 269.677 286.985 269.774C286.897 269.859 286.84 269.972 286.826 270.094C286.811 270.215 286.839 270.339 286.905 270.442C287.127 270.702 287.431 270.878 287.767 270.942ZM289.45 270.797C288.645 270.885 287.404 270.652 287.162 270.281C287.122 270.217 287.09 270.128 287.219 269.967C287.268 269.905 287.33 269.855 287.401 269.82C287.473 269.785 287.55 269.766 287.63 269.766C288.329 269.912 288.965 270.272 289.45 270.797Z" fill="#5F80F8"/>
<path d="M246.031 287.463C246.717 287.451 247.399 287.373 248.069 287.23C248.1 287.223 248.129 287.208 248.15 287.184C248.172 287.161 248.186 287.132 248.19 287.101C248.196 287.069 248.191 287.036 248.176 287.007C248.162 286.978 248.138 286.955 248.11 286.94C247.812 286.787 245.178 285.457 244.396 285.909C244.323 285.948 244.261 286.006 244.218 286.077C244.174 286.147 244.149 286.228 244.146 286.311C244.132 286.451 244.152 286.592 244.203 286.723C244.255 286.853 244.338 286.969 244.444 287.061C244.913 287.369 245.472 287.511 246.031 287.463ZM247.554 287.012C246.12 287.246 245.049 287.189 244.646 286.835C244.578 286.772 244.525 286.694 244.492 286.608C244.458 286.521 244.445 286.428 244.453 286.336C244.453 286.302 244.462 286.27 244.479 286.242C244.496 286.213 244.52 286.19 244.549 286.174C244.976 285.933 246.474 286.497 247.554 287.012Z" fill="#5F80F8"/>
<path d="M248.037 287.246C248.069 287.253 248.102 287.253 248.134 287.246C248.155 287.228 248.171 287.206 248.181 287.181C248.191 287.155 248.194 287.128 248.19 287.101C248.19 286.988 247.884 284.33 246.426 284.33H246.297C245.879 284.37 245.758 284.579 245.734 284.757C245.613 285.49 247.183 286.899 247.981 287.254L248.037 287.246ZM246.426 284.612C247.369 284.612 247.739 286.158 247.852 286.819C247.047 286.335 245.975 285.208 246.04 284.789C246.04 284.749 246.04 284.644 246.338 284.62L246.426 284.612Z" fill="#5F80F8"/>
<path d="M258.856 137.971L260.29 140.154C260.402 140.323 260.209 140.533 259.903 140.573L232.297 144.278C232.063 144.278 231.854 144.222 231.822 144.077L231.338 141.773C231.338 141.612 231.491 141.443 231.757 141.411L258.405 137.834C258.485 137.817 258.569 137.82 258.648 137.844C258.727 137.868 258.798 137.912 258.856 137.971Z" fill="#5F80F8"/>
<path opacity="0.5" d="M258.856 137.971L260.29 140.154C260.402 140.323 260.209 140.533 259.903 140.573L232.297 144.278C232.063 144.278 231.854 144.222 231.822 144.077L231.338 141.773C231.338 141.612 231.491 141.443 231.757 141.411L258.405 137.834C258.485 137.817 258.569 137.82 258.648 137.844C258.727 137.868 258.798 137.912 258.856 137.971Z" fill="white"/>
<path d="M255.593 141.443L256.31 141.346C256.447 141.346 256.552 141.242 256.528 141.153L255.875 138.156C255.875 138.076 255.722 138.019 255.577 138.036L254.868 138.132C254.723 138.132 254.619 138.237 254.643 138.326L255.295 141.322C255.319 141.37 255.448 141.443 255.593 141.443Z" fill="#5F80F8"/>
<path d="M237.565 143.86L238.274 143.763C238.419 143.763 238.516 143.658 238.5 143.57L237.839 140.573C237.839 140.484 237.694 140.428 237.549 140.452L236.832 140.541C236.695 140.541 236.591 140.654 236.615 140.742L237.267 143.731C237.291 143.86 237.42 143.86 237.565 143.86Z" fill="#5F80F8"/>
</g>
<defs>
<clipPath id="clip0">
<rect x="0.109192" y="0.939636" width="315" height="315" fill="white"/>
</clipPath>
</defs>
</svg>
