<svg width="307" height="307" viewBox="0 0 307 307" fill="none" xmlns="http://www.w3.org/2000/svg">
<g clip-path="url(#clip0)">
<path d="M306.316 234.767H0.316406V234.92H306.316V234.767Z" fill="#EBEBEB"/>
<path d="M271.977 240.593H251.708V240.746H271.977V240.593Z" fill="#EBEBEB"/>
<path d="M111.29 242.668H80.7759V242.821H111.29V242.668Z" fill="#EBEBEB"/>
<path d="M251.096 246.279H233.023V246.432H251.096V246.279Z" fill="#EBEBEB"/>
<path d="M45.6411 245.251H32.4219V245.404H45.6411V245.251Z" fill="#EBEBEB"/>
<path d="M74.5703 245.251H51.0879V245.404H74.5703V245.251Z" fill="#EBEBEB"/>
<path d="M203.023 238.935H145.691V239.088H203.023V238.935Z" fill="#EBEBEB"/>
<path d="M145.36 207.472H27.1891C26.2633 207.47 25.3761 207.102 24.722 206.446C24.068 205.791 23.7007 204.903 23.7007 203.977V37.8623C23.7087 36.9419 24.0796 36.0618 24.7328 35.4132C25.3859 34.7647 26.2686 34.4 27.1891 34.3984H145.36C146.287 34.3984 147.176 34.7666 147.831 35.4219C148.487 36.0773 148.855 36.9661 148.855 37.8929V203.977C148.855 204.904 148.487 205.793 147.831 206.448C147.176 207.104 146.287 207.472 145.36 207.472ZM27.1891 34.5208C26.3039 34.5224 25.4556 34.8752 24.8302 35.5017C24.2049 36.1281 23.8537 36.9772 23.8537 37.8623V203.977C23.8537 204.863 24.2049 205.712 24.8302 206.338C25.4556 206.965 26.3039 207.317 27.1891 207.319H145.36C146.246 207.317 147.095 206.965 147.721 206.339C148.347 205.712 148.7 204.863 148.702 203.977V37.8623C148.7 36.9766 148.347 36.1276 147.721 35.5013C147.095 34.875 146.246 34.5224 145.36 34.5208H27.1891Z" fill="#EBEBEB"/>
<path d="M277.742 207.472H159.565C158.639 207.47 157.751 207.102 157.096 206.447C156.441 205.792 156.072 204.904 156.07 203.977V37.8623C156.08 36.9413 156.452 36.0613 157.106 35.4128C157.76 34.7644 158.644 34.4 159.565 34.3984H277.742C278.661 34.4016 279.543 34.767 280.194 35.4154C280.846 36.0638 281.216 36.9429 281.224 37.8623V203.977C281.224 204.902 280.858 205.789 280.205 206.444C279.552 207.099 278.667 207.469 277.742 207.472ZM159.565 34.5208C158.679 34.5224 157.83 34.875 157.204 35.5013C156.577 36.1276 156.225 36.9766 156.223 37.8623V203.977C156.225 204.863 156.577 205.712 157.204 206.339C157.83 206.965 158.679 207.317 159.565 207.319H277.742C278.628 207.317 279.477 206.965 280.103 206.339C280.729 205.712 281.082 204.863 281.084 203.977V37.8623C281.082 36.9766 280.729 36.1276 280.103 35.5013C279.477 34.875 278.628 34.5224 277.742 34.5208H159.565Z" fill="#EBEBEB"/>
<path d="M66.8471 132.104L232.828 132.104V51.0387L66.8471 51.0387V132.104Z" fill="#E6E6E6"/>
<path d="M63.7379 132.104L231.377 132.104V51.0387L63.7379 51.0387V132.104Z" fill="#F0F0F0"/>
<path d="M66.8471 137.881L232.828 137.881V132.104L66.8471 132.104V137.881Z" fill="#E6E6E6"/>
<path d="M58.5543 137.881L226.193 137.881V132.104L58.5543 132.104V137.881Z" fill="#F0F0F0"/>
<path d="M227.026 127.759V55.3961L68.0895 55.3961V127.759L227.026 127.759Z" fill="#FAFAFA"/>
<path d="M111.805 127.759L104.84 55.3961H92.7837L99.7483 127.759H111.805Z" fill="white"/>
<path d="M204.614 127.759L197.644 55.3961H185.587L192.558 127.759H204.614Z" fill="white"/>
<path d="M225.012 103.23C225.1 103.228 225.184 103.192 225.246 103.129C225.308 103.066 225.343 102.982 225.343 102.893V58.2174C225.349 58.1698 225.345 58.1214 225.331 58.0754C225.318 58.0294 225.294 57.9869 225.262 57.9507C225.231 57.9145 225.192 57.8856 225.148 57.8657C225.104 57.8458 225.057 57.8355 225.009 57.8355C224.961 57.8355 224.913 57.8458 224.87 57.8657C224.826 57.8856 224.787 57.9145 224.755 57.9507C224.724 57.9869 224.7 58.0294 224.687 58.0754C224.673 58.1214 224.669 58.1698 224.675 58.2174V102.893C224.675 102.938 224.684 102.981 224.701 103.022C224.718 103.063 224.743 103.1 224.774 103.131C224.805 103.163 224.842 103.188 224.883 103.204C224.924 103.221 224.968 103.23 225.012 103.23Z" fill="#F0F0F0"/>
<path d="M97.1591 127.759L90.1884 55.3961H85.4883L92.459 127.759H97.1591Z" fill="white"/>
<path d="M68.6401 127.759V55.3961H68.0893V127.759H68.6401Z" fill="#E6E6E6"/>
<path opacity="0.5" d="M62.71 63.2848H228.691L229.088 57.0852H63.1078L62.71 63.2848Z" fill="#E0E0E0"/>
<path opacity="0.5" d="M62.71 73.4746H228.691L229.088 67.275H63.1078L62.71 73.4746Z" fill="#E0E0E0"/>
<path opacity="0.5" d="M62.71 83.6644H228.691L229.088 77.4648H63.1078L62.71 83.6644Z" fill="#E0E0E0"/>
<path opacity="0.5" d="M62.71 93.8542H228.691L229.088 87.6546H63.1078L62.71 93.8542Z" fill="#E0E0E0"/>
<path opacity="0.5" d="M62.71 104.044H228.691L229.088 97.8444H63.1078L62.71 104.044Z" fill="#E0E0E0"/>
<path opacity="0.5" d="M62.71 114.234H228.691L229.088 108.034H63.1078L62.71 114.234Z" fill="#E0E0E0"/>
<path d="M162.276 234.767H172.717V164.975H162.276V234.767Z" fill="#E6E6E6"/>
<path d="M165.018 234.767H162.276V225.263H167.9L165.018 234.767Z" fill="#F0F0F0"/>
<path d="M258.562 234.767H269.003V164.975H258.562V234.767Z" fill="#E6E6E6"/>
<path d="M162.27 228.935H260.949V164.975H162.27V228.935Z" fill="#F0F0F0"/>
<path d="M164.4 185.342H258.819V167.802H164.4V185.342Z" fill="#E6E6E6"/>
<path d="M180.856 173.255H240.526C243.207 173.255 245.765 171.095 247.607 167.27H173.775C175.618 171.095 178.176 173.255 180.856 173.255Z" fill="#F0F0F0"/>
<path d="M258.207 234.767H260.955V225.263H255.331L258.207 234.767Z" fill="#F0F0F0"/>
<path d="M164.4 205.722H258.819V188.182H164.4V205.722Z" fill="#E6E6E6"/>
<path d="M180.856 193.635H240.526C243.207 193.635 245.765 191.468 247.607 187.649H173.775C175.618 191.468 178.176 193.635 180.856 193.635Z" fill="#F0F0F0"/>
<path d="M164.4 226.101H258.819V208.561H164.4V226.101Z" fill="#E6E6E6"/>
<path d="M180.856 214.008H240.526C243.207 214.008 245.765 211.842 247.607 208.023H173.775C175.618 211.842 178.176 214.008 180.856 214.008Z" fill="#F0F0F0"/>
<path d="M93.5303 143.438H81.425C79.8905 143.438 78.6465 144.682 78.6465 146.217V150.868C78.6465 152.403 79.8905 153.647 81.425 153.647H93.5303C95.0648 153.647 96.3088 152.403 96.3088 150.868V146.217C96.3088 144.682 95.0648 143.438 93.5303 143.438Z" fill="#F5F5F5"/>
<path d="M115.629 143.438H103.524C101.99 143.438 100.746 144.682 100.746 146.217V150.868C100.746 152.403 101.99 153.647 103.524 153.647H115.629C117.164 153.647 118.408 152.403 118.408 150.868V146.217C118.408 144.682 117.164 143.438 115.629 143.438Z" fill="#F5F5F5"/>
<path d="M50.7939 141.394C50.7939 141.394 51.2162 153.634 67.3608 153.634C83.5054 153.634 83.9215 141.394 83.9215 141.394H50.7939Z" fill="#F0F0F0"/>
<path d="M120.226 230.777H137.998V157.502H120.226L120.226 230.777Z" fill="#F0F0F0"/>
<path d="M46.9505 234.767H134.589V230.777H46.9505V234.767Z" fill="#F0F0F0"/>
<path d="M120.226 157.496H43.5361V230.771H120.226V157.496Z" fill="#F5F5F5"/>
<path d="M113.243 185.691H50.5249V202.582H113.243V185.691Z" fill="#F0F0F0"/>
<path d="M113.243 206.352H50.5249V223.243H113.243V206.352Z" fill="#F0F0F0"/>
<path d="M74.5216 187.955H89.2402C89.6147 187.954 89.9733 187.804 90.2381 187.539C90.5029 187.275 90.6523 186.916 90.654 186.542C90.654 186.166 90.5052 185.806 90.2403 185.54C89.9753 185.274 89.6157 185.123 89.2402 185.122H74.5216C74.1461 185.123 73.7866 185.274 73.5216 185.54C73.2567 185.806 73.1079 186.166 73.1079 186.542C73.1095 186.916 73.259 187.275 73.5238 187.539C73.7885 187.804 74.1472 187.954 74.5216 187.955Z" fill="#F5F5F5"/>
<path d="M113.243 165.036H50.5249V181.927H113.243V165.036Z" fill="#F0F0F0"/>
<path d="M74.5216 167.3H89.2402C89.6157 167.299 89.9753 167.148 90.2403 166.882C90.5052 166.616 90.654 166.256 90.654 165.88C90.6523 165.506 90.5029 165.147 90.2381 164.883C89.9733 164.618 89.6147 164.468 89.2402 164.467H74.5216C74.1472 164.468 73.7885 164.618 73.5238 164.883C73.259 165.147 73.1095 165.506 73.1079 165.88C73.1079 166.256 73.2567 166.616 73.5216 166.882C73.7866 167.148 74.1461 167.299 74.5216 167.3Z" fill="#F5F5F5"/>
<path d="M74.521 208.61H89.2396C90.0204 208.61 90.6533 207.977 90.6533 207.197V207.19C90.6533 206.41 90.0204 205.777 89.2396 205.777H74.521C73.7402 205.777 73.1073 206.41 73.1073 207.19V207.197C73.1073 207.977 73.7402 208.61 74.521 208.61Z" fill="#F5F5F5"/>
<path d="M41.1674 157.496H120.226V153.64H41.1674V157.496Z" fill="#F0F0F0"/>
<path d="M140.483 153.647H120.226V157.502H140.483V153.647Z" fill="#E6E6E6"/>
<path d="M238.849 112.851L234.461 106.204C234.614 144.675 235.263 146.89 235.245 153.512H238.764C239.253 121.302 240.612 121.113 238.849 112.851Z" fill="#E0E0E0"/>
<path d="M237.161 164.969C247.252 164.969 255.765 160.874 257.834 155.336C258.363 153.82 259.087 152.38 259.988 151.052L260.147 150.825H214.162L214.321 151.052C215.226 152.379 215.952 153.819 216.481 155.336C218.55 160.874 227.063 164.969 237.161 164.969Z" fill="#FAFAFA"/>
<path d="M214.069 152.196H260.239C260.862 152.195 261.467 151.987 261.96 151.605C262.453 151.223 262.805 150.688 262.962 150.085C263.068 149.669 263.078 149.235 262.991 148.815C262.904 148.395 262.722 148.001 262.46 147.662C262.197 147.323 261.86 147.049 261.475 146.86C261.09 146.671 260.667 146.572 260.239 146.572H214.069C213.64 146.571 213.217 146.669 212.831 146.858C212.446 147.046 212.108 147.321 211.845 147.66C211.582 147.999 211.401 148.394 211.314 148.814C211.228 149.235 211.238 149.669 211.346 150.085C211.501 150.689 211.853 151.225 212.346 151.607C212.839 151.989 213.445 152.197 214.069 152.196Z" fill="#F0F0F0"/>
<path d="M237.522 107.496C236.646 97.0917 225.943 96.0635 205.918 91.1614C215.741 119.466 240.833 146.682 237.522 107.496Z" fill="#E0E0E0"/>
<path d="M234.621 102.031C233.14 93.7685 234.688 85.0108 257.877 85.8676C252.069 108.616 241.512 140.391 234.621 102.031Z" fill="#E0E0E0"/>
<path d="M235.673 122.202C236.377 112.685 243.709 101.394 267.711 109.515C257.038 127.985 233.972 145.17 235.673 122.202Z" fill="#E0E0E0"/>
<path d="M153.316 262.405C218.851 262.405 271.977 259.303 271.977 255.477C271.977 251.651 218.851 248.549 153.316 248.549C87.782 248.549 34.6558 251.651 34.6558 255.477C34.6558 259.303 87.782 262.405 153.316 262.405Z" fill="#F5F5F5"/>
<path d="M82.7833 169.797H157.882V165.746H82.7833V169.797Z" fill="#5F80F8"/>
<path opacity="0.5" d="M82.7833 169.797H157.882V165.746H82.7833V169.797Z" fill="white"/>
<path d="M82.7833 165.746H48.395V169.797H82.7833V165.746Z" fill="#5F80F8"/>
<path opacity="0.5" d="M82.7833 165.746H48.395V169.797H82.7833V165.746Z" fill="white"/>
<path opacity="0.2" d="M82.7833 165.746H48.395V169.797H82.7833V165.746Z" fill="black"/>
<path d="M50.7207 174.118H155.569L156.468 169.797H49.8149L50.7207 174.118Z" fill="#5F80F8"/>
<path opacity="0.6" d="M50.7207 174.118H155.569L156.468 169.797H49.8149L50.7207 174.118Z" fill="black"/>
<path d="M144.681 174.118V253.207H142.312L139.326 174.118H144.681Z" fill="#5F80F8"/>
<path opacity="0.5" d="M144.681 174.118V253.207H142.312L139.326 174.118H144.681Z" fill="white"/>
<path d="M116.688 174.118V253.207H114.32L111.333 174.118H116.688Z" fill="#5F80F8"/>
<path opacity="0.5" d="M116.688 174.118V253.207H114.32L111.333 174.118H116.688Z" fill="white"/>
<path d="M56.0024 174.118V253.207H58.3709L61.3574 174.118H56.0024Z" fill="#5F80F8"/>
<path opacity="0.5" d="M56.0024 174.118V253.207H58.3709L61.3574 174.118H56.0024Z" fill="white"/>
<path d="M83.9951 174.118V253.207H86.3636L89.3501 174.118H83.9951Z" fill="#5F80F8"/>
<path opacity="0.5" d="M83.9951 174.118V253.207H86.3636L89.3501 174.118H83.9951Z" fill="white"/>
<path d="M243.47 114.901C244.811 117.514 246.041 120.121 247.222 122.79C248.403 125.458 249.499 128.157 250.508 130.935C250.747 131.645 251.004 132.331 251.225 133.059L251.396 133.597L251.488 133.867C251.488 133.959 251.579 134.185 251.616 134.338C251.749 134.94 251.795 135.559 251.751 136.174C251.662 137.161 251.416 138.128 251.023 139.038C250.7 139.816 250.313 140.565 249.866 141.278C248.206 143.864 246.166 146.186 243.813 148.163L241.555 146.095C243.071 143.858 244.404 141.502 245.539 139.05C245.779 138.499 245.983 137.933 246.151 137.355C246.281 136.923 246.337 136.472 246.316 136.021C246.317 135.925 246.294 135.83 246.249 135.746C246.249 135.746 246.249 135.776 246.218 135.703L246.127 135.464L245.937 134.987C245.692 134.375 245.404 133.714 245.135 133.071C244.033 130.507 242.84 127.943 241.622 125.378L237.95 117.698L243.47 114.901Z" fill="#FF8B7B"/>
<path d="M242.228 145.354L239.456 146.541L242.216 150.366C242.216 150.366 244.223 149.24 244.474 147.276L242.228 145.354Z" fill="#FF8B7B"/>
<path d="M235.704 148.451L238.758 151.315L242.216 150.366L239.456 146.541L235.704 148.451Z" fill="#FF8B7B"/>
<path d="M224.352 95.7147C224.284 96.039 224.064 96.2655 223.85 96.2226C223.636 96.1798 223.525 95.8799 223.587 95.5617C223.648 95.2434 223.88 95.0109 224.088 95.0537C224.297 95.0966 224.419 95.3903 224.352 95.7147Z" fill="#263238"/>
<path d="M224.095 96.2716C223.508 97.18 222.8 98.0037 221.989 98.7196C222.176 98.9238 222.406 99.0845 222.662 99.1902C222.918 99.296 223.194 99.3442 223.47 99.3316L224.095 96.2716Z" fill="#ED847E"/>
<path d="M225.9 94.1663C225.872 94.1655 225.845 94.1591 225.82 94.1475C225.794 94.1359 225.772 94.1195 225.753 94.099C225.593 93.9175 225.393 93.7759 225.169 93.6856C224.945 93.5953 224.703 93.5587 224.462 93.5788C224.437 93.5832 224.411 93.5827 224.387 93.5773C224.362 93.5718 224.338 93.5615 224.318 93.547C224.297 93.5326 224.279 93.5141 224.266 93.4928C224.252 93.4715 224.243 93.4477 224.238 93.4228C224.234 93.3978 224.234 93.3723 224.24 93.3476C224.245 93.3229 224.256 93.2995 224.27 93.2787C224.285 93.258 224.303 93.2403 224.324 93.2267C224.346 93.2131 224.369 93.2038 224.394 93.1994C224.698 93.1627 225.005 93.1991 225.292 93.3056C225.578 93.412 225.835 93.5855 226.041 93.8114C226.065 93.8393 226.081 93.8735 226.087 93.9101C226.092 93.9466 226.087 93.984 226.073 94.018C226.058 94.0519 226.034 94.081 226.003 94.1018C225.973 94.1227 225.937 94.1344 225.9 94.1357V94.1663Z" fill="#263238"/>
<path d="M233.537 100.25C232.925 103.236 232.368 108.701 234.455 110.696C234.455 110.696 233.641 113.72 228.097 113.72C221.977 113.72 225.183 110.696 225.183 110.696C228.507 109.901 228.421 107.428 227.846 105.109L233.537 100.25Z" fill="#FF8B7B"/>
<path d="M235.888 111.645C236.334 110.69 236.836 109.595 235.716 109.301C234.492 108.977 227.791 108.836 225.514 109.619C223.238 110.403 223.966 112.275 223.966 112.275L235.888 111.645Z" fill="#5F80F8"/>
<path d="M223.605 251.046C223.085 251.046 222.577 250.973 222.381 250.734C222.338 250.672 222.315 250.599 222.315 250.523C222.315 250.448 222.338 250.374 222.381 250.312C222.414 250.256 222.459 250.207 222.511 250.168C222.564 250.129 222.623 250.101 222.687 250.086C223.366 249.902 224.792 250.698 224.847 250.753C224.865 250.762 224.879 250.776 224.888 250.794C224.897 250.811 224.9 250.831 224.896 250.851C224.893 250.87 224.885 250.887 224.871 250.901C224.858 250.916 224.841 250.926 224.823 250.93C224.421 251.002 224.013 251.041 223.605 251.046ZM222.962 250.251C222.899 250.241 222.835 250.241 222.773 250.251C222.733 250.258 222.696 250.274 222.663 250.298C222.63 250.321 222.603 250.351 222.583 250.385C222.516 250.508 222.54 250.563 222.583 250.6C222.773 250.863 223.807 250.869 224.56 250.759C224.063 250.498 223.521 250.334 222.962 250.275V250.251Z" fill="#5F80F8"/>
<path d="M224.841 250.955H224.798C224.309 250.734 223.329 249.847 223.403 249.388C223.403 249.278 223.501 249.143 223.764 249.119C223.86 249.109 223.957 249.118 224.05 249.147C224.142 249.175 224.228 249.222 224.302 249.284C224.669 249.73 224.883 250.281 224.914 250.857C224.917 250.873 224.914 250.889 224.908 250.905C224.901 250.92 224.891 250.933 224.878 250.942L224.841 250.955ZM223.843 249.302H223.782C223.611 249.302 223.599 249.388 223.599 249.412C223.55 249.688 224.211 250.385 224.719 250.685C224.669 250.221 224.482 249.782 224.18 249.425C224.085 249.347 223.966 249.304 223.843 249.302Z" fill="#5F80F8"/>
<path d="M229.327 250.857H225.245L224.841 241.414H228.917L229.327 250.857Z" fill="#FF8B7B"/>
<path d="M258.727 246.358L254.67 246.799L251.61 237.625L255.667 237.185L258.727 246.358Z" fill="#FF8B7B"/>
<path d="M252.816 247.723C252.308 247.858 251.8 247.913 251.592 247.723C251.534 247.674 251.494 247.608 251.477 247.534C251.459 247.46 251.465 247.383 251.494 247.313C251.512 247.25 251.543 247.191 251.585 247.141C251.628 247.09 251.68 247.049 251.739 247.019C252.351 246.671 253.93 247.105 253.997 247.123C254.016 247.129 254.033 247.14 254.046 247.155C254.059 247.171 254.068 247.189 254.07 247.209C254.071 247.229 254.067 247.249 254.057 247.266C254.047 247.284 254.033 247.298 254.015 247.307C253.629 247.483 253.228 247.623 252.816 247.723ZM251.996 247.111C251.934 247.128 251.875 247.15 251.818 247.179C251.783 247.197 251.752 247.222 251.727 247.252C251.701 247.283 251.683 247.318 251.671 247.356C251.635 247.491 251.671 247.54 251.702 247.57C251.953 247.778 252.956 247.527 253.66 247.24C253.119 247.091 252.553 247.049 251.996 247.117V247.111Z" fill="#5F80F8"/>
<path d="M253.984 247.313C253.984 247.313 253.954 247.313 253.941 247.313C253.409 247.221 252.246 246.609 252.209 246.144C252.209 246.034 252.24 245.881 252.491 245.789C252.579 245.752 252.674 245.732 252.769 245.732C252.865 245.732 252.96 245.752 253.048 245.789C253.66 246.077 254.033 247.111 254.052 247.154C254.061 247.169 254.066 247.186 254.066 247.203C254.066 247.22 254.061 247.237 254.052 247.252L253.984 247.313ZM252.613 245.955H252.552C252.393 246.016 252.399 246.083 252.399 246.108C252.399 246.383 253.238 246.891 253.801 247.062C253.643 246.623 253.352 246.245 252.968 245.979C252.857 245.927 252.731 245.918 252.613 245.955Z" fill="#5F80F8"/>
<path d="M254.438 246.42L258.838 245.141C258.916 245.117 258.999 245.121 259.074 245.153C259.149 245.184 259.21 245.24 259.248 245.312L261.029 248.598C261.069 248.679 261.092 248.766 261.094 248.856C261.097 248.946 261.08 249.035 261.044 249.117C261.009 249.2 260.955 249.273 260.888 249.333C260.821 249.392 260.742 249.436 260.656 249.461C259.113 249.884 258.342 250.012 256.408 250.569C255.215 250.918 252.798 251.756 251.151 252.234C249.505 252.711 248.82 251.144 249.45 250.802C252.277 249.266 253.152 248.023 253.862 246.879C253.989 246.658 254.194 246.494 254.438 246.42Z" fill="#263238"/>
<path d="M225.27 250.385H229.725C229.807 250.385 229.886 250.413 229.949 250.464C230.013 250.515 230.057 250.587 230.074 250.667L230.882 254.29C230.899 254.38 230.896 254.472 230.873 254.56C230.85 254.648 230.808 254.73 230.749 254.8C230.691 254.87 230.617 254.926 230.534 254.963C230.451 255.001 230.361 255.02 230.27 255.018C228.66 254.988 226.341 254.896 224.321 254.896C221.959 254.896 220.649 255.024 217.901 255.024C216.224 255.024 215.765 253.329 216.463 253.188C219.658 252.491 221.506 252.417 224.266 250.74C224.56 250.529 224.908 250.406 225.27 250.385Z" fill="#263238"/>
<path d="M222.332 118.089C221.793 119.521 221.212 120.776 220.588 122.086C219.963 123.395 219.296 124.65 218.58 125.911C217.13 128.496 215.404 130.917 213.433 133.132C213.17 133.414 212.901 133.695 212.619 133.971C212.485 134.105 212.344 134.246 212.197 134.381L211.72 134.815C211.263 135.226 210.716 135.523 210.123 135.684C209.689 135.798 209.238 135.825 208.794 135.764C208.574 135.735 208.356 135.684 208.146 135.611C207.96 135.545 207.78 135.465 207.607 135.372C207.14 135.115 206.733 134.76 206.414 134.332C206.211 134.071 206.034 133.79 205.887 133.493C205.503 132.686 205.215 131.835 205.031 130.96C204.865 130.189 204.755 129.454 204.657 128.726C204.323 125.883 204.241 123.016 204.413 120.158L207.473 119.938C208.085 122.575 208.697 125.268 209.382 127.765C209.553 128.377 209.755 128.989 209.957 129.552C210.106 130.016 210.311 130.46 210.569 130.874C210.606 130.923 210.643 130.948 210.618 130.874C210.508 130.72 210.361 130.595 210.19 130.513C210.094 130.46 209.994 130.415 209.89 130.378C209.761 130.332 209.628 130.299 209.492 130.28C209.221 130.244 208.944 130.258 208.678 130.323C208.415 130.387 208.169 130.506 207.956 130.672L208.219 130.378C208.323 130.274 208.421 130.164 208.519 130.048C208.715 129.828 208.905 129.589 209.094 129.356C210.646 127.327 212.016 125.164 213.189 122.894C213.801 121.743 214.413 120.556 214.97 119.368C215.526 118.181 216.09 116.92 216.579 115.807L222.332 118.089Z" fill="#FF8B7B"/>
<path d="M241.763 111.614C245.588 112.496 249.45 123.671 249.45 123.671L241.579 129.32C241.579 129.32 239.382 124.111 237.216 119.558C234.951 114.785 237.852 110.721 241.763 111.614Z" fill="#263238"/>
<path d="M218.905 111.829C218.905 111.829 214.565 116.725 218.666 147.086H240.484C240.637 143.738 238.531 127.398 241.763 111.59C239.349 111.127 236.908 110.821 234.455 110.672C231.367 110.491 228.272 110.491 225.184 110.672C223.064 110.893 220.964 111.28 218.905 111.829Z" fill="#263238"/>
<path d="M224.309 115.96C225.68 119.632 219.413 129.35 219.413 129.35L210.098 123.75C212.47 121.048 214.507 118.068 216.163 114.876C219.18 108.597 223.207 113.004 224.309 115.96Z" fill="#263238"/>
<path d="M205.459 121.969L201.548 120.323L203.586 117.135C203.586 117.135 206.359 117.428 207.381 119.252C207.527 119.518 207.569 119.829 207.498 120.124C207.428 120.419 207.251 120.678 207.001 120.85L205.459 121.969Z" fill="#FF8B7B"/>
<path d="M198.372 117.936L201.787 115.678L203.586 117.135L201.548 120.323L198.372 117.936Z" fill="#FF8B7B"/>
<path opacity="0.2" d="M224.841 241.414L225.049 246.285H229.131L228.923 241.414H224.841Z" fill="black"/>
<path opacity="0.2" d="M255.667 237.191L251.61 237.631L253.311 242.717L257.246 241.915L255.667 237.191Z" fill="black"/>
<path d="M235.245 97.2141C234.198 101.125 233.782 103.469 231.371 105.097C227.742 107.545 223.219 104.736 223.078 100.592C222.95 96.8591 224.688 91.088 228.886 90.3046C229.811 90.1233 230.766 90.1821 231.661 90.4754C232.556 90.7687 233.361 91.2866 233.999 91.9798C234.637 92.6729 235.087 93.5181 235.305 94.4345C235.523 95.3509 235.502 96.3079 235.245 97.2141Z" fill="#FF8B7B"/>
<path d="M237.803 94.913C238.342 95.0415 239.437 94.9619 240.423 92.7342C241.787 89.6742 235.796 90.531 235.796 90.531C235.796 90.531 241.304 88.0341 236.604 85.635C233.544 84.0744 232.393 85.5188 231.977 86.706C232.099 85.482 231.8 83.8541 228.99 84.717C224.706 86.0267 227.797 89.4172 227.797 89.4172C227.346 89.0955 226.797 88.9419 226.244 88.9833C225.692 89.0247 225.172 89.2583 224.774 89.6436C223.403 90.8676 224.48 92.5996 225.802 94.1418C225.012 95.2557 224.67 96.5898 226.787 97.0856C227.166 97.1548 227.508 97.353 227.757 97.6464C228.006 97.9399 228.146 98.3104 228.152 98.6951C228.152 100.782 228.232 102.483 229.682 103.818C231.132 105.152 236.188 103.248 235.931 100.268C237.162 100.137 238.333 99.6689 239.315 98.9154C241.922 96.8775 238.862 95.3475 237.803 94.913Z" fill="#263238"/>
<path d="M229.67 97.2814C229.252 98.1971 228.544 98.9498 227.656 99.4234C226.481 100.035 225.82 99.1419 226.09 97.9668C226.328 96.9081 227.228 95.3169 228.434 95.1884C229.639 95.0599 230.153 96.1737 229.67 97.2814Z" fill="#FF8B7B"/>
<path d="M226.408 147.086C226.408 147.086 231.034 178.267 233.574 189.926C236.359 202.717 250.998 241.879 250.998 241.879L258.342 240.526C258.342 240.526 247.399 203.751 245.808 191.089C244.088 177.343 240.478 147.068 240.478 147.068L226.408 147.086Z" fill="#5F80F8"/>
<path opacity="0.2" d="M229.333 158.194C234.713 159.246 234.101 179.21 233.489 189.479C231.94 182.221 229.682 168.255 228.14 158.341C228.51 158.159 228.93 158.107 229.333 158.194Z" fill="black"/>
<path d="M218.666 147.086C218.666 147.086 218.103 177.588 218.55 190.03C219.009 202.968 223.525 245.343 223.525 245.343H230.429C230.429 245.343 230.68 203.727 230.986 191.015C231.322 177.166 232.999 147.086 232.999 147.086H218.666Z" fill="#5F80F8"/>
<path d="M249.327 239.418C249.297 239.418 250.606 242.099 250.606 242.099L258.874 240.581L258.262 238.09L249.327 239.418Z" fill="#263238"/>
<path d="M222.197 242.589C222.166 242.589 222.589 245.459 222.589 245.459H230.997L231.224 242.895L222.197 242.589Z" fill="#263238"/>
<path d="M152.949 250.679H157.331L157.301 240.545H152.925L152.949 250.679Z" fill="#7F3E3B"/>
<path d="M129.693 250.679H134.069L135.52 240.545H131.138L129.693 250.679Z" fill="#7F3E3B"/>
<path d="M134.345 250.177H129.449C129.364 250.175 129.281 250.205 129.216 250.26C129.152 250.315 129.11 250.393 129.1 250.477L128.525 254.363C128.513 254.462 128.523 254.561 128.553 254.656C128.583 254.75 128.632 254.837 128.698 254.911C128.764 254.985 128.845 255.044 128.935 255.085C129.025 255.125 129.123 255.147 129.222 255.147C130.942 255.116 131.768 255.012 133.928 255.012C135.263 255.012 138.011 255.153 139.847 255.153C141.683 255.153 141.793 253.317 141.028 253.17C137.6 252.436 136.254 251.414 135.097 250.447C134.889 250.266 134.62 250.17 134.345 250.177Z" fill="#263238"/>
<path d="M157.276 250.177H152.497C152.41 250.176 152.327 250.206 152.261 250.261C152.194 250.316 152.15 250.392 152.135 250.477L151.481 254.363C151.465 254.456 151.469 254.55 151.492 254.641C151.515 254.731 151.556 254.816 151.614 254.89C151.671 254.964 151.744 255.025 151.826 255.069C151.909 255.113 151.999 255.14 152.093 255.147C153.812 255.116 156.303 255.012 158.47 255.012C161.003 255.012 163.2 255.153 166.169 255.153C167.968 255.153 168.384 253.317 167.625 253.17C164.167 252.423 161.364 252.344 158.323 250.514C158.009 250.312 157.649 250.196 157.276 250.177Z" fill="#263238"/>
<path d="M153.929 112.208L159.908 110.293C159.908 110.293 165.416 125.397 167.007 126.994C169.161 129.167 172.246 134.95 173.947 138.157C173.751 138.873 172.723 140.538 172.111 140.85C167.895 137.826 162.289 132.061 161.095 129.522C158.378 123.75 153.929 112.208 153.929 112.208Z" fill="#7F3E3B"/>
<path d="M152.545 108.916C150.538 112.588 157.612 124.913 157.612 124.913L166.542 120.776C166.542 120.776 164.497 115.017 162.117 110.084C159.852 105.39 154.773 104.852 152.545 108.916Z" fill="#5F80F8"/>
<path d="M173.567 137.545L178.072 140.281L174.736 144.858C173.345 143.448 172.177 141.835 171.272 140.072L173.567 137.545Z" fill="#7F3E3B"/>
<path d="M181.371 144.136L178.464 146.229L174.743 144.858L178.072 140.281L181.371 144.136Z" fill="#7F3E3B"/>
<path opacity="0.2" d="M157.301 240.544L157.313 245.771H152.937L152.919 240.544H157.301Z" fill="black"/>
<path opacity="0.2" d="M131.137 240.544H135.519L134.773 245.771H130.391L131.137 240.544Z" fill="black"/>
<path d="M158.267 106.431C158.267 106.431 163.776 121.48 159.455 146.101H136.04C135.789 142.502 137.619 123.145 133.732 106.21C136.313 105.71 138.924 105.379 141.548 105.219C144.864 105.026 148.189 105.026 151.505 105.219C153.787 105.45 156.047 105.855 158.267 106.431Z" fill="#5F80F8"/>
<path d="M145.93 106.516C145.93 106.516 149.883 111.67 149.051 146.101H153.396C153.396 146.101 155.042 116.627 150.189 106.217C148.763 106.197 147.339 106.297 145.93 106.516Z" fill="white"/>
<path opacity="0.2" d="M138.922 110.39C139.381 113.175 138.665 119.846 136.199 127.526C136.079 120.925 135.376 114.347 134.1 107.869V107.838C135.636 107.704 138.488 107.777 138.922 110.39Z" fill="black"/>
<path d="M142.619 95.9105C143.329 99.1113 143.739 103.083 141.548 105.219C141.548 105.219 142.913 108.469 148.892 108.469C154.333 108.469 151.53 105.219 151.53 105.219C147.937 104.368 148.011 99.9497 148.574 97.4589L142.619 95.9105Z" fill="#7F3E3B"/>
<path d="M141.548 104.944C143.496 106.689 145.864 107.897 148.42 108.45C147.374 109.16 146.028 111.706 146.028 111.706C146.028 111.706 140.972 109.778 139.981 105.176C140.464 105.072 141.548 104.944 141.548 104.944Z" fill="#5F80F8"/>
<path opacity="0.3" d="M141.548 104.944C143.496 106.689 145.864 107.897 148.42 108.45C147.374 109.16 146.028 111.706 146.028 111.706C146.028 111.706 140.972 109.778 139.981 105.176C140.464 105.072 141.548 104.944 141.548 104.944Z" fill="black"/>
<path d="M151.046 104.821C151.046 104.821 152.435 107.74 149.889 108.42C151.154 109.057 152.214 110.036 152.949 111.247C152.949 111.247 154.748 107.655 152.588 105.066C152.123 104.95 151.046 104.821 151.046 104.821Z" fill="#5F80F8"/>
<path opacity="0.3" d="M151.046 104.821C151.046 104.821 152.435 107.74 149.889 108.42C151.154 109.057 152.214 110.036 152.949 111.247C152.949 111.247 154.748 107.655 152.588 105.066C152.123 104.95 151.046 104.821 151.046 104.821Z" fill="black"/>
<path opacity="0.2" d="M148.555 97.465C148.113 99.1971 148.166 101.019 148.708 102.722C148.2 102.964 147.631 103.049 147.074 102.967C145.765 102.704 144.975 102.104 143.886 99.9069C143.794 99.3438 142.741 96.4736 142.625 95.935L148.555 97.465Z" fill="black"/>
<path d="M153.347 92.6302C153.404 93.1633 153.354 93.7025 153.198 94.2155C153.042 94.7286 152.785 95.2052 152.441 95.6167C151.517 96.7061 150.22 96.0635 149.785 94.7599C149.388 93.591 149.394 91.6081 150.661 90.9961C150.943 90.8666 151.252 90.8083 151.562 90.8263C151.872 90.8443 152.173 90.9381 152.438 91.0994C152.703 91.2607 152.925 91.4846 153.083 91.7515C153.242 92.0184 153.332 92.3201 153.347 92.6302Z" fill="#7F3E3B"/>
<path opacity="0.2" d="M153.347 92.6302C153.404 93.1633 153.354 93.7025 153.198 94.2155C153.042 94.7286 152.785 95.2052 152.441 95.6167C151.517 96.7061 150.22 96.0635 149.785 94.7599C149.388 93.591 149.394 91.6081 150.661 90.9961C150.943 90.8666 151.252 90.8083 151.562 90.8263C151.872 90.8443 152.173 90.9381 152.438 91.0994C152.703 91.2607 152.925 91.4846 153.083 91.7515C153.242 92.0184 153.332 92.3201 153.347 92.6302Z" fill="black"/>
<path d="M139.675 92.4711C141.462 96.4735 141.725 98.7196 144.363 100.427C148.335 103.016 153.066 99.9375 153.059 95.4699C153.059 91.4551 150.979 85.3351 146.474 84.4539C141.548 83.5297 137.404 87.3609 139.675 92.4711Z" fill="#7F3E3B"/>
<path d="M138.996 96.2104C139.66 97.0144 140.569 97.5795 141.585 97.82C142.809 98.077 143.023 96.8836 142.313 95.7086C141.67 94.6498 140.538 92.5935 139.173 93.5237C138.267 94.1663 138.121 95.2067 138.996 96.2104Z" fill="#7F3E3B"/>
<path d="M153.451 95.4944C153.586 98.1994 156.291 101.614 151.438 102.392C148.905 102.791 146.313 102.235 144.167 100.831C142.044 99.5152 141.413 95.8065 139.767 93.3218C139.693 93.23 139.73 93.1198 139.816 93.0096C139.915 92.8969 140.04 92.8097 140.18 92.7555C140.319 92.7014 140.47 92.6819 140.62 92.6987C140.769 92.7156 140.911 92.7682 141.036 92.8522C141.16 92.9362 141.262 93.049 141.334 93.181C141.884 94.1418 142.913 95.5433 144.296 95.629C146.413 95.7942 153.317 92.7281 153.451 95.4944Z" fill="#263238"/>
<path d="M144.063 146.101C144.063 146.101 144.675 151.609 145.391 159.069C146.248 167.521 147.307 178.5 147.98 186.866C147.976 186.903 147.976 186.939 147.98 186.976C148.108 188.567 148.218 190.036 148.316 191.419C149.265 205.061 151.474 244.761 151.474 244.761H158.892C158.892 244.761 161.768 204.247 161.633 190.36C161.511 176.994 159.436 146.101 159.436 146.101H144.063Z" fill="#263238"/>
<path d="M150.869 242.154C150.832 242.154 150.979 244.914 150.979 244.914H159.547L159.779 241.811L150.869 242.154Z" fill="#5F80F8"/>
<path opacity="0.2" d="M145.391 159.069C146.247 167.521 147.306 178.5 147.979 186.866C147.976 186.903 147.976 186.939 147.979 186.976C149.626 179.051 151.131 171.829 149.516 160.048L145.391 159.069Z" fill="black"/>
<path d="M151.144 146.101C151.144 146.101 148.592 177.735 146.798 190.269C144.834 203.996 136.737 244.737 136.737 244.737H128.714C128.714 244.737 133.065 205.079 133.757 191.493C134.51 176.743 136.033 146.082 136.033 146.082L151.144 146.101Z" fill="#263238"/>
<path d="M128.488 242.068C128.457 242.068 128.329 244.914 128.329 244.914H137.141L137.753 241.983L128.488 242.068Z" fill="#5F80F8"/>
<path d="M146.584 91.8101C146.67 92.1528 146.915 92.4221 147.141 92.3487C147.368 92.2752 147.478 91.9754 147.398 91.6326C147.319 91.2899 147.068 91.0206 146.841 91.0941C146.615 91.1675 146.505 91.4613 146.584 91.8101Z" fill="#263238"/>
<path d="M150.453 90.9655C150.538 91.3144 150.783 91.5775 151.009 91.5041C151.236 91.4307 151.346 91.1369 151.266 90.7881C151.187 90.4392 150.936 90.1761 150.71 90.2495C150.483 90.323 150.373 90.6167 150.453 90.9655Z" fill="#263238"/>
<path d="M149.265 91.4062C149.924 92.3754 150.711 93.2522 151.602 94.0133C151.408 94.2334 151.167 94.4075 150.897 94.5229C150.627 94.6383 150.335 94.6921 150.042 94.6804L149.265 91.4062Z" fill="#630F0F"/>
<path d="M149.277 97.0488C149.29 97.0453 149.303 97.0391 149.314 97.0308C149.325 97.0224 149.334 97.0119 149.341 96.9999C149.348 96.988 149.352 96.9748 149.354 96.9611C149.355 96.9475 149.354 96.9336 149.351 96.9203C149.342 96.8943 149.324 96.8724 149.301 96.8588C149.277 96.8452 149.249 96.841 149.222 96.8469C148.796 96.9608 148.349 96.9731 147.918 96.8827C147.486 96.7924 147.082 96.6019 146.737 96.3267C146.728 96.3172 146.717 96.3097 146.705 96.3046C146.693 96.2995 146.68 96.2968 146.667 96.2968C146.654 96.2968 146.641 96.2995 146.629 96.3046C146.617 96.3097 146.606 96.3172 146.597 96.3267C146.586 96.3359 146.578 96.3472 146.572 96.3598C146.566 96.3725 146.563 96.3862 146.563 96.4001C146.563 96.414 146.566 96.4277 146.572 96.4404C146.578 96.4531 146.586 96.4644 146.597 96.4736C146.965 96.7765 147.401 96.9869 147.867 97.087C148.333 97.187 148.817 97.174 149.277 97.0488Z" fill="#7F3E3B"/>
<path d="M145.121 90.8003C145.152 90.7929 145.181 90.7786 145.205 90.7584C145.23 90.7383 145.249 90.7128 145.262 90.684C145.358 90.4443 145.51 90.2315 145.706 90.0641C145.902 89.8966 146.137 89.7796 146.388 89.7232C146.418 89.7219 146.447 89.7143 146.474 89.7009C146.5 89.6874 146.523 89.6685 146.542 89.6453C146.56 89.6221 146.574 89.5952 146.581 89.5664C146.588 89.5376 146.589 89.5076 146.584 89.4784C146.575 89.4237 146.545 89.3746 146.501 89.3415C146.456 89.3084 146.4 89.2938 146.345 89.3009C146.022 89.3666 145.72 89.5134 145.468 89.7274C145.217 89.9415 145.024 90.2159 144.907 90.5249C144.886 90.5754 144.885 90.6321 144.904 90.6833C144.924 90.7345 144.962 90.7764 145.011 90.8003C145.048 90.8083 145.085 90.8083 145.121 90.8003Z" fill="#263238"/>
<path d="M151.866 89.203C151.895 89.1912 151.922 89.1747 151.946 89.1541C151.984 89.115 152.006 89.0622 152.006 89.0072C152.006 88.9521 151.984 88.8993 151.946 88.8603C151.731 88.6096 151.46 88.4134 151.154 88.2878C150.849 88.1623 150.518 88.111 150.189 88.1381C150.135 88.1471 150.086 88.1773 150.054 88.2221C150.022 88.2668 150.009 88.3225 150.018 88.3768C150.028 88.4309 150.059 88.4791 150.103 88.5119C150.147 88.5448 150.202 88.5599 150.257 88.5543C150.518 88.5342 150.78 88.5764 151.021 88.6775C151.263 88.7786 151.477 88.9356 151.646 89.1357C151.673 89.1662 151.708 89.1886 151.746 89.2004C151.785 89.2123 151.827 89.2132 151.866 89.203Z" fill="#263238"/>
<path d="M131.199 111.939L137.007 114.625C137.007 114.625 131.407 128.897 132.362 130.911C133.665 133.659 134.687 139.76 136.811 142.71C136.701 143.426 135.844 145.158 135.275 145.519C130.63 143.016 126.046 133.891 125.795 131.149C125.22 124.901 131.199 111.939 131.199 111.939Z" fill="#7F3E3B"/>
<path d="M133.732 106.21C129.608 106.822 125.213 121.162 125.213 121.162L135.256 125.586C135.256 125.586 137.704 119.252 139.467 114.179C141.315 108.873 138.163 105.562 133.732 106.21Z" fill="#5F80F8"/>
<path d="M135.85 250.942C136.143 250.966 136.436 250.885 136.676 250.716C136.75 250.648 136.805 250.562 136.835 250.467C136.865 250.371 136.87 250.269 136.848 250.171C136.845 250.109 136.826 250.048 136.791 249.997C136.757 249.945 136.708 249.903 136.652 249.877C136.15 249.627 134.816 250.489 134.65 250.593C134.634 250.605 134.621 250.621 134.614 250.639C134.606 250.658 134.604 250.678 134.608 250.698C134.613 250.718 134.624 250.737 134.639 250.752C134.654 250.767 134.673 250.778 134.693 250.783C135.072 250.879 135.46 250.932 135.85 250.942ZM136.431 250.037C136.478 250.026 136.526 250.026 136.572 250.037C136.594 250.049 136.612 250.067 136.625 250.088C136.638 250.11 136.645 250.134 136.646 250.159C136.659 250.226 136.656 250.295 136.636 250.361C136.615 250.426 136.579 250.485 136.529 250.532C136.044 250.761 135.488 250.79 134.981 250.612C135.42 250.323 135.914 250.128 136.431 250.037Z" fill="#5F80F8"/>
<path d="M134.718 250.783C134.733 250.789 134.751 250.789 134.767 250.783C135.201 250.538 135.991 249.559 135.874 249.094C135.854 249.016 135.809 248.947 135.746 248.898C135.683 248.848 135.606 248.82 135.525 248.819C135.448 248.808 135.368 248.815 135.293 248.838C135.218 248.861 135.149 248.901 135.091 248.953C134.614 249.37 134.607 250.63 134.607 250.685C134.608 250.705 134.613 250.724 134.622 250.741C134.632 250.759 134.646 250.773 134.663 250.783H134.718ZM135.47 249.008H135.513C135.654 249.008 135.666 249.088 135.672 249.112C135.752 249.4 135.25 250.128 134.822 250.465C134.814 249.976 134.96 249.497 135.238 249.094C135.302 249.037 135.385 249.006 135.47 249.008Z" fill="#5F80F8"/>
<path d="M159.131 250.942C159.502 250.977 159.874 250.882 160.183 250.673C160.252 250.609 160.304 250.529 160.333 250.441C160.363 250.352 160.371 250.257 160.355 250.165C160.349 250.108 160.33 250.052 160.298 250.004C160.266 249.956 160.222 249.917 160.171 249.89C159.627 249.59 157.907 250.502 157.723 250.587C157.705 250.599 157.691 250.616 157.682 250.635C157.674 250.655 157.671 250.676 157.674 250.698C157.678 250.719 157.688 250.739 157.703 250.754C157.719 250.77 157.739 250.78 157.76 250.783C158.211 250.878 158.67 250.931 159.131 250.942ZM159.884 250.037C159.951 250.034 160.018 250.046 160.079 250.073C160.099 250.084 160.116 250.1 160.128 250.119C160.14 250.139 160.146 250.161 160.147 250.183C160.159 250.243 160.155 250.305 160.136 250.363C160.117 250.421 160.082 250.473 160.037 250.514C159.78 250.759 159.064 250.795 158.09 250.636C158.649 250.333 159.255 250.13 159.884 250.037Z" fill="#5F80F8"/>
<path d="M157.772 250.783H157.809C158.329 250.545 159.332 249.602 159.228 249.106C159.228 248.99 159.118 248.843 158.831 248.813C158.729 248.802 158.626 248.812 158.528 248.843C158.43 248.873 158.339 248.923 158.261 248.99C157.729 249.449 157.649 250.63 157.649 250.679C157.649 250.697 157.654 250.715 157.662 250.731C157.671 250.747 157.683 250.761 157.698 250.771C157.721 250.784 157.747 250.788 157.772 250.783ZM158.757 249.008H158.818C159.008 249.008 159.02 249.1 159.026 249.125C159.088 249.425 158.414 250.165 157.888 250.489C157.91 249.997 158.091 249.525 158.402 249.143C158.499 249.055 158.626 249.007 158.757 249.008Z" fill="#5F80F8"/>
<path d="M136.291 142.631L140.422 143.243L137.362 147.276C137.362 147.276 133.769 146.627 133.72 143.757L136.291 142.631Z" fill="#7F3E3B"/>
<path d="M143.31 146.046L140.373 149.552L137.374 147.27L140.422 143.236L143.31 146.046Z" fill="#7F3E3B"/>
<path d="M97.1226 109.54C97.1226 109.54 93.1446 107.838 89.956 109.876C86.7675 111.914 89.3869 112.275 85.8863 113.873C82.3856 115.47 86.2963 117.649 85.8863 119.705C85.3967 122.153 81.2901 123.206 83.6096 126.064C85.9291 128.922 103.396 130.384 105.299 126.829C107.202 123.273 102.851 123.298 103.91 120.274C104.968 117.251 105.513 115.305 102.582 113.414C99.6501 111.523 100.44 108.144 97.1226 109.54Z" fill="#263238"/>
<path d="M109.356 135.378C109.528 136.37 109.742 137.496 109.968 138.549C110.195 139.601 110.458 140.691 110.758 141.743C111.338 143.847 112.051 145.911 112.894 147.924C113.096 148.432 113.334 148.91 113.555 149.399L113.616 149.534V149.577C113.616 149.577 113.616 149.577 113.585 149.577C113.475 149.497 113.342 149.456 113.206 149.461C113.102 149.461 113.132 149.509 113.236 149.461C113.388 149.414 113.534 149.35 113.671 149.271C114.071 149.037 114.448 148.767 114.797 148.463C116.41 147.002 117.898 145.41 119.246 143.702L121.082 144.822C120.058 147.006 118.742 149.042 117.172 150.874C116.718 151.385 116.213 151.849 115.666 152.257C115.331 152.498 114.972 152.703 114.595 152.869C114.08 153.1 113.519 153.209 112.955 153.188C112.247 153.15 111.573 152.876 111.039 152.41C110.812 152.215 110.607 151.995 110.427 151.756C110.348 151.645 110.28 151.541 110.219 151.437C110.158 151.333 110.115 151.254 110.078 151.186C109.797 150.654 109.466 150.128 109.24 149.589C108.188 147.443 107.316 145.214 106.633 142.924C106.284 141.792 105.966 140.648 105.709 139.491C105.452 138.334 105.213 137.202 105.048 135.941L109.356 135.378Z" fill="#FFB573"/>
<path d="M107.686 130.605C109.455 130.935 111.119 138.01 111.119 138.01L106.535 141.566C106.535 141.566 101.492 134.644 102.71 132.649C103.928 130.654 105.109 130.121 107.686 130.605Z" fill="#263238"/>
<path opacity="0.2" d="M107.631 132.208L109.418 139.332L106.841 141.327L107.631 132.208Z" fill="black"/>
<path d="M120.984 142.655L124.43 142.074L122.416 145.862C122.416 145.862 119.705 145.905 118.854 144.369L119.056 144.008C119.258 143.654 119.536 143.349 119.869 143.115C120.202 142.882 120.583 142.724 120.984 142.655Z" fill="#FFB573"/>
<path d="M127.404 143.09L126.211 146.492L122.417 145.862L124.43 142.074L127.404 143.09Z" fill="#FFB573"/>
<path d="M116.113 250.979L120.189 249.859L117.876 240.355L113.8 241.475L116.113 250.979Z" fill="#FFB573"/>
<path d="M120.189 249.143L115.636 250.465C115.556 250.487 115.487 250.536 115.442 250.605C115.397 250.674 115.379 250.757 115.391 250.838L115.917 254.59C115.934 254.684 115.97 254.774 116.024 254.853C116.078 254.932 116.148 254.999 116.229 255.049C116.311 255.1 116.402 255.132 116.497 255.145C116.592 255.157 116.688 255.15 116.78 255.122C118.359 254.633 119.099 254.321 121.101 253.739C122.325 253.378 125.911 252.478 127.612 251.983C129.314 251.487 128.916 249.78 128.163 249.835C124.785 250.073 122.27 249.786 120.942 249.223C120.708 249.108 120.441 249.08 120.189 249.143Z" fill="#263238"/>
<g opacity="0.2">
<path opacity="0.2" d="M117.876 240.361L119.063 245.257L114.993 246.377L113.8 241.475L117.876 240.361Z" fill="black"/>
</g>
<path d="M107.685 130.605C107.685 130.605 109.742 131.217 107.275 156.168L90.1394 157.245C89.9926 150.262 89.7294 145.966 85.5005 131.878C87.8727 131.238 90.2883 130.772 92.7282 130.482C95.304 130.134 97.9015 129.971 100.501 129.993C103.854 130.066 107.685 130.605 107.685 130.605Z" fill="#5F80F8"/>
<g opacity="0.4">
<path opacity="0.4" d="M107.685 130.605C107.685 130.605 109.742 131.217 107.275 156.168L90.1394 157.245C89.9926 150.262 89.7294 145.966 85.5005 131.878C87.8727 131.238 90.2883 130.772 92.7282 130.482C95.304 130.134 97.9015 129.971 100.501 129.993C103.854 130.066 107.685 130.605 107.685 130.605Z" fill="#263238"/>
</g>
<path d="M92.9425 121.663C93.5912 124.111 94.3684 128.683 92.7222 130.464C92.7222 130.464 93.5667 132.955 98.2302 132.667C103.34 132.343 100.513 129.974 100.513 129.974C97.6855 129.485 97.6243 127.41 97.9854 125.44L92.9425 121.663Z" fill="#FFB573"/>
<path d="M92.7286 130.482C95.3024 130.134 97.8977 129.971 100.495 129.993H101.009C101.701 131.131 101.976 132.93 100.654 135.672C100.654 135.672 93.6649 133.359 91.7065 130.599L92.7286 130.482Z" fill="#FFB573"/>
<path opacity="0.2" d="M94.9933 123.206L97.9676 125.433C97.8784 125.894 97.8272 126.36 97.8146 126.829C96.7436 126.743 95.0484 125.727 94.8648 124.619C94.7601 124.146 94.805 123.652 94.9933 123.206Z" fill="black"/>
<path d="M89.9746 117.502C91.1986 121.51 91.6086 123.236 94.1607 124.846C97.9918 127.263 102.655 124.901 102.667 120.605C102.667 116.743 100.697 110.813 96.3333 110.152C95.3717 109.996 94.3864 110.089 93.4709 110.422C92.5555 110.755 91.7404 111.316 91.1031 112.053C90.4658 112.789 90.0276 113.677 89.8301 114.63C89.6325 115.584 89.6823 116.573 89.9746 117.502Z" fill="#FFB573"/>
<path d="M97.1108 109.913C97.6187 111.853 92.992 118.683 90.4094 120.556C87.9614 117.869 88.096 114.399 89.1548 112.63C90.2135 110.862 92.7289 108.958 97.1108 109.913Z" fill="#263238"/>
<path d="M97.4409 109.974C99.4911 110.556 101.639 112.985 100.501 112.887C99.3626 112.789 94.4176 110.599 97.4409 109.974Z" fill="#263238"/>
<path d="M107.276 156.186C107.276 156.186 112.086 186.939 113.72 199.712C115.415 213.004 119.589 243.898 119.589 243.898L114.081 245.489C114.081 245.489 105.899 215.214 103.451 202.276C100.788 188.2 94.7173 156.988 94.7173 156.988L107.276 156.186Z" fill="#5F80F8"/>
<g opacity="0.2">
<path opacity="0.2" d="M107.276 156.186C107.276 156.186 112.086 186.939 113.72 199.712C115.415 213.004 119.589 243.898 119.589 243.898L114.081 245.489C114.081 245.489 105.899 215.214 103.451 202.276C100.788 188.2 94.7173 156.988 94.7173 156.988L107.276 156.186Z" fill="black"/>
</g>
<path d="M113.683 245.808L120.115 243.935L119.993 241.75L112.716 243.592L113.683 245.808Z" fill="#263238"/>
<path d="M103.652 249.161L107.716 250.294L108.805 241.42H104.583L103.652 249.161Z" fill="#FFB573"/>
<path opacity="0.2" d="M104.051 245.832L108.157 246.726L108.806 241.42H104.583L104.051 245.832Z" fill="black"/>
<path d="M107.9 249.884L103.249 248.605C103.168 248.583 103.082 248.588 103.004 248.62C102.927 248.652 102.862 248.709 102.821 248.782L101.388 252.179C101.345 252.262 101.321 252.355 101.319 252.449C101.318 252.544 101.338 252.637 101.378 252.722C101.418 252.808 101.478 252.883 101.552 252.941C101.626 253 101.712 253.04 101.805 253.06C103.439 253.476 103.898 253.543 105.948 254.106C107.202 254.449 110.195 255.906 113.439 255.906C115.171 255.906 114.987 254.07 114.259 253.917C110.997 253.207 109.289 251.469 108.506 250.312C108.361 250.102 108.146 249.951 107.9 249.884Z" fill="#263238"/>
<path d="M103.383 156.401C103.383 156.401 119.858 191.591 118.408 202.625C116.639 216.058 109.081 244.357 109.081 244.357L103.322 243.219C103.322 243.219 106.382 214.81 107.57 201.652C108.879 187.313 91.1312 176.187 90.0112 157.257L103.383 156.401Z" fill="#5F80F8"/>
<path d="M102.771 244.547L109.497 246.028L110.14 243.733L102.882 242.117L102.771 244.547Z" fill="#263238"/>
<path d="M109.283 250.991C109.633 251.121 110.015 251.134 110.373 251.028C110.461 250.994 110.54 250.939 110.604 250.869C110.667 250.799 110.714 250.715 110.74 250.624C110.76 250.575 110.765 250.52 110.754 250.468C110.743 250.416 110.717 250.368 110.679 250.33C110.293 249.926 108.335 250.275 108.114 250.33C108.093 250.336 108.073 250.346 108.057 250.361C108.041 250.376 108.029 250.395 108.022 250.416C108.017 250.435 108.019 250.455 108.027 250.472C108.034 250.49 108.048 250.505 108.065 250.514C108.454 250.713 108.862 250.873 109.283 250.991ZM110.354 250.379C110.415 250.392 110.472 250.419 110.519 250.459C110.53 250.477 110.536 250.499 110.536 250.52C110.536 250.542 110.53 250.563 110.519 250.581C110.502 250.64 110.471 250.694 110.43 250.74C110.389 250.786 110.338 250.821 110.281 250.844C109.944 250.991 109.259 250.844 108.414 250.447C109.053 250.32 109.708 250.3 110.354 250.385V250.379Z" fill="#5F80F8"/>
<path d="M108.084 250.502H108.126C108.702 250.422 110.018 249.847 110.134 249.382C110.134 249.272 110.134 249.119 109.883 249.015C109.686 248.937 109.467 248.937 109.271 249.015C108.744 249.336 108.319 249.801 108.047 250.355C108.038 250.37 108.033 250.386 108.033 250.404C108.033 250.421 108.038 250.438 108.047 250.453L108.084 250.502ZM109.724 249.186H109.785C109.95 249.253 109.932 249.321 109.926 249.345C109.858 249.627 108.928 250.11 108.31 250.257C108.548 249.812 108.906 249.443 109.344 249.192C109.47 249.158 109.602 249.164 109.724 249.21V249.186Z" fill="#5F80F8"/>
<path d="M96.7187 117.049C96.7982 117.386 97.0369 117.612 97.2511 117.557C97.4653 117.502 97.5816 117.196 97.502 116.865C97.4225 116.535 97.1899 116.308 96.9696 116.357C96.7493 116.406 96.6391 116.719 96.7187 117.049Z" fill="#263238"/>
<path d="M100.464 116.168C100.543 116.498 100.782 116.725 101.002 116.676C101.223 116.627 101.327 116.315 101.253 115.984C101.18 115.654 100.935 115.421 100.715 115.476C100.494 115.531 100.39 115.837 100.464 116.168Z" fill="#263238"/>
<path d="M100.629 115.519L101.37 115.097C101.37 115.097 101.107 115.794 100.629 115.519Z" fill="#263238"/>
<path d="M99.4604 117.018C99.9325 117.704 100.497 118.322 101.137 118.854C100.998 119.016 100.825 119.144 100.63 119.231C100.436 119.318 100.224 119.36 100.011 119.356L99.4604 117.018Z" fill="#ED893E"/>
<path d="M98.4998 121.1C98.6689 121.087 98.8368 121.061 99.0016 121.021C99.0272 121.014 99.049 120.997 99.0626 120.974C99.0763 120.952 99.0807 120.924 99.0751 120.898C99.0679 120.873 99.0512 120.851 99.0285 120.837C99.0057 120.824 98.9786 120.819 98.9527 120.825C98.5429 120.932 98.1138 120.94 97.7001 120.85C97.2865 120.759 96.9 120.573 96.572 120.305C96.5528 120.287 96.5277 120.277 96.5016 120.277C96.4755 120.277 96.4504 120.287 96.4312 120.305C96.4118 120.324 96.4009 120.351 96.4009 120.378C96.4009 120.406 96.4118 120.432 96.4312 120.452C97.0078 120.933 97.7516 121.166 98.4998 121.1Z" fill="#263238"/>
<path d="M89.7484 121.492C90.1997 122.165 90.8996 122.632 91.6945 122.79C92.7533 122.992 93.1878 122.031 92.8206 121.082C92.4901 120.225 91.5415 119.093 90.5195 119.32C90.2971 119.373 90.0916 119.482 89.9217 119.635C89.7517 119.788 89.6227 119.982 89.5461 120.197C89.4696 120.413 89.448 120.644 89.4833 120.87C89.5186 121.096 89.6097 121.31 89.7484 121.492Z" fill="#FFB573"/>
<path d="M95.0358 116.645C95.0779 116.642 95.118 116.626 95.15 116.598C95.1819 116.57 95.2042 116.533 95.2133 116.492C95.3309 116.187 95.5101 115.91 95.7396 115.677C95.9692 115.444 96.2442 115.261 96.5475 115.14C96.5969 115.119 96.6363 115.08 96.657 115.031C96.6776 114.981 96.6778 114.926 96.6576 114.876C96.6482 114.852 96.634 114.83 96.6159 114.811C96.5978 114.793 96.5762 114.778 96.5522 114.767C96.5283 114.757 96.5026 114.752 96.4765 114.752C96.4505 114.751 96.4247 114.756 96.4006 114.766C96.037 114.909 95.7084 115.128 95.437 115.409C95.1656 115.69 94.9578 116.026 94.8277 116.394C94.8204 116.42 94.8185 116.447 94.822 116.473C94.8255 116.5 94.8345 116.525 94.8482 116.548C94.862 116.571 94.8803 116.591 94.902 116.607C94.9238 116.622 94.9485 116.633 94.9746 116.639L95.0358 116.645Z" fill="#263238"/>
<path d="M101.186 114.173C101.22 114.168 101.253 114.156 101.282 114.137C101.311 114.118 101.334 114.092 101.351 114.062C101.373 114.014 101.376 113.96 101.359 113.91C101.342 113.86 101.306 113.818 101.26 113.793C100.976 113.645 100.661 113.567 100.342 113.567C100.022 113.567 99.7068 113.645 99.4236 113.793C99.4014 113.806 99.3821 113.824 99.3667 113.845C99.3514 113.865 99.3402 113.889 99.334 113.914C99.3277 113.939 99.3265 113.965 99.3303 113.99C99.3341 114.016 99.3429 114.04 99.3563 114.062C99.3831 114.109 99.4272 114.142 99.4788 114.156C99.5304 114.17 99.5854 114.163 99.6317 114.136C99.8553 114.022 100.103 113.963 100.354 113.963C100.605 113.963 100.852 114.022 101.076 114.136C101.11 114.155 101.147 114.168 101.186 114.173Z" fill="#263238"/>
<path d="M88.1202 137.588C87.7469 139.828 87.3797 142.123 87.037 144.393C86.6943 146.664 86.3883 148.94 86.2108 151.192L86.1496 152C86.1326 152.177 86.1326 152.356 86.1496 152.533C86.2147 153.027 86.3087 153.518 86.4311 154.002C86.7004 155.036 87.0431 156.113 87.4164 157.184C88.1447 159.338 89.0076 161.499 89.8644 163.653L87.9795 164.656C86.6587 162.666 85.463 160.596 84.3993 158.457C83.8512 157.358 83.3669 156.228 82.9488 155.073C82.7191 154.442 82.537 153.796 82.4041 153.139C82.3237 152.736 82.2827 152.326 82.2817 151.915V150.978C82.3429 148.563 82.5163 146.178 82.8019 143.824C83.0712 141.462 83.4139 139.136 83.8729 136.78L88.1202 137.588Z" fill="#FFB573"/>
<path d="M85.5191 131.878C83.8361 132.49 82.147 138.542 82.147 138.542L89.0993 142.882C89.0993 142.882 91.2168 137.796 90.3539 135.629C89.4604 133.365 87.4346 131.162 85.5191 131.878Z" fill="#263238"/>
<path d="M121.921 249.406C122.274 249.336 122.593 249.148 122.826 248.874C122.874 248.797 122.903 248.709 122.91 248.619C122.918 248.528 122.904 248.438 122.869 248.354C122.85 248.302 122.818 248.256 122.776 248.22C122.734 248.183 122.684 248.158 122.631 248.146C122.055 248.017 120.678 249.314 120.519 249.461C120.508 249.478 120.501 249.499 120.501 249.519C120.501 249.54 120.508 249.56 120.519 249.578C120.527 249.596 120.541 249.612 120.559 249.622C120.576 249.632 120.597 249.636 120.617 249.633C121.058 249.6 121.495 249.524 121.921 249.406ZM122.398 248.36C122.46 248.345 122.525 248.345 122.588 248.36C122.609 248.365 122.629 248.376 122.645 248.391C122.661 248.406 122.673 248.424 122.68 248.445C122.707 248.498 122.721 248.557 122.721 248.617C122.721 248.676 122.707 248.735 122.68 248.788C122.496 249.082 121.841 249.314 120.899 249.4C121.336 248.97 121.843 248.619 122.398 248.36Z" fill="#5F80F8"/>
<path d="M120.617 249.633C120.617 249.633 120.648 249.633 120.654 249.633C121.076 249.278 121.78 248.127 121.572 247.687C121.523 247.582 121.407 247.472 121.131 247.521C121.033 247.538 120.94 247.576 120.857 247.63C120.773 247.685 120.702 247.756 120.648 247.84C120.413 248.388 120.36 248.997 120.495 249.578C120.498 249.595 120.505 249.611 120.515 249.625C120.526 249.639 120.54 249.65 120.556 249.657L120.617 249.633ZM121.107 247.705H121.168C121.346 247.705 121.376 247.742 121.388 247.76C121.517 248.023 121.064 248.898 120.66 249.339C120.561 248.867 120.615 248.377 120.813 247.937C120.879 247.827 120.984 247.744 121.107 247.705Z" fill="#5F80F8"/>
<path d="M96.8779 116.406L97.6246 115.99C97.6246 115.99 97.3614 116.7 96.8779 116.406Z" fill="#263238"/>
<path d="M89.84 156.254L89.5034 157.814C89.4483 157.937 89.5952 158.053 89.7971 158.041L107.417 156.927C107.57 156.927 107.692 156.835 107.698 156.737L107.753 155.195C107.753 155.091 107.619 155.005 107.447 155.017L90.1154 156.113C90.0614 156.112 90.0079 156.124 89.9598 156.148C89.9117 156.173 89.8705 156.209 89.84 156.254Z" fill="#263238"/>
<path d="M92.2939 158.022H91.8288C91.737 158.022 91.6636 157.986 91.6636 157.924L91.7554 155.923C91.7554 155.862 91.8349 155.813 91.9267 155.807L92.3919 155.776C92.4837 155.776 92.5571 155.813 92.5571 155.874L92.4653 157.876C92.4592 158.022 92.3857 158.022 92.2939 158.022Z" fill="#5F80F8"/>
<path d="M106.113 157.178H105.654C105.556 157.178 105.483 157.135 105.489 157.08L105.58 155.073C105.58 155.017 105.66 154.962 105.752 154.956H106.217C106.309 154.956 106.382 154.993 106.382 155.048L106.29 157.055C106.284 157.117 106.192 157.172 106.113 157.178Z" fill="#5F80F8"/>
<path d="M99.2036 157.612L98.7385 157.643C98.6467 157.643 98.5732 157.606 98.5732 157.545L98.6712 155.544C98.6712 155.483 98.7507 155.428 98.8425 155.421H99.3076C99.3994 155.421 99.4729 155.458 99.4667 155.513L99.375 157.521C99.375 157.551 99.2954 157.606 99.2036 157.612Z" fill="#5F80F8"/>
<path d="M89.7544 163.243L93.2244 166.205L88.9832 166.903C88.9832 166.903 87.3125 164.773 88.0163 163.163L89.7544 163.243Z" fill="#FFB573"/>
<path d="M93.9279 169.687L90.3477 170.079L88.9829 166.903L93.2241 166.205L93.9279 169.687Z" fill="#FFB573"/>
<path d="M186.604 102.19C203.436 102.19 217.081 88.5444 217.081 71.712C217.081 54.8797 203.436 41.2344 186.604 41.2344C169.771 41.2344 156.126 54.8797 156.126 71.712C156.126 88.5444 169.771 102.19 186.604 102.19Z" fill="#5F80F8"/>
<path d="M124.975 59.6006L124.571 59.1416C127.036 56.9437 130.222 55.7284 133.524 55.7266V56.3386C130.371 56.3402 127.328 57.5011 124.975 59.6006Z" fill="#5F80F8"/>
<path d="M121.493 64.6863L120.917 64.4721C121.278 63.5115 121.749 62.5956 122.319 61.7426L122.827 62.0853C122.286 62.8996 121.839 63.772 121.493 64.6863Z" fill="#5F80F8"/>
<path d="M141.541 77.2144C145.967 72.7881 145.967 65.6117 141.541 61.1854C137.114 56.7591 129.938 56.7591 125.512 61.1854C121.085 65.6117 121.085 72.7881 125.512 77.2144C129.938 81.6407 137.114 81.6407 141.541 77.2144Z" fill="#5F80F8"/>
<path d="M110.734 98.8603C114.573 98.8603 117.686 95.7477 117.686 91.908C117.686 88.0684 114.573 84.9557 110.734 84.9557C106.894 84.9557 103.781 88.0684 103.781 91.908C103.781 95.7477 106.894 98.8603 110.734 98.8603Z" fill="#5F80F8"/>
<path d="M233.269 77.3792C236.314 77.3792 238.783 74.9104 238.783 71.865C238.783 68.8197 236.314 66.3509 233.269 66.3509C230.223 66.3509 227.754 68.8197 227.754 71.865C227.754 74.9104 230.223 77.3792 233.269 77.3792Z" fill="#5F80F8"/>
<path d="M202.821 66.4244C202.823 63.5082 202.039 60.6453 200.551 58.1374C199.063 55.6294 196.926 53.569 194.366 52.1732C191.805 50.7773 188.916 50.0977 186.002 50.2059C183.088 50.314 180.257 51.2059 177.807 52.7877C175.357 54.3694 173.378 56.5825 172.08 59.1939C170.782 61.8053 170.213 64.7183 170.431 67.6264C170.649 70.5344 171.647 73.3298 173.32 75.7182C174.994 78.1066 177.28 79.9996 179.939 81.198V84.0683H193.268V81.198C196.114 79.9169 198.529 77.8412 200.224 75.2205C201.919 72.5997 202.821 69.5453 202.821 66.4244Z" fill="white"/>
<path opacity="0.2" d="M192.117 91.908H181.089L179.938 84.0683H193.268L192.117 91.908Z" fill="black"/>
<path opacity="0.4" d="M189.327 93.2116H183.88L183.317 91.9081H189.89L189.327 93.2116Z" fill="black"/>
<path d="M184.872 70.1208C184.496 69.0336 183.867 68.0517 183.036 67.2567C181.12 65.3472 178.752 64.7046 177.681 65.794C177.13 66.3448 177.001 67.2322 177.326 68.2848C177.701 69.3703 178.33 70.3502 179.162 71.1429C180.441 72.4281 181.922 73.138 183.091 73.138C183.362 73.1411 183.631 73.0955 183.886 73.0033L184.969 84.105C184.979 84.2057 185.025 84.2992 185.1 84.3672C185.175 84.4352 185.272 84.4726 185.373 84.4722H185.41C185.464 84.4677 185.516 84.4524 185.564 84.4273C185.611 84.4022 185.654 84.3679 185.688 84.3262C185.722 84.2846 185.748 84.2365 185.763 84.1849C185.778 84.1332 185.783 84.079 185.777 84.0255L184.645 72.4525C184.87 72.1118 185.008 71.7212 185.048 71.3148C185.087 70.9084 185.027 70.4985 184.872 70.1208ZM179.737 70.5676C179.006 69.8656 178.451 69.0019 178.115 68.0461C177.992 67.7762 177.942 67.4787 177.97 67.1834C177.998 66.8881 178.103 66.6052 178.274 66.3631C178.392 66.2597 178.528 66.1806 178.676 66.1302C178.824 66.0797 178.981 66.0591 179.137 66.0694C180.012 66.0694 181.285 66.6385 182.479 67.8319C183.212 68.5318 183.768 69.3961 184.1 70.3534C184.225 70.623 184.275 70.9207 184.248 71.2163C184.22 71.5119 184.114 71.7948 183.941 72.0364C183.305 72.6973 181.469 72.2628 179.737 70.5676Z" fill="#5F80F8"/>
<path d="M195.508 65.794C194.951 65.2371 194.07 65.1086 193.017 65.4329C191.942 65.8255 190.966 66.4486 190.157 67.2585C189.348 68.0683 188.726 69.0453 188.335 70.1208C188.18 70.4982 188.119 70.9077 188.157 71.3139C188.196 71.7201 188.332 72.1109 188.555 72.4526L187.423 84.0255C187.413 84.1334 187.446 84.2409 187.515 84.3246C187.583 84.4083 187.683 84.4614 187.79 84.4722H187.827C187.928 84.4727 188.026 84.4352 188.101 84.3672C188.175 84.2992 188.222 84.2057 188.231 84.105L189.314 73.0034C189.571 73.0961 189.843 73.1417 190.116 73.138C191.279 73.138 192.76 72.4281 194.039 71.1429C194.87 70.3502 195.5 69.3703 195.875 68.2848C196.187 67.2322 196.059 66.3448 195.508 65.794ZM195.092 68.0462C194.758 69.0031 194.202 69.8672 193.47 70.5676C191.775 72.2628 189.926 72.6974 189.265 72.0364C189.093 71.7948 188.987 71.5119 188.959 71.2163C188.931 70.9208 188.982 70.623 189.106 70.3534C189.441 69.3972 189.997 68.5334 190.728 67.832C191.43 67.0986 192.296 66.5427 193.256 66.2102C193.523 66.1228 193.801 66.0754 194.082 66.0694C194.392 66.0557 194.697 66.1608 194.932 66.3632C195.107 66.6061 195.214 66.8912 195.242 67.1892C195.27 67.4872 195.218 67.7872 195.092 68.0584V68.0462Z" fill="#5F80F8"/>
</g>
<defs>
<clipPath id="clip0">
<rect x="0.316406" y="0.738403" width="306" height="306" fill="white"/>
</clipPath>
</defs>
</svg>
