<svg width="437" height="438" viewBox="0 0 437 438" fill="none" xmlns="http://www.w3.org/2000/svg">
<path d="M115.298 106.305C115.298 106.305 73.1101 146.282 81.1596 201.746C89.2091 257.21 138.573 300.044 177.422 335.686C216.271 371.328 271.421 376.222 311.205 348.945C350.99 321.667 329.498 287.17 351.977 237.99C374.457 188.81 389.114 178.392 377.052 127.499C364.991 76.6063 292.79 44.4519 220.921 57.9027C149.052 71.3536 115.298 106.305 115.298 106.305Z" fill="#5F80F8"/>
<path opacity="0.7" d="M115.298 106.305C115.298 106.305 73.1101 146.282 81.1596 201.746C89.2091 257.21 138.573 300.044 177.422 335.686C216.271 371.328 271.421 376.222 311.205 348.945C350.99 321.667 329.498 287.17 351.977 237.99C374.457 188.81 389.114 178.392 377.052 127.499C364.991 76.6063 292.79 44.4519 220.921 57.9027C149.052 71.3536 115.298 106.305 115.298 106.305Z" fill="white"/>
<path d="M297.081 97.7571H233.961L234.599 88.5539H297.719L297.081 97.7571Z" fill="#CCCCCC"/>
<path d="M297.081 110.649H233.961L234.599 101.445H297.719L297.081 110.649Z" fill="#CCCCCC"/>
<path d="M297.081 123.549H233.961L234.599 114.337H297.719L297.081 123.549Z" fill="#CCCCCC"/>
<path d="M297.081 136.44H233.961L234.599 127.228H297.719L297.081 136.44Z" fill="#CCCCCC"/>
<path d="M297.081 149.332H233.961L234.599 140.12H297.719L297.081 149.332Z" fill="#CCCCCC"/>
<path d="M297.081 162.223H233.961L234.599 153.02H297.719L297.081 162.223Z" fill="#CCCCCC"/>
<path d="M297.081 175.115H233.961L234.599 165.912H297.719L297.081 175.115Z" fill="#CCCCCC"/>
<path d="M297.081 188.015H233.961L234.599 178.803H297.719L297.081 188.015Z" fill="#CCCCCC"/>
<path d="M297.081 200.907H233.961L234.599 191.695H297.719L297.081 200.907Z" fill="#CCCCCC"/>
<path d="M297.081 213.798H233.961L234.599 204.586H297.719L297.081 213.798Z" fill="#CCCCCC"/>
<path d="M297.081 226.69H233.961L234.599 217.478H297.719L297.081 226.69Z" fill="#CCCCCC"/>
<path d="M363.829 97.7571H300.7L301.338 88.5539H364.467L363.829 97.7571Z" fill="#CCCCCC"/>
<path d="M363.829 110.649H300.7L301.338 101.445H364.467L363.829 110.649Z" fill="#CCCCCC"/>
<path d="M363.829 123.549H300.7L301.338 114.337H364.467L363.829 123.549Z" fill="#CCCCCC"/>
<path d="M363.829 136.44H300.7L301.338 127.228H364.467L363.829 136.44Z" fill="#CCCCCC"/>
<path d="M363.829 149.332H300.7L301.338 140.12H364.467L363.829 149.332Z" fill="#CCCCCC"/>
<path d="M363.829 162.223H300.7L301.338 153.02H364.467L363.829 162.223Z" fill="#CCCCCC"/>
<path d="M363.829 175.115H300.7L301.338 165.912H364.467L363.829 175.115Z" fill="#CCCCCC"/>
<path d="M363.829 188.015H300.7L301.338 178.803H364.467L363.829 188.015Z" fill="#CCCCCC"/>
<path d="M363.829 200.907H300.7L301.338 191.695H364.467L363.829 200.907Z" fill="#CCCCCC"/>
<path d="M363.829 213.798H300.7L301.338 204.586H364.467L363.829 213.798Z" fill="#CCCCCC"/>
<path d="M363.829 226.69H300.7L301.338 217.478H364.467L363.829 226.69Z" fill="#CCCCCC"/>
<path d="M225.107 88.047H94.6892V199.936H225.107V88.047Z" fill="#5F80F8"/>
<path d="M218.579 93.6406H101.209V194.343H218.579V93.6406Z" fill="white"/>
<path d="M218.579 124.169C197.472 139.185 167.24 149.148 132.166 164.802C121.115 169.655 110.714 175.874 101.209 183.313V194.352H218.579V124.169Z" fill="#5F80F8"/>
<path d="M218.579 93.6406H171.479C166.235 98.1242 160.038 103.132 152.714 108.499C125.908 128.155 137.524 147.829 169.696 133.512C186.206 126.18 204.586 109.198 218.579 94.4009V93.6406Z" fill="#5F80F8"/>
<path d="M121.486 104.933C121.486 96.7258 111.269 103.185 101.253 111.435V132.158C110.998 122.596 121.486 112.274 121.486 104.933Z" fill="#5F80F8"/>
<path d="M131.275 137.55C131.275 139.407 130.724 141.222 129.693 142.765C128.661 144.309 127.195 145.512 125.48 146.223C123.765 146.933 121.878 147.119 120.057 146.757C118.236 146.395 116.563 145.501 115.251 144.188C113.938 142.875 113.044 141.202 112.682 139.382C112.32 137.561 112.505 135.673 113.216 133.958C113.926 132.243 115.129 130.777 116.673 129.746C118.217 128.714 120.032 128.164 121.888 128.164C124.378 128.164 126.765 129.153 128.526 130.913C130.286 132.673 131.275 135.061 131.275 137.55Z" fill="#5F80F8"/>
<path opacity="0.75" d="M218.579 124.169C197.472 139.185 167.24 149.148 132.166 164.802C121.115 169.655 110.714 175.874 101.209 183.313V194.352H218.579V124.169Z" fill="white"/>
<path opacity="0.75" d="M218.579 93.6406H171.479C166.235 98.1242 160.038 103.132 152.714 108.499C125.908 128.155 137.524 147.829 169.696 133.512C186.206 126.18 204.586 109.198 218.579 94.4009V93.6406Z" fill="white"/>
<g opacity="0.75">
<path opacity="0.75" d="M121.486 104.933C121.486 96.7258 111.269 103.185 101.253 111.435V132.158C110.998 122.596 121.486 112.274 121.486 104.933Z" fill="white"/>
</g>
<path opacity="0.75" d="M131.275 137.55C131.275 139.407 130.724 141.222 129.693 142.765C128.661 144.309 127.195 145.512 125.48 146.223C123.765 146.933 121.878 147.119 120.057 146.757C118.236 146.395 116.563 145.501 115.251 144.188C113.938 142.875 113.044 141.202 112.682 139.382C112.32 137.561 112.505 135.673 113.216 133.958C113.926 132.243 115.129 130.777 116.673 129.746C118.217 128.714 120.032 128.164 121.888 128.164C124.378 128.164 126.765 129.153 128.526 130.913C130.286 132.673 131.275 135.061 131.275 137.55Z" fill="white"/>
<path d="M198.293 167.485C198.293 169.961 197.559 172.381 196.183 174.439C194.808 176.497 192.853 178.102 190.565 179.049C188.278 179.996 185.761 180.243 183.333 179.759C180.905 179.276 178.675 178.083 176.925 176.332C175.175 174.58 173.983 172.35 173.501 169.921C173.019 167.493 173.268 164.976 174.217 162.689C175.166 160.402 176.771 158.448 178.831 157.074C180.89 155.7 183.311 154.967 185.786 154.969C187.429 154.969 189.057 155.293 190.574 155.922C192.092 156.551 193.472 157.473 194.633 158.635C195.795 159.798 196.716 161.178 197.344 162.696C197.972 164.214 198.294 165.842 198.293 167.485Z" fill="white"/>
<path d="M374.719 318.678C372.45 321.309 370.918 324.493 370.279 327.908L361.373 332.898V309.3L361.548 309.536L375.733 299.153C377.524 299.433 384.411 300.219 390.687 296.837C397.976 292.913 403.299 279.47 403.299 279.47C403.299 279.47 385.923 277.504 380.041 284.793C375.269 290.701 375.103 296.426 375.217 298.375L361.373 308.505V291.068C363.966 289.861 366.257 288.092 368.082 285.89C369.906 283.687 371.218 281.106 371.922 278.334C374.439 268.528 360.997 249.204 360.997 249.204C360.997 249.204 347.013 269.096 349.784 279.182C352.161 287.721 358.524 290.43 360.438 291.06V328.86L350.474 320.531C350.701 318.538 350.885 312.307 345.335 306.066C338.605 298.497 320.679 299.074 320.679 299.074C320.679 299.074 328.239 314.203 334.663 319.246C340.292 323.616 348.062 321.868 349.932 321.335L360.42 330.075V341.568H344.819L351.191 381.388H370.305L376.694 341.577H361.373V333.973L371.162 328.484C373.539 329.149 380.19 330.512 386.483 327.366C394.349 323.441 400.773 315.034 400.773 315.034C400.773 315.034 382.008 310.27 374.719 318.678Z" fill="#5F80F8"/>
<path opacity="0.5" d="M374.719 318.678C372.45 321.309 370.918 324.493 370.279 327.908L361.373 332.898V309.3L361.548 309.536L375.733 299.153C377.524 299.433 384.411 300.219 390.687 296.837C397.976 292.913 403.299 279.47 403.299 279.47C403.299 279.47 385.923 277.504 380.041 284.793C375.269 290.701 375.103 296.426 375.217 298.375L361.373 308.505V291.068C363.966 289.861 366.257 288.092 368.082 285.89C369.906 283.687 371.218 281.106 371.922 278.334C374.439 268.528 360.997 249.204 360.997 249.204C360.997 249.204 347.013 269.096 349.784 279.182C352.161 287.721 358.524 290.43 360.438 291.06V328.86L350.474 320.531C350.701 318.538 350.885 312.307 345.335 306.066C338.605 298.497 320.679 299.074 320.679 299.074C320.679 299.074 328.239 314.203 334.663 319.246C340.292 323.616 348.062 321.868 349.932 321.335L360.42 330.075V341.568H344.819L351.191 381.388H370.305L376.694 341.577H361.373V333.973L371.162 328.484C373.539 329.149 380.19 330.512 386.483 327.366C394.349 323.441 400.773 315.034 400.773 315.034C400.773 315.034 382.008 310.27 374.719 318.678Z" fill="white"/>
<path d="M357.055 198.372L331.333 198.591C331.333 198.591 329.585 198.372 329.21 199.648C329.21 199.648 324.743 210.923 324.534 214.961C324.324 218.998 325.408 218.36 323.66 223.701C321.912 229.041 317.07 241.556 314.308 251.765C310.593 265.478 309.623 280.039 309.387 294.197C309.387 296.47 307.989 316.047 311.529 316.047C314.465 316.047 341.533 319.64 341.856 314.422C343.159 293.621 339.4 273.3 346.62 253.076C349.425 245.21 352.642 236.924 355.028 228.709C357.414 220.493 357.824 211.945 359.398 203.537C360.455 197.734 357.055 198.372 357.055 198.372Z" fill="#263238"/>
<path d="M359.581 200.924C359.328 197.953 357.055 198.372 357.055 198.372L331.333 198.591C331.333 198.591 329.585 198.372 329.21 199.648C329.21 199.648 324.743 210.923 324.534 214.961C324.471 216.027 324.5 217.098 324.621 218.159L325.163 219.033C325.163 219.033 326.037 226.471 336.219 226.899C346.401 227.328 352.17 222.643 354.293 218.159C356.417 213.676 357.274 206.465 358.969 202.209C359.151 201.771 359.356 201.342 359.581 200.924Z" fill="#5F80F8"/>
<path d="M353.612 209.227C351.864 215.441 352.921 217.163 351.199 227.861C349.478 238.559 343.264 250.585 340.843 261.676C338.422 272.767 339.47 311.704 339.811 313.434C339.946 314.351 339.996 315.279 339.96 316.205C341.122 315.768 341.821 315.173 341.874 314.361C343.176 293.559 339.418 273.239 346.637 253.015C349.443 245.149 352.659 236.863 355.045 228.647C357.431 220.432 357.842 211.884 359.415 203.476C360.071 199.98 359.039 198.835 358.139 198.494C356.184 201.867 354.663 205.473 353.612 209.227Z" fill="#5F80F8"/>
<path d="M303.925 366.224L303.75 366.084V342.066H307.202V326.885H294.442V342.066H297.885V366.495L267.348 376.231V378.643C267.348 379.376 267.639 380.078 268.157 380.596C268.675 381.114 269.377 381.405 270.11 381.405C270.842 381.405 271.545 381.114 272.063 380.596C272.581 380.078 272.872 379.376 272.872 378.643V378.302L298.41 375.331V378.993C298.41 379.633 298.664 380.246 299.116 380.699C299.569 381.151 300.182 381.405 300.822 381.405C301.462 381.405 302.075 381.151 302.528 380.699C302.98 380.246 303.234 379.633 303.234 378.993V375.208L329.804 378.302V378.643C329.804 379.376 330.095 380.078 330.613 380.596C331.131 381.114 331.833 381.405 332.566 381.405C333.298 381.405 334.001 381.114 334.519 380.596C335.037 380.078 335.328 379.376 335.328 378.643V376.231L303.925 366.224Z" fill="#263238"/>
<path d="M340.336 312.079H264.499C262.568 312.079 261.003 313.645 261.003 315.575V326.195C261.003 328.125 262.568 329.691 264.499 329.691H340.336C342.266 329.691 343.832 328.125 343.832 326.195V315.575C343.832 313.645 342.266 312.079 340.336 312.079Z" fill="#263238"/>
<path d="M41.8129 198.372L67.5347 198.591C67.5347 198.591 69.2827 198.372 69.6672 199.648C69.6672 199.648 74.1334 210.923 74.3431 214.961C74.5529 218.998 73.4691 218.36 75.2171 223.701C76.9651 229.041 81.8071 241.556 84.569 251.765C88.2922 265.478 89.2536 280.039 89.4896 294.197C89.4896 296.47 90.888 316.047 87.3483 316.047C84.4204 316.047 57.3526 319.64 57.0205 314.422C55.7269 293.621 59.4764 273.3 52.2572 253.076C49.4516 245.21 46.2353 236.924 43.858 228.709C41.4807 220.493 41.0612 211.945 39.488 203.537C38.4567 197.734 41.8129 198.372 41.8129 198.372Z" fill="#263238"/>
<path d="M39.3301 200.924C39.5835 197.953 41.8472 198.372 41.8472 198.372L67.569 198.591C67.569 198.591 69.317 198.372 69.7016 199.648C69.7016 199.648 74.1677 210.923 74.3775 214.961C74.4344 216.028 74.4022 217.098 74.2813 218.159L73.7395 219.033C73.7395 219.033 72.8655 226.471 62.6834 226.899C52.5013 227.328 46.7066 222.643 44.5741 218.151C42.4415 213.658 41.6025 206.457 39.8982 202.2C39.7337 201.764 39.544 201.338 39.3301 200.924Z" fill="#5F80F8"/>
<path d="M45.2557 209.227C47.0037 215.441 45.9462 217.163 47.668 227.861C49.3898 238.559 55.6126 250.585 58.0249 261.676C60.4371 272.767 59.432 311.704 59.0562 313.434C58.9252 314.351 58.8755 315.279 58.9076 316.205C57.7539 315.768 57.046 315.173 56.9936 314.361C55.7 293.559 59.4495 273.239 52.2303 253.015C49.4247 245.149 46.2084 236.863 43.8311 228.647C41.4538 220.432 41.0343 211.884 39.4611 203.476C38.8144 199.98 39.8457 198.835 40.7372 198.494C42.6931 201.866 44.2115 205.472 45.2557 209.227Z" fill="#5F80F8"/>
<path d="M94.9427 366.224L95.1175 366.084V342.066H91.6215V326.885H104.391V342.066H100.938V366.495L131.476 376.231V378.643C131.476 379.376 131.185 380.078 130.667 380.596C130.149 381.114 129.447 381.405 128.714 381.405C127.982 381.405 127.279 381.114 126.761 380.596C126.243 380.078 125.952 379.376 125.952 378.643V378.302L100.51 375.331V378.993C100.473 379.609 100.202 380.187 99.7531 380.61C99.304 381.033 98.7103 381.268 98.0934 381.268C97.4765 381.268 96.8829 381.033 96.4337 380.61C95.9846 380.187 95.7139 379.609 95.6768 378.993V375.208L69.046 378.302V378.643C69.0672 379.018 69.0115 379.394 68.8825 379.747C68.7535 380.1 68.5538 380.423 68.2956 380.696C68.0375 380.969 67.7264 381.186 67.3813 381.335C67.0362 381.484 66.6643 381.56 66.2886 381.56C65.9128 381.56 65.541 381.484 65.1959 381.335C64.8508 381.186 64.5396 380.969 64.2815 380.696C64.0234 380.423 63.8237 380.1 63.6947 379.747C63.5656 379.394 63.51 379.018 63.5311 378.643V376.231L94.9427 366.224Z" fill="#263238"/>
<path d="M58.5318 329.682H134.369C136.3 329.682 137.865 328.117 137.865 326.186V315.567C137.865 313.636 136.3 312.071 134.369 312.071H58.5318C56.601 312.071 55.0358 313.636 55.0358 315.567V326.186C55.0358 328.117 56.601 329.682 58.5318 329.682Z" fill="#263238"/>
<path d="M325.128 262.62H117.466V381.973H325.128V262.62Z" fill="#CCCCCC"/>
<path d="M324.971 265.486H117.571V268.79H324.971V265.486Z" fill="#263238"/>
<path d="M326.666 260.662H112.842V265.88H326.666V260.662Z" fill="#CCCCCC"/>
<path d="M172.755 250.296C172.755 250.296 175.202 261.23 175.062 264.28C174.922 267.331 169.163 275.503 169.014 273.632C169.063 272.047 169.407 270.485 170.028 269.026C170.028 269.026 168.009 271.762 167.292 271.648C166.576 271.535 167.869 267.759 167.869 267.759C167.869 267.759 165.71 269.918 164.985 269.507C164.26 269.096 166.567 265.906 166.567 265.906C166.567 265.906 163.945 268.642 163.84 267.776C163.735 266.911 166.139 263.319 166.139 263.319C166.139 263.319 163.691 258.136 163.517 255.977C163.532 254.47 164.035 253.007 164.95 251.808L172.755 250.296Z" fill="white"/>
<path d="M172.755 250.296C172.755 250.296 175.202 261.23 175.062 264.28C174.922 267.331 169.163 275.503 169.014 273.632C169.063 272.047 169.407 270.485 170.028 269.026C170.028 269.026 168.009 271.762 167.292 271.648C166.576 271.535 167.869 267.759 167.869 267.759C167.869 267.759 165.71 269.918 164.985 269.507C164.26 269.096 166.567 265.906 166.567 265.906C166.567 265.906 163.945 268.642 163.84 267.776C163.735 266.911 166.139 263.319 166.139 263.319C166.139 263.319 163.691 258.136 163.517 255.977C163.532 254.47 164.035 253.007 164.95 251.808L172.755 250.296Z" fill="#D9D9D9"/>
<path d="M172.755 250.296C172.755 250.296 175.202 261.23 175.062 264.28C174.922 267.331 169.163 275.503 169.014 273.632C169.063 272.047 169.407 270.485 170.028 269.026C170.028 269.026 168.009 271.762 167.292 271.648C166.576 271.535 167.869 267.759 167.869 267.759C167.869 267.759 165.71 269.918 164.985 269.507C164.26 269.096 166.567 265.906 166.567 265.906C166.567 265.906 163.945 268.642 163.84 267.776C163.735 266.911 166.139 263.319 166.139 263.319C166.139 263.319 163.691 258.136 163.517 255.977C163.532 254.47 164.035 253.007 164.95 251.808L172.755 250.296Z" stroke="#263238" stroke-linecap="round" stroke-linejoin="round"/>
<path d="M172.178 250.296C172.178 250.296 173.926 257.926 173.769 260.085C173.611 262.244 171.461 268.572 169.879 267.418C168.297 266.264 170.884 261.956 170.884 261.956C170.884 261.956 166.444 258.835 165.422 255.907C164.399 252.98 164.985 251.738 164.985 251.738L172.178 250.296Z" fill="white"/>
<path d="M172.178 250.296C172.178 250.296 173.926 257.926 173.769 260.085C173.611 262.244 171.461 268.572 169.879 267.418C168.297 266.264 170.884 261.956 170.884 261.956C170.884 261.956 166.444 258.835 165.422 255.907C164.399 252.98 164.985 251.738 164.985 251.738L172.178 250.296Z" fill="#D9D9D9"/>
<path d="M172.178 250.296C172.178 250.296 173.926 257.926 173.769 260.085C173.611 262.244 171.461 268.572 169.879 267.418C168.297 266.264 170.884 261.956 170.884 261.956C170.884 261.956 166.444 258.835 165.422 255.907C164.399 252.98 164.985 251.738 164.985 251.738L172.178 250.296Z" stroke="#263238" stroke-linecap="round" stroke-linejoin="round"/>
<path d="M166.908 214.541L173.034 251.031L164.399 252.98L155.764 224.845L166.908 214.541Z" fill="#263238" stroke="#263238" stroke-linecap="round" stroke-linejoin="round"/>
<path d="M164.399 232.371C164.399 232.371 164.959 275.826 165.789 287.529C166.619 299.232 163.56 314.832 160.781 319.29C158.002 323.747 145.731 351.628 146.29 353.28C146.849 354.932 149.358 359.966 149.358 361.355V367.203C149.358 367.203 163.281 376.397 164.399 376.397C165.518 376.397 166.908 378.626 164.12 380.304C161.332 381.982 130.13 381.973 128.74 380.854C127.823 380.032 127.149 378.974 126.791 377.795C126.791 377.795 122.334 379.465 122.613 375.287C122.893 371.109 127.901 353.28 127.901 353.28C127.901 353.28 124.842 333.772 125.952 321.239C127.062 308.706 130.969 293.655 130.969 290.596C130.969 287.537 127.071 267.191 126.511 263.852C125.952 260.513 117.876 251.03 121.495 243.514C125.113 235.998 127.901 224.006 129.02 223.176C130.139 222.346 145.18 221.778 151.307 223.176C157.434 224.575 164.12 224.566 164.399 232.371Z" fill="#263238" stroke="#263238" stroke-linecap="round" stroke-linejoin="round"/>
<path d="M136.781 144.778C136.781 144.778 132.018 149.043 131.196 150.521C130.375 151.998 120.376 166.253 120.21 176.443C120.044 186.634 127.604 217.451 127.604 217.451L116.242 246.355L119.528 247.666L122.806 244.056V249.475C122.806 249.475 126.581 252.918 136.423 256.196C146.264 259.473 158.902 255.706 158.902 255.706L162.669 231.724V255.383L167.1 252.429L167.458 213.029C167.458 213.029 171.068 191.869 171.068 185.935C171.068 180.001 161.061 161.463 156.629 156.079C152.198 150.695 144.813 146.238 142.645 144.595C140.478 142.952 136.781 144.778 136.781 144.778Z" fill="#263238"/>
<path opacity="0.17" d="M136.781 144.778C136.781 144.778 132.018 149.043 131.196 150.521C130.375 151.998 120.376 166.253 120.21 176.443C120.044 186.634 127.604 217.451 127.604 217.451L116.242 246.355L119.528 247.666L122.806 244.056V249.475C122.806 249.475 126.581 252.918 136.423 256.196C146.264 259.473 158.902 255.706 158.902 255.706L162.669 231.724V255.383L167.1 252.429L167.458 213.029C167.458 213.029 171.068 191.869 171.068 185.935C171.068 180.001 161.061 161.463 156.629 156.079C152.198 150.695 144.813 146.238 142.645 144.595C140.478 142.952 136.781 144.778 136.781 144.778Z" fill="white"/>
<path d="M122.762 179.712C122.762 179.712 128.723 183.934 132.691 185.419" stroke="#263238" stroke-linecap="round" stroke-linejoin="round"/>
<path d="M124.501 184.187C124.501 184.187 131.205 185.935 134.675 185.935" stroke="#263238" stroke-linecap="round" stroke-linejoin="round"/>
<path d="M134.185 223.884L153.046 226.122L151.805 230.089L134.43 228.105" stroke="#263238" stroke-linecap="round" stroke-linejoin="round"/>
<path d="M136.781 144.778C136.781 144.778 132.018 149.043 131.196 150.521C130.375 151.998 120.376 166.253 120.21 176.443C120.044 186.634 127.604 217.451 127.604 217.451L116.242 246.355L119.528 247.666L122.806 244.056V249.475C122.806 249.475 126.581 252.918 136.423 256.196C146.264 259.473 158.902 255.706 158.902 255.706L162.669 231.724V255.383L167.1 252.429L167.458 213.029C167.458 213.029 171.068 191.869 171.068 185.935C171.068 180.001 161.061 161.463 156.629 156.079C152.198 150.695 144.813 146.238 142.645 144.595C140.478 142.952 136.781 144.778 136.781 144.778Z" stroke="#263238" stroke-linecap="round" stroke-linejoin="round"/>
<path d="M135.793 145.731L154.008 165.422L164.67 185.769C164.67 185.769 162.372 170.675 160.405 166.541C158.439 162.407 149.576 152.164 148.58 149.865C147.584 147.566 135.793 145.731 135.793 145.731Z" fill="white" stroke="#263238" stroke-linecap="round" stroke-linejoin="round"/>
<path d="M159.627 176.172L164.67 185.786C164.67 185.786 163.106 175.499 161.445 169.6L160.405 166.585C159.009 164.135 157.425 161.798 155.668 159.593L152.81 159.025L154.007 165.457L157.696 168.472L159.627 176.172Z" fill="#263238" stroke="#263238" stroke-linecap="round" stroke-linejoin="round"/>
<path d="M154.768 153.151L155.712 154.244L158.675 157.74L160.423 166.62L152.828 159.042C152.828 159.042 153.824 154.471 154.768 153.151Z" fill="white" stroke="#263238" stroke-linecap="round" stroke-linejoin="round"/>
<path d="M163.359 116.557C163.359 116.557 167.345 119.616 167.843 122.57C168.341 125.524 166.855 128.81 167.021 129.955C167.187 131.1 170.133 133.731 169.975 135.042C169.818 136.353 167.353 136.842 167.353 136.842C167.353 136.842 164.679 146.579 164.024 148.204C163.368 149.83 160.082 149.349 157.626 149.026L153.195 162.136L138.581 144.944L140.88 138.049C140.88 138.049 134.648 130.506 134.15 122.465C133.652 114.424 140.058 108.848 149.244 107.703C158.43 106.558 166.147 110.981 167.126 112.79C168.105 114.599 163.359 116.557 163.359 116.557Z" fill="white"/>
<path d="M163.36 116.557C163.36 116.557 167.345 119.616 167.844 122.57C168.342 125.524 166.856 128.81 167.022 129.955C167.188 131.1 170.134 133.731 169.976 135.042C169.819 136.353 167.354 136.842 167.354 136.842C167.354 136.842 164.68 146.579 164.024 148.204C163.369 149.83 160.083 149.349 157.627 149.026L153.195 162.136L138.582 144.944L140.881 138.049C140.881 138.049 134.649 130.506 134.151 122.465C133.653 114.424 140.059 108.848 149.245 107.703C158.431 106.558 166.148 110.981 167.127 112.79C168.106 114.599 163.36 116.557 163.36 116.557Z" fill="#D9D9D9"/>
<path d="M146.334 154.086C148.798 153.588 152.932 152.732 156.656 151.893L157.617 149.043C159.662 149.314 162.284 149.699 163.473 148.869C160.676 147.715 153.754 145.696 152.338 143.1C150.59 139.875 156.708 130.488 156.708 125.795C156.708 121.102 150.844 115.823 150.844 115.823C148.021 113.14 142.873 112.327 138.302 112.327C136.863 113.583 135.736 115.157 135.011 116.925C134.286 118.692 133.982 120.604 134.124 122.509C134.622 130.55 140.854 138.092 140.854 138.092L138.555 144.988L146.334 154.086Z" fill="#B8B8B8"/>
<path d="M163.359 116.557C163.359 116.557 167.345 119.616 167.843 122.57C168.341 125.524 166.855 128.81 167.021 129.955C167.187 131.1 170.133 133.731 169.975 135.042C169.818 136.353 167.353 136.842 167.353 136.842C167.353 136.842 164.679 146.579 164.024 148.204C163.368 149.83 160.082 149.349 157.626 149.026L153.195 162.136L138.581 144.944L140.88 138.049C140.88 138.049 134.648 130.506 134.15 122.465C133.652 114.424 140.058 108.848 149.244 107.703C158.43 106.558 166.147 110.981 167.126 112.79C168.105 114.599 163.359 116.557 163.359 116.557Z" stroke="#263238" stroke-linecap="round" stroke-linejoin="round"/>
<path d="M163.359 116.557C163.359 116.557 168.114 114.59 167.126 112.79C166.139 110.99 158.43 106.55 149.244 107.703C140.058 108.857 133.661 114.424 134.15 122.465C134.64 130.506 140.88 138.049 140.88 138.049L140.53 139.097C143.93 140.758 147.444 138.049 147.444 138.049C146.802 138.372 146.074 138.483 145.366 138.365C144.657 138.247 144.004 137.907 143.502 137.393C141.535 135.593 141.369 129.85 143.834 129.352C146.299 128.854 147.933 129.85 147.933 131.651C147.933 133.451 148.423 132.306 149.742 132.14C151.062 131.974 149.9 128.041 150.721 127.386C152.049 126.564 153.216 125.506 154.165 124.266C155.642 122.299 151.377 120.665 150.887 118.856C150.398 117.046 163.359 116.557 163.359 116.557Z" fill="#263238" stroke="#263238" stroke-linecap="round" stroke-linejoin="round"/>
<path d="M164.53 129.37L161.489 130.384H164.242" stroke="#263238" stroke-linecap="round" stroke-linejoin="round"/>
<path d="M165.693 126.328C165.693 126.328 164.391 124.449 162.94 125.314C161.489 126.18 161.349 126.765 161.349 126.765" stroke="#263238" stroke-linecap="round" stroke-linejoin="round"/>
<path d="M162.564 139.508C163.453 140.116 164.54 140.366 165.605 140.207" stroke="#263238" stroke-linecap="round" stroke-linejoin="round"/>
<path d="M137.926 141.824L156.297 159.872L154.663 167.581L135.138 146.579L137.926 141.824Z" fill="white" stroke="#263238" stroke-linecap="round" stroke-linejoin="round"/>
<path d="M208.501 210.827C208.501 210.827 202.034 206.981 200.985 207.331C199.936 207.68 189.798 215.022 190.497 216.77C191.196 218.518 196.615 220.79 199.761 222.014C202.908 223.237 209.375 220.615 209.375 220.615L208.501 210.827Z" fill="white" stroke="#263238" stroke-linecap="round" stroke-linejoin="round"/>
<path d="M189.658 209.428C189.658 209.428 195.252 206.282 196.126 206.282C197 206.282 202.069 210.827 202.069 210.827L199.971 213.973C199.971 213.973 206.614 217.294 205.914 218.518C205.215 219.741 202.593 221.664 199.796 222.014C197 222.363 189.134 217.294 189.134 217.294L189.658 209.428Z" fill="white"/>
<path d="M189.658 209.428C189.658 209.428 195.252 206.282 196.126 206.282C197 206.282 202.069 210.827 202.069 210.827L199.971 213.973C199.971 213.973 206.614 217.294 205.914 218.518C205.215 219.741 202.593 221.664 199.796 222.014C197 222.363 189.134 217.294 189.134 217.294L189.658 209.428Z" fill="#D9D9D9"/>
<path d="M189.658 209.428C189.658 209.428 195.252 206.282 196.126 206.282C197 206.282 202.069 210.827 202.069 210.827L199.971 213.973C199.971 213.973 206.614 217.294 205.914 218.518C205.215 219.741 202.593 221.664 199.796 222.014C197 222.363 189.134 217.294 189.134 217.294L189.658 209.428Z" stroke="#263238" stroke-linecap="round" stroke-linejoin="round"/>
<path d="M185.777 208.03L190.672 208.904L189.099 217.294L184.903 215.896L185.777 208.03Z" fill="white" stroke="#263238" stroke-linecap="round" stroke-linejoin="round"/>
<path d="M128.976 159.26C128.976 159.26 124.256 168.35 123.732 172.895C123.208 177.44 142.436 213.623 143.834 214.847C145.232 216.071 186.127 217.294 186.127 217.294L187.875 208.379L152.915 198.416L141.029 161.882" fill="#263238"/>
<path opacity="0.17" d="M128.976 159.26C128.976 159.26 124.256 168.35 123.732 172.895C123.208 177.44 142.436 213.623 143.834 214.847C145.232 216.071 186.127 217.294 186.127 217.294L187.875 208.379L152.915 198.416L141.029 161.882" fill="white"/>
<path d="M128.976 159.26C128.976 159.26 124.256 168.35 123.732 172.895C123.208 177.44 142.436 213.623 143.834 214.847C145.232 216.071 186.127 217.294 186.127 217.294L187.875 208.379L152.915 198.416L141.029 161.882" stroke="#263238" stroke-linecap="round" stroke-linejoin="round"/>
<path d="M202.383 208.205C202.383 208.205 199.936 206.107 199.062 208.554C198.188 211.001 192.769 216.945 195.217 217.119C197.664 217.294 202.209 212.225 202.209 212.225" fill="white"/>
<path d="M202.383 208.205C202.383 208.205 199.936 206.107 199.062 208.554C198.188 211.001 192.769 216.945 195.217 217.119C197.664 217.294 202.209 212.225 202.209 212.225" stroke="#263238" stroke-linecap="round" stroke-linejoin="round"/>
<path d="M191.546 217.993C191.546 217.993 190.917 220.939 192.42 222.189C193.477 223.063 194.072 220.615 193.818 218.867C193.565 217.119 192.07 216.595 191.546 217.993Z" fill="white" stroke="#263238" stroke-linecap="round" stroke-linejoin="round"/>
<path d="M194.028 218.692C194.028 218.692 193.399 221.638 194.902 222.888C195.959 223.762 196.554 221.314 196.3 219.566C196.047 217.818 194.517 217.294 194.028 218.692Z" fill="white" stroke="#263238" stroke-linecap="round" stroke-linejoin="round"/>
<path d="M196.44 219.741C196.44 219.741 195.811 222.687 197.314 223.937C198.372 224.811 198.966 222.363 198.713 220.615C198.459 218.867 196.965 218.343 196.44 219.741Z" fill="white" stroke="#263238" stroke-linecap="round" stroke-linejoin="round"/>
<path d="M198.861 221.166C198.861 221.166 198.284 223.15 199.665 223.989C200.635 224.583 201.186 222.931 200.95 221.752C200.714 220.572 199.342 220.222 198.861 221.166Z" fill="white" stroke="#263238" stroke-linecap="round" stroke-linejoin="round"/>
<path d="M208.501 210.827L209.026 222.014L212.871 220.965L211.997 210.652L208.501 210.827Z" stroke="#263238" stroke-linecap="round" stroke-linejoin="round"/>
<path d="M211.123 209.778L212.871 223.062L242.063 219.916L242.762 202.611L211.123 209.778Z" fill="#263238" stroke="#263238" stroke-linecap="round" stroke-linejoin="round"/>
<path d="M159.942 262.733C159.942 262.733 154.645 298.113 154.645 310.095C154.645 322.078 146.57 342.136 146.29 353.28" stroke="white" stroke-linecap="round" stroke-linejoin="round"/>
<path d="M128.74 380.837C130.13 381.956 161.332 381.956 164.12 380.286C166.908 378.617 165.509 376.38 164.399 376.38C163.289 376.38 149.358 367.185 149.358 367.185C149.358 367.185 141.833 373.041 137.655 374.431C133.477 375.82 126.791 376.1 126.791 376.1V377.778C127.149 378.956 127.823 380.014 128.74 380.837Z" fill="white" stroke="#263238" stroke-linecap="round" stroke-linejoin="round"/>
<path d="M164.12 380.304C165.588 379.43 165.868 378.381 165.693 377.603C161.595 378.413 157.432 378.849 153.256 378.905C144.839 379.133 131.598 378.617 127.036 378.425C127.414 379.364 128.014 380.198 128.784 380.854C130.13 381.973 161.332 381.973 164.12 380.304Z" fill="white" stroke="#263238" stroke-linecap="round" stroke-linejoin="round"/>
<path d="M125.978 378.014L126.791 376.117L127.901 353.28C127.901 353.28 122.884 371.109 122.613 375.287C122.404 378.329 124.711 378.267 125.978 378.014Z" fill="#263238" stroke="#263238" stroke-linecap="round" stroke-linejoin="round"/>
<path d="M246.302 255.768C246.302 255.768 243.523 297.283 246.302 313.993C249.081 330.704 256.082 359.686 257.166 363.305C257.849 365.464 258.144 367.728 258.04 369.991L273.641 372.219C273.641 372.219 268.904 317.341 268.904 310.934C268.904 304.528 274.2 256.607 274.2 256.607L246.302 255.768Z" fill="#263238" stroke="#263238" stroke-linecap="round" stroke-linejoin="round"/>
<path d="M258.005 369.991C258.005 369.991 241.014 377.236 239.056 378.626C237.099 380.015 243.243 381.973 250.759 381.973C258.276 381.973 265.81 381.099 265.81 381.099L268.869 379.43L269.148 381.379H277.224C277.224 381.379 278.622 374.693 278.098 373.023C277.701 371.881 277.237 370.764 276.708 369.676L258.005 369.991Z" fill="#263238" stroke="#263238" stroke-linecap="round" stroke-linejoin="round"/>
<path d="M243.794 252.429C243.794 252.429 245.192 292.266 248.531 306.477C251.869 320.688 257.725 355.229 257.725 358.847C257.747 360.916 257.467 362.977 256.895 364.965L255.776 368.601C255.967 369.469 256.26 370.311 256.65 371.109C256.65 371.109 263.887 372.779 268.624 372.779C271.585 372.752 274.527 372.308 277.364 371.459C277.364 371.459 277.512 362.719 277.792 358.567C278.072 354.416 276.682 327.645 276.682 321.239C276.682 314.833 275.004 311.205 275.004 303.409C275.004 295.613 273.614 274.716 273.894 271.369C274.174 268.021 278.072 264.377 278.911 260.225C279.75 256.074 280.58 251.59 280.58 251.59L243.794 252.429Z" fill="#263238" stroke="#263238" stroke-linecap="round" stroke-linejoin="round"/>
<path d="M247.132 294.311C247.132 294.311 254.92 348.333 256.869 351.742C258.031 353.916 258.343 356.446 257.743 358.838" stroke="white" stroke-linecap="round" stroke-linejoin="round"/>
<path d="M237.107 220.947C237.107 220.947 236.067 231.602 236.067 239.747C236.067 244.292 236.024 250.235 235.98 254.535C235.967 256.305 236.571 258.024 237.688 259.397C238.804 260.77 240.363 261.711 242.098 262.06C243.928 262.463 245.792 262.688 247.665 262.733L241.119 222.197C241.119 222.197 238.156 217.189 237.107 220.947Z" fill="#263238" stroke="#263238" stroke-linecap="round" stroke-linejoin="round"/>
<path d="M268.038 148.353C269.634 149.193 271.091 150.275 272.356 151.561C273.471 153.027 274.459 154.585 275.31 156.219C275.31 156.219 287.153 169.871 287.432 171.261C287.712 172.65 280.746 216.534 280.746 216.534L288.682 258.04C288.682 258.04 275.869 265.146 266.115 265.565C259.255 265.862 248.933 263.669 243.391 262.34C242.289 262.079 241.296 261.477 240.555 260.621C239.813 259.765 239.359 258.697 239.257 257.568C238.716 251.73 237.702 240.088 237.107 229.067C236.426 216.263 238.366 190.899 239.729 181.985C241.093 173.07 245.445 160.956 248.784 155.939C252.123 150.923 261.326 145.731 268.038 148.353Z" fill="#263238" stroke="#263238" stroke-linecap="round" stroke-linejoin="round"/>
<path d="M275.31 156.219C274.467 154.608 273.491 153.07 272.391 151.622C271.126 150.336 269.669 149.254 268.073 148.414C262.515 146.22 255.243 149.402 251.022 153.422C250.462 154.663 246.057 164.714 243.968 172.93C241.74 181.67 242.019 192.717 242.019 192.717C242.019 192.717 249.405 183.243 259.429 172.1C264.435 166.53 269.902 161.393 275.773 156.743L275.31 156.219Z" fill="#263238"/>
<path opacity="0.17" d="M275.31 156.219C274.467 154.608 273.491 153.07 272.391 151.622C271.126 150.336 269.669 149.254 268.073 148.414C262.515 146.22 255.243 149.402 251.022 153.422C250.462 154.663 246.057 164.714 243.968 172.93C241.74 181.67 242.019 192.717 242.019 192.717C242.019 192.717 249.405 183.243 259.429 172.1C264.435 166.53 269.902 161.393 275.773 156.743L275.31 156.219Z" fill="white"/>
<path d="M275.31 156.219C274.467 154.608 273.491 153.07 272.391 151.622C271.126 150.336 269.669 149.254 268.073 148.414C262.515 146.22 255.243 149.402 251.022 153.422C250.462 154.663 246.057 164.714 243.968 172.93C241.74 181.67 242.019 192.717 242.019 192.717C242.019 192.717 249.405 183.243 259.429 172.1C264.435 166.53 269.902 161.393 275.773 156.743L275.31 156.219Z" stroke="#263238" stroke-linecap="round" stroke-linejoin="round"/>
<path d="M250.069 159.829C250.069 159.829 246.302 171.636 245.157 174.975C244.012 178.314 243.898 183.549 243.898 183.549C243.898 183.549 258.005 162.442 261.448 158.893C264.892 155.345 269.393 149.804 269.393 149.804L266.36 148.93L250.069 159.829Z" fill="white" stroke="#263238" stroke-linecap="round" stroke-linejoin="round"/>
<path d="M251.109 155.546C251.109 155.546 249.44 160.458 249.44 160.79C249.44 161.122 249.02 165.807 249.02 165.807L254.972 157.757L251.109 155.546Z" fill="white" stroke="#263238" stroke-linecap="round" stroke-linejoin="round"/>
<path d="M266.255 145.731L249.964 158.998L252.472 166.305L269.183 149.279L266.255 145.731Z" fill="white" stroke="#263238" stroke-linecap="round" stroke-linejoin="round"/>
<path d="M264.149 250.961C264.149 250.961 261.833 256.72 261.142 258.608C260.452 260.496 260.802 267.89 260.889 268.668C260.976 269.446 262.349 269.612 262.349 269.612C262.349 269.612 262.777 275.537 263.292 275.73C263.828 275.863 264.376 275.948 264.927 275.983C264.927 275.983 265.871 278.998 267.077 278.736C267.439 278.626 267.762 278.413 268.005 278.122C268.249 277.832 268.403 277.478 268.449 277.102C268.845 277.139 269.245 277.071 269.607 276.906C269.969 276.74 270.281 276.482 270.512 276.158C271.003 275.436 271.408 274.658 271.718 273.842C271.718 273.842 273.78 272.811 273.946 272.033C274.113 271.255 274.637 268.537 274.637 268.537C274.637 268.537 275.24 268.362 275.24 266.561C275.24 264.761 273.868 253.67 273.868 253.67L264.149 250.961Z" fill="white" stroke="#263238" stroke-linecap="round" stroke-linejoin="round"/>
<path d="M262.349 269.612L262.602 264.385" stroke="#263238" stroke-linecap="round" stroke-linejoin="round"/>
<path d="M264.927 275.966L265.486 268.231" stroke="#263238" stroke-linecap="round" stroke-linejoin="round"/>
<path d="M268.449 277.084L268.851 268.712" stroke="#263238" stroke-linecap="round" stroke-linejoin="round"/>
<path d="M271.718 273.824L272.216 267.995" stroke="#263238" stroke-linecap="round" stroke-linejoin="round"/>
<path d="M281.131 167.459L287.397 171.217L285.308 214.541L274.165 255.488L263.581 252.709L266.919 220.371L265.25 187.779C265.25 187.779 267.619 180.184 273.046 176.006" fill="#263238"/>
<path d="M281.131 167.459L287.397 171.217L285.308 214.541L274.165 255.488L263.581 252.709L266.919 220.371L265.25 187.779C265.25 187.779 267.619 180.184 273.046 176.006" stroke="#263238" stroke-linecap="round" stroke-linejoin="round"/>
<path d="M268.239 174.774C268.239 174.774 265.39 182.011 265.25 187.797" stroke="white" stroke-linecap="round" stroke-linejoin="round"/>
<path d="M270.617 178.218C270.617 178.218 265.74 186.18 265.74 189.781C265.74 193.381 267.024 223.43 267.024 223.43L263.686 249.37" stroke="white" stroke-linecap="round" stroke-linejoin="round"/>
<path d="M240.35 119.188C240.35 119.188 237.003 128.697 237.317 130.06C237.632 131.424 237.946 133.504 237.946 133.504C237.946 133.504 232.702 139.98 233.349 140.714C233.996 141.448 236.898 142.279 236.898 142.279C236.898 142.279 239.301 152.312 240.245 153.247C241.189 154.183 247.036 152.102 247.036 152.102L253.303 160.038L266.15 147.715L264.586 141.239C264.586 141.239 271.377 129.326 271.272 123.68C271.167 118.034 259.578 110.518 251.319 110.622C243.059 110.727 235.333 113.76 236.898 115.954C237.819 117.253 238.993 118.353 240.35 119.188Z" fill="white"/>
<path d="M267.217 117.151C265.625 117.384 264.07 117.824 262.593 118.462L250.279 123.453C250.279 123.453 244.414 128.435 245.035 132.245C245.655 136.056 250.899 141.335 249.728 145.145C248.557 148.956 241.224 153.064 241.224 153.064L243.523 153.151C245.271 152.74 247.071 152.102 247.071 152.102L248.032 153.317L259.901 153.746L266.185 147.715L264.621 141.239C264.621 141.239 271.412 129.326 271.307 123.68C271.237 121.6 269.629 119.266 267.217 117.151Z" fill="#B8B8B8"/>
<path d="M240.35 119.188C240.35 119.188 237.003 128.697 237.317 130.06C237.632 131.424 237.946 133.504 237.946 133.504C237.946 133.504 232.702 139.98 233.349 140.714C233.996 141.448 236.898 142.279 236.898 142.279C236.898 142.279 239.301 152.312 240.245 153.247C241.189 154.183 247.036 152.102 247.036 152.102L253.303 160.038L266.15 147.715L264.586 141.239C264.586 141.239 271.377 129.326 271.272 123.68C271.167 118.034 259.578 110.518 251.319 110.622C243.059 110.727 235.333 113.76 236.898 115.954C237.819 117.253 238.993 118.353 240.35 119.188Z" stroke="#263238" stroke-linecap="round" stroke-linejoin="round"/>
<path d="M264.586 141.239C264.586 141.239 271.377 129.326 271.272 123.68C271.167 118.034 259.578 110.518 251.319 110.622C243.059 110.727 235.333 113.76 236.898 115.954C237.819 117.253 238.993 118.353 240.35 119.188C240.35 119.188 245.472 121.591 245.472 122.22C245.472 122.85 242.439 126.188 243.488 127.657C244.536 129.125 249.544 130.89 249.544 130.89C249.544 130.89 248.67 133.714 249.964 134.028C251.258 134.343 251.843 133.084 252.673 132.28C253.504 131.476 256.44 130.287 256.86 133.845C257.107 136.396 256.438 138.952 254.972 141.055C254.561 141.361 260.303 145.233 262.838 144.079C263.494 143.782 264.263 143.389 265.032 142.978L264.586 141.239Z" fill="#263238" stroke="#263238" stroke-linecap="round" stroke-linejoin="round"/>
<path d="M239.511 136.117C239.916 136.117 240.245 134.853 240.245 133.294C240.245 131.735 239.916 130.471 239.511 130.471C239.105 130.471 238.777 131.735 238.777 133.294C238.777 134.853 239.105 136.117 239.511 136.117Z" stroke="#263238" stroke-linecap="round" stroke-linejoin="round"/>
<path d="M240.35 132.149L252.673 132.254" stroke="#263238" stroke-linecap="round" stroke-linejoin="round"/>
<path d="M238.322 128.749C238.322 128.749 239.493 126.879 240.665 129.212" stroke="#263238" stroke-linecap="round" stroke-linejoin="round"/>
<path d="M238.086 143.983C239.354 143.467 240.533 142.756 241.582 141.877" stroke="#263238" stroke-linecap="round" stroke-linejoin="round"/>
<path d="M46.558 381.973H390.538" stroke="#263238" stroke-width="2" stroke-miterlimit="10"/>
</svg>
