<svg width="354" height="354" viewBox="0 0 354 354" fill="none" xmlns="http://www.w3.org/2000/svg">
<path d="M354 270.579H0V270.755H354V270.579Z" fill="#EBEBEB"/>
<path d="M234.504 283.858H228.352V284.035H234.504V283.858Z" fill="#EBEBEB"/>
<path d="M122.64 275.083H106.229V275.259H122.64V275.083Z" fill="#EBEBEB"/>
<path d="M324.809 278.867H284.687V279.043H324.809V278.867Z" fill="#EBEBEB"/>
<path d="M70.3684 278.867H30.2461V279.043H70.3684V278.867Z" fill="#EBEBEB"/>
<path d="M167.796 239.091H31.0883C30.0174 239.089 28.9909 238.664 28.2343 237.908C27.4777 237.152 27.0527 236.128 27.0527 235.06V43.4301C27.0621 42.3683 27.4911 41.353 28.2467 40.6048C29.0023 39.8567 30.0235 39.436 31.0883 39.4341H167.796C168.868 39.4341 169.897 39.8589 170.655 40.6149C171.413 41.3709 171.839 42.3962 171.839 43.4654V235.06C171.839 236.129 171.413 237.154 170.655 237.91C169.897 238.666 168.868 239.091 167.796 239.091ZM31.0883 39.5753C30.0643 39.5772 29.0829 39.9842 28.3595 40.7069C27.636 41.4296 27.2297 42.409 27.2297 43.4301V235.06C27.2297 236.081 27.636 237.06 28.3595 237.783C29.0829 238.506 30.0643 238.913 31.0883 238.914H167.796C168.821 238.913 169.803 238.506 170.527 237.783C171.252 237.061 171.66 236.081 171.662 235.06V43.4301C171.66 42.4083 171.252 41.4289 170.527 40.7064C169.803 39.9839 168.821 39.5772 167.796 39.5753H31.0883Z" fill="#EBEBEB"/>
<path d="M320.943 239.091H184.228C183.157 239.089 182.129 238.664 181.372 237.908C180.614 237.153 180.187 236.128 180.186 235.06V43.4301C180.197 42.3677 180.627 41.3524 181.384 40.6044C182.141 39.8564 183.163 39.4359 184.228 39.4341H320.943C322.007 39.4378 323.026 39.8593 323.78 40.6073C324.534 41.3553 324.962 42.3695 324.972 43.4301V235.06C324.972 236.126 324.548 237.15 323.793 237.905C323.037 238.661 322.013 239.087 320.943 239.091ZM184.228 39.5753C183.204 39.5772 182.221 39.9839 181.497 40.7064C180.772 41.4289 180.364 42.4083 180.363 43.4301V235.06C180.364 236.081 180.772 237.061 181.497 237.783C182.221 238.506 183.204 238.913 184.228 238.914H320.943C321.968 238.913 322.95 238.506 323.674 237.783C324.399 237.061 324.807 236.081 324.809 235.06V43.4301C324.807 42.4083 324.399 41.4289 323.674 40.7064C322.95 39.9839 321.968 39.5772 320.943 39.5753H184.228Z" fill="#EBEBEB"/>
<path d="M80.2169 167.474L268.205 167.474V65.6479L80.2169 65.6479V167.474Z" fill="#E6E6E6"/>
<path d="M78.0783 167.474L266.066 167.474V65.6479L78.0783 65.6479V167.474Z" fill="#F5F5F5"/>
<path d="M262.236 163.182V69.9404L81.9158 69.9404V163.182H262.236Z" fill="white"/>
<path d="M83.5303 163.189V69.9475H81.916V163.189H83.5303Z" fill="#E6E6E6"/>
<path d="M79.6642 146.859L264.48 146.859V141.098L79.6642 141.098V146.859Z" fill="#F5F5F5"/>
<path d="M79.6642 97.9051L264.48 97.9051V92.1441L79.6642 92.1441V97.9051Z" fill="#F5F5F5"/>
<path d="M73.9082 58.5456H272.382C272.538 58.5474 272.688 58.6107 272.798 58.7217C272.908 58.8328 272.97 58.9825 272.969 59.1386C272.969 59.294 272.908 59.4431 272.797 59.553C272.687 59.6628 272.538 59.7246 272.382 59.7246H73.9082C73.7517 59.7246 73.6015 59.6631 73.4901 59.5534C73.3788 59.4437 73.3153 59.2947 73.3135 59.1386C73.3153 58.9819 73.3786 58.8321 73.4897 58.7213C73.6008 58.6105 73.751 58.5474 73.9082 58.5456Z" fill="#E6E6E6"/>
<path d="M70.3682 59.1386C70.3682 59.7212 70.5415 60.2907 70.8662 60.7749C71.191 61.2592 71.6525 61.6366 72.1923 61.8592C72.7322 62.0818 73.3262 62.1397 73.8991 62.0255C74.472 61.9114 74.998 61.6303 75.4106 61.2178C75.8233 60.8054 76.1039 60.2802 76.217 59.7086C76.3301 59.1371 76.2706 58.5449 76.0461 58.0071C75.8215 57.4693 75.442 57.01 74.9556 56.6873C74.4692 56.3647 73.8977 56.1932 73.3134 56.1946C72.9261 56.1946 72.5425 56.2708 72.1847 56.4188C71.8269 56.5669 71.5019 56.7838 71.2283 57.0573C70.9547 57.3308 70.7379 57.6554 70.5903 58.0125C70.4427 58.3697 70.3672 58.7523 70.3682 59.1386Z" fill="#E6E6E6"/>
<path d="M267.411 62.4286C267.622 62.4286 267.823 62.3453 267.972 62.197C268.121 62.0487 268.204 61.8476 268.204 61.6379V59.9082C268.204 59.6984 268.121 59.4973 267.972 59.349C267.823 59.2007 267.622 59.1174 267.411 59.1174C267.201 59.1174 266.998 59.2005 266.848 59.3486C266.698 59.4967 266.613 59.6978 266.611 59.9082V61.6167C266.61 61.7226 266.629 61.8279 266.668 61.9263C266.708 62.0247 266.766 62.1144 266.841 62.1899C266.915 62.2655 267.004 62.3256 267.102 62.3665C267.2 62.4075 267.305 62.4286 267.411 62.4286Z" fill="#E6E6E6"/>
<path d="M82.8365 62.4286C83.0474 62.4286 83.2499 62.3455 83.3997 62.1974C83.5495 62.0493 83.6346 61.8482 83.6365 61.6378V59.9082C83.6292 59.7015 83.5416 59.5058 83.3924 59.3622C83.2432 59.2187 83.0438 59.1385 82.8365 59.1386C82.7312 59.1339 82.626 59.1501 82.527 59.1864C82.4281 59.2227 82.3374 59.2783 82.2603 59.35C82.1832 59.4216 82.1211 59.5079 82.0778 59.6037C82.0345 59.6996 82.0108 59.8031 82.0081 59.9082V61.6167C82.0051 61.7253 82.0246 61.8334 82.0653 61.9342C82.106 62.035 82.1672 62.1264 82.2449 62.2026C82.3227 62.2788 82.4153 62.3381 82.5171 62.377C82.6189 62.4159 82.7276 62.4335 82.8365 62.4286Z" fill="#E6E6E6"/>
<path opacity="0.5" d="M74.099 80.5163L264.487 80.5163V59.1386L74.099 59.1386V80.5163Z" fill="#E0E0E0"/>
<path d="M257.917 62.0826C259.548 62.0826 260.87 60.7645 260.87 59.1386C260.87 57.5127 259.548 56.1946 257.917 56.1946C256.287 56.1946 254.965 57.5127 254.965 59.1386C254.965 60.7645 256.287 62.0826 257.917 62.0826Z" fill="#E6E6E6"/>
<path d="M209.49 270.579H221.568V190.066H209.49V270.579Z" fill="#E6E6E6"/>
<path d="M212.669 270.579H209.49V259.614H215.997L212.669 270.579Z" fill="#F0F0F0"/>
<path d="M307.577 270.579H319.655V190.066H307.577V270.579Z" fill="#E6E6E6"/>
<path d="M209.49 263.85H310.345V190.066H209.49V263.85Z" fill="#F0F0F0"/>
<path d="M211.954 213.562H307.881V193.328H211.954V213.562Z" fill="#E6E6E6"/>
<path d="M230.986 199.618H286.741C289.834 199.618 292.801 197.126 294.932 192.714H222.794C224.925 197.126 227.884 199.618 230.986 199.618Z" fill="#F0F0F0"/>
<path d="M307.173 270.579H310.344V259.614H303.838L307.173 270.579Z" fill="#F0F0F0"/>
<path d="M211.954 237.072H307.881V216.838H211.954V237.072Z" fill="#E6E6E6"/>
<path d="M230.986 223.128H286.741C289.834 223.128 292.801 220.629 294.932 216.224H222.794C224.925 220.629 227.884 223.128 230.986 223.128Z" fill="#F0F0F0"/>
<path d="M211.954 260.582H307.881V240.348H211.954V260.582Z" fill="#E6E6E6"/>
<path d="M230.986 246.631H286.741C289.834 246.631 292.801 244.132 294.932 239.726H222.794C224.925 244.132 227.884 246.631 230.986 246.631Z" fill="#F0F0F0"/>
<path d="M282.648 149.697C280.736 143.28 304.546 111.171 314.996 112.131C325.446 113.091 307.074 152.041 301.431 155.486C295.066 159.376 284.729 156.68 282.648 149.697Z" fill="#F5F5F5"/>
<path d="M281.281 158.953C280.36 155.677 297.005 150.347 303.618 154.209C310.231 158.07 296.729 168.018 292.998 167.566C288.743 167.058 282.286 162.518 281.281 158.953Z" fill="#F5F5F5"/>
<path d="M301.502 156.016C303.803 151.709 286.853 126.555 277.819 126.089C268.785 125.623 280.389 155.035 284.843 158.049C289.876 161.473 298.988 160.697 301.502 156.016Z" fill="#F5F5F5"/>
<path d="M292.815 142.63H292.779C292.35 142.624 291.933 142.772 291.605 143.049C291.277 143.325 291.06 143.711 290.995 144.134C289.033 157.406 288.795 170.874 290.287 184.207C290.337 184.631 290.539 185.023 290.857 185.31C291.175 185.597 291.586 185.759 292.015 185.767H292.05C292.301 185.77 292.549 185.721 292.778 185.621C293.008 185.522 293.214 185.374 293.382 185.189C293.55 185.004 293.677 184.786 293.754 184.548C293.83 184.31 293.855 184.059 293.827 183.811C292.405 170.773 292.641 157.608 294.528 144.628C294.563 144.382 294.546 144.131 294.476 143.892C294.406 143.653 294.287 143.432 294.124 143.243C293.962 143.054 293.762 142.901 293.536 142.796C293.31 142.69 293.064 142.634 292.815 142.63Z" fill="#EBEBEB"/>
<path d="M291.519 190.059C297.777 190.059 303.052 186.388 304.333 181.411C304.647 180.082 305.096 178.788 305.672 177.549L305.771 177.344H277.267L277.366 177.549C277.942 178.788 278.39 180.082 278.704 181.411C279.985 186.388 285.267 190.059 291.519 190.059Z" fill="#FAFAFA"/>
<path d="M277.211 178.594H305.857C306.657 178.594 307.35 177.817 307.549 176.702C307.832 175.099 306.996 173.546 305.857 173.546H277.211C276.071 173.546 275.236 175.099 275.526 176.702C275.724 177.81 276.418 178.594 277.211 178.594Z" fill="#F0F0F0"/>
<path d="M188.972 219.86H153.707V270.579H188.972V219.86Z" fill="#F0F0F0"/>
<path d="M48.8307 270.579H153.714V219.859H48.8307V270.579Z" fill="#F5F5F5"/>
<path d="M58.0422 259.346H80.2168V236.832H58.0422V259.346Z" fill="#FAFAFA"/>
<path d="M88.1457 259.346H110.32V236.832H88.1457V259.346Z" fill="#FAFAFA"/>
<g style="mix-blend-mode:multiply" opacity="0.7">
<path d="M188.972 225.253H48.4551V228.141H188.972V225.253Z" fill="#E6E6E6"/>
</g>
<path d="M190.919 218.109H153.707V226.475H190.919V218.109Z" fill="#F0F0F0"/>
<path d="M46.8837 226.468H153.714V218.102H46.8837V226.468Z" fill="#F5F5F5"/>
<path d="M77.1016 203.869C77.1016 203.869 77.7742 218.109 103.51 218.109C129.246 218.109 129.918 203.869 129.918 203.869H77.1016Z" fill="#F0F0F0"/>
<path d="M77.1016 194.436C77.1016 194.436 77.7742 208.676 103.51 208.676C129.246 208.676 129.918 194.436 129.918 194.436H77.1016Z" fill="#F0F0F0"/>
<path d="M177 302.461C252.814 302.461 314.274 298.883 314.274 294.47C314.274 290.056 252.814 286.478 177 286.478C101.185 286.478 39.7256 290.056 39.7256 294.47C39.7256 298.883 101.185 302.461 177 302.461Z" fill="#F5F5F5"/>
<path d="M135.47 279.093H65.9512V292.14H135.47V279.093Z" fill="#5F80F8"/>
<path opacity="0.2" d="M135.47 279.093H65.9512V280.575H135.47V279.093Z" fill="black"/>
<path opacity="0.2" d="M73.781 279.093H71.041V292.14H73.781V279.093Z" fill="black"/>
<path opacity="0.2" d="M80.0681 279.093H77.3281V292.14H80.0681V279.093Z" fill="black"/>
<path opacity="0.2" d="M86.362 279.093H83.6221V292.14H86.362V279.093Z" fill="black"/>
<path opacity="0.2" d="M92.6491 279.093H89.9092V292.14H92.6491V279.093Z" fill="black"/>
<path opacity="0.2" d="M98.9363 279.093H96.1963V292.14H98.9363V279.093Z" fill="black"/>
<path opacity="0.2" d="M105.23 279.093H102.49V292.14H105.23V279.093Z" fill="black"/>
<path opacity="0.2" d="M111.517 279.093H108.777V292.14H111.517V279.093Z" fill="black"/>
<path opacity="0.2" d="M117.804 279.093H115.064V292.14H117.804V279.093Z" fill="black"/>
<path opacity="0.2" d="M124.098 279.093H121.358V292.14H124.098V279.093Z" fill="black"/>
<path opacity="0.2" d="M130.385 279.093H127.646V292.14H130.385V279.093Z" fill="black"/>
<path d="M132.645 266.046H63.126V279.093H132.645V266.046Z" fill="#5F80F8"/>
<path opacity="0.2" d="M132.645 266.046H63.126V267.529H132.645V266.046Z" fill="black"/>
<path opacity="0.2" d="M70.9489 266.046H68.209V279.093H70.9489V266.046Z" fill="black"/>
<path opacity="0.2" d="M77.2429 266.046H74.5029V279.093H77.2429V266.046Z" fill="black"/>
<path opacity="0.2" d="M83.53 266.046H80.79V279.093H83.53V266.046Z" fill="black"/>
<path opacity="0.2" d="M89.8171 266.046H87.0771V279.093H89.8171V266.046Z" fill="black"/>
<path opacity="0.2" d="M96.112 266.046H93.3721V279.093H96.112V266.046Z" fill="black"/>
<path opacity="0.2" d="M102.398 266.046H99.6582V279.093H102.398V266.046Z" fill="black"/>
<path opacity="0.2" d="M108.685 266.046H105.945V279.093H108.685V266.046Z" fill="black"/>
<path opacity="0.2" d="M114.979 266.046H112.239V279.093H114.979V266.046Z" fill="black"/>
<path opacity="0.2" d="M121.266 266.046H118.526V279.093H121.266V266.046Z" fill="black"/>
<path opacity="0.2" d="M127.553 266.046H124.813V279.093H127.553V266.046Z" fill="black"/>
<path d="M130.641 252.999H61.1221V266.046H130.641V252.999Z" fill="#5F80F8"/>
<path opacity="0.2" d="M130.641 252.999H61.1221V254.482H130.641V252.999Z" fill="black"/>
<path opacity="0.2" d="M68.9519 252.999H66.2119V266.046H68.9519V252.999Z" fill="black"/>
<path opacity="0.2" d="M75.2399 252.999H72.5V266.046H75.2399V252.999Z" fill="black"/>
<path opacity="0.2" d="M81.5339 252.999H78.7939V266.046H81.5339V252.999Z" fill="black"/>
<path opacity="0.2" d="M87.821 252.999H85.0811V266.046H87.821V252.999Z" fill="black"/>
<path opacity="0.2" d="M94.1081 252.999H91.3682V266.046H94.1081V252.999Z" fill="black"/>
<path opacity="0.2" d="M100.402 252.999H97.6621V266.046H100.402V252.999Z" fill="black"/>
<path opacity="0.2" d="M106.689 252.999H103.949V266.046H106.689V252.999Z" fill="black"/>
<path opacity="0.2" d="M112.976 252.999H110.236V266.046H112.976V252.999Z" fill="black"/>
<path opacity="0.2" d="M119.27 252.999H116.53V266.046H119.27V252.999Z" fill="black"/>
<path opacity="0.2" d="M125.557 252.999H122.817V266.046H125.557V252.999Z" fill="black"/>
<path d="M133.791 239.959H64.2725V253.006H133.791V239.959Z" fill="#5F80F8"/>
<path opacity="0.2" d="M133.791 239.959H64.2725V241.442H133.791V239.959Z" fill="black"/>
<path opacity="0.2" d="M72.0964 239.959H69.3564V253.006H72.0964V239.959Z" fill="black"/>
<path opacity="0.2" d="M78.3904 239.959H75.6504V253.006H78.3904V239.959Z" fill="black"/>
<path opacity="0.2" d="M84.6775 239.959H81.9375V253.006H84.6775V239.959Z" fill="black"/>
<path opacity="0.2" d="M90.9646 239.959H88.2246V253.006H90.9646V239.959Z" fill="black"/>
<path opacity="0.2" d="M97.2585 239.959H94.5186V253.006H97.2585V239.959Z" fill="black"/>
<path opacity="0.2" d="M103.546 239.959H100.806V253.006H103.546V239.959Z" fill="black"/>
<path opacity="0.2" d="M109.833 239.959H107.093V253.006H109.833V239.959Z" fill="black"/>
<path opacity="0.2" d="M116.127 239.959H113.387V253.006H116.127V239.959Z" fill="black"/>
<path opacity="0.2" d="M122.414 239.959H119.674V253.006H122.414V239.959Z" fill="black"/>
<path opacity="0.2" d="M128.701 239.959H125.961V253.006H128.701V239.959Z" fill="black"/>
<path d="M61.2207 239.952H130.739V226.905H61.2207V239.952Z" fill="#5F80F8"/>
<path opacity="0.2" d="M61.2207 228.388H130.739V226.905H61.2207V228.388Z" fill="black"/>
<path opacity="0.2" d="M122.909 239.952H125.649V226.905H122.909V239.952Z" fill="black"/>
<path opacity="0.2" d="M116.615 239.952H119.355V226.905H116.615V239.952Z" fill="black"/>
<path opacity="0.2" d="M110.328 239.952H113.068V226.905H110.328V239.952Z" fill="black"/>
<path opacity="0.2" d="M104.041 239.952H106.781V226.905H104.041V239.952Z" fill="black"/>
<path opacity="0.2" d="M97.7474 239.952H100.487V226.905H97.7474V239.952Z" fill="black"/>
<path opacity="0.2" d="M91.4602 239.952H94.2002V226.905H91.4602V239.952Z" fill="black"/>
<path opacity="0.2" d="M85.1731 239.952H87.9131V226.905H85.1731V239.952Z" fill="black"/>
<path opacity="0.2" d="M78.8792 239.952H81.6191V226.905H78.8792V239.952Z" fill="black"/>
<path opacity="0.2" d="M72.5921 239.952H75.332V226.905H72.5921V239.952Z" fill="black"/>
<path opacity="0.2" d="M66.305 239.952H69.0449V226.905H66.305V239.952Z" fill="black"/>
<path d="M64.046 226.912H133.564V213.866H64.046V226.912Z" fill="#5F80F8"/>
<path opacity="0.2" d="M64.046 215.348H133.564V213.866H64.046V215.348Z" fill="black"/>
<path opacity="0.2" d="M125.735 226.912H128.475V213.866H125.735V226.912Z" fill="black"/>
<path opacity="0.2" d="M119.454 226.912H122.194V213.866H119.454V226.912Z" fill="black"/>
<path opacity="0.2" d="M113.16 226.912H115.9V213.866H113.16V226.912Z" fill="black"/>
<path opacity="0.2" d="M106.865 226.912H109.605V213.866H106.865V226.912Z" fill="black"/>
<path opacity="0.2" d="M100.586 226.912H103.326V213.866H100.586V226.912Z" fill="black"/>
<path opacity="0.2" d="M94.2922 226.912H97.0322V213.866H94.2922V226.912Z" fill="black"/>
<path opacity="0.2" d="M87.9974 226.912H90.7373V213.866H87.9974V226.912Z" fill="black"/>
<path opacity="0.2" d="M81.7181 226.912H84.458V213.866H81.7181V226.912Z" fill="black"/>
<path opacity="0.2" d="M75.4241 226.912H78.1641V213.866H75.4241V226.912Z" fill="black"/>
<path opacity="0.2" d="M69.1292 226.912H71.8691V213.866H69.1292V226.912Z" fill="black"/>
<path d="M66.0499 213.866H135.568V200.819H66.0499V213.866Z" fill="#5F80F8"/>
<path opacity="0.2" d="M66.0499 202.301H135.568V200.819H66.0499V202.301Z" fill="black"/>
<path opacity="0.2" d="M127.738 213.866H130.478V200.819H127.738V213.866Z" fill="black"/>
<path opacity="0.2" d="M121.444 213.866H124.184V200.819H121.444V213.866Z" fill="black"/>
<path opacity="0.2" d="M115.157 213.866H117.896V200.819H115.157V213.866Z" fill="black"/>
<path opacity="0.2" d="M108.869 213.866H111.609V200.819H108.869V213.866Z" fill="black"/>
<path opacity="0.2" d="M102.575 213.866H105.315V200.819H102.575V213.866Z" fill="black"/>
<path opacity="0.2" d="M96.2884 213.866H99.0283V200.819H96.2884V213.866Z" fill="black"/>
<path opacity="0.2" d="M90.0013 213.866H92.7412V200.819H90.0013V213.866Z" fill="black"/>
<path opacity="0.2" d="M83.7073 213.866H86.4473V200.819H83.7073V213.866Z" fill="black"/>
<path opacity="0.2" d="M77.4202 213.866H80.1602V200.819H77.4202V213.866Z" fill="black"/>
<path opacity="0.2" d="M71.1331 213.866H73.873V200.819H71.1331V213.866Z" fill="black"/>
<path d="M62.8994 200.819H132.418V187.772H62.8994V200.819Z" fill="#5F80F8"/>
<path opacity="0.2" d="M62.8994 189.254H132.418V187.772H62.8994V189.254Z" fill="black"/>
<path opacity="0.2" d="M124.587 200.819H127.327V187.772H124.587V200.819Z" fill="black"/>
<path opacity="0.2" d="M118.307 200.819H121.047V187.772H118.307V200.819Z" fill="black"/>
<path opacity="0.2" d="M112.013 200.819H114.753V187.772H112.013V200.819Z" fill="black"/>
<path opacity="0.2" d="M105.719 200.819H108.459V187.772H105.719V200.819Z" fill="black"/>
<path opacity="0.2" d="M99.4388 200.819H102.179V187.772H99.4388V200.819Z" fill="black"/>
<path opacity="0.2" d="M93.1448 200.819H95.8848V187.772H93.1448V200.819Z" fill="black"/>
<path opacity="0.2" d="M86.8508 200.819H89.5908V187.772H86.8508V200.819Z" fill="black"/>
<path opacity="0.2" d="M80.5706 200.819H83.3105V187.772H80.5706V200.819Z" fill="black"/>
<path opacity="0.2" d="M74.2767 200.819H77.0166V187.772H74.2767V200.819Z" fill="black"/>
<path opacity="0.2" d="M67.9827 200.819H70.7227V187.772H67.9827V200.819Z" fill="black"/>
<path d="M283.667 136.156L255.942 140.893C255.408 140.983 254.914 141.229 254.521 141.599C254.128 141.97 253.854 142.449 253.735 142.975C253.616 143.501 253.656 144.051 253.851 144.554C254.046 145.057 254.387 145.491 254.83 145.8L259.942 149.408L228.599 193.589C228.395 193.877 228.136 194.121 227.838 194.308C227.539 194.496 227.206 194.623 226.858 194.682C226.51 194.741 226.154 194.731 225.81 194.652C225.466 194.574 225.141 194.429 224.853 194.225L178.784 161.749C178.2 161.339 177.478 161.177 176.775 161.297C176.071 161.417 175.445 161.811 175.031 162.391L82.1631 293.283H115.538L181.545 200.24C181.749 199.952 182.008 199.708 182.306 199.521C182.605 199.333 182.938 199.206 183.286 199.147C183.633 199.088 183.99 199.098 184.334 199.177C184.678 199.255 185.003 199.4 185.29 199.604L231.36 232.08C231.649 232.284 231.975 232.429 232.319 232.507C232.664 232.585 233.021 232.594 233.37 232.535C233.718 232.475 234.051 232.348 234.351 232.159C234.65 231.971 234.908 231.726 235.112 231.438L282.187 165.074L287.306 168.682C287.747 168.985 288.268 169.152 288.804 169.162C289.34 169.173 289.866 169.026 290.319 168.74C290.772 168.454 291.13 168.042 291.35 167.554C291.569 167.067 291.64 166.526 291.554 165.999L286.796 138.352C286.668 137.649 286.268 137.025 285.683 136.614C285.097 136.204 284.373 136.039 283.667 136.156Z" fill="#5F80F8"/>
<path opacity="0.2" d="M283.667 136.156L255.942 140.893C255.408 140.983 254.914 141.229 254.521 141.599C254.128 141.97 253.854 142.449 253.735 142.975C253.616 143.501 253.656 144.051 253.851 144.554C254.046 145.057 254.387 145.491 254.83 145.8L259.942 149.408L228.599 193.589C228.395 193.877 228.136 194.121 227.838 194.308C227.539 194.496 227.206 194.623 226.858 194.682C226.51 194.741 226.154 194.731 225.81 194.652C225.466 194.574 225.141 194.429 224.853 194.225L178.784 161.749C178.2 161.339 177.478 161.177 176.775 161.297C176.071 161.417 175.445 161.811 175.031 162.391L82.1631 293.283H115.538L181.545 200.24C181.749 199.952 182.008 199.708 182.306 199.521C182.605 199.333 182.938 199.206 183.286 199.147C183.633 199.088 183.99 199.098 184.334 199.177C184.678 199.255 185.003 199.4 185.29 199.604L231.36 232.08C231.649 232.284 231.975 232.429 232.319 232.507C232.664 232.585 233.021 232.594 233.37 232.535C233.718 232.475 234.051 232.348 234.351 232.159C234.65 231.971 234.908 231.726 235.112 231.438L282.187 165.074L287.306 168.682C287.747 168.985 288.268 169.152 288.804 169.162C289.34 169.173 289.866 169.026 290.319 168.74C290.772 168.454 291.13 168.042 291.35 167.554C291.569 167.067 291.64 166.526 291.554 165.999L286.796 138.352C286.668 137.649 286.268 137.025 285.683 136.614C285.097 136.204 284.373 136.039 283.667 136.156Z" fill="black"/>
<path opacity="0.2" d="M113.449 289.436H89.9579C89.9255 289.434 89.8941 289.425 89.8667 289.407C89.8394 289.39 89.8171 289.366 89.8022 289.337C89.7853 289.309 89.7764 289.278 89.7764 289.245C89.7764 289.213 89.7853 289.181 89.8022 289.153L175.838 167.863C176.054 167.554 176.329 167.29 176.647 167.088C176.965 166.885 177.32 166.747 177.691 166.681C178.063 166.616 178.444 166.624 178.813 166.706C179.181 166.787 179.53 166.94 179.839 167.157L225.901 199.633C226.172 199.828 226.479 199.968 226.805 200.044C227.13 200.12 227.468 200.13 227.797 200.074C228.127 200.018 228.442 199.897 228.725 199.719C229.007 199.54 229.25 199.306 229.441 199.032L265.344 148.426L259.68 144.409C259.649 144.391 259.626 144.363 259.613 144.329C259.6 144.296 259.599 144.26 259.609 144.226C259.617 144.192 259.634 144.161 259.66 144.137C259.685 144.114 259.716 144.098 259.751 144.092L283.115 140.103C283.137 140.099 283.16 140.099 283.182 140.104C283.204 140.109 283.225 140.118 283.244 140.132C283.262 140.145 283.278 140.161 283.29 140.181C283.301 140.2 283.309 140.221 283.313 140.244L287.313 163.542C287.318 163.577 287.314 163.612 287.3 163.645C287.286 163.677 287.264 163.705 287.235 163.725C287.206 163.744 287.171 163.754 287.136 163.754C287.101 163.754 287.066 163.744 287.037 163.725L281.373 159.708L234.397 225.931C234.181 226.239 233.907 226.501 233.59 226.703C233.272 226.906 232.918 227.043 232.547 227.109C232.176 227.174 231.796 227.166 231.428 227.086C231.061 227.005 230.713 226.852 230.404 226.637L184.334 194.161C184.065 193.971 183.76 193.836 183.438 193.763C183.116 193.69 182.783 193.681 182.457 193.737C182.132 193.793 181.821 193.912 181.541 194.088C181.262 194.263 181.02 194.492 180.83 194.761L113.598 289.358C113.581 289.382 113.559 289.401 113.533 289.415C113.507 289.428 113.479 289.436 113.449 289.436ZM90.2978 289.083H113.357L180.433 194.528C180.87 193.906 181.537 193.482 182.287 193.35C183.037 193.217 183.809 193.387 184.433 193.822L230.503 226.298C230.773 226.488 231.077 226.624 231.399 226.697C231.721 226.769 232.055 226.778 232.38 226.722C232.706 226.667 233.017 226.547 233.296 226.372C233.575 226.196 233.817 225.967 234.008 225.698L281.083 159.334C281.095 159.314 281.111 159.298 281.131 159.285C281.15 159.273 281.173 159.266 281.196 159.264C281.217 159.253 281.24 159.248 281.263 159.248C281.286 159.248 281.309 159.253 281.33 159.264L286.817 163.132L282.916 140.533L260.182 144.416L265.669 148.285C265.706 148.313 265.731 148.353 265.74 148.398C265.758 148.441 265.758 148.489 265.74 148.532L229.738 199.287C229.522 199.594 229.247 199.855 228.929 200.055C228.61 200.255 228.255 200.39 227.883 200.452C227.14 200.575 226.377 200.402 225.759 199.971L179.697 167.495C179.426 167.3 179.119 167.16 178.793 167.084C178.468 167.008 178.13 166.998 177.8 167.054C177.471 167.11 177.156 167.231 176.873 167.41C176.591 167.588 176.348 167.822 176.157 168.096L90.2978 289.083Z" fill="white"/>
<path d="M246.42 248.968H243.51V292.14H246.42V248.968Z" fill="#263238"/>
<path d="M271.88 225.444H268.97V292.14H271.88V225.444Z" fill="#263238"/>
<path d="M297.806 241.442H294.896V292.14H297.806V241.442Z" fill="#263238"/>
<path d="M243.517 248.968H223.112V292.14H243.517V248.968Z" fill="#5F80F8"/>
<path opacity="0.2" d="M223.112 248.968V274.567L233.308 248.968H223.112Z" fill="white"/>
<path d="M268.97 225.444H248.565V292.14H268.97V225.444Z" fill="#5F80F8"/>
<path opacity="0.2" d="M248.565 225.444V251.044L258.768 225.444H248.565Z" fill="white"/>
<path d="M294.904 241.442H274.499V292.14H294.904V241.442Z" fill="#5F80F8"/>
<path opacity="0.2" d="M274.499 241.442V264.225L284.701 241.442H274.499Z" fill="white"/>
<path d="M181.971 288.61L187.443 287.586L186.516 274.673L181.043 275.704L181.971 288.61Z" fill="#FFD8B4"/>
<path d="M145.14 288.462H150.712L152.093 275.605H146.528L145.14 288.462Z" fill="#FFD8B4"/>
<path d="M151.165 287.819H144.383C144.272 287.82 144.165 287.858 144.079 287.927C143.993 287.996 143.932 288.093 143.908 288.2L142.804 293.142C142.778 293.262 142.78 293.387 142.81 293.506C142.839 293.625 142.895 293.737 142.973 293.832C143.051 293.926 143.15 294.003 143.261 294.054C143.373 294.106 143.495 294.132 143.618 294.131C145.806 294.095 147.399 293.961 150.146 293.961C151.838 293.961 156.943 294.138 159.279 294.138C161.615 294.138 161.92 291.836 160.964 291.624C156.674 290.692 153.445 289.4 152.072 288.172C151.824 287.946 151.501 287.82 151.165 287.819Z" fill="#263238"/>
<path d="M187.329 286.386L181.332 287.417C181.224 287.436 181.125 287.49 181.052 287.572C180.979 287.655 180.935 287.759 180.929 287.868L180.688 292.916C180.682 293.038 180.704 293.16 180.751 293.273C180.799 293.385 180.871 293.485 180.963 293.566C181.055 293.647 181.164 293.706 181.282 293.739C181.4 293.772 181.523 293.778 181.644 293.757C183.768 293.347 186.904 292.683 189.616 292.217C192.795 291.674 194.346 291.278 198.07 290.636C200.321 290.248 199.833 287.812 198.848 287.748C194.395 287.551 192.823 288.229 188.724 286.584C188.287 286.389 187.804 286.321 187.329 286.386Z" fill="#263238"/>
<path d="M168.264 118.57C168.455 119.134 168.604 119.544 168.781 119.982C168.958 120.419 169.135 120.885 169.319 121.33C169.687 122.227 170.076 123.102 170.487 123.978C171.307 125.734 172.227 127.443 173.241 129.096C175.317 132.632 178.021 135.761 181.22 138.331C182.111 139.008 183.059 139.608 184.052 140.124C184.307 140.265 184.569 140.385 184.838 140.505C185.107 140.625 185.348 140.738 185.666 140.858C186.294 141.088 186.941 141.263 187.599 141.381C188.668 141.56 189.751 141.652 190.835 141.656C191.854 141.656 192.831 141.656 193.794 141.564C197.55 141.265 201.267 140.594 204.889 139.559L204.329 135.429C200.789 135.295 197.2 135.182 193.83 134.885C192.987 134.808 192.159 134.709 191.373 134.589C190.653 134.491 189.943 134.336 189.249 134.123C189.022 134.058 188.804 133.968 188.598 133.855C188.364 133.713 188.045 133.579 187.783 133.396C187.206 133.033 186.659 132.624 186.148 132.174C185.019 131.175 184 130.058 183.111 128.842C182.141 127.552 181.257 126.201 180.463 124.797C179.634 123.385 178.891 121.881 178.162 120.37C177.808 119.615 177.454 118.845 177.142 118.075L176.668 116.925L176.236 115.837L168.264 118.57Z" fill="#FFD8B4"/>
<path d="M170.947 112.06C160.787 112.06 171.953 133.946 171.953 133.946L184.916 128.715C184.916 128.715 181.376 121.104 179.047 116.748C178.292 115.272 177.127 114.045 175.69 113.214C174.253 112.382 172.606 111.982 170.947 112.06Z" fill="#5F80F8"/>
<g opacity="0.3">
<path opacity="0.3" d="M170.947 112.06C160.787 112.06 171.953 133.946 171.953 133.946L184.916 128.715C184.916 128.715 181.376 121.104 179.047 116.748C178.292 115.272 177.127 114.045 175.69 113.214C174.253 112.382 172.606 111.982 170.947 112.06Z" fill="white"/>
</g>
<path opacity="0.2" d="M173.432 119.134C177.149 121.74 179.733 126.576 180.47 130.501L173.064 133.494C171.719 131.489 170.409 129.124 168.965 127.049C168.568 125.969 168.179 124.832 167.839 123.681L173.432 119.134Z" fill="black"/>
<path d="M201.143 135.958L205.596 133.452L209.009 139.806C207.038 140.139 205.021 140.088 203.069 139.658L201.143 135.958Z" fill="#FFD8B4"/>
<path d="M209.858 133.452L212.336 139.058L209.037 139.827L205.624 133.452H209.858Z" fill="#FFD8B4"/>
<path opacity="0.2" d="M186.516 274.68L186.99 281.331L181.517 282.355L181.043 275.704L186.516 274.68Z" fill="black"/>
<path opacity="0.2" d="M146.528 275.612H152.1L151.377 282.242H145.813L146.528 275.612Z" fill="black"/>
<path d="M143.243 114.482C144.876 120.474 146.059 126.579 146.783 132.746C147.314 137.046 147.626 141.148 147.824 144.875C148.291 153.601 148.093 160.252 148.355 162.525C152.709 162.229 169.113 161.113 178.091 160.464C182.134 128.884 174.409 112.618 174.409 112.618C172.07 112.18 169.705 111.885 167.329 111.736C166.827 111.736 166.31 111.686 165.793 111.679C161.569 111.728 157.352 112.021 153.162 112.555C152.369 112.646 151.562 112.766 150.783 112.893C146.741 113.515 143.243 114.482 143.243 114.482Z" fill="#5F80F8"/>
<g opacity="0.3">
<path opacity="0.3" d="M143.243 114.482C144.876 120.474 146.059 126.579 146.783 132.746C147.314 137.046 147.626 141.148 147.824 144.875C148.291 153.601 148.093 160.252 148.355 162.525C152.709 162.229 169.113 161.113 178.091 160.464C182.134 128.884 174.409 112.618 174.409 112.618C172.07 112.18 169.705 111.885 167.329 111.736C166.827 111.736 166.31 111.686 165.793 111.679C161.569 111.728 157.352 112.021 153.162 112.555C152.369 112.646 151.562 112.766 150.783 112.893C146.741 113.515 143.243 114.482 143.243 114.482Z" fill="white"/>
</g>
<path opacity="0.2" d="M150.74 122.474C150.797 127.018 149.52 131.479 147.066 135.309C146.981 134.462 146.882 133.607 146.776 132.746C146.379 129.513 145.869 126.166 145.197 122.784L150.74 122.474Z" fill="black"/>
<path d="M153.36 98.2651C154.436 102.268 155.753 109.632 153.098 112.533C154.44 113.748 156.029 114.661 157.756 115.21C159.483 115.759 161.309 115.932 163.109 115.717C166.599 115.4 166.599 112.95 165.728 111.658C161.119 110.895 161.006 107.535 161.572 104.33L153.36 98.2651Z" fill="#FFD8B4"/>
<path d="M165.665 117.038C165.583 117.661 165.436 118.274 165.226 118.866C165.166 119.055 165.047 119.22 164.887 119.336C164.726 119.453 164.533 119.516 164.334 119.516C163.752 119.507 163.171 119.557 162.599 119.664C162.479 119.692 162.354 119.695 162.232 119.673C162.11 119.652 161.994 119.605 161.891 119.537C161.183 119.092 160.277 118.436 160.511 117.617C160.787 116.656 162.444 115.788 162.444 115.788C162.444 115.788 165.29 116.487 165.665 117.038Z" fill="#263238"/>
<path d="M164.171 118.866C165.311 121.351 167.945 137.265 168.27 139.672C168.596 142.079 167.484 145.962 165.941 149.048C164.167 146.622 163.156 143.724 163.038 140.724C162.833 137.434 162.635 119.262 162.635 119.262L164.171 118.866Z" fill="#263238"/>
<path d="M162.465 115.788C161.411 116.665 160.54 117.739 159.902 118.951C158.111 118.81 150.202 115.35 151.328 112.682C152.312 112.406 153.176 111.841 153.452 112.131C153.827 112.703 157.183 114.722 162.465 115.788Z" fill="white"/>
<path d="M162.465 115.788C162.465 115.788 165.502 116.812 166.21 118.534C168.044 117.722 169.042 114.058 167.421 111.651C166.409 111.566 165.439 111.065 165.255 111.397C164.971 112.025 165.743 113.712 162.465 115.788Z" fill="white"/>
<path opacity="0.2" d="M156.708 100.743L161.572 104.323C161.426 105.069 161.347 105.828 161.339 106.589C159.59 106.462 157.091 104.732 156.765 102.939C156.611 102.217 156.592 101.472 156.708 100.743Z" fill="black"/>
<path d="M165.155 85.4088C167.279 86.2419 168.064 94.4386 163.739 93.6337C159.413 92.8289 160.878 83.7356 165.155 85.4088Z" fill="#263238"/>
<path d="M151.129 93.6055C152.864 98.837 153.607 101.986 157.02 104.012C162.16 107.055 168.1 102.889 167.973 97.2485C167.859 92.1723 165.049 84.4628 159.264 83.7215C157.991 83.5497 156.694 83.7055 155.498 84.1743C154.302 84.6432 153.246 85.4093 152.431 86.3999C151.616 87.3905 151.068 88.5727 150.84 89.8339C150.612 91.0951 150.712 92.3935 151.129 93.6055Z" fill="#FFD8B4"/>
<path d="M153.098 97.2061C155.3 97.2485 157.105 90.5979 152.666 88.7341C156.164 88.3317 166.904 88.9177 168.83 84.131C170.756 79.3443 163.286 78.603 160.745 80.4104C161.552 77.777 158.267 73.894 152.362 77.424C146.457 80.954 146.528 85.31 147.08 86.602C144.446 87.308 143.93 93.1537 146.839 93.9373C145.133 96.2954 146.606 101.251 151.208 100.192C151.364 103.08 154.592 101.816 154.394 99.5994C154.196 97.3826 153.098 97.2061 153.098 97.2061Z" fill="#263238"/>
<path d="M162.91 98.4839C162.288 98.6655 161.631 98.6961 160.994 98.5733C160.358 98.4505 159.76 98.1778 159.25 97.7779C159.224 97.7504 159.209 97.7137 159.209 97.6756C159.209 97.6374 159.224 97.6008 159.25 97.5732C159.277 97.5473 159.312 97.5328 159.349 97.5328C159.386 97.5328 159.422 97.5473 159.448 97.5732C159.919 97.9494 160.472 98.2095 161.063 98.3321C161.653 98.4548 162.264 98.4367 162.847 98.2792C162.864 98.2739 162.883 98.2723 162.901 98.2745C162.92 98.2766 162.937 98.2825 162.953 98.2918C162.969 98.3011 162.983 98.3135 162.994 98.3283C163.005 98.3432 163.013 98.3601 163.017 98.378C163.011 98.4042 162.999 98.4283 162.98 98.4471C162.961 98.466 162.937 98.4788 162.91 98.4839Z" fill="#263238"/>
<path d="M150.032 99.1547C151.05 100.101 152.401 100.609 153.792 100.567C155.633 100.489 155.987 98.7099 155.002 97.2767C154.11 95.9847 152.085 94.4527 150.471 95.2364C150.12 95.412 149.819 95.6724 149.594 95.9938C149.369 96.3152 149.229 96.6874 149.185 97.0767C149.142 97.466 149.196 97.86 149.344 98.2229C149.492 98.5858 149.729 98.9061 150.032 99.1547Z" fill="#FFD8B4"/>
<path d="M188.837 279.178L179.633 281.345C179.633 281.345 176.376 245.586 173.58 225.938C172.836 220.728 171.689 213.4 169.941 205.591C167.739 195.757 164.985 185.117 162.705 176.786C160.319 168.011 158.499 161.805 158.499 161.805L178.026 160.443C178.026 160.443 188.597 206.403 189.715 223.277C190.912 240.884 188.837 279.178 188.837 279.178Z" fill="#263238"/>
<path opacity="0.2" d="M169.99 205.591C167.789 195.757 165.034 185.117 162.755 176.786L164.787 172.43C169.608 178.17 170.911 195.94 169.99 205.591Z" fill="black"/>
<path d="M167.52 161.177C167.52 161.177 165.396 208.705 163.059 224.801C160.489 242.451 153.954 280.957 153.954 280.957H143.752C143.752 280.957 146.584 244.336 148.503 227.075C150.69 207.413 148.354 162.511 148.354 162.511L167.52 161.177Z" fill="#263238"/>
<path d="M155.173 281.176H143.165L142.634 277.596L155.888 277.363L155.173 281.176Z" fill="#5F80F8"/>
<path d="M189.425 279.792L178.968 281.754L177.785 278.119L189.708 275.866L189.425 279.792Z" fill="#5F80F8"/>
<path d="M159.194 93.189C159.314 93.6196 159.633 93.895 159.902 93.8385C160.171 93.782 160.327 93.3513 160.214 92.9207C160.1 92.49 159.775 92.2147 159.506 92.2711C159.237 92.3276 159.081 92.7583 159.194 93.189Z" fill="#263238"/>
<path d="M164.107 91.904C164.221 92.3347 164.546 92.61 164.815 92.5465C165.084 92.483 165.233 92.0664 165.12 91.6287C165.007 91.191 164.681 90.9227 164.412 90.9792C164.143 91.0357 163.994 91.4663 164.107 91.904Z" fill="#263238"/>
<path d="M163.017 92.3065C163.886 93.4936 164.912 94.5576 166.068 95.4693C165.495 96.3801 164.015 96.3024 164.015 96.3024L163.017 92.3065Z" fill="#FFBC7E"/>
<path d="M157.671 91.784C157.721 91.781 157.768 91.7641 157.808 91.7354C157.848 91.7067 157.879 91.6673 157.898 91.6216C158.017 91.3132 158.208 91.037 158.454 90.8151C158.7 90.5932 158.994 90.4318 159.314 90.3438C159.348 90.3373 159.38 90.3242 159.409 90.3053C159.438 90.2863 159.463 90.2619 159.482 90.2334C159.501 90.2048 159.515 90.1728 159.522 90.139C159.529 90.1053 159.529 90.0705 159.523 90.0367C159.516 90.0028 159.503 89.9706 159.484 89.9418C159.465 89.913 159.441 89.8883 159.412 89.8689C159.383 89.8496 159.351 89.8361 159.317 89.8291C159.283 89.8221 159.249 89.8219 159.215 89.8284C158.809 89.9316 158.434 90.1304 158.121 90.408C157.808 90.6856 157.566 91.034 157.416 91.424C157.402 91.4559 157.395 91.4903 157.395 91.5251C157.394 91.5599 157.401 91.5944 157.414 91.6267C157.427 91.6589 157.447 91.6882 157.472 91.7128C157.496 91.7374 157.526 91.7568 157.558 91.7699C157.594 91.7833 157.633 91.7882 157.671 91.784Z" fill="#263238"/>
<path d="M166.181 89.4472C166.236 89.4408 166.288 89.4188 166.33 89.3836C166.355 89.3593 166.375 89.3302 166.389 89.2981C166.402 89.2659 166.409 89.2314 166.409 89.1965C166.409 89.1617 166.402 89.1271 166.389 89.095C166.375 89.0629 166.355 89.0338 166.33 89.0095C166.065 88.6861 165.726 88.4308 165.342 88.265C164.957 88.0991 164.539 88.0276 164.121 88.0564C164.053 88.0685 163.992 88.1057 163.95 88.1606C163.908 88.2155 163.888 88.2841 163.895 88.3529C163.905 88.4216 163.942 88.4836 163.997 88.5258C164.053 88.5679 164.123 88.5869 164.192 88.5788C164.523 88.5638 164.853 88.6263 165.155 88.7611C165.458 88.896 165.724 89.0995 165.934 89.3554C165.963 89.3907 166.002 89.4176 166.045 89.4337C166.089 89.4498 166.136 89.4544 166.181 89.4472Z" fill="#263238"/>
<path d="M152.999 288.793C153.38 288.822 153.759 288.723 154.075 288.511C154.176 288.425 154.253 288.315 154.3 288.192C154.347 288.069 154.362 287.936 154.344 287.805C154.346 287.728 154.326 287.653 154.286 287.588C154.245 287.523 154.187 287.471 154.118 287.438C153.502 287.12 151.711 288.221 151.505 288.349C151.484 288.361 151.467 288.38 151.457 288.403C151.446 288.426 151.444 288.451 151.449 288.476C151.451 288.503 151.462 288.528 151.48 288.548C151.498 288.569 151.521 288.583 151.548 288.589C152.022 288.71 152.509 288.779 152.999 288.793ZM153.828 287.643C153.886 287.638 153.945 287.65 153.997 287.678C154.033 287.678 154.075 287.727 154.082 287.833C154.095 287.921 154.085 288.01 154.054 288.092C154.023 288.175 153.972 288.248 153.905 288.306C153.284 288.589 152.577 288.624 151.93 288.405C152.509 288.03 153.156 287.771 153.835 287.643H153.828Z" fill="#5F80F8"/>
<path d="M151.583 288.596H151.647C152.22 288.285 153.339 287.064 153.219 286.478C153.199 286.381 153.147 286.294 153.071 286.231C152.995 286.168 152.9 286.133 152.801 286.132C152.7 286.118 152.597 286.125 152.499 286.155C152.401 286.184 152.311 286.234 152.234 286.301C151.59 286.824 151.456 288.419 151.449 288.497C151.448 288.521 151.454 288.544 151.465 288.565C151.476 288.586 151.492 288.604 151.512 288.617C151.537 288.617 151.562 288.61 151.583 288.596ZM152.709 286.343H152.765C152.935 286.343 152.95 286.442 152.957 286.478C153.027 286.838 152.319 287.763 151.746 288.193C151.783 287.561 152.013 286.955 152.404 286.456C152.489 286.383 152.597 286.343 152.709 286.343Z" fill="#5F80F8"/>
<path d="M187.995 287.049C188.908 287.049 190.516 287.014 191.025 286.386C191.106 286.289 191.161 286.174 191.184 286.05C191.208 285.927 191.199 285.799 191.16 285.68C191.145 285.611 191.112 285.546 191.065 285.493C191.018 285.44 190.958 285.4 190.891 285.376C190.183 285.129 188.144 286.612 187.917 286.788C187.895 286.804 187.879 286.826 187.872 286.852C187.864 286.877 187.865 286.905 187.875 286.929C187.878 286.96 187.892 286.989 187.914 287.011C187.935 287.033 187.964 287.046 187.995 287.049ZM190.785 285.637C190.813 285.647 190.837 285.663 190.856 285.686C190.875 285.708 190.887 285.736 190.891 285.765C190.914 285.839 190.918 285.918 190.903 285.994C190.889 286.07 190.855 286.142 190.806 286.202C190.523 286.562 189.631 286.767 188.385 286.774C189.227 286.223 190.36 285.553 190.785 285.644V285.637Z" fill="#5F80F8"/>
<path d="M187.996 287.05C188.028 287.062 188.063 287.062 188.095 287.05C188.704 286.64 189.808 285.228 189.603 284.628C189.553 284.487 189.419 284.324 189.058 284.346C188.922 284.352 188.789 284.385 188.667 284.445C188.546 284.504 188.437 284.588 188.35 284.692C187.748 285.398 187.854 286.887 187.861 286.951C187.863 286.973 187.87 286.995 187.882 287.013C187.895 287.032 187.912 287.047 187.932 287.057L187.996 287.05ZM189.228 284.6C189.327 284.6 189.348 284.67 189.355 284.692C189.475 285.052 188.746 286.139 188.144 286.654C188.095 286.022 188.246 285.389 188.576 284.847C188.637 284.773 188.713 284.713 188.798 284.669C188.883 284.625 188.976 284.599 189.072 284.593C189.124 284.583 189.177 284.586 189.228 284.6Z" fill="#5F80F8"/>
<path d="M168.497 139.277L170.756 137.667L207.784 189.353L205.526 190.963C198.644 195.612 190.212 197.395 182.03 195.931C173.848 194.468 166.564 189.873 161.732 183.128C156.9 176.383 154.902 168.022 156.166 159.83C157.43 151.637 161.856 144.261 168.497 139.277Z" fill="#5F80F8"/>
<path opacity="0.1" d="M168.497 139.277L170.756 137.667L207.784 189.353L205.526 190.963C198.644 195.612 190.212 197.395 182.03 195.931C173.848 194.468 166.564 189.873 161.732 183.128C156.9 176.383 154.902 168.022 156.166 159.83C157.43 151.637 161.856 144.261 168.497 139.277Z" fill="black"/>
<path d="M223.339 167.552C223.866 163.185 223.541 158.757 222.383 154.512L221.675 154.696C222.813 158.855 223.13 163.195 222.61 167.474L223.339 167.552Z" fill="#5F80F8"/>
<path d="M221.194 176.073C221.825 174.467 222.334 172.815 222.716 171.131L222.008 170.976C221.63 172.62 221.131 174.235 220.514 175.805L221.194 176.073Z" fill="#5F80F8"/>
<path d="M182.833 194.603C165.606 191.065 154.518 174.271 158.067 157.094C161.615 139.916 178.457 128.859 195.683 132.398C212.909 135.936 223.997 152.73 220.449 169.908C216.9 187.085 200.059 198.142 182.833 194.603Z" fill="#5F80F8"/>
<path d="M196.788 156.136L191.79 163.104C193.527 165.279 194.454 167.359 194.572 169.345C194.662 171.375 194.038 173.373 192.809 174.993C191.641 176.72 189.842 177.924 187.797 178.347C185.682 178.748 183.494 178.342 181.665 177.21L180.462 178.89L178.04 177.168L179.251 175.487C177.77 174.247 176.74 172.555 176.32 170.672C176.003 168.823 176.302 166.922 177.17 165.257L181.786 167.714C181.449 168.348 181.282 169.058 181.299 169.775C181.316 170.492 181.518 171.192 181.885 171.809L186.544 165.3C184.391 162.673 183.242 160.443 183.096 158.607C182.989 156.644 183.598 154.708 184.809 153.157C186.089 151.256 188.041 149.907 190.275 149.38C192.629 148.896 195.08 149.282 197.171 150.467L198.374 148.786L200.796 150.509L199.649 152.112C201.299 153.525 202.412 155.462 202.799 157.597C203.095 159.922 202.628 162.28 201.468 164.318L196.774 161.678C197.217 160.738 197.437 159.709 197.418 158.67C197.41 157.788 197.194 156.92 196.788 156.136ZM184.271 173.609C185.044 173.86 185.877 173.86 186.65 173.609C187.396 173.372 188.045 172.899 188.498 172.261C188.916 171.671 189.139 170.965 189.135 170.242C189.127 169.398 188.881 168.574 188.427 167.863L184.271 173.609ZM194.537 154.173C193.656 153.748 192.654 153.646 191.705 153.884C190.753 154.117 189.919 154.69 189.361 155.493C188.85 156.183 188.599 157.031 188.653 157.887C188.789 158.92 189.233 159.89 189.928 160.668L194.537 154.173Z" fill="white"/>
<path opacity="0.1" d="M163.471 160.866C164.953 154.449 168.834 148.837 174.322 145.175C179.81 141.512 186.492 140.075 193.006 141.155C199.52 142.235 205.376 145.752 209.38 150.989C213.383 156.226 215.233 162.788 214.553 169.338C215.348 165.897 215.428 162.33 214.788 158.857C214.148 155.384 212.802 152.079 210.832 149.144C208.863 146.21 206.311 143.708 203.336 141.794C200.36 139.88 197.023 138.594 193.53 138.014C190.037 137.435 186.462 137.575 183.025 138.426C179.588 139.276 176.362 140.82 173.546 142.96C170.73 145.101 168.383 147.794 166.651 150.874C164.918 153.953 163.836 157.354 163.471 160.866Z" fill="black"/>
<path d="M142.528 117.518C141.82 118.414 141.232 119.219 140.638 120.095C140.043 120.97 139.462 121.81 138.896 122.686C137.77 124.437 136.701 126.216 135.71 128.072C134.719 129.929 133.798 131.828 132.963 133.791L132.354 135.281L131.802 136.813C131.618 137.314 131.462 137.851 131.299 138.373L131.065 139.164L131.002 139.361L130.895 139.792C130.828 140.085 130.781 140.382 130.754 140.682C130.687 141.677 130.819 142.675 131.143 143.619C131.388 144.328 131.708 145.01 132.099 145.652C132.745 146.702 133.495 147.686 134.336 148.589C135.83 150.172 137.452 151.629 139.186 152.945C142.483 155.455 145.994 157.673 149.679 159.574L151.973 156.086C149.006 153.566 146.04 150.912 143.356 148.222C142.052 146.934 140.841 145.556 139.731 144.099C139.26 143.49 138.852 142.834 138.514 142.143C138.409 141.917 138.328 141.68 138.273 141.437C138.273 141.282 138.273 141.253 138.273 141.437C138.283 141.488 138.283 141.541 138.273 141.592C138.274 141.613 138.274 141.635 138.273 141.656L138.337 141.501L138.584 140.879C138.754 140.456 138.903 140.039 139.101 139.623L139.668 138.373L140.269 137.123C141.112 135.464 142.011 133.812 142.988 132.181C143.965 130.55 144.978 128.927 146.033 127.331C146.549 126.526 147.087 125.729 147.626 124.945L149.24 122.65L142.528 117.518Z" fill="#FFD8B4"/>
<path d="M143.242 114.482C138.024 115.534 133.443 128.256 133.443 128.256L144.332 137.102C144.332 137.102 147.872 130.635 150.761 124.394C153.869 117.595 149.565 113.211 143.242 114.482Z" fill="#5F80F8"/>
<g opacity="0.3">
<path opacity="0.3" d="M143.242 114.482C138.024 115.534 133.443 128.256 133.443 128.256L144.332 137.102C144.332 137.102 147.872 130.635 150.761 124.394C153.869 117.595 149.565 113.211 143.242 114.482Z" fill="white"/>
</g>
<path d="M150.684 155.599L156.306 156.214L152.659 162.299C152.659 162.299 147.987 160.718 148.553 158.162L150.684 155.599Z" fill="#FFD8B4"/>
<path d="M159.654 159.426L156.405 164.318L152.659 162.299L156.305 156.214L159.654 159.426Z" fill="#FFD8B4"/>
</svg>
