<svg width="29" height="19" viewBox="0 0 29 19" fill="none" xmlns="http://www.w3.org/2000/svg">
<path d="M28.5941 8.9017L23.273 1.05757C23.0523 0.732252 22.7533 0.465513 22.4025 0.281025C22.0517 0.0965371 21.66 6.18415e-06 21.2622 0H7.73781C7.33997 1.25228e-06 6.94828 0.0965302 6.59751 0.281019C6.24674 0.465508 5.94774 0.73225 5.72705 1.05757L0.405899 8.9017C0.141228 9.29181 -5.8268e-06 9.7502 1.80298e-10 10.2191L1.80299e-10 16.625C1.80299e-10 17.9367 1.08196 19 2.41667 19H26.5833C27.918 19 29 17.9367 29 16.625V10.2191C29 9.7502 28.8588 9.29181 28.5941 8.9017ZM8.16894 3.16667H20.8311L25.1274 9.5H18.9306L17.3194 12.6667H11.6806L10.0694 9.5H3.87261L8.16894 3.16667Z" fill="url(#paint0_linear)"/>
<defs>
<linearGradient id="paint0_linear" x1="14.5387" y1="0" x2="14.5387" y2="19" gradientUnits="userSpaceOnUse">
<stop stop-color="#5F80F8"/>
<stop offset="1" stop-color="#5F80F8"/>
</linearGradient>
</defs>
</svg>
