<svg width="266" height="267" viewBox="0 0 266 267" fill="none" xmlns="http://www.w3.org/2000/svg">
<path d="M58.5842 30.63C58.5842 30.63 62.1666 27.8054 63.0775 25.9912C63.843 24.4602 64.4248 22.2633 63.621 20.6328C63.4464 20.2375 63.1901 19.8836 62.869 19.5944C62.5478 19.3052 62.169 19.0873 61.7576 18.955C61.3462 18.8227 60.9114 18.779 60.4819 18.8267C60.0524 18.8745 59.6378 19.0126 59.2655 19.232C57.0609 20.6022 56.8236 25.2793 57.3901 27.5298C57.436 27.7058 58.5459 30.6606 58.5842 30.63Z" fill="#5F80F8"/>
<path d="M25.4778 54.1913C25.6232 54.3291 28.1799 56.1739 28.1952 56.1356C28.2105 56.0974 29.619 51.803 29.3817 49.7822C29.1827 48.0599 28.4478 45.9548 26.8709 44.998C26.507 44.7654 26.098 44.6126 25.6708 44.5493C25.2436 44.4861 24.8078 44.5139 24.3921 44.6311C23.9765 44.7482 23.5902 44.9519 23.2589 45.2289C22.9275 45.5058 22.6585 45.8497 22.4695 46.238C21.3825 48.5957 23.7708 52.6221 25.4778 54.1913Z" fill="#5F80F8"/>
<path d="M100.502 34.9166C100.502 34.9166 87.3969 48.4502 87.4888 65.0687C87.5806 81.6872 100.785 95.106 100.785 95.106C100.785 95.106 113.898 81.5801 113.798 64.9539C113.699 48.3278 100.502 34.9166 100.502 34.9166Z" fill="#5F80F8"/>
<path d="M81.8167 75.0199C81.9891 74.8353 82.1477 74.6383 82.2913 74.4305C83.2405 72.9838 84.0595 70.8787 83.4471 69.1487C83.3189 68.7363 83.1049 68.3556 82.8192 68.0317C82.5334 67.7078 82.1823 67.4481 81.7891 67.2695C81.3958 67.0909 80.9692 66.9976 80.5372 66.9956C80.1053 66.9936 79.6779 67.0831 79.2829 67.258C77.4994 68.1 76.6267 70.9553 76.443 73.29C75.7311 73.1292 75.0881 73.0067 74.537 72.9072C74.3074 72.3791 74.0701 71.8509 73.8251 71.315C73.5802 70.7792 73.3888 70.2051 73.1591 69.6386C72.8453 68.8119 72.5697 67.9393 72.2865 67.0666C73.3199 66.6074 76.3359 65.1912 77.4611 63.9512C78.5864 62.7111 79.7575 60.7055 79.4054 58.9067C79.3406 58.4802 79.1864 58.0722 78.9529 57.7095C78.7194 57.3467 78.4119 57.0374 78.0506 56.8018C77.6892 56.5662 77.2822 56.4096 76.856 56.3423C76.4299 56.275 75.9944 56.2985 75.578 56.4112C73.0826 57.1767 71.6205 61.6011 71.5746 63.9205C71.5746 63.9894 71.5746 64.4793 71.6588 65.0688C71.4138 64.2114 71.1536 63.3541 70.9316 62.4738C70.2886 59.986 69.7145 57.4293 69.1327 54.8726C69.0103 54.3444 68.8801 53.8086 68.7576 53.2804C69.6303 52.89 72.9142 51.3897 74.116 50.0884C75.3178 48.7871 76.4124 46.8428 76.0603 45.0439C75.9955 44.6174 75.8413 44.2094 75.6078 43.8467C75.3743 43.4839 75.0668 43.1746 74.7054 42.939C74.3441 42.7034 73.937 42.5468 73.5109 42.4795C73.0848 42.4122 72.6493 42.4357 72.2329 42.5484C69.7451 43.3139 68.283 47.7384 68.2295 50.0578C68.2295 50.1343 68.2754 50.7237 68.3366 51.382C67.9998 49.9965 67.6477 48.6187 67.2496 47.2638C66.589 44.9323 65.7706 42.6485 64.8001 40.4281C65.114 40.2979 69.0026 38.6139 70.3116 37.1671C71.4674 35.8811 72.608 33.9215 72.2482 32.1226C72.1834 31.6962 72.0292 31.2882 71.7957 30.9254C71.5622 30.5627 71.2547 30.2534 70.8934 30.0178C70.532 29.7822 70.1249 29.6256 69.6988 29.5583C69.2727 29.491 68.8372 29.5144 68.4208 29.6272C65.933 30.3927 64.471 34.8171 64.4174 37.1365C64.4174 37.2973 64.6088 39.4329 64.7006 40.1984C64.6976 40.173 64.6976 40.1473 64.7006 40.1219C63.6961 37.9664 62.5024 35.9043 61.1335 33.9598C59.916 32.2172 58.5998 30.5457 57.1913 28.9536C55.8976 27.4226 54.6269 26.1825 53.494 25.0573C52.874 24.4526 52.2922 23.9091 51.7487 23.4115H51.8023C51.8483 23.4115 50.5929 20.518 50.4934 20.3496C49.3298 18.3441 45.9005 15.152 43.3668 15.7032C42.9452 15.7962 42.548 15.9773 42.2013 16.2346C41.8547 16.4919 41.5663 16.8196 41.3552 17.1962C41.1442 17.5728 41.0151 17.9898 40.9766 18.4198C40.938 18.8499 40.9909 19.2832 41.1316 19.6913C41.698 21.4366 43.627 22.6078 45.2575 23.1742C46.888 23.7407 50.6158 23.4728 51.5115 23.3886C52.0626 23.9244 52.652 24.4985 53.2874 25.1415C54.3973 26.2897 55.6374 27.5987 56.8927 29.1067C57.2296 29.5124 57.574 29.9563 57.9108 30.385C57.1913 29.7803 56.1809 28.9765 56.0737 28.9076C54.1217 27.6676 49.6054 26.4122 47.6152 28.0656C47.286 28.3491 47.0209 28.6995 46.8375 29.0933C46.6542 29.4872 46.5567 29.9155 46.5516 30.35C46.5466 30.7844 46.634 31.2149 46.8081 31.6129C46.9823 32.0109 47.2391 32.3674 47.5616 32.6585C48.8629 33.9445 51.1211 34.0976 52.8357 33.845C54.5504 33.5924 57.8113 31.5485 58.5079 31.1428C59.2734 32.092 59.9853 33.0948 60.6972 34.2047C62.0054 36.1423 63.1402 38.1915 64.0882 40.3286C64.1418 40.451 64.1801 40.5888 64.2337 40.7113C63.9275 40.3515 62.1056 38.5144 61.9372 38.4149C60.1307 36.9605 55.8134 35.2228 53.6165 36.6466C53.2618 36.8929 52.9632 37.2114 52.7403 37.5813C52.5174 37.9512 52.3752 38.364 52.3232 38.7927C52.2711 39.2214 52.3104 39.6562 52.4383 40.0687C52.5662 40.4811 52.7799 40.8619 53.0654 41.1859C54.2212 42.6097 56.4411 43.0077 58.1711 42.9465C60.169 42.8776 64.0959 40.895 64.2413 40.8185C65.124 42.9882 65.8655 45.2127 66.4612 47.4781C66.9052 49.1545 67.2956 50.8692 67.663 52.5915C67.2573 52.1322 65.5579 50.4252 65.4202 50.2951C63.6136 48.8483 59.2964 47.103 57.0994 48.5345C56.7447 48.7807 56.4461 49.0993 56.2232 49.4691C56.0003 49.839 55.8582 50.2518 55.8061 50.6805C55.7541 51.1092 55.7933 51.5441 55.9212 51.9565C56.0491 52.369 56.2628 52.7497 56.5483 53.0737C57.7042 54.4899 59.924 54.8956 61.654 54.8343C63.606 54.7578 67.3798 52.8747 67.6936 52.714L68.1988 55.0716C68.727 57.636 69.2475 60.208 69.837 62.7264C70.0436 63.599 70.2733 64.4564 70.5029 65.3137C69.8676 64.6477 68.6888 63.4613 68.5739 63.3694C66.7674 61.9226 62.4501 60.1774 60.2532 61.6088C59.8985 61.8551 59.5999 62.1736 59.377 62.5435C59.1541 62.9133 59.0119 63.3262 58.9599 63.7549C58.9078 64.1836 58.947 64.6184 59.0749 65.0309C59.2029 65.4433 59.4166 65.8241 59.702 66.1481C60.8579 67.5642 63.0778 67.9699 64.8078 67.901C66.5378 67.8321 69.7528 66.3241 70.656 65.8878C71.0464 67.3116 71.4674 68.7124 71.9497 70.075C72.1717 70.6567 72.3554 71.2691 72.6003 71.8126L72.9678 72.6852L72.5161 72.6164C72.5161 72.6164 72.4779 73.4278 72.5544 74.7444C70.6484 73.3895 67.9003 72.2183 66.1091 73.0374C65.7214 73.2271 65.3783 73.4966 65.1021 73.8283C64.8259 74.16 64.623 74.5463 64.5066 74.962C64.3903 75.3776 64.3631 75.8131 64.4268 76.24C64.4906 76.6668 64.6439 77.0754 64.8767 77.4389C64.9891 77.6364 65.1226 77.8212 65.2747 77.99C65.6125 80.0028 66.4612 81.8952 67.7396 83.4861C67.8391 83.5933 69.1327 84.7951 69.8064 85.3922C69.1557 85.0324 68.505 84.6879 67.8314 84.3052C66.8593 83.7693 65.8488 83.1646 64.8614 82.5829L63.3304 81.6184C62.8099 81.3045 62.3506 80.9371 61.8531 80.5926C61.1335 80.0798 60.4139 79.5056 59.702 78.9392C60.3068 77.9747 62.0444 75.1118 62.297 73.4737C62.5496 71.8356 62.4118 69.5085 61.1335 68.1995C60.8462 67.8737 60.4928 67.6128 60.0969 67.4341C59.7009 67.2553 59.2715 67.1629 58.8371 67.1629C58.4027 67.1629 57.9732 67.2553 57.5773 67.4341C57.1813 67.6128 56.828 67.8737 56.5406 68.1995C54.8719 70.1898 56.1043 74.7061 57.3444 76.6657C57.3444 76.7346 57.6889 77.1174 58.0486 77.5766C57.3674 77.0025 56.6861 76.4284 56.0125 75.816C54.1064 74.0937 52.1851 72.2795 50.3173 70.4577L49.1232 69.3325C49.6437 68.5287 51.5497 65.4668 51.8176 63.7292C52.0856 61.9915 51.9325 59.764 50.6541 58.4474C50.3668 58.1216 50.0134 57.8606 49.6175 57.6819C49.2215 57.5032 48.7921 57.4107 48.3577 57.4107C47.9233 57.4107 47.4938 57.5032 47.0979 57.6819C46.702 57.8606 46.3486 58.1216 46.0613 58.4474C44.3925 60.4376 45.6249 64.9539 46.8267 66.9212C46.8727 66.9901 47.2401 67.4494 47.6535 67.9623C46.6048 66.9978 45.5484 66.0409 44.4691 65.13C42.6323 63.5517 40.6913 62.0991 38.6591 60.7821C38.8505 60.4989 41.1622 56.9547 41.4531 55.0257C41.7133 53.311 41.5679 51.0605 40.2896 49.7439C40.0022 49.4181 39.6489 49.1572 39.2529 48.9784C38.857 48.7997 38.4275 48.7073 37.9931 48.7073C37.5587 48.7073 37.1293 48.7997 36.7334 48.9784C36.3374 49.1572 35.984 49.4181 35.6967 49.7439C34.028 51.7342 35.2604 56.2505 36.4622 58.2177C36.5464 58.3555 37.8783 60.0166 38.3682 60.5907L38.2993 60.5448C36.2737 59.2963 34.1396 58.2331 31.9229 57.3681C29.9469 56.5872 27.9279 55.9202 25.8756 55.3702C23.9773 54.842 22.209 54.4746 20.6398 54.1607C19.7901 54 19.0093 53.8622 18.2821 53.7474C18.2821 53.7474 15.6718 51.9944 15.4958 51.9102C13.4213 50.8768 8.79785 50.1037 6.99133 51.9638C6.69031 52.2805 6.46058 52.658 6.31757 53.0709C6.17456 53.4838 6.12157 53.9226 6.16218 54.3576C6.20278 54.7927 6.33604 55.214 6.55299 55.5933C6.76994 55.9726 7.06556 56.3011 7.41999 56.5567C8.85143 57.6972 11.1096 57.613 12.7783 57.1767C14.4471 56.7404 17.3712 54.4822 18.1367 53.9158C18.9021 54.0535 19.6676 54.2066 20.5862 54.3904C22.1171 54.7425 23.9007 55.1558 25.7761 55.7146C26.2813 55.8601 26.8095 56.0438 27.3071 56.2122C26.3732 56.1127 25.0872 55.9979 24.9647 55.9979C22.6683 56.0361 18.1903 57.4829 17.4401 59.963C17.3273 60.3783 17.3033 60.8127 17.3697 61.2379C17.4361 61.6631 17.5914 62.0695 17.8254 62.4306C18.0594 62.7918 18.3669 63.0995 18.7279 63.3338C19.0888 63.5681 19.4951 63.7237 19.9202 63.7904C21.7191 64.1425 23.6787 63.0249 24.9724 61.8767C26.266 60.7285 27.8812 57.2379 28.2103 56.5184C29.3586 56.9088 30.5068 57.3298 31.7162 57.8427C33.8869 58.7464 35.9723 59.8429 37.9472 61.1189C38.0544 61.1878 38.1692 61.2796 38.2764 61.3562C37.8247 61.2261 35.291 60.6979 35.1073 60.6826C32.8109 60.4682 28.218 61.448 27.1923 63.7981C27.0314 64.1994 26.9573 64.6303 26.975 65.0623C26.9926 65.4943 27.1016 65.9177 27.2946 66.3046C27.4877 66.6915 27.7606 67.0331 28.0952 67.3069C28.4298 67.5808 28.8186 67.7806 29.2361 67.8934C30.989 68.4369 33.0635 67.5489 34.4719 66.5385C36.0948 65.3749 38.2993 61.5552 38.3529 61.4098C40.2847 62.7359 42.1307 64.183 43.8796 65.7424C45.1733 66.8906 46.444 68.1153 47.707 69.3478C47.11 69.1947 44.7523 68.6971 44.5762 68.6818C42.2798 68.4675 37.6869 69.4473 36.6612 71.8049C36.5016 72.2059 36.4286 72.636 36.4469 73.0671C36.4652 73.4983 36.5744 73.9207 36.7674 74.3066C36.9604 74.6926 37.2327 75.0334 37.5667 75.3067C37.9006 75.5801 38.2885 75.7797 38.705 75.8926C40.458 76.4361 42.5324 75.5481 43.9409 74.5377C45.5254 73.4048 47.6305 69.7535 47.8065 69.4473C48.3807 70.0061 48.9548 70.5649 49.5212 71.1313C51.3813 72.9838 53.2338 74.8439 55.1245 76.6198C55.7752 77.2398 56.4411 77.8216 57.1071 78.411C56.2115 78.2043 54.5734 77.8675 54.4279 77.8522C52.1315 77.6379 47.5386 78.6177 46.5129 80.9754C46.3533 81.3763 46.2803 81.8064 46.2986 82.2376C46.3169 82.6687 46.4261 83.0911 46.6191 83.4771C46.812 83.863 47.0844 84.2038 47.4184 84.4771C47.7523 84.7505 48.1402 84.9501 48.5567 85.063C50.302 85.6141 52.3841 84.7185 53.7849 83.7158C55.1857 82.713 57.0382 79.6664 57.5434 78.8091C58.661 79.7736 59.7863 80.7151 60.9421 81.5877C61.4473 81.9475 61.9372 82.3532 62.4731 82.6747L63.9658 83.6698C65.0068 84.3205 65.9713 84.9176 66.9588 85.4917C67.4487 85.7902 67.9233 86.0581 68.4132 86.3337C67.5329 85.9892 66.1168 85.4764 66.0019 85.4381C63.7514 84.8793 59.0744 85.1166 57.7042 87.3212C57.4847 87.6935 57.3466 88.108 57.2989 88.5376C57.2511 88.9671 57.2948 89.4019 57.4272 89.8133C57.5595 90.2247 57.7774 90.6035 58.0666 90.9246C58.3558 91.2458 58.7096 91.5021 59.105 91.6767C60.7508 92.4805 62.9324 91.914 64.4633 91.1332C66.1703 90.2682 68.7347 87.0992 69.0562 86.7088C70.2503 87.3901 71.4138 88.0331 72.5161 88.6225C75.4556 90.1993 78.0276 91.4547 80.0178 92.3886C86.4937 97.9919 95.6029 98.6043 95.6029 98.6043C95.6029 98.6043 96.0852 87.6886 89.6628 80.5084C87.4681 78.1411 84.7931 76.2698 81.8167 75.0199ZM70.258 85.6677C70.457 85.2161 72.0109 81.7485 72.1181 79.7965L73.1898 79.5745C73.8476 83.0211 75.2163 86.2929 77.2085 89.1813C76.0297 88.625 74.7539 88.0024 73.3811 87.3135C72.3937 86.8006 71.3373 86.2495 70.258 85.6677Z" fill="#5F80F8"/>
<path d="M129.567 72.9379C129.567 72.9379 118.644 73.267 111.961 80.2175C105.279 87.1681 105.363 98.0838 105.363 98.0838C105.363 98.0838 116.279 97.747 122.969 90.8041C129.659 83.8612 129.567 72.9379 129.567 72.9379Z" fill="#5F80F8"/>
<g opacity="0.5">
<path opacity="0.5" d="M58.5842 30.63C58.5842 30.63 62.1666 27.8054 63.0775 25.9912C63.843 24.4602 64.4248 22.2633 63.621 20.6328C63.4464 20.2375 63.1901 19.8836 62.869 19.5944C62.5478 19.3052 62.169 19.0873 61.7576 18.955C61.3462 18.8227 60.9114 18.779 60.4819 18.8267C60.0524 18.8745 59.6378 19.0126 59.2655 19.232C57.0609 20.6022 56.8236 25.2793 57.3901 27.5298C57.436 27.7058 58.5459 30.6606 58.5842 30.63Z" fill="white"/>
<path opacity="0.5" d="M25.4778 54.1913C25.6232 54.3291 28.1799 56.1739 28.1952 56.1356C28.2105 56.0974 29.619 51.803 29.3817 49.7822C29.1827 48.0599 28.4478 45.9548 26.8709 44.998C26.507 44.7654 26.098 44.6126 25.6708 44.5493C25.2436 44.4861 24.8078 44.5139 24.3921 44.6311C23.9765 44.7482 23.5902 44.9519 23.2589 45.2289C22.9275 45.5058 22.6585 45.8497 22.4695 46.238C21.3825 48.5957 23.7708 52.6221 25.4778 54.1913Z" fill="white"/>
<path opacity="0.5" d="M100.502 34.9166C100.502 34.9166 87.3969 48.4502 87.4888 65.0687C87.5806 81.6872 100.785 95.106 100.785 95.106C100.785 95.106 113.898 81.5801 113.798 64.9539C113.699 48.3278 100.502 34.9166 100.502 34.9166Z" fill="white"/>
<path opacity="0.5" d="M81.8167 75.0199C81.9891 74.8353 82.1477 74.6383 82.2913 74.4305C83.2405 72.9838 84.0595 70.8787 83.4471 69.1487C83.3189 68.7363 83.1049 68.3556 82.8192 68.0317C82.5334 67.7078 82.1823 67.4481 81.7891 67.2695C81.3958 67.0909 80.9692 66.9976 80.5372 66.9956C80.1053 66.9936 79.6779 67.0831 79.2829 67.258C77.4994 68.1 76.6267 70.9553 76.443 73.29C75.7311 73.1292 75.0881 73.0067 74.537 72.9072C74.3074 72.3791 74.0701 71.8509 73.8251 71.315C73.5802 70.7792 73.3888 70.2051 73.1591 69.6386C72.8453 68.8119 72.5697 67.9393 72.2865 67.0666C73.3199 66.6074 76.3359 65.1912 77.4611 63.9512C78.5864 62.7111 79.7575 60.7055 79.4054 58.9067C79.3406 58.4802 79.1864 58.0722 78.9529 57.7095C78.7194 57.3467 78.4119 57.0374 78.0506 56.8018C77.6892 56.5662 77.2822 56.4096 76.856 56.3423C76.4299 56.275 75.9944 56.2985 75.578 56.4112C73.0826 57.1767 71.6205 61.6011 71.5746 63.9205C71.5746 63.9894 71.5746 64.4793 71.6588 65.0688C71.4138 64.2114 71.1536 63.3541 70.9316 62.4738C70.2886 59.986 69.7145 57.4293 69.1327 54.8726C69.0103 54.3444 68.8801 53.8086 68.7576 53.2804C69.6303 52.89 72.9142 51.3897 74.116 50.0884C75.3178 48.7871 76.4124 46.8428 76.0603 45.0439C75.9955 44.6174 75.8413 44.2094 75.6078 43.8467C75.3743 43.4839 75.0668 43.1746 74.7054 42.939C74.3441 42.7034 73.937 42.5468 73.5109 42.4795C73.0848 42.4122 72.6493 42.4357 72.2329 42.5484C69.7451 43.3139 68.283 47.7384 68.2295 50.0578C68.2295 50.1343 68.2754 50.7237 68.3366 51.382C67.9998 49.9965 67.6477 48.6187 67.2496 47.2638C66.589 44.9323 65.7706 42.6485 64.8001 40.4281C65.114 40.2979 69.0026 38.6139 70.3116 37.1671C71.4674 35.8811 72.608 33.9215 72.2482 32.1226C72.1834 31.6962 72.0292 31.2882 71.7957 30.9254C71.5622 30.5627 71.2547 30.2534 70.8934 30.0178C70.532 29.7822 70.1249 29.6256 69.6988 29.5583C69.2727 29.491 68.8372 29.5144 68.4208 29.6272C65.933 30.3927 64.471 34.8171 64.4174 37.1365C64.4174 37.2973 64.6088 39.4329 64.7006 40.1984C64.6976 40.173 64.6976 40.1473 64.7006 40.1219C63.6961 37.9664 62.5024 35.9043 61.1335 33.9598C59.916 32.2172 58.5998 30.5457 57.1913 28.9536C55.8976 27.4226 54.6269 26.1825 53.494 25.0573C52.874 24.4526 52.2922 23.9091 51.7487 23.4115H51.8023C51.8483 23.4115 50.5929 20.518 50.4934 20.3496C49.3298 18.3441 45.9005 15.152 43.3668 15.7032C42.9452 15.7962 42.548 15.9773 42.2013 16.2346C41.8547 16.4919 41.5663 16.8196 41.3552 17.1962C41.1442 17.5728 41.0151 17.9898 40.9766 18.4198C40.938 18.8499 40.9909 19.2832 41.1316 19.6913C41.698 21.4366 43.627 22.6078 45.2575 23.1742C46.888 23.7407 50.6158 23.4728 51.5115 23.3886C52.0626 23.9244 52.652 24.4985 53.2874 25.1415C54.3973 26.2897 55.6374 27.5987 56.8927 29.1067C57.2296 29.5124 57.574 29.9563 57.9108 30.385C57.1913 29.7803 56.1809 28.9765 56.0737 28.9076C54.1217 27.6676 49.6054 26.4122 47.6152 28.0656C47.286 28.3491 47.0209 28.6995 46.8375 29.0933C46.6542 29.4872 46.5567 29.9155 46.5516 30.35C46.5466 30.7844 46.634 31.2149 46.8081 31.6129C46.9823 32.0109 47.2391 32.3674 47.5616 32.6585C48.8629 33.9445 51.1211 34.0976 52.8357 33.845C54.5504 33.5924 57.8113 31.5485 58.5079 31.1428C59.2734 32.092 59.9853 33.0948 60.6972 34.2047C62.0054 36.1423 63.1402 38.1915 64.0882 40.3286C64.1418 40.451 64.1801 40.5888 64.2337 40.7113C63.9275 40.3515 62.1056 38.5144 61.9372 38.4149C60.1307 36.9605 55.8134 35.2228 53.6165 36.6466C53.2618 36.8929 52.9632 37.2114 52.7403 37.5813C52.5174 37.9512 52.3752 38.364 52.3232 38.7927C52.2711 39.2214 52.3104 39.6562 52.4383 40.0687C52.5662 40.4811 52.7799 40.8619 53.0654 41.1859C54.2212 42.6097 56.4411 43.0077 58.1711 42.9465C60.169 42.8776 64.0959 40.895 64.2413 40.8185C65.124 42.9882 65.8655 45.2127 66.4612 47.4781C66.9052 49.1545 67.2956 50.8692 67.663 52.5915C67.2573 52.1322 65.5579 50.4252 65.4202 50.2951C63.6136 48.8483 59.2964 47.103 57.0994 48.5345C56.7447 48.7807 56.4461 49.0993 56.2232 49.4691C56.0003 49.839 55.8582 50.2518 55.8061 50.6805C55.7541 51.1092 55.7933 51.5441 55.9212 51.9565C56.0491 52.369 56.2628 52.7497 56.5483 53.0737C57.7042 54.4899 59.924 54.8956 61.654 54.8343C63.606 54.7578 67.3798 52.8747 67.6936 52.714L68.1988 55.0716C68.727 57.636 69.2475 60.208 69.837 62.7264C70.0436 63.599 70.2733 64.4564 70.5029 65.3137C69.8676 64.6477 68.6888 63.4613 68.5739 63.3694C66.7674 61.9226 62.4501 60.1774 60.2532 61.6088C59.8985 61.8551 59.5999 62.1736 59.377 62.5435C59.1541 62.9133 59.0119 63.3262 58.9599 63.7549C58.9078 64.1836 58.947 64.6184 59.0749 65.0309C59.2029 65.4433 59.4166 65.8241 59.702 66.1481C60.8579 67.5642 63.0778 67.9699 64.8078 67.901C66.5378 67.8321 69.7528 66.3241 70.656 65.8878C71.0464 67.3116 71.4674 68.7124 71.9497 70.075C72.1717 70.6567 72.3554 71.2691 72.6003 71.8126L72.9678 72.6852L72.5161 72.6164C72.5161 72.6164 72.4779 73.4278 72.5544 74.7444C70.6484 73.3895 67.9003 72.2183 66.1091 73.0374C65.7214 73.2271 65.3783 73.4966 65.1021 73.8283C64.8259 74.16 64.623 74.5463 64.5066 74.962C64.3903 75.3776 64.3631 75.8131 64.4268 76.24C64.4906 76.6668 64.6439 77.0754 64.8767 77.4389C64.9891 77.6364 65.1226 77.8212 65.2747 77.99C65.6125 80.0028 66.4612 81.8952 67.7396 83.4861C67.8391 83.5933 69.1327 84.7951 69.8064 85.3922C69.1557 85.0324 68.505 84.6879 67.8314 84.3052C66.8593 83.7693 65.8488 83.1646 64.8614 82.5829L63.3304 81.6184C62.8099 81.3045 62.3506 80.9371 61.8531 80.5926C61.1335 80.0798 60.4139 79.5056 59.702 78.9392C60.3068 77.9747 62.0444 75.1118 62.297 73.4737C62.5496 71.8356 62.4118 69.5085 61.1335 68.1995C60.8462 67.8737 60.4928 67.6128 60.0969 67.4341C59.7009 67.2553 59.2715 67.1629 58.8371 67.1629C58.4027 67.1629 57.9732 67.2553 57.5773 67.4341C57.1813 67.6128 56.828 67.8737 56.5406 68.1995C54.8719 70.1898 56.1043 74.7061 57.3444 76.6657C57.3444 76.7346 57.6889 77.1174 58.0486 77.5766C57.3674 77.0025 56.6861 76.4284 56.0125 75.816C54.1064 74.0937 52.1851 72.2795 50.3173 70.4577L49.1232 69.3325C49.6437 68.5287 51.5497 65.4668 51.8176 63.7292C52.0856 61.9915 51.9325 59.764 50.6541 58.4474C50.3668 58.1216 50.0134 57.8606 49.6175 57.6819C49.2215 57.5032 48.7921 57.4107 48.3577 57.4107C47.9233 57.4107 47.4938 57.5032 47.0979 57.6819C46.702 57.8606 46.3486 58.1216 46.0613 58.4474C44.3925 60.4376 45.6249 64.9539 46.8267 66.9212C46.8727 66.9901 47.2401 67.4494 47.6535 67.9623C46.6048 66.9978 45.5484 66.0409 44.4691 65.13C42.6323 63.5517 40.6913 62.0991 38.6591 60.7821C38.8505 60.4989 41.1622 56.9547 41.4531 55.0257C41.7133 53.311 41.5679 51.0605 40.2896 49.7439C40.0022 49.4181 39.6489 49.1572 39.2529 48.9784C38.857 48.7997 38.4275 48.7073 37.9931 48.7073C37.5587 48.7073 37.1293 48.7997 36.7334 48.9784C36.3374 49.1572 35.984 49.4181 35.6967 49.7439C34.028 51.7342 35.2604 56.2505 36.4622 58.2177C36.5464 58.3555 37.8783 60.0166 38.3682 60.5907L38.2993 60.5448C36.2737 59.2963 34.1396 58.2331 31.9229 57.3681C29.9469 56.5872 27.9279 55.9202 25.8756 55.3702C23.9773 54.842 22.209 54.4746 20.6398 54.1607C19.7901 54 19.0093 53.8622 18.2821 53.7474C18.2821 53.7474 15.6718 51.9944 15.4958 51.9102C13.4213 50.8768 8.79785 50.1037 6.99133 51.9638C6.69031 52.2805 6.46058 52.658 6.31757 53.0709C6.17456 53.4838 6.12157 53.9226 6.16218 54.3576C6.20278 54.7927 6.33604 55.214 6.55299 55.5933C6.76994 55.9726 7.06556 56.3011 7.41999 56.5567C8.85143 57.6972 11.1096 57.613 12.7783 57.1767C14.4471 56.7404 17.3712 54.4822 18.1367 53.9158C18.9021 54.0535 19.6676 54.2066 20.5862 54.3904C22.1171 54.7425 23.9007 55.1558 25.7761 55.7146C26.2813 55.8601 26.8095 56.0438 27.3071 56.2122C26.3732 56.1127 25.0872 55.9979 24.9647 55.9979C22.6683 56.0361 18.1903 57.4829 17.4401 59.963C17.3273 60.3783 17.3033 60.8127 17.3697 61.2379C17.4361 61.6631 17.5914 62.0695 17.8254 62.4306C18.0594 62.7918 18.3669 63.0995 18.7279 63.3338C19.0888 63.5681 19.4951 63.7237 19.9202 63.7904C21.7191 64.1425 23.6787 63.0249 24.9724 61.8767C26.266 60.7285 27.8812 57.2379 28.2103 56.5184C29.3586 56.9088 30.5068 57.3298 31.7162 57.8427C33.8869 58.7464 35.9723 59.8429 37.9472 61.1189C38.0544 61.1878 38.1692 61.2796 38.2764 61.3562C37.8247 61.2261 35.291 60.6979 35.1073 60.6826C32.8109 60.4682 28.218 61.448 27.1923 63.7981C27.0314 64.1994 26.9573 64.6303 26.975 65.0623C26.9926 65.4943 27.1016 65.9177 27.2946 66.3046C27.4877 66.6915 27.7606 67.0331 28.0952 67.3069C28.4298 67.5808 28.8186 67.7806 29.2361 67.8934C30.989 68.4369 33.0635 67.5489 34.4719 66.5385C36.0948 65.3749 38.2993 61.5552 38.3529 61.4098C40.2847 62.7359 42.1307 64.183 43.8796 65.7424C45.1733 66.8906 46.444 68.1153 47.707 69.3478C47.11 69.1947 44.7523 68.6971 44.5762 68.6818C42.2798 68.4675 37.6869 69.4473 36.6612 71.8049C36.5016 72.2059 36.4286 72.636 36.4469 73.0671C36.4652 73.4983 36.5744 73.9207 36.7674 74.3066C36.9604 74.6926 37.2327 75.0334 37.5667 75.3067C37.9006 75.5801 38.2885 75.7797 38.705 75.8926C40.458 76.4361 42.5324 75.5481 43.9409 74.5377C45.5254 73.4048 47.6305 69.7535 47.8065 69.4473C48.3807 70.0061 48.9548 70.5649 49.5212 71.1313C51.3813 72.9838 53.2338 74.8439 55.1245 76.6198C55.7752 77.2398 56.4411 77.8216 57.1071 78.411C56.2115 78.2043 54.5734 77.8675 54.4279 77.8522C52.1315 77.6379 47.5386 78.6177 46.5129 80.9754C46.3533 81.3763 46.2803 81.8064 46.2986 82.2376C46.3169 82.6687 46.4261 83.0911 46.6191 83.4771C46.812 83.863 47.0844 84.2038 47.4184 84.4771C47.7523 84.7505 48.1402 84.9501 48.5567 85.063C50.302 85.6141 52.3841 84.7185 53.7849 83.7158C55.1857 82.713 57.0382 79.6664 57.5434 78.8091C58.661 79.7736 59.7863 80.7151 60.9421 81.5877C61.4473 81.9475 61.9372 82.3532 62.4731 82.6747L63.9658 83.6698C65.0068 84.3205 65.9713 84.9176 66.9588 85.4917C67.4487 85.7902 67.9233 86.0581 68.4132 86.3337C67.5329 85.9892 66.1168 85.4764 66.0019 85.4381C63.7514 84.8793 59.0744 85.1166 57.7042 87.3212C57.4847 87.6935 57.3466 88.108 57.2989 88.5376C57.2511 88.9671 57.2948 89.4019 57.4272 89.8133C57.5595 90.2247 57.7774 90.6035 58.0666 90.9246C58.3558 91.2458 58.7096 91.5021 59.105 91.6767C60.7508 92.4805 62.9324 91.914 64.4633 91.1332C66.1703 90.2682 68.7347 87.0992 69.0562 86.7088C70.2503 87.3901 71.4138 88.0331 72.5161 88.6225C75.4556 90.1993 78.0276 91.4547 80.0178 92.3886C86.4937 97.9919 95.6029 98.6043 95.6029 98.6043C95.6029 98.6043 96.0852 87.6886 89.6628 80.5084C87.4681 78.1411 84.7931 76.2698 81.8167 75.0199ZM70.258 85.6677C70.457 85.2161 72.0109 81.7485 72.1181 79.7965L73.1898 79.5745C73.8476 83.0211 75.2163 86.2929 77.2085 89.1813C76.0297 88.625 74.7539 88.0024 73.3811 87.3135C72.3937 86.8006 71.3373 86.2495 70.258 85.6677Z" fill="white"/>
<path opacity="0.5" d="M129.567 72.9379C129.567 72.9379 118.644 73.267 111.961 80.2175C105.279 87.1681 105.363 98.0838 105.363 98.0838C105.363 98.0838 116.279 97.747 122.969 90.8041C129.659 83.8612 129.567 72.9379 129.567 72.9379Z" fill="white"/>
</g>
<path d="M101.045 79.9726L111.769 70.3276L111.31 69.8147L101.037 79.0463L100.984 66.416L101.037 66.4543L110.116 53.1885L109.542 52.7982L100.984 65.3214L100.846 34.9166H100.165L100.249 55.5539L93.4209 49.6444L92.9692 50.1649L100.257 56.4724L100.318 71.2232L89.9686 62.0681L89.5093 62.5809L100.318 72.1494L100.379 85.5835L92.6018 79.4827L92.1808 80.0185L100.387 86.4638L100.417 95.106H101.106L101.045 79.9649V79.9726Z" fill="white"/>
<path d="M91.1631 83.6928L90.4818 83.6163L89.6169 91.2481L85.0087 86.1041H85.024L83.8528 76.8571L83.1715 76.949L84.2126 85.2161L72.7687 72.4173L72.2559 72.8766L80.0254 81.5571L75.1034 81.6184L75.1187 82.3073L80.6302 82.2384L86.0804 88.3239L78.3873 88.3316V89.0205L86.6927 89.0129L91.6454 94.5473L86.2181 94.8764L86.2641 95.5577L92.2271 95.1979L95.5263 98.8875L96.0392 98.4282L90.2292 91.937L91.1631 83.6928Z" fill="white"/>
<path d="M117.082 86.4179L126.206 84.5578L126.069 83.8842L117.909 85.5453L129.812 73.1752L129.314 72.7006L121.238 81.0902L120.81 76.1911L120.129 76.2524L120.603 81.7485L114.939 87.635L114.357 79.9649L113.668 80.0185L114.303 88.301L109.152 93.644L108.424 88.2627L107.735 88.3546L108.539 94.2793L105.11 97.8465L105.607 98.3211L111.647 92.0442L119.945 92.358L119.968 91.6767L112.29 91.3782L117.074 86.4026L117.082 86.4179Z" fill="white"/>
<path d="M121.743 59.7946C125.324 59.7946 128.227 56.861 128.227 53.2421C128.227 49.6233 125.324 46.6896 121.743 46.6896C118.163 46.6896 115.26 49.6233 115.26 53.2421C115.26 56.861 118.163 59.7946 121.743 59.7946Z" fill="#263238" stroke="#263238" stroke-linecap="round" stroke-linejoin="round"/>
<path d="M139.74 71.1696C139.74 71.1696 142.802 71.0395 143.567 76.4667C144.333 81.8939 147.532 96.0476 147.8 98.0302C148.068 100.013 146.874 102.401 143.973 103.327C141.072 104.253 139.472 101.475 139.204 100.151C138.936 98.8263 136.379 82.7053 136.379 82.7053L139.74 71.1696Z" fill="#263238" stroke="#263238" stroke-linecap="round" stroke-linejoin="round"/>
<path d="M109.94 84.3664C109.94 84.3664 96.5288 90.0386 96.5288 92.0977C96.5288 94.1569 104.788 114.297 104.788 114.297L140.375 105.011L136.387 82.7206C136.387 82.7206 131.09 76.1146 109.94 84.3664Z" fill="#5F80F8" stroke="#263238" stroke-linecap="round" stroke-linejoin="round"/>
<path d="M122.173 72.1953C122.173 72.1953 118.346 74.576 115.284 76.2906C112.222 78.0053 107.629 80.3936 107.629 85.1625C107.629 89.9314 111.074 108.846 111.074 110.829C111.01 111.714 111.054 112.603 111.204 113.477C111.204 113.079 134.489 105.402 134.489 105.402C135.206 102.357 136.09 99.3544 137.138 96.4074C138.332 93.4985 137.138 90.9801 138.462 86.2189C139.787 81.4576 142.29 78.2809 141.241 74.7367C140.192 71.1926 139.917 71.2997 136.082 71.162C132.247 71.0242 125.878 71.0012 122.173 72.1953Z" fill="#263238" stroke="#263238" stroke-linecap="round" stroke-linejoin="round"/>
<path d="M120.427 70.1132C120.427 70.1132 118.705 71.0394 118.039 75.2725C117.607 78.6517 117.388 82.0545 117.381 85.461C117.381 85.461 124.523 81.4959 125.587 81.3581C126.651 81.2203 134.321 84.42 134.321 84.42C133.698 80.9163 132.813 77.4645 131.672 74.0937C130.088 69.8453 122.012 68.2608 120.427 70.1132Z" fill="white" stroke="#263238" stroke-linecap="round" stroke-linejoin="round"/>
<path d="M119.103 69.0569L119.233 69.5085C119.746 71.2997 121.667 77.9287 122.808 81.228C124.132 85.0553 126.115 86.6552 126.115 86.6552L128.097 78.7402C128.097 78.7402 120.29 71.1696 119.103 69.0569Z" fill="white" stroke="#263238" stroke-linecap="round" stroke-linejoin="round"/>
<path d="M126.099 52.1169C126.099 52.1169 119.615 51.0605 117.365 59.5267C115.114 67.9929 122.394 75.2726 124.507 78.0512C126.619 80.8299 129.681 81.7179 131.396 78.9775C134.045 74.7444 134.841 72.624 135.223 67.0666C135.606 61.5093 134.956 57.8044 132.445 54.8956C131.633 54.0234 130.651 53.3268 129.56 52.8489C128.468 52.371 127.29 52.1219 126.099 52.1169Z" fill="white" stroke="#263238" stroke-linecap="round" stroke-linejoin="round"/>
<path d="M132.468 54.8956C131.655 54.0224 130.672 53.3254 129.579 52.8474C128.486 52.3695 127.307 52.1208 126.114 52.1169C126.114 52.1169 119.631 51.0605 117.38 59.5267C116.764 61.9279 116.825 64.453 117.556 66.8217C117.794 66.217 118.153 65.7424 118.705 65.7424C120.289 65.7424 120.427 67.9929 120.955 67.8627C121.483 67.7326 123.596 65.8802 123.206 64.1578C122.815 62.4355 123.336 61.6471 126.114 61.6471C128.893 61.6471 129.551 62.8336 130.478 62.5733C131.404 62.313 132.07 60.4529 132.996 60.4529C133.41 60.4674 133.816 60.5643 134.192 60.7378C134.568 60.9113 134.906 61.1579 135.185 61.4633C134.981 59.0456 134.032 56.7507 132.468 54.8956Z" fill="#263238" stroke="#263238" stroke-linecap="round" stroke-linejoin="round"/>
<path d="M120.955 68.6589C120.955 68.6589 119.891 66.0103 118.705 65.7424C117.518 65.4745 116.852 66.2782 117.51 68.5211C118.169 70.7639 119.103 71.6978 119.631 71.6978C120.159 71.6978 120.396 70.9323 120.396 70.9323" fill="white"/>
<path d="M120.955 68.6589C120.955 68.6589 119.891 66.0103 118.705 65.7424C117.518 65.4745 116.852 66.2782 117.51 68.5211C118.169 70.7639 119.103 71.6978 119.631 71.6978C120.159 71.6978 120.396 70.9323 120.396 70.9323" stroke="#263238" stroke-linecap="round" stroke-linejoin="round"/>
<path d="M111.294 95.7797C111.294 95.7797 111.953 100.02 114.869 101.903C117.786 103.787 121.759 102.83 121.759 102.83" stroke="#263238" stroke-linecap="round" stroke-linejoin="round"/>
<path d="M126.099 86.6552C126.099 86.6552 127.952 93.667 127.554 96.7059" stroke="#263238" stroke-linecap="round" stroke-linejoin="round"/>
<path d="M86.5697 84.864C86.5697 84.864 88.1772 85.5299 89.3866 89.6865C90.5961 93.843 93.8035 101.475 94.6072 104.422C95.411 107.369 95.143 111.12 91.6601 112.077C88.1772 113.034 84.4264 103.503 83.8905 102.7C83.3547 101.896 82.0151 94.3941 82.6887 90.3754C83.3623 86.3566 85.1 84.3358 86.5697 84.864Z" fill="white" stroke="#263238" stroke-linecap="round" stroke-linejoin="round"/>
<path d="M67.4946 98.7803C67.4946 98.7803 46.5664 119.196 46.5664 122.258C46.5664 125.319 58.8829 150.641 62.3276 150.067C65.7722 149.493 81.2731 132.974 81.2731 132.974L67.4946 98.7803Z" fill="#5F80F8" stroke="#263238" stroke-linecap="round" stroke-linejoin="round"/>
<path d="M68.0835 88.0866C64.1069 91.6048 60.3491 95.3626 56.8309 99.3391C52.1386 104.828 52.5443 114.075 54.014 120.367C55.4837 126.659 58.1705 144.479 61.5157 145.153C64.8608 145.827 67.5476 138.723 73.4418 133.671C79.336 128.619 84.0283 124.294 84.4264 120.941C84.8244 117.588 84.2963 106.879 84.5642 106.075C85.2014 102.13 85.5595 98.1448 85.6358 94.1492C85.6358 90.2682 82.6888 85.9816 79.7417 85.04C76.7946 84.0985 69.2853 87.1604 68.0835 88.0866Z" fill="white" stroke="#263238" stroke-linecap="round" stroke-linejoin="round"/>
<path d="M95.2198 214.099C95.2198 214.099 90.8872 223.01 84.6869 228.682C78.4865 234.354 68.7573 241.373 68.7573 241.373C68.7573 241.373 79.0147 244.619 81.181 244.887C83.3473 245.155 82.7961 246.234 80.3696 247.321C77.943 248.408 74.9653 249.212 68.2138 249.212C61.4623 249.212 57.145 249.212 56.8694 247.589C56.5939 245.966 60.9265 241.917 64.1644 238.679C67.4024 235.441 79.8261 215.179 80.9054 214.099C81.9847 213.02 89.5476 209.506 95.2198 214.099Z" fill="white" stroke="#263238" stroke-linecap="round" stroke-linejoin="round"/>
<path d="M81.1809 244.887C79.3973 244.665 72.1329 242.43 69.6222 241.649L67.6778 245.966C66.2102 246.203 64.7076 246.096 63.2887 245.652C61.8698 245.208 60.5736 244.441 59.5025 243.41C57.8874 245.162 56.7239 246.724 56.8617 247.589C57.1372 249.212 61.4545 249.212 68.206 249.212C74.9575 249.212 77.9276 248.4 80.3618 247.321C82.796 246.242 83.3395 245.155 81.1809 244.887Z" fill="#263238" stroke="#263238" stroke-linecap="round" stroke-linejoin="round"/>
<path d="M172.701 214.099C172.701 214.099 177.026 223.01 183.234 228.682C189.442 234.354 199.171 241.373 199.171 241.373C199.171 241.373 188.906 244.619 186.748 244.887C184.589 245.155 185.125 246.234 187.559 247.321C189.993 248.408 192.917 249.212 199.707 249.212C206.497 249.212 210.784 249.212 211.052 247.589C211.319 245.966 207.002 241.917 203.757 238.679C200.511 235.441 188.095 215.179 187.016 214.099C185.936 213.02 178.373 209.506 172.701 214.099Z" fill="white" stroke="#263238" stroke-linecap="round" stroke-linejoin="round"/>
<path d="M186.748 244.887C188.524 244.665 195.796 242.43 198.307 241.649L200.251 245.966C201.718 246.201 203.219 246.093 204.636 245.649C206.054 245.206 207.349 244.439 208.419 243.41C210.027 245.162 211.198 246.724 211.052 247.589C210.784 249.212 206.459 249.212 199.708 249.212C192.956 249.212 189.986 248.4 187.56 247.321C185.133 246.242 184.59 245.155 186.748 244.887Z" fill="#263238" stroke="#263238" stroke-linecap="round" stroke-linejoin="round"/>
<path d="M32.8338 217.881C32.8338 217.881 36.6152 224.9 36.3473 227.334C36.1253 229.317 31.4023 244.458 29.68 249.939C29.6123 250.155 29.5991 250.385 29.6414 250.608C29.6838 250.83 29.7804 251.039 29.9227 251.216C30.0651 251.392 30.2487 251.53 30.4574 251.619C30.6661 251.707 30.8934 251.743 31.1191 251.723C31.3881 251.698 31.6441 251.595 31.855 251.426C32.066 251.258 32.2227 251.03 32.3056 250.773L39.8608 227.602C39.8608 227.602 41.2081 225.98 45.533 225.176C48.8399 224.548 65.313 223.775 72.8299 223.446C74.217 223.367 75.5806 223.829 76.6331 224.736C77.6856 225.643 78.3448 226.923 78.4715 228.307C78.4715 228.345 78.4715 228.376 78.4715 228.414C78.7088 231.529 83.8298 247.643 84.9934 251.21C85.0566 251.405 85.188 251.572 85.3637 251.678C85.5393 251.785 85.7475 251.825 85.9502 251.791C86.0645 251.772 86.1737 251.73 86.2713 251.668C86.3689 251.605 86.4527 251.523 86.5178 251.428C86.583 251.332 86.6279 251.224 86.6501 251.11C86.6723 250.996 86.6712 250.879 86.6468 250.766C85.7282 246.586 81.786 228.567 80.3622 219.504C80.3622 219.504 51.7334 220.851 45.2498 219.228C41.3528 218.255 37.6224 216.707 34.181 214.635C34.181 214.635 32.5659 214.643 32.8338 217.881Z" fill="#263238" stroke="#263238" stroke-linecap="round" stroke-linejoin="round"/>
<path d="M30.4146 170.352C30.4146 170.352 20.6854 200.864 22.3006 206.269C23.9157 211.673 31.7542 219.228 34.7243 219.228C37.6943 219.228 40.1285 189.528 40.1285 186.825C40.1285 184.123 35.0075 174.425 33.377 170.352C31.7466 166.28 30.4146 170.352 30.4146 170.352Z" fill="#5F80F8" stroke="#263238" stroke-linecap="round" stroke-linejoin="round"/>
<path d="M83.5691 215.99C83.4696 219.052 82.995 221.394 81.7167 221.394C79.2901 221.394 52.8199 224.089 46.6119 223.821C40.4039 223.553 35.811 220.353 35.811 215.76C35.811 211.168 36.079 190.913 40.6718 188.203C45.2647 185.493 69.5686 185.233 75.2407 185.233C82.2219 185.233 82.5204 198.721 82.819 203.291C82.9032 204.607 83.7222 211.168 83.5691 215.99Z" fill="#5F80F8" stroke="#263238" stroke-linecap="round" stroke-linejoin="round"/>
<path d="M76.5887 216.258C76.5887 216.258 93.8732 216.802 95.2204 214.099C96.5677 211.397 95.2204 205.725 91.7145 204.646C88.2086 203.566 73.6187 204.378 73.6187 204.378L76.5887 216.258Z" fill="white" stroke="#263238" stroke-linecap="round" stroke-linejoin="round"/>
<path d="M34.7245 190.875C33.6966 194.484 33.242 198.232 33.3773 201.982C33.6452 207.93 35.268 213.87 43.3285 218.73C51.389 223.591 77.8974 217.919 77.8974 217.919L76.0067 182.539C76.0067 182.539 58.4543 180.38 48.7328 182.271C39.0112 184.162 35.0078 189.795 34.7245 190.875Z" fill="#263238" stroke="#263238" stroke-linecap="round" stroke-linejoin="round"/>
<path d="M161.311 66.393C159.368 68.4401 157.844 70.8483 156.826 73.4814C155.379 77.5384 150.602 89.6941 150.748 92.0059C150.893 94.3176 152.914 97.2188 154.943 95.6266C156.971 94.0344 161.886 85.4993 162.176 85.063C162.467 84.6267 162.758 78.5488 162.758 74.7827C162.758 71.0165 163.011 66.2476 161.311 66.393Z" fill="white" stroke="#263238" stroke-linecap="round" stroke-linejoin="round"/>
<path d="M165.98 79.3908C167.565 79.0846 203.749 87.0456 203.749 91.1256C203.749 95.2056 195.581 117.665 195.581 117.665L160.882 108.479C160.882 108.479 161.579 80.2711 165.98 79.3908Z" fill="#5F80F8" stroke="#263238" stroke-linecap="round" stroke-linejoin="round"/>
<path d="M178.205 61.7619C178.205 61.7619 170.39 60.8892 164.886 63.645C159.382 66.4007 159.39 71.0241 159.681 75.5098C159.972 79.9955 161.464 104.192 161.901 105.93C162.337 107.668 172.273 107.208 178.06 108.364C183.847 109.52 187.904 104.743 188.777 102.86C189.649 100.977 199.777 82.5982 199.777 78.6942C199.777 74.7903 195.582 67.4034 189.642 63.9282C186.21 61.8653 182.154 61.097 178.205 61.7619Z" fill="white" stroke="#263238" stroke-linecap="round" stroke-linejoin="round"/>
<path d="M172.701 76.6657L174.294 80.141L168.07 101.85L169.517 106.045L173.72 102.86L176.031 80.5773L179.216 77.102L177.623 73.1905L172.701 76.6657Z" fill="#263238" stroke="#263238" stroke-linecap="round" stroke-linejoin="round"/>
<path d="M173.138 67.6943C172.281 69.3241 171.555 71.0184 170.964 72.7618C170.574 74.6659 170.381 76.6052 170.389 78.5488C170.389 78.5488 175.021 76.3748 176.322 76.3748C177.623 76.3748 180.226 82.3149 180.226 82.3149C180.226 82.3149 184.137 76.5203 184.719 72.3637C185.301 68.2072 180.808 65.13 177.623 65.13C176.715 65.1214 175.821 65.3544 175.033 65.805C174.245 66.2556 173.591 66.9076 173.138 67.6943Z" fill="white" stroke="#263238" stroke-linecap="round" stroke-linejoin="round"/>
<path d="M189.634 63.4995C189.634 63.4995 191.088 61.3255 191.372 63.3541C191.655 65.3826 189.925 66.9671 188.914 67.5489C188.659 67.725 188.356 67.8193 188.046 67.8193C187.735 67.8193 187.432 67.725 187.177 67.5489" fill="white"/>
<path d="M189.634 63.4995C189.634 63.4995 191.088 61.3255 191.372 63.3541C191.655 65.3826 189.925 66.9671 188.914 67.5489C188.659 67.725 188.356 67.8193 188.046 67.8193C187.735 67.8193 187.432 67.725 187.177 67.5489" stroke="#263238" stroke-linecap="round" stroke-linejoin="round"/>
<path d="M174.876 55.1022C174.876 55.1022 173.429 53.9464 172.58 56.2581C171.73 58.5699 173.161 61.471 173.161 61.471L174.608 58.4091" fill="white"/>
<path d="M174.876 55.1022C174.876 55.1022 173.429 53.9464 172.58 56.2581C171.73 58.5699 173.161 61.471 173.161 61.471L174.608 58.4091" stroke="#263238" stroke-linecap="round" stroke-linejoin="round"/>
<path d="M174.876 74.4994C174.81 74.7211 174.798 74.9552 174.841 75.1824C174.883 75.4096 174.979 75.6235 175.12 75.8065C175.262 75.9895 175.444 76.1364 175.653 76.2352C175.862 76.334 176.091 76.3819 176.323 76.3748C178.206 76.5203 182.11 72.4709 182.4 71.5983C182.691 70.7256 174.876 74.4994 174.876 74.4994Z" fill="white" stroke="#263238" stroke-linecap="round" stroke-linejoin="round"/>
<path d="M181.681 46.2763C181.681 46.2763 176.613 48.5727 175.457 52.2087C174.302 55.8447 172.396 63.2086 172.396 65.9873C172.396 68.766 173.26 74.4076 175.144 75.2496C177.027 76.0916 183.25 72.0652 184.98 70.9093C186.71 69.7535 188.746 65.2678 190.92 62.6575C193.094 60.0472 194.824 55.2783 193.982 51.3744C193.14 47.4704 186.741 42.801 181.681 46.2763Z" fill="white" stroke="#263238" stroke-linecap="round" stroke-linejoin="round"/>
<path d="M193.981 51.3438C193.109 47.4322 186.74 42.801 181.68 46.2763C181.68 46.2763 176.613 48.5727 175.457 52.2087C174.906 53.9311 174.194 56.4954 173.597 59.0138C174.584 57.4829 176.222 54.842 176.322 54.2373C176.467 53.3646 176.467 53.2192 177.478 53.2192C178.488 53.2192 180.371 56.1127 182.981 56.6944C185.592 57.2762 189.059 56.8399 189.059 58.2866C189.059 59.7334 187.031 62.0528 188.332 62.7723C189.35 63.3388 188.439 65.2907 188.531 66.1404C189.252 64.9147 190.058 63.7406 190.942 62.6269C193.109 60.0243 194.846 55.2477 193.981 51.3438Z" fill="#263238" stroke="#263238" stroke-linecap="round" stroke-linejoin="round"/>
<path d="M175.02 60.3151C175.02 60.3151 180.088 62.7723 182.545 63.645C185.002 64.5176 187.467 65.5204 186.594 67.1126C185.722 68.7048 182.836 69.409 181.098 68.7048C179.361 68.0005 179.797 64.3645 178.802 64.2191C177.807 64.0736 177.072 65.9567 175.189 65.9567C173.306 65.9567 171.277 63.0632 171.568 61.0347C171.859 59.0062 175.02 60.3151 175.02 60.3151Z" fill="white" stroke="#263238" stroke-linecap="round" stroke-linejoin="round"/>
<path d="M187.031 65.6658L190.361 62.336" stroke="#263238" stroke-linecap="round" stroke-linejoin="round"/>
<path d="M172.418 60.1697L174.148 56.2581" stroke="#263238" stroke-linecap="round" stroke-linejoin="round"/>
<path d="M212.836 90.8653C212.836 90.8653 203.237 99.408 200.749 101.881C198.261 104.353 198.146 109.107 200.512 110.171C202.877 111.235 210.348 106.856 211.527 105.907C212.706 104.958 215.913 91.4547 212.836 90.8653Z" fill="#263238" stroke="#263238" stroke-linecap="round" stroke-linejoin="round"/>
<path d="M236.833 112.222C236.833 112.222 249.731 125.113 247.152 129.239C244.572 133.365 219.816 146.263 219.816 146.263L215.17 126.146L236.833 112.222Z" fill="#5F80F8" stroke="#263238" stroke-linecap="round" stroke-linejoin="round"/>
<path d="M220.29 90.0386C220.29 90.0386 214.848 89.564 212.835 90.8653C210.822 92.1666 209.398 104.254 209.007 111.48C208.617 118.706 207.706 124.493 208.181 125.924C208.655 127.356 220.972 142.864 222.725 145C224.478 147.136 238.838 125.335 240.851 120.949C242.864 116.562 241.563 112.528 238.953 106.504C236.343 100.48 230.785 94.8917 227.471 91.8145C226.521 90.936 225.365 90.3123 224.109 90.0018C222.854 89.6912 221.54 89.7039 220.29 90.0386Z" fill="#263238" stroke="#263238" stroke-linecap="round" stroke-linejoin="round"/>
<path d="M220.177 104.368L220.092 104.828C219.939 105.677 219.61 107.622 219.327 109.819C218.967 112.781 219.09 116.708 220.039 116.708C220.988 116.708 233.419 107.706 233.657 99.5382C233.894 91.3705 221.126 100.939 220.177 104.368Z" fill="white" stroke="#263238" stroke-linecap="round" stroke-linejoin="round"/>
<path d="M219.586 88.2627C219.586 88.2627 218.4 92.6412 218.4 93.3531C218.489 94.194 218.648 95.0261 218.874 95.8409C218.874 95.8409 216.861 99.0406 217.099 99.3927C217.38 99.7399 217.695 100.058 218.04 100.342C218.04 100.342 217.81 104.843 218.752 105.792C219.694 106.741 223.613 106.144 223.613 106.144C223.613 106.144 221.714 108.517 223.85 108.632C225.986 108.747 231.666 104.039 233.327 101.291C234.988 98.543 234.858 93.5904 233.327 91.1026C231.796 88.6148 222.664 85.1778 219.586 88.2627Z" fill="white" stroke="#263238" stroke-linecap="round" stroke-linejoin="round"/>
<path d="M229.89 79.7276C229.89 79.7276 220.766 80.9141 219.112 84.4659C217.459 88.0177 221.24 92.4039 223.966 93.001C225.44 93.3481 226.952 93.505 228.467 93.4679C228.467 93.4679 225.627 95.9557 227.403 96.5298C229.178 97.104 230.005 96.7671 230.005 97.3566C230.005 97.946 228.229 99.8443 229.768 99.9668C231.306 100.089 231.781 97.3566 232.73 97.9536C233.679 98.5507 232.378 100.908 232.853 101.016C233.327 101.123 237.828 96.4227 239.742 91.4165C241.656 86.4102 239.03 83.3636 237.139 81.7102C235.249 80.0568 232.141 79.1382 229.89 79.7276Z" fill="#263238" stroke="#263238" stroke-linecap="round" stroke-linejoin="round"/>
<path d="M229.89 100.457C229.89 100.457 231.551 96.6294 232.615 97.502C233.679 98.3746 233.327 101.054 232.141 102.003C230.954 102.952 228.704 101.881 228.704 101.881" fill="white"/>
<path d="M229.89 100.457C229.89 100.457 231.551 96.6294 232.615 97.502C233.679 98.3746 233.327 101.054 232.141 102.003C230.954 102.952 228.704 101.881 228.704 101.881" stroke="#263238" stroke-linecap="round" stroke-linejoin="round"/>
<path d="M219.349 110.883L223.138 108.992L222.549 114.672" fill="white"/>
<path d="M219.349 110.883L223.138 108.992L222.549 114.672" stroke="#263238" stroke-linecap="round" stroke-linejoin="round"/>
<path d="M249.494 211.489C249.494 211.489 242.681 224.9 242.949 227.334C243.171 229.317 247.894 244.458 249.624 249.939C249.69 250.156 249.702 250.386 249.658 250.608C249.615 250.831 249.517 251.039 249.374 251.215C249.232 251.391 249.048 251.53 248.839 251.618C248.63 251.707 248.403 251.742 248.177 251.723C247.908 251.698 247.652 251.595 247.441 251.426C247.23 251.258 247.074 251.03 246.991 250.773L239.443 227.602C239.443 227.602 238.088 225.98 233.771 225.176C230.456 224.548 213.991 223.775 206.466 223.446C205.081 223.369 203.719 223.832 202.668 224.739C201.617 225.646 200.959 226.925 200.832 228.307C200.829 228.342 200.829 228.378 200.832 228.414C200.588 231.529 195.474 247.643 194.303 251.21C194.24 251.405 194.108 251.572 193.933 251.678C193.757 251.785 193.549 251.825 193.346 251.791C193.232 251.772 193.123 251.73 193.025 251.668C192.927 251.605 192.844 251.523 192.778 251.428C192.713 251.332 192.668 251.224 192.646 251.11C192.624 250.996 192.625 250.879 192.65 250.766C193.568 246.586 197.51 228.567 198.942 219.504C198.942 219.504 227.563 220.851 234.046 219.228C240.53 217.605 248.154 208.243 248.154 208.243C248.154 208.243 249.762 208.244 249.494 211.489Z" fill="#263238" stroke="#263238" stroke-linecap="round" stroke-linejoin="round"/>
<path d="M254.064 167.023C254.064 167.023 261.519 198.17 259.506 203.436C257.493 208.703 249.134 215.684 246.172 215.454C243.209 215.225 242.957 185.432 243.156 182.738C243.355 180.043 249.188 170.727 251.101 166.77C253.015 162.812 254.064 167.023 254.064 167.023Z" fill="#5F80F8" stroke="#263238" stroke-linecap="round" stroke-linejoin="round"/>
<path d="M195.758 215.99C195.85 219.052 196.332 221.394 197.603 221.394C200.037 221.394 226.499 224.089 232.715 223.821C238.931 223.553 243.493 220.353 243.493 215.76C243.493 211.168 243.217 190.875 238.625 188.203C234.032 185.532 209.728 185.233 204.056 185.233C197.074 185.233 196.768 198.721 196.477 203.291C196.393 204.607 195.582 211.168 195.758 215.99Z" fill="#5F80F8" stroke="#263238" stroke-linecap="round" stroke-linejoin="round"/>
<path d="M241.564 190.867C241.564 190.867 239.329 196.325 239.329 200.658C239.329 204.99 237.232 213.518 232.899 216.028C228.566 218.539 223.713 219.948 216.541 218.968C209.368 217.988 193.76 215.47 193.76 215.47C193.76 215.47 209.835 203.987 213.885 198.277C217.934 192.567 219.335 187.798 222.55 184.583C225.765 181.368 241.281 178.153 241.564 190.867Z" fill="#263238" stroke="#263238" stroke-linecap="round" stroke-linejoin="round"/>
<path d="M145.382 234.27C192.837 234.27 231.307 204.539 231.307 167.865C231.307 131.19 192.837 101.46 145.382 101.46C97.9268 101.46 59.457 131.19 59.457 167.865C59.457 204.539 97.9268 234.27 145.382 234.27Z" fill="#263238" stroke="#263238" stroke-linecap="round" stroke-linejoin="round"/>
<path d="M145.382 232.279C192.837 232.279 231.307 202.549 231.307 165.874C231.307 129.2 192.837 99.4693 145.382 99.4693C97.9268 99.4693 59.457 129.2 59.457 165.874C59.457 202.549 97.9268 232.279 145.382 232.279Z" fill="#5F80F8" stroke="#263238" stroke-linecap="round" stroke-linejoin="round"/>
<path d="M187.957 125.097L198.858 137.062L179.545 150.917L168.415 137.414L187.957 125.097Z" fill="white" stroke="#263238" stroke-linecap="round" stroke-linejoin="round"/>
<path d="M129 126.131L111.165 135.301L126.964 154.66L145.305 142.435L129 126.131Z" fill="white" stroke="#263238" stroke-linecap="round" stroke-linejoin="round"/>
<path d="M156.045 145.52L138.217 154.691L154.009 174.05L172.349 161.825L156.045 145.52Z" fill="white" stroke="#263238" stroke-linecap="round" stroke-linejoin="round"/>
<path d="M154.054 146.929L134.849 152.67L146.821 174.601L167.09 165.943L154.054 146.929Z" fill="white" stroke="#263238" stroke-linecap="round" stroke-linejoin="round"/>
<path d="M131.136 115.253C131.136 115.253 134.604 113.96 134.604 114.825C134.604 115.69 134.604 116.555 133.073 116.991C131.542 117.427 126.359 116.34 127.661 115.69C128.771 115.282 129.959 115.132 131.136 115.253Z" fill="white" stroke="#263238" stroke-linecap="round" stroke-linejoin="round"/>
<path d="M111.953 78.0512C111.953 78.0512 107.46 79.6358 105.209 82.4221C102.959 85.2084 101.902 92.4728 101.382 95.6495C100.861 98.8263 98.4729 110.867 99.7972 112.322C101.121 113.776 115.275 118.675 118.054 119.471C120.832 120.267 124.178 121.454 125.999 121.324C127.33 121.133 128.599 120.635 129.704 119.869C129.704 119.869 132.881 121.324 133.67 121.324C134.458 121.324 135.522 119.869 134.596 118.407C133.67 116.945 131.09 114.825 129.635 114.825C128.181 114.825 122.823 115.628 122.823 115.628C122.823 115.628 113.691 110.997 111.042 109.145C109.382 107.966 107.832 106.638 106.411 105.18L111.838 88.2397" fill="#263238"/>
<path d="M111.953 78.0512C111.953 78.0512 107.46 79.6358 105.209 82.4221C102.959 85.2084 101.902 92.4728 101.382 95.6495C100.861 98.8263 98.4729 110.867 99.7972 112.322C101.121 113.776 115.275 118.675 118.054 119.471C120.832 120.267 124.178 121.454 125.999 121.324C127.33 121.133 128.599 120.635 129.704 119.869C129.704 119.869 132.881 121.324 133.67 121.324C134.458 121.324 135.522 119.869 134.596 118.407C133.67 116.945 131.09 114.825 129.635 114.825C128.181 114.825 122.823 115.628 122.823 115.628C122.823 115.628 113.691 110.997 111.042 109.145C109.382 107.966 107.832 106.638 106.411 105.18L111.838 88.2397" stroke="#263238" stroke-linecap="round" stroke-linejoin="round"/>
<path d="M129.621 114.825C128.166 114.825 122.808 115.628 122.808 115.628C122.808 115.628 121.797 115.123 120.358 114.373C119.241 115.131 118.385 116.217 117.909 117.481C117.739 118.09 117.644 118.717 117.625 119.349L118.039 119.471C120.818 120.237 124.163 121.454 125.984 121.324C127.316 121.133 128.584 120.635 129.689 119.869C129.689 119.869 132.866 121.324 133.655 121.324C134.443 121.324 135.507 119.869 134.581 118.407C133.655 116.945 131.075 114.825 129.621 114.825Z" fill="white" stroke="#263238" stroke-linecap="round" stroke-linejoin="round"/>
<path d="M69.0175 91.1638C68.6118 91.2863 65.5346 94.6468 65.2667 98.5354C64.9988 102.424 67.9459 108.846 68.4817 109.918C69.0175 110.99 68.3516 112.865 69.6911 112.865C71.0307 112.865 75.1873 106.703 75.1873 106.703C75.1873 106.703 79.872 106.971 80.4078 105.769C80.9437 104.567 76.657 97.8618 75.7231 95.0525C74.7892 92.2432 71.2986 90.4979 69.0175 91.1638Z" fill="white" stroke="#263238" stroke-linecap="round" stroke-linejoin="round"/>
<path d="M68.7494 89.1583C68.7587 91.0013 68.5792 92.8404 68.2136 94.6468C67.6777 96.5222 67.5476 97.4637 69.5532 100.411C71.5671 103.06 73.7615 105.566 76.1209 107.912C76.1209 107.912 76.3888 104.851 76.5266 103.09C76.6644 101.329 79.3359 100.273 79.8718 99.4693C80.4076 98.6655 76.9247 98.1297 75.5851 95.7184C74.2455 93.3072 74.2455 89.1583 72.3701 88.7526C70.4947 88.3469 69.4536 87.2829 68.7494 89.1583Z" fill="white" stroke="#263238" stroke-linecap="round" stroke-linejoin="round"/>
<path d="M86.7074 80.983C86.7074 80.983 90.4582 79.9113 89.7693 76.1605C89.0803 72.4097 82.2676 69.6004 74.9037 70.2663C67.5398 70.9323 64.187 75.7625 63.5134 80.585C62.8398 85.4075 67.9302 90.0922 68.4661 90.8959C69.0019 91.6997 68.3359 92.5034 69.9434 93.0392C71.0373 93.3465 72.1947 93.3465 73.2886 93.0392C73.6847 93.6091 74.2375 94.052 74.8801 94.3142C75.5227 94.5764 76.2275 94.6467 76.9093 94.5166C79.2057 93.9808 78.5168 89.4262 79.4583 88.8904C80.3999 88.3545 81.0658 86.5939 83.8751 85.0017C86.6844 83.4096 86.7074 80.983 86.7074 80.983Z" fill="#263238" stroke="#263238" stroke-linecap="round" stroke-linejoin="round"/>
<path d="M75.3174 92.1054C75.3174 92.1054 75.5853 89.962 72.9062 89.6941C70.227 89.4262 70.9006 91.9906 71.4365 93.1771C71.9723 94.3635 73.8401 95.3204 73.8401 95.3204C73.8401 95.3204 74.5137 98.3823 75.4552 98.6655C76.3968 98.9487 82.0154 101.345 83.11 100.962C84.2046 100.579 85.2533 95.6036 85.2533 95.6036C85.2533 95.6036 87.1287 94.6621 87.1287 93.7282C87.1287 92.7943 86.2944 90.0922 86.2944 89.4568C86.2944 88.8215 87.7717 86.9078 88.0397 85.4381C88.3076 83.9684 86.7001 81.0136 86.7001 81.0136C86.7001 81.0136 86.0265 83.4249 83.8831 83.4249C82.4312 83.3915 80.99 83.1676 79.5965 82.7589C79.5965 82.7589 80.6681 85.5682 79.8644 86.7777C79.0606 87.9871 77.721 87.7115 77.4531 88.2474C77.1852 88.7832 77.323 91.1945 77.1852 91.7303C77.0474 92.2661 76.1212 94.1109 75.3174 92.1054Z" fill="white" stroke="#263238" stroke-linecap="round" stroke-linejoin="round"/>
<path d="M88.3154 106.703C88.3154 106.703 88.9814 112.061 90.321 114.205C91.6606 116.348 97.2868 124.653 97.2868 124.653C97.2868 124.653 96.8888 127.47 97.2868 128.274C98.0889 129.961 98.7619 131.706 99.3 133.495C99.3 134.031 100.372 134.436 100.502 133.632C100.591 133.011 100.637 132.385 100.64 131.757L102.936 135.24C102.936 135.24 104.145 136.174 104.544 135.37C104.942 134.566 104.681 130.28 104.949 128.542C105.217 126.804 103.878 124.386 102.806 123.314C101.734 122.242 100.395 120.367 99.989 119.969C99.5833 119.571 97.8456 113.271 97.0419 108.984C96.2381 104.697 94.0948 102.018 92.4873 101.75" fill="white"/>
<path d="M88.3154 106.703C88.3154 106.703 88.9814 112.061 90.321 114.205C91.6606 116.348 97.2868 124.653 97.2868 124.653C97.2868 124.653 96.8888 127.47 97.2868 128.274C98.0889 129.961 98.7619 131.706 99.3 133.495C99.3 134.031 100.372 134.436 100.502 133.632C100.591 133.011 100.637 132.385 100.64 131.757L102.936 135.24C102.936 135.24 104.145 136.174 104.544 135.37C104.942 134.566 104.681 130.28 104.949 128.542C105.217 126.804 103.878 124.386 102.806 123.314C101.734 122.242 100.395 120.367 99.989 119.969C99.5833 119.571 97.8456 113.271 97.0419 108.984C96.2381 104.697 94.0948 102.018 92.4873 101.75" stroke="#263238" stroke-linecap="round" stroke-linejoin="round"/>
<path d="M104.52 135.385C104.926 134.62 104.658 130.295 104.926 128.557C105.194 126.82 103.854 124.401 102.782 123.329C102.01 122.509 101.282 121.648 100.601 120.75C98.9808 121.206 97.527 122.121 96.4136 123.383L97.2862 124.669C97.2862 124.669 96.8882 127.486 97.2862 128.289C98.0883 129.976 98.7613 131.721 99.2994 133.51C99.2994 134.046 100.371 134.452 100.501 133.648C100.591 133.027 100.637 132.4 100.639 131.772L102.935 135.255C102.935 135.255 104.122 136.151 104.52 135.385Z" fill="white" stroke="#263238" stroke-linecap="round" stroke-linejoin="round"/>
<path d="M56.1571 101.345C54.4085 102.731 53.1809 104.668 52.6742 106.841C51.7403 110.592 54.8175 125.863 55.6212 130.28C56.425 134.697 60.4438 149.417 61.6532 150.373C62.8627 151.33 76.9245 149.57 82.0149 148.636C87.1053 147.702 98.0899 143.813 100.386 143.14C102.683 142.466 103.869 138.991 104.535 138.317C105.201 137.644 106.679 135.37 105.875 134.566C105.071 133.763 102.813 134.566 101.856 134.566C100.899 134.566 99.1769 134.436 97.3014 134.436C96.3728 134.461 95.4777 134.789 94.7523 135.369C94.0269 135.949 93.5108 136.751 93.2827 137.651C93.0261 138.667 92.5708 139.622 91.9431 140.461C91.9431 140.461 78.1645 142.336 75.2021 142.336C73.2744 142.322 71.3494 142.189 69.4381 141.938C69.4381 141.938 67.8306 132.691 66.6212 126.935C65.4117 121.178 64.3247 116.754 63.4062 115.276" fill="white"/>
<path d="M56.1571 101.345C54.4085 102.731 53.1809 104.668 52.6742 106.841C51.7403 110.592 54.8175 125.863 55.6212 130.28C56.425 134.697 60.4438 149.417 61.6532 150.373C62.8627 151.33 76.9245 149.57 82.0149 148.636C87.1053 147.702 98.0899 143.813 100.386 143.14C102.683 142.466 103.869 138.991 104.535 138.317C105.201 137.644 106.679 135.37 105.875 134.566C105.071 133.763 102.813 134.566 101.856 134.566C100.899 134.566 99.1769 134.436 97.3014 134.436C96.3728 134.461 95.4777 134.789 94.7523 135.369C94.0269 135.949 93.5108 136.751 93.2827 137.651C93.0261 138.667 92.5708 139.622 91.9431 140.461C91.9431 140.461 78.1645 142.336 75.2021 142.336C73.2744 142.322 71.3494 142.189 69.4381 141.938C69.4381 141.938 67.8306 132.691 66.6211 126.935C65.4117 121.178 64.3247 116.754 63.4062 115.276" stroke="#263238" stroke-linecap="round" stroke-linejoin="round"/>
<path d="M101.842 134.566C100.908 134.566 99.1625 134.436 97.287 134.436C96.3584 134.461 95.4633 134.789 94.7379 135.369C94.0125 135.949 93.4964 136.751 93.2683 137.651C93.0117 138.667 92.5564 139.622 91.9287 140.461L90.9565 140.591C91.343 141.391 91.5816 142.255 91.6608 143.14C91.7009 144.108 91.6419 145.077 91.4847 146.033C95.4499 144.778 99.1395 143.499 100.372 143.14C102.668 142.474 103.855 138.991 104.521 138.317C105.187 137.644 106.664 135.37 105.86 134.566C105.057 133.763 102.783 134.566 101.842 134.566Z" fill="white" stroke="#263238" stroke-linecap="round" stroke-linejoin="round"/>
<path d="M92.7783 159.812C92.7783 159.812 96.2306 160.095 97.3712 160.095C98.5117 160.095 106.434 159.238 105.286 157.944C104.138 156.65 95.4881 155.494 95.4881 155.494L92.7783 159.812Z" fill="white" stroke="#263238" stroke-linecap="round" stroke-linejoin="round"/>
<path d="M110.031 152.042L84.8701 163.693L94.6453 183.534L119.378 171.026L110.031 152.042Z" fill="white" stroke="#263238" stroke-linecap="round" stroke-linejoin="round"/>
<path d="M93.1836 158.656C93.1836 158.656 96.1996 158.656 96.9191 159.092C97.6387 159.529 100.655 162.254 101.091 161.534C101.527 160.815 99.7973 159.092 99.0778 158.373C98.3582 157.653 97.6387 157.079 97.6387 157.079" fill="white"/>
<path d="M93.1836 158.656C93.1836 158.656 96.1996 158.656 96.9191 159.092C97.6387 159.529 100.655 162.254 101.091 161.534C101.527 160.815 99.7973 159.092 99.0778 158.373C98.3582 157.653 97.6387 157.079 97.6387 157.079" stroke="#263238" stroke-linecap="round" stroke-linejoin="round"/>
<path d="M69.5687 148.743L95.4801 155.495L91.4231 161.435L64.1492 158.197C64.1492 158.197 57.6809 149.286 69.5687 148.743Z" fill="white" stroke="#263238" stroke-linecap="round" stroke-linejoin="round"/>
<path d="M51.2278 149.876C51.2278 149.876 44.9127 155.234 42.8076 161.741C40.7025 168.247 39.363 181.26 39.363 181.26C39.363 181.26 32.665 190.829 32.665 191.786C32.665 192.743 38.2147 191.786 38.2147 191.786L32.8564 200.971C32.8564 200.971 32.8564 208.626 37.0665 212.645C39.0101 214.491 41.3423 215.879 43.892 216.707C46.4418 217.535 49.1445 217.782 51.802 217.429C56.3948 216.664 64.8151 206.33 65.7719 205.756C66.7287 205.182 63.4755 196.379 62.71 193.125C61.9445 189.872 63.4755 187.576 64.4323 187.001C65.3892 186.427 70.9389 182.983 72.0871 180.495C73.2353 178.007 73.0439 173.797 72.6612 170.544C72.2784 167.29 67.4942 156 63.2841 152.555C59.074 149.11 55.2466 146.814 51.2278 149.876Z" fill="white" stroke="#263238" stroke-linecap="round" stroke-linejoin="round"/>
<path d="M55.0556 148.919C55.0556 148.919 52.1851 153.129 52.1851 156.191C52.1851 159.253 54.6729 164.229 56.5865 166.525C57.7114 167.881 58.9261 169.16 60.2226 170.352L64.4327 169.396L64.6241 172.649C64.6241 172.649 65.5809 170.927 68.2601 172.075C70.9392 173.223 72.6616 172.457 72.6616 171.883C73.5767 168.175 73.5767 164.301 72.6616 160.593C71.1306 153.895 69.4083 152.746 66.9205 150.259C64.4327 147.771 58.6916 146.814 55.0556 148.919Z" fill="white" stroke="#263238" stroke-linecap="round" stroke-linejoin="round"/>
<path d="M56.969 149.876C56.969 149.876 54.8639 153.512 56.0121 156.382C57.1604 159.253 60.7964 162.698 63.6669 165.185C66.5374 167.673 70.1735 170.352 70.1735 170.352C70.8228 168.235 71.0388 166.008 70.8087 163.805C70.5785 161.602 69.9069 159.468 68.8339 157.531C65.1979 150.641 58.6913 148.536 56.969 149.876Z" fill="white" stroke="#263238" stroke-linecap="round" stroke-linejoin="round"/>
<path d="M73.6177 132.461C74.1541 133.704 74.6017 134.983 74.9573 136.289V137.628C74.9573 137.628 77.6364 139.159 77.2537 139.733C76.871 140.307 75.34 142.795 75.34 142.795C75.5496 144.9 75.4853 147.022 75.1486 149.11C74.5745 151.598 75.34 152.746 73.2349 152.746H67.8766C67.8766 152.746 67.3025 160.784 65.9629 160.784C64.6233 160.784 58.4995 157.913 57.3513 156.382C56.2031 154.851 55.8204 153.321 56.2031 152.172C57.3941 149.105 58.4162 145.974 59.265 142.795C60.0305 139.351 65.7716 136.671 67.1111 136.097C68.4507 135.523 73.6177 132.461 73.6177 132.461Z" fill="white" stroke="#263238" stroke-linecap="round" stroke-linejoin="round"/>
<path d="M52.3766 146.049C52.3766 146.049 47.7837 145.283 45.4873 145.666C43.1908 146.049 40.3203 149.302 40.3203 152.555C40.3203 155.808 42.8081 157.722 46.8269 158.105C50.8456 158.488 53.5248 155.043 53.5248 153.129C53.5269 150.722 53.1392 148.331 52.3766 146.049Z" fill="#263238" stroke="#263238" stroke-linecap="round" stroke-linejoin="round"/>
<path d="M64.049 145.092C64.049 145.092 71.321 137.246 73.6174 132.461C75.9139 127.677 75.1484 122.701 71.5124 122.701C67.8764 122.701 63.8576 121.553 56.9683 124.041C50.079 126.529 47.2085 134.566 47.5912 138.776C47.974 142.987 54.2892 151.598 57.5424 152.172C60.7957 152.746 60.7957 147.005 60.7957 147.005L64.049 145.092Z" fill="#263238" stroke="#263238" stroke-linecap="round" stroke-linejoin="round"/>
<path d="M65.0064 146.431C65.0064 146.431 63.284 142.604 61.179 143.752C59.0739 144.9 60.9876 149.11 62.3272 150.067C63.6668 151.024 65.7718 149.493 65.7718 149.493" fill="white"/>
<path d="M65.0064 146.431C65.0064 146.431 63.284 142.604 61.179 143.752C59.0739 144.9 60.9876 149.11 62.3272 150.067C63.6668 151.024 65.7718 149.493 65.7718 149.493" stroke="#263238" stroke-linecap="round" stroke-linejoin="round"/>
<path d="M74.9577 137.628C74.9577 137.628 74.1922 140.116 73.2354 140.499" stroke="#263238" stroke-linecap="round" stroke-linejoin="round"/>
<path d="M89.6325 172.281C89.6325 172.281 88.1628 171.302 87.9714 172.572C87.78 173.843 89.2421 175.213 89.2421 175.213C89.2421 175.213 87.382 173.162 87.2825 174.333C87.183 175.504 88.3618 176.782 88.3618 176.782C88.3618 176.782 86.8921 176.093 86.8921 176.683C86.8921 177.272 88.9512 179.324 89.0431 180.296C89.1349 181.268 91.0027 178.244 91.3931 175.902C91.476 175.193 91.3543 174.476 91.0423 173.834C90.7303 173.193 90.2411 172.654 89.6325 172.281Z" fill="white" stroke="#263238" stroke-linecap="round" stroke-linejoin="round"/>
<path d="M86.8228 186.81C87.2848 185.117 87.6049 183.389 87.7796 181.643C87.7796 180.112 89.5019 177.433 90.2674 175.902C91.0329 174.371 87.7796 171.692 89.3106 170.926C90.8415 170.161 91.9897 171.692 93.3293 173.414C94.6689 175.137 95.0516 178.773 93.9034 181.26C92.8207 183.562 91.4018 185.691 89.6933 187.576C89.1327 188.176 88.4881 188.691 87.7796 189.107L86.8228 186.81Z" fill="white" stroke="#263238" stroke-linecap="round" stroke-linejoin="round"/>
<path d="M88.269 183.136V178.29C88.269 175.864 89.6316 172.281 89.6316 172.281C89.8557 172.251 90.0837 172.277 90.2952 172.357C90.5068 172.437 90.695 172.568 90.8431 172.739C90.9912 172.91 91.0944 173.115 91.1435 173.336C91.1926 173.557 91.186 173.786 91.1242 174.004C90.9989 175.578 91.0942 177.163 91.4075 178.711" fill="white"/>
<path d="M88.269 183.136V178.29C88.269 175.864 89.6316 172.281 89.6316 172.281C89.8557 172.251 90.0837 172.277 90.2952 172.357C90.5068 172.437 90.695 172.568 90.8431 172.739C90.9912 172.91 91.0944 173.115 91.1435 173.336C91.1926 173.557 91.186 173.786 91.1242 174.004C90.9989 175.578 91.0942 177.163 91.4075 178.711" stroke="#263238" stroke-linecap="round" stroke-linejoin="round"/>
<path d="M45.8699 180.304C45.8699 180.304 43.1908 184.131 44.5304 188.341C45.8699 192.551 65.0069 218.003 67.686 218.003C70.3652 218.003 89.6935 192.934 90.8417 191.403C91.9899 189.872 87.0143 186.045 87.0143 186.045L67.686 203.651C67.686 203.651 62.5191 182.983 60.414 179.155C58.3089 175.328 53.3333 174.945 53.3333 174.945" fill="white"/>
<path d="M45.8699 180.304C45.8699 180.304 43.1908 184.131 44.5304 188.341C45.8699 192.551 65.0069 218.003 67.686 218.003C70.3652 218.003 89.6935 192.934 90.8417 191.403C91.9899 189.872 87.0143 186.045 87.0143 186.045L67.686 203.651C67.686 203.651 62.5191 182.983 60.414 179.155C58.3089 175.328 53.3333 174.945 53.3333 174.945" stroke="#263238" stroke-linecap="round" stroke-linejoin="round"/>
<path d="M138.423 99.2243C138.423 99.2243 141.064 96.3155 143.842 95.7797C146.621 95.2438 148.075 97.1039 147.287 100.411C146.499 103.718 143.98 104.514 142.518 104.384C141.056 104.254 138.691 103.618 138.025 101.873C137.811 101.444 137.735 100.96 137.806 100.486C137.877 100.012 138.093 99.5716 138.423 99.2243Z" fill="#263238" stroke="#263238" stroke-linecap="round" stroke-linejoin="round"/>
<path d="M140.008 98.4282C140.008 98.4282 134.32 99.1937 132.996 100.151C131.672 101.107 128.625 106.236 128.625 106.894C128.625 107.553 130.477 108.219 131.404 108.219C132.33 108.219 134.718 105.042 134.718 105.042L133.524 108.356C133.524 108.356 134.718 108.219 134.848 107.69C134.978 107.162 136.831 103.588 136.831 103.588C136.831 103.588 140.276 103.725 141.202 102.133C142.128 100.541 142.786 99.4846 140.008 98.4282Z" fill="white" stroke="#263238" stroke-linecap="round" stroke-linejoin="round"/>
<path d="M151.428 89.6941C151.428 89.6941 149.836 95.0525 149.836 98.3746C149.836 101.697 152.125 112.421 152.125 112.421C151.808 114.236 151.016 115.934 149.829 117.343C147.945 119.372 148.527 122.12 149.392 122.985C150.257 123.85 152.002 125.45 152.577 124.431C153.151 123.413 152.722 121.538 153.304 120.818C153.886 120.099 156.052 118.935 156.366 116.761C156.68 114.587 156.22 107.935 156.22 104.315C156.22 100.694 158.103 95.3433 156.075 91.5849" fill="white"/>
<path d="M151.428 89.6941C151.428 89.6941 149.836 95.0525 149.836 98.3746C149.836 101.697 152.125 112.421 152.125 112.421C151.808 114.236 151.016 115.934 149.829 117.343C147.945 119.372 148.527 122.12 149.392 122.985C150.257 123.85 152.002 125.45 152.577 124.431C153.151 123.413 152.722 121.538 153.304 120.818C153.886 120.099 156.052 118.935 156.366 116.761C156.68 114.587 156.22 107.935 156.22 104.315C156.22 100.694 158.103 95.3433 156.075 91.5849" stroke="#263238" stroke-linecap="round" stroke-linejoin="round"/>
<path d="M156.374 110.706C154.024 110.24 152.73 111.036 152.041 111.893C152.11 112.222 152.156 112.413 152.156 112.413C151.839 114.228 151.047 115.927 149.86 117.335C147.977 119.364 148.558 122.112 149.423 122.977C150.288 123.842 152.034 125.442 152.608 124.424C153.182 123.406 152.753 121.53 153.335 120.811C153.917 120.091 156.083 118.928 156.397 116.754C156.51 114.739 156.503 112.72 156.374 110.706Z" fill="white" stroke="#263238" stroke-linecap="round" stroke-linejoin="round"/>
<path d="M160.4 110.53L146.507 126.307L160.546 136.296L174.003 119.219L160.4 110.53Z" fill="white" stroke="#263238" stroke-linecap="round" stroke-linejoin="round"/>
<path d="M154.322 117.014C154.322 117.014 154.468 121.936 154.468 122.663C154.468 123.39 156.06 124.255 156.205 122.518C156.229 121.547 156.326 120.58 156.496 119.624C156.642 119.188 157.507 116.44 156.351 114.411" fill="white"/>
<path d="M154.322 117.014C154.322 117.014 154.468 121.936 154.468 122.663C154.468 123.39 156.06 124.255 156.205 122.518C156.229 121.547 156.326 120.58 156.496 119.624C156.642 119.188 157.507 116.44 156.351 114.411" stroke="#263238" stroke-linecap="round" stroke-linejoin="round"/>
<path d="M193.4 78.6942C193.4 78.6942 189.496 83.0345 187.613 87.1145C185.73 91.1945 184.283 101.582 184.283 101.582C184.283 101.582 176.759 113.883 175.741 114.901C174.723 115.919 175.312 115.766 172.847 116.922C170.382 118.078 167.206 118.66 166.769 119.387C166.333 120.114 164.741 123.582 164.312 124.018C163.883 124.454 164.886 125.319 165.468 124.738C166.05 124.156 168.071 121.844 168.071 121.844L165.613 127.631C165.618 127.737 165.644 127.842 165.691 127.937C165.738 128.032 165.804 128.117 165.886 128.185C165.967 128.254 166.062 128.305 166.164 128.334C166.266 128.364 166.373 128.372 166.478 128.358C167.54 128.161 168.57 127.821 169.54 127.348C169.54 127.348 172.005 126.766 172.87 125.61C173.735 124.454 176.927 118.223 176.927 118.223C176.927 118.223 185.347 112.865 188.356 109.252C190.711 106.397 192.571 103.168 193.86 99.6989C194.288 98.2521 199.647 82.1924 199.501 79.5822C199.356 76.9719 198.054 76.5203 198.054 76.5203" fill="white"/>
<path d="M193.4 78.6942C193.4 78.6942 189.496 83.0345 187.613 87.1145C185.73 91.1945 184.283 101.582 184.283 101.582C184.283 101.582 176.759 113.883 175.741 114.901C174.723 115.919 175.312 115.766 172.847 116.922C170.382 118.078 167.206 118.66 166.769 119.387C166.333 120.114 164.741 123.582 164.312 124.018C163.883 124.454 164.886 125.319 165.468 124.738C166.05 124.156 168.071 121.844 168.071 121.844L165.613 127.631C165.618 127.737 165.644 127.842 165.691 127.937C165.738 128.032 165.804 128.117 165.886 128.185C165.967 128.254 166.062 128.305 166.164 128.334C166.266 128.364 166.373 128.372 166.478 128.358C167.54 128.161 168.57 127.821 169.54 127.348C169.54 127.348 172.005 126.766 172.87 125.61C173.735 124.454 176.927 118.223 176.927 118.223C176.927 118.223 185.347 112.865 188.356 109.252C190.711 106.397 192.571 103.168 193.86 99.6989C194.288 98.2521 199.647 82.1924 199.501 79.5822C199.356 76.9719 198.054 76.5203 198.054 76.5203" stroke="#263238" stroke-linecap="round" stroke-linejoin="round"/>
<path d="M175.312 115.338C174.837 115.881 174.853 115.958 172.847 116.869C170.39 118.032 167.206 118.606 166.769 119.333C166.333 120.061 164.741 123.528 164.312 123.965C163.883 124.401 164.886 125.266 165.468 124.684C166.05 124.102 168.071 121.791 168.071 121.791L165.613 127.578C165.618 127.684 165.644 127.788 165.691 127.883C165.738 127.979 165.804 128.063 165.886 128.132C165.967 128.2 166.062 128.251 166.164 128.281C166.266 128.31 166.373 128.319 166.478 128.305C167.54 128.107 168.57 127.767 169.54 127.294C169.54 127.294 172.005 126.713 172.87 125.557C173.735 124.401 176.927 118.17 176.927 118.17C176.927 118.17 177.448 117.841 178.29 117.282C177.518 116.346 176.479 115.667 175.312 115.338Z" fill="white" stroke="#263238" stroke-linecap="round" stroke-linejoin="round"/>
<path d="M232.73 119.885C232.73 119.885 229.531 125.924 228.941 128.305C228.352 130.685 227.41 133.28 227.41 133.28C227.41 133.28 221.485 132.331 216.395 131.749C211.305 131.168 204.078 129.851 202.295 129.499C200.511 129.147 197.204 128.19 196.493 128.787C195.781 129.384 196.255 129.262 197.09 129.614C197.779 129.824 198.509 129.866 199.218 129.736C199.218 129.736 198.031 130.088 196.73 130.563C195.429 131.038 193.056 131.864 192.703 132.339C192.351 132.813 193.178 134.474 194.479 134.474C195.466 134.412 196.455 134.412 197.442 134.474C198.154 134.589 198.506 135.301 200.879 135.301C203.252 135.301 206.559 133.403 206.559 133.403C206.559 133.403 217.696 138.501 223.973 139.565C230.25 140.629 231.199 139.213 233.81 137.192C236.42 135.171 243.99 122.747 243.401 120.26C243.015 118.702 242.374 117.22 241.503 115.873" fill="#263238"/>
<path d="M232.73 119.885C232.73 119.885 229.531 125.924 228.941 128.305C228.352 130.685 227.41 133.28 227.41 133.28C227.41 133.28 221.485 132.331 216.395 131.749C211.305 131.168 204.078 129.851 202.295 129.499C200.511 129.147 197.204 128.19 196.493 128.787C195.781 129.384 196.255 129.262 197.09 129.614C197.779 129.824 198.509 129.866 199.218 129.736C199.218 129.736 198.031 130.088 196.73 130.563C195.429 131.038 193.056 131.864 192.703 132.339C192.351 132.813 193.178 134.474 194.479 134.474C195.466 134.412 196.455 134.412 197.442 134.474C198.154 134.589 198.506 135.301 200.879 135.301C203.252 135.301 206.559 133.403 206.559 133.403C206.559 133.403 217.696 138.501 223.973 139.565C230.25 140.629 231.199 139.213 233.81 137.192C236.42 135.171 243.99 122.747 243.401 120.26C243.015 118.702 242.374 117.22 241.503 115.873" stroke="#263238" stroke-linecap="round" stroke-linejoin="round"/>
<path d="M209.107 130.685C206.007 130.18 203.289 129.683 202.287 129.484C200.511 129.124 197.196 128.175 196.484 128.772C195.772 129.369 196.247 129.246 197.081 129.598C197.771 129.809 198.5 129.851 199.209 129.721C199.209 129.721 198.023 130.073 196.722 130.548C195.42 131.022 193.047 131.849 192.695 132.324C192.343 132.798 193.17 134.459 194.471 134.459C195.458 134.397 196.447 134.397 197.433 134.459C198.145 134.574 198.498 135.286 200.87 135.286C203.243 135.286 206.55 133.388 206.55 133.388C206.55 133.388 207.423 133.786 208.809 134.383L209.107 130.685Z" fill="white" stroke="#263238" stroke-linecap="round" stroke-linejoin="round"/>
<path d="M201.46 101.643C201.46 101.643 195.895 104.368 193.759 106.236C191.624 108.104 186.296 120.091 186.181 120.918C186.066 121.745 190.207 122.227 190.682 121.99C191.157 121.752 199.569 112.038 201.697 110.377C202.285 109.995 202.724 109.421 202.94 108.754C203.156 108.087 203.136 107.365 202.884 106.711" fill="#263238"/>
<path d="M201.46 101.643C201.46 101.643 195.895 104.368 193.759 106.236C191.624 108.104 186.296 120.091 186.181 120.918C186.066 121.745 190.207 122.227 190.682 121.99C191.157 121.752 199.569 112.038 201.697 110.377C202.285 109.995 202.724 109.421 202.94 108.754C203.156 108.087 203.136 107.365 202.884 106.711" stroke="#263238" stroke-linecap="round" stroke-linejoin="round"/>
<path d="M188.194 118.468C186.431 118.841 184.69 119.314 182.981 119.885C181.557 120.482 178.243 124.745 179.07 124.983C179.896 125.22 182.131 122.495 182.131 122.495C181.345 123.609 180.67 124.799 180.118 126.047C179.881 126.996 179.644 129.109 180.593 128.772C181.542 128.435 183.433 125.809 183.433 125.809C183.433 125.809 185.798 124.386 187.696 124.386C189.595 124.386 190.896 120.834 190.896 120.834C190.896 120.834 192.427 119.303 191.845 117.634C191.264 115.965 188.194 118.468 188.194 118.468Z" fill="white" stroke="#263238" stroke-linecap="round" stroke-linejoin="round"/>
<path d="M191.395 117.519C190.926 117.538 190.459 117.452 190.029 117.266C189.598 117.081 189.215 116.801 188.907 116.448C187.957 115.269 187.376 116.448 187.376 117.634C187.39 117.98 187.511 118.312 187.722 118.586C187.933 118.861 188.224 119.063 188.555 119.165C188.555 119.165 186.541 121.063 187.728 121.653C188.119 121.808 188.545 121.857 188.962 121.795C189.378 121.733 189.771 121.563 190.101 121.301" fill="white"/>
<path d="M191.395 117.519C190.926 117.538 190.459 117.452 190.029 117.266C189.598 117.081 189.215 116.801 188.907 116.448C187.957 115.269 187.376 116.448 187.376 117.634C187.39 117.98 187.511 118.312 187.722 118.586C187.933 118.861 188.224 119.063 188.555 119.165C188.555 119.165 186.541 121.063 187.728 121.653C188.119 121.808 188.545 121.857 188.962 121.795C189.378 121.733 189.771 121.563 190.101 121.301" stroke="#263238" stroke-linecap="round" stroke-linejoin="round"/>
<path d="M233.037 148.399C233.037 148.399 227.166 147.281 225.068 146.868C222.971 146.454 216.12 149.248 214.168 149.929C212.216 150.611 214.168 151.193 216.265 151.606C218.363 152.019 222.55 151.193 222.55 151.193C222.55 151.193 217.957 153.144 219.059 153.428C220.161 153.711 222.412 153.144 224.372 153.007C226.331 152.869 228.283 151.047 228.283 151.047C228.283 151.047 237.653 155.64 238.77 155.64C239.888 155.64 241.564 152.287 239.183 150.886C237.221 149.857 235.162 149.024 233.037 148.399Z" fill="white" stroke="#263238" stroke-linecap="round" stroke-linejoin="round"/>
<path d="M235.134 153.55C231.464 156.329 228.215 159.624 225.489 163.333C221.431 169.066 220.735 180.663 221.577 184.001C222.419 187.338 222.97 191.265 227.027 193.952C231.084 196.639 234.016 197.726 241.005 193.952C247.994 190.178 251.63 177.601 250.956 167.926C250.282 158.25 244.388 151.568 241.311 150.733C238.234 149.899 235.134 153.55 235.134 153.55Z" fill="white" stroke="#263238" stroke-linecap="round" stroke-linejoin="round"/>
<path d="M235.562 155.364C235.562 155.364 233.043 155.648 231.788 157.324C230.533 159 230.946 159.559 231.788 159.98C232.051 160.15 232.275 160.374 232.443 160.639C232.61 160.903 232.719 161.201 232.76 161.511C232.76 161.511 229.828 166.265 231.367 167.237C232.905 168.209 239.749 165.002 241.571 162.644C243.393 160.286 242.55 156.352 241.433 155.234C240.315 154.117 235.562 155.364 235.562 155.364Z" fill="white" stroke="#263238" stroke-linecap="round" stroke-linejoin="round"/>
<path d="M233.871 137.2C233.061 138.163 232.121 139.008 231.077 139.71C229.959 140.269 228.566 140.828 229.683 141.67C230.322 142.139 230.928 142.65 231.498 143.201C231.498 143.201 230.097 147.794 230.663 150.465C230.713 150.807 230.835 151.133 231.022 151.423C231.209 151.713 231.456 151.959 231.746 152.145C232.037 152.331 232.364 152.452 232.705 152.5C233.047 152.549 233.395 152.523 233.725 152.425C233.725 152.425 233.304 159.414 232.745 161.511C232.187 163.609 234.843 163.463 236.94 162.208C239.038 160.952 239.321 155.778 240.155 152.004C240.99 148.23 246.026 143.76 242.536 139.565C239.045 135.37 233.871 137.2 233.871 137.2Z" fill="white" stroke="#263238" stroke-linecap="round" stroke-linejoin="round"/>
<path d="M256.659 132.446C251.484 127.134 243.646 128.389 242.544 128.672C242.544 128.672 238.18 127.608 235.654 128.029C233.128 128.45 232.187 135.684 233.725 139.71C234.274 141.156 235.311 142.364 236.657 143.124C236.404 142.902 234.912 141.494 236.351 140.376C237.205 139.675 238.221 139.196 239.306 138.983C239.306 138.983 238.088 142.979 238.609 143.683C240.737 146.515 231.169 159.873 230.793 159.659C230.793 159.659 233.587 161.236 237.086 162.912C244.809 166.625 253.926 158.702 256.789 152.012C259.07 146.73 261.267 137.177 256.659 132.446Z" fill="#263238" stroke="#263238" stroke-linecap="round" stroke-linejoin="round"/>
<path d="M181.398 152.364L174.34 181.888L188.777 188.464L194.235 160.707L181.398 152.364Z" fill="white" stroke="#263238" stroke-linecap="round" stroke-linejoin="round"/>
<path d="M181.887 155.418L176.023 179.951L188.018 185.417L192.558 162.345L181.887 155.418Z" fill="#263238" stroke="#263238" stroke-linecap="round" stroke-linejoin="round"/>
<path d="M194.235 160.707L213.969 161.672L210.118 190.071L188.777 188.464L194.235 160.707Z" fill="white" stroke="#263238" stroke-linecap="round" stroke-linejoin="round"/>
<path d="M200.044 173.322L201.475 173.384L201.621 172.465L200.212 172.366L200.044 173.322Z" fill="#263238"/>
<path d="M203.366 179.768L203.596 178.367L201.605 178.275L201.391 179.63L203.366 179.768Z" fill="#263238"/>
<path d="M199.845 169.304L200.021 168.316L198.23 168.194L198.046 169.227L199.845 169.304Z" fill="#263238"/>
<path d="M200.734 169.35L202.096 169.411L202.242 168.477L200.902 168.385L200.734 169.35Z" fill="#263238"/>
<path d="M199.677 175.473L201.131 175.581L201.338 174.256L199.891 174.195L199.677 175.473Z" fill="#263238"/>
<path d="M204.676 171.791L204.905 170.421L202.846 170.322L202.64 171.654L204.676 171.791Z" fill="#263238"/>
<path d="M198.751 165.254L200.535 165.339L200.795 163.808L199.027 163.716L198.751 165.254Z" fill="#263238"/>
<path d="M202.716 165.438L202.953 163.922L201.683 163.854L201.422 165.377L202.716 165.438Z" fill="#263238"/>
<path d="M198.598 166.127L198.383 167.329L200.167 167.451L200.381 166.203L198.598 166.127Z" fill="#263238"/>
<path d="M201.965 170.284L200.58 170.222L200.358 171.493L201.759 171.592L201.965 170.284Z" fill="#263238"/>
<path d="M202.585 166.311L201.269 166.249L201.047 167.512L202.379 167.604L202.585 166.311Z" fill="#263238"/>
<path d="M204.025 175.78L204.254 174.394L202.226 174.302L202.019 175.642L204.025 175.78Z" fill="#263238"/>
<path d="M195.934 176.093L194.472 175.994L194.28 177.058L195.75 177.127L195.934 176.093Z" fill="#263238"/>
<path d="M195.597 178L194.128 177.931L193.929 179.102L195.383 179.209L195.597 178Z" fill="#263238"/>
<path d="M195.229 180.074L193.775 179.974L193.591 181.031L195.046 181.1L195.229 180.074Z" fill="#263238"/>
<path d="M194.892 181.972L193.43 181.903L193.224 183.082L194.67 183.189L194.892 181.972Z" fill="#263238"/>
<path d="M196.301 174.027L194.824 173.958L194.625 175.121L196.087 175.228L196.301 174.027Z" fill="#263238"/>
<path d="M197.005 170.054L195.52 169.985L195.321 171.141L196.799 171.24L197.005 170.054Z" fill="#263238"/>
<path d="M197.717 166.081L196.217 166.012L196.018 167.16L197.503 167.26L197.717 166.081Z" fill="#263238"/>
<path d="M196.638 172.113L195.168 172.013L194.977 173.085L196.454 173.154L196.638 172.113Z" fill="#263238"/>
<path d="M197.35 168.132L195.865 168.025L195.673 169.112L197.158 169.181L197.35 168.132Z" fill="#263238"/>
<path d="M205.555 166.448L203.465 166.349L203.259 167.666L205.333 167.811L205.555 166.448Z" fill="#263238"/>
<path d="M194.518 184.054L193.079 183.955L192.788 185.578L194.227 185.723L194.518 184.054Z" fill="#263238"/>
<path d="M202.363 173.43L204.392 173.521L204.537 172.664L202.501 172.526L202.363 173.43Z" fill="#263238"/>
<path d="M201.116 181.375L203.091 181.467L203.228 180.633L201.254 180.495L201.116 181.375Z" fill="#263238"/>
<path d="M201.736 177.402L203.742 177.494L203.88 176.652L201.882 176.514L201.736 177.402Z" fill="#263238"/>
<path d="M201.001 176.446L199.524 176.346L199.355 177.295L200.856 177.364L201.001 176.446Z" fill="#263238"/>
<path d="M202.945 182.34L200.986 182.248L200.771 183.61L202.716 183.748L202.945 182.34Z" fill="#263238"/>
<path d="M200.633 184.483L200.342 186.343L202.256 186.535L202.57 184.621L200.633 184.483Z" fill="#263238"/>
<path d="M197.679 171.309L199.478 171.432L199.7 170.176L197.894 170.1L197.679 171.309Z" fill="#263238"/>
<path d="M197.87 165.208L198.146 163.67L196.638 163.593L196.37 165.147L197.87 165.208Z" fill="#263238"/>
<path d="M202.983 169.449L205.05 169.549L205.188 168.684L203.121 168.538L202.983 169.449Z" fill="#263238"/>
<path d="M203.604 165.476L205.701 165.576L205.946 164.076L203.834 163.968L203.604 165.476Z" fill="#263238"/>
<path d="M200.718 178.237L199.21 178.16L198.98 179.454L200.511 179.561L200.718 178.237Z" fill="#263238"/>
<path d="M198.322 178.122L196.478 178.038L196.263 179.27L198.1 179.393L198.322 178.122Z" fill="#263238"/>
<path d="M198.835 180.327L198.674 181.26L200.236 181.337L200.381 180.434L198.835 180.327Z" fill="#263238"/>
<path d="M200.098 182.21L198.521 182.133L198.292 183.442L199.891 183.549L200.098 182.21Z" fill="#263238"/>
<path d="M195.559 183.251L197.411 183.381L197.633 182.095L195.773 182.011L195.559 183.251Z" fill="#263238"/>
<path d="M197.954 180.265L196.11 180.135L195.934 181.138L197.786 181.222L197.954 180.265Z" fill="#263238"/>
<path d="M196.638 177.165L198.475 177.249L198.643 176.285L196.814 176.155L196.638 177.165Z" fill="#263238"/>
<path d="M195.398 184.116L195.1 185.807L196.96 185.999L197.266 184.246L195.398 184.116Z" fill="#263238"/>
<path d="M199.753 184.422L198.146 184.307L197.839 186.091L199.47 186.251L199.753 184.422Z" fill="#263238"/>
<path d="M199.333 172.304L197.526 172.174L197.342 173.192L199.164 173.276L199.333 172.304Z" fill="#263238"/>
<path d="M199.011 174.149L197.189 174.065L196.967 175.29L198.789 175.412L199.011 174.149Z" fill="#263238"/>
<path d="M235.83 178.849C235.83 178.849 234.031 179.018 230.969 181.505C227.907 183.993 215.736 205.235 215.736 205.235C215.736 205.235 204.69 198.346 201.896 196.432C199.102 194.519 196.867 190.982 195.329 188.885C193.79 186.787 193.507 186.504 191.409 186.366C189.312 186.228 187.781 184.835 187.498 185.807C187.215 186.78 188.057 187.208 188.615 187.484C189.104 187.672 189.623 187.768 190.146 187.767C188.827 187.966 187.482 187.666 186.373 186.925C184.275 185.67 183.716 185.394 183.716 186.787C183.716 188.18 185.247 190.423 186.373 191.816C187.498 193.21 193.92 193.776 193.92 193.776C196.251 198.276 198.867 202.622 201.751 206.789C205.938 212.66 214.887 218.953 217.405 218.111C219.923 217.268 233.197 200.642 236.833 196.027C240.469 191.411 245.253 185.96 244.097 182.891" fill="white"/>
<path d="M235.83 178.849C235.83 178.849 234.031 179.018 230.969 181.505C227.907 183.993 215.736 205.235 215.736 205.235C215.736 205.235 204.69 198.346 201.896 196.432C199.102 194.519 196.867 190.982 195.329 188.885C193.79 186.787 193.507 186.504 191.409 186.366C189.312 186.228 187.781 184.835 187.498 185.807C187.215 186.78 188.057 187.208 188.615 187.484C189.104 187.672 189.623 187.768 190.146 187.767C188.827 187.966 187.482 187.666 186.373 186.925C184.275 185.67 183.716 185.394 183.716 186.787C183.716 188.18 185.247 190.423 186.373 191.816C187.498 193.21 193.92 193.776 193.92 193.776C196.251 198.276 198.867 202.622 201.751 206.789C205.938 212.66 214.887 218.953 217.405 218.111C219.923 217.268 233.197 200.642 236.833 196.027C240.469 191.411 245.253 185.96 244.097 182.891" stroke="#263238" stroke-linecap="round" stroke-linejoin="round"/>
<path d="M198.1 192.727C197.005 191.357 196.064 189.956 195.298 188.9C193.767 186.802 193.476 186.519 191.379 186.381C189.282 186.244 187.751 184.851 187.467 185.823C187.184 186.795 188.026 187.223 188.585 187.499C189.074 187.687 189.593 187.783 190.116 187.782C188.797 187.981 187.452 187.681 186.342 186.94C184.245 185.685 183.686 185.409 183.686 186.802C183.686 188.196 185.217 190.438 186.342 191.832C187.467 193.225 193.89 193.791 193.89 193.791C193.89 193.791 194.173 194.342 194.655 195.238C195.564 194.114 196.752 193.248 198.1 192.727Z" fill="white" stroke="#263238" stroke-linecap="round" stroke-linejoin="round"/>
</svg>
