<svg width="22" height="22" viewBox="0 0 22 22" fill="none" xmlns="http://www.w3.org/2000/svg">
<path d="M8.28907 6.33894L8.54967 6.0911C9.19496 5.42192 9.08328 5.11211 8.45039 4.48011L5.07501 1.07227C4.06984 0.0561153 3.8837 -0.427179 2.92817 0.477449L2.66757 0.725292L8.28907 6.33894ZM7.63136 6.89659L2.17119 1.44404C1.30252 2.6089 -0.732634 5.74411 0.272535 8.06145C1.17843 10.1309 1.62517 10.2301 2.75443 11.7791C5.05019 14.3938 7.9416 17.1945 10.2001 19.3011C11.7637 20.4288 11.8258 20.9493 13.923 21.7796C16.1567 22.6594 19.3832 20.6767 20.5993 19.8464L15.1391 14.3938L13.6748 16.4014C13.2529 16.9714 12.1856 16.327 11.4411 15.5835C10.1505 14.2823 7.49486 11.6428 6.47728 10.5399C5.74512 9.80874 5.08742 8.74302 5.65825 8.30929L7.63136 6.89659ZM21.3066 19.3507L21.5672 19.0905C22.4111 18.1734 21.9271 17.9752 20.9219 16.9838L17.5217 13.6131C16.8888 13.0059 16.591 12.8696 15.9457 13.4768L15.6975 13.7371L21.3066 19.3507Z" fill="#5F80F8"/>
</svg>
