<svg width="190" height="190" viewBox="0 0 190 190" fill="none" xmlns="http://www.w3.org/2000/svg">
<path d="M36.9589 163.191C69.6617 180.291 122.687 180.291 155.39 163.191C188.093 146.091 188.093 118.404 155.39 101.319C122.687 84.2346 69.6617 84.2194 36.9589 101.319C4.25615 118.419 4.25235 146.11 36.9589 163.191Z" fill="#F5F5F5"/>
<path d="M134.771 147.683C143.352 147.683 150.309 143.666 150.309 138.711C150.309 133.756 143.352 129.74 134.771 129.74C126.189 129.74 119.233 133.756 119.233 138.711C119.233 143.666 126.189 147.683 134.771 147.683Z" fill="#E0E0E0"/>
<path d="M40.128 134.026C39.8962 131.389 37.5136 126.095 34.4774 122.911C31.4412 119.727 26.923 117.591 23.959 118.91C21.1964 120.133 21.831 123.85 25.5018 126.012C29.1726 128.174 34.6218 130.838 36.5218 134.984L40.166 139.954L40.128 134.026Z" fill="#5F80F8"/>
<path opacity="0.1" d="M40.128 134.026C39.8962 131.389 37.5136 126.095 34.4774 122.911C31.4412 119.727 26.923 117.591 23.959 118.91C21.1964 120.133 21.831 123.85 25.5018 126.012C29.1726 128.174 34.6218 130.838 36.5218 134.984L40.166 139.954L40.128 134.026Z" fill="black"/>
<path d="M40.6372 137.617C40.5948 137.618 40.5532 137.605 40.5194 137.58C40.4855 137.554 40.4614 137.518 40.451 137.476C37.8974 128.63 29.9782 121.953 25.479 120.715C25.4541 120.708 25.4307 120.696 25.4102 120.681C25.3897 120.665 25.3726 120.645 25.3597 120.623C25.3468 120.6 25.3385 120.576 25.3351 120.55C25.3318 120.524 25.3336 120.498 25.3403 120.473C25.347 120.448 25.3586 120.425 25.3744 120.404C25.3902 120.384 25.4098 120.367 25.4322 120.354C25.4546 120.341 25.4794 120.333 25.505 120.329C25.5306 120.326 25.5566 120.328 25.5816 120.335C30.1644 121.596 38.2318 128.383 40.8196 137.362C40.8272 137.387 40.8298 137.412 40.8274 137.437C40.825 137.463 40.8175 137.487 40.8055 137.509C40.7934 137.532 40.777 137.551 40.7573 137.567C40.7375 137.583 40.7148 137.595 40.6904 137.602L40.6372 137.617Z" fill="white"/>
<path d="M39.7975 143.496C39.2427 142.052 37.2211 139.764 34.0975 137.997C30.6775 136.048 26.4747 135.379 25.3575 133.718C24.0389 131.731 25.6311 129.603 28.9941 129.724C32.3571 129.846 38.6005 133.874 40.1357 140.627L39.7975 143.496Z" fill="#5F80F8"/>
<path d="M40.3065 141.884C40.2688 141.885 40.2319 141.874 40.2002 141.854C40.1685 141.834 40.1433 141.805 40.1279 141.77C36.7079 134.303 30.5747 132.111 27.8197 131.993C27.7942 131.992 27.7692 131.986 27.746 131.975C27.7229 131.965 27.7021 131.95 27.6848 131.931C27.6675 131.912 27.6541 131.89 27.6453 131.866C27.6364 131.842 27.6324 131.817 27.6335 131.792C27.6339 131.766 27.6395 131.741 27.6501 131.718C27.6606 131.695 27.6758 131.674 27.6946 131.657C27.7135 131.64 27.7357 131.627 27.7598 131.618C27.7839 131.61 27.8095 131.607 27.8349 131.609C30.8749 131.735 36.9549 133.984 40.4813 141.611C40.501 141.657 40.5021 141.71 40.4845 141.757C40.4668 141.804 40.4317 141.843 40.3863 141.865C40.3612 141.877 40.3341 141.883 40.3065 141.884Z" fill="white"/>
<path d="M143.325 130.61C143.268 128.486 143.856 124.929 145.946 121.376C148.185 117.576 151.137 115.03 153.619 115.805C155.929 116.527 155.42 119.662 151.947 123.078C149.507 125.476 147.06 128.516 145.92 131.993L143.967 136.469L143.325 130.61Z" fill="#5F80F8"/>
<path d="M143.325 130.61C143.268 128.486 143.856 124.929 145.946 121.376C148.185 117.576 151.137 115.03 153.619 115.805C155.929 116.527 155.42 119.662 151.947 123.078C149.507 125.476 147.06 128.516 145.92 131.993L143.967 136.469L143.325 130.61Z" fill="#5F80F8"/>
<g opacity="0.1">
<path opacity="0.1" d="M143.325 130.61C143.268 128.486 143.856 124.929 145.946 121.376C148.185 117.576 151.137 115.03 153.619 115.805C155.929 116.527 155.42 119.662 151.947 123.078C149.507 125.476 147.06 128.516 145.92 131.993L143.967 136.469L143.325 130.61Z" fill="black"/>
</g>
<path d="M143.712 132.187C143.743 132.184 143.772 132.172 143.796 132.151C143.819 132.131 143.835 132.103 143.841 132.073C145.331 126.016 149.101 119.639 152.615 117.253C152.643 117.229 152.661 117.195 152.666 117.158C152.671 117.122 152.662 117.085 152.642 117.054C152.621 117.023 152.591 117.001 152.555 116.992C152.519 116.982 152.481 116.986 152.448 117.002C148.88 119.438 145.054 125.886 143.549 132.012C143.544 132.031 143.543 132.051 143.547 132.07C143.55 132.089 143.557 132.108 143.567 132.124C143.577 132.141 143.59 132.155 143.606 132.167C143.622 132.178 143.64 132.186 143.659 132.191C143.677 132.193 143.695 132.192 143.712 132.187Z" fill="white"/>
<path d="M143.306 137.476C144.478 138.517 145.904 139.23 147.44 139.544C150.1 140.125 151.339 138.92 151.339 138.92C151.339 138.92 150.434 136.355 148.964 135.561C150.582 136.026 152.11 136.762 153.482 137.739C153.482 137.739 155.108 137.86 155.906 135.413C155.906 135.413 155.029 133.855 151.837 132.856C153.453 132.663 155.092 132.843 156.628 133.38C156.837 133.479 157.936 130.317 158.3 128.85C158.665 127.384 158.065 127.361 156.929 126.985C155.792 126.608 151.859 126.179 151.099 126.772C150.339 127.365 149.838 129.515 149.838 129.515C149.838 129.515 149.218 128.246 149.458 127.156C148.665 126.877 147.806 126.846 146.995 127.068C145.669 127.448 145.715 128.083 145.658 129.029C145.596 129.981 145.67 130.937 145.878 131.868C145.878 131.868 145.027 131.035 145.168 128.17C145.168 128.17 143.321 129.569 142.538 130.83C141.755 132.092 141.74 135.447 143.306 137.476Z" fill="#5F80F8"/>
<path d="M143.294 137.628C143.322 137.63 143.35 137.624 143.375 137.61C143.4 137.597 143.421 137.577 143.435 137.552C145.855 133.205 154.174 128.482 157.077 128.094C157.096 128.091 157.115 128.085 157.132 128.075C157.149 128.065 157.164 128.052 157.175 128.036C157.187 128.02 157.196 128.002 157.201 127.983C157.206 127.964 157.207 127.945 157.204 127.925C157.201 127.906 157.195 127.887 157.185 127.87C157.175 127.853 157.162 127.838 157.146 127.826C157.13 127.815 157.112 127.806 157.093 127.801C157.074 127.796 157.054 127.795 157.035 127.798C154.086 128.178 145.635 132.989 143.173 137.404C143.153 137.439 143.148 137.48 143.159 137.518C143.17 137.557 143.195 137.589 143.23 137.609C143.249 137.621 143.271 137.627 143.294 137.628Z" fill="white"/>
<path d="M42.1801 146.406L41.1465 145.81C40.7039 145.521 40.3356 145.132 40.0715 144.675C39.8074 144.217 39.6549 143.704 39.6265 143.176V52.5502C39.6546 52.022 39.8069 51.508 40.071 51.0498C40.3351 50.5915 40.7036 50.2021 41.1465 49.913L82.9465 25.783C83.4174 25.5437 83.9382 25.4189 84.4665 25.4189C84.9947 25.4189 85.5155 25.5437 85.9865 25.783L87.0201 26.3796C87.4624 26.6683 87.8306 27.0572 88.0947 27.5147C88.3587 27.9722 88.5113 28.4855 88.5401 29.013V119.643C88.5113 120.17 88.3587 120.684 88.0947 121.141C87.8306 121.599 87.4624 121.988 87.0201 122.276L45.2201 146.406C44.7491 146.646 44.2283 146.77 43.7001 146.77C43.1718 146.77 42.651 146.646 42.1801 146.406Z" fill="#37474F"/>
<path d="M45.7407 54.34L40.0711 51.0682C39.7983 51.5229 39.6453 52.0393 39.6265 52.5692V143.176C39.6549 143.704 39.8074 144.217 40.0715 144.675C40.3356 145.132 40.7039 145.521 41.1465 145.81L42.1801 146.406C42.651 146.646 43.1718 146.77 43.7001 146.77C44.2283 146.77 44.7491 146.646 45.2201 146.406L45.7369 146.11L45.7407 54.34Z" fill="#263238"/>
<path d="M43.7002 54.9024V145.54C43.7002 146.513 44.3804 146.904 45.2202 146.418L87.0202 122.288C87.4626 121.999 87.8307 121.61 88.0948 121.153C88.3589 120.695 88.5115 120.182 88.5402 119.654V29.013C88.5402 28.044 87.86 27.6526 87.0202 28.1352L45.2202 52.269C44.7772 52.557 44.4085 52.9457 44.1444 53.4034C43.8802 53.861 43.728 54.3747 43.7002 54.9024Z" fill="#455A64"/>
<path d="M47.0441 60.6328L85.0441 38.6878C85.7623 38.2736 86.3475 38.6118 86.3475 39.4478V111.743C86.323 112.195 86.1922 112.635 85.9658 113.027C85.7393 113.419 85.4235 113.753 85.0441 114L47.0441 135.941C46.3221 136.359 45.7407 136.021 45.7407 135.181V62.89C45.7643 62.4376 45.8947 61.9971 46.1213 61.6048C46.3478 61.2125 46.6641 60.8794 47.0441 60.6328Z" fill="#FAFAFA"/>
<g opacity="0.4">
<path opacity="0.4" d="M66.2567 66.3289C70.5165 63.8703 73.9707 65.8653 73.9707 70.7825C73.9707 75.6997 70.5165 81.6885 66.2567 84.1471C61.9969 86.6057 58.5427 84.6145 58.5427 79.6935C58.5427 74.7725 61.9969 68.7799 66.2567 66.3289Z" fill="#5F80F8"/>
<path opacity="0.4" d="M81.4607 92.6439C81.4607 84.5613 75.7873 80.9703 68.7877 85.0135L64.4101 87.5405C57.4105 91.5799 51.7371 101.411 51.7371 109.493V111.671L81.4607 94.5173V92.6439Z" fill="#5F80F8"/>
</g>
<path d="M66.12 42.56C66.6824 42.2332 67.1384 42.4992 67.1384 43.149C67.1195 43.5023 67.0174 43.8462 66.8405 44.1526C66.6635 44.459 66.4166 44.7193 66.12 44.9122C65.5576 45.239 65.1016 44.973 65.1016 44.3232C65.1204 43.9698 65.2225 43.6259 65.3995 43.3195C65.5764 43.0131 65.8233 42.7528 66.12 42.56Z" fill="#263238"/>
<path d="M63.1787 47.6443C65.2497 46.5043 68.9433 44.3041 70.9839 43.1033C71.3297 42.8981 71.6109 43.0387 71.6109 43.4149C71.5959 43.6271 71.5309 43.8327 71.4213 44.015C71.3117 44.1973 71.1605 44.351 70.9801 44.4637L63.1635 48.9781C62.8139 49.1795 62.5327 49.0389 62.5327 48.6589C62.5504 48.4502 62.6184 48.2488 62.7309 48.0721C62.8434 47.8954 62.997 47.7486 63.1787 47.6443Z" fill="#263238"/>
<path d="M61.2029 48.7881C61.5183 48.6057 61.7767 48.7539 61.7767 49.1187C61.7656 49.3175 61.7078 49.5108 61.6081 49.6831C61.5085 49.8554 61.3697 50.0018 61.2029 50.1105C60.8875 50.2929 60.6292 50.1447 60.6292 49.7799C60.6403 49.5812 60.6981 49.3879 60.7978 49.2156C60.8974 49.0433 61.0362 48.8969 61.2029 48.7881Z" fill="#263238"/>
<path d="M66.1201 127.3C67.2601 126.65 68.1607 127.178 68.1607 128.478C68.1225 129.185 67.9178 129.874 67.5632 130.487C67.2086 131.101 66.7141 131.622 66.1201 132.008C64.9801 132.658 64.0833 132.13 64.0833 130.83C64.1216 130.123 64.3259 129.435 64.6798 128.822C65.0337 128.208 65.5271 127.687 66.1201 127.3Z" fill="#263238"/>
<path d="M100.78 101.893L96.1972 99.2332L96.1478 99.2066C93.8678 97.9222 90.7442 98.1084 87.2824 100.111C84.0448 101.977 81.0884 105.089 78.8616 108.695C76.289 112.845 74.6816 117.652 74.6816 121.957C74.6816 125.974 76.0876 128.797 78.36 130.116L83.015 132.776C85.314 134.243 88.5554 134.11 92.1578 132.035C99.1156 128.06 104.766 118.26 104.766 110.2C104.766 106.02 103.231 103.136 100.78 101.893Z" fill="#5F80F8"/>
<path opacity="0.1" d="M82.9159 132.753L78.3559 130.146C76.0759 128.828 74.6775 126.004 74.6775 121.988C74.6775 117.678 76.2963 112.868 78.8575 108.726L83.7291 111.534C81.1527 115.687 79.5491 120.483 79.5491 124.784C79.5301 128.619 80.8183 131.366 82.9159 132.753Z" fill="black"/>
<path opacity="0.4" d="M100.7 101.84C98.4503 100.749 95.4521 101.027 92.1613 102.923C88.8705 104.819 85.9521 107.92 83.7215 111.526L78.8499 108.718C81.0767 105.112 84.0331 102 87.2707 100.134C90.7287 98.135 93.8561 97.945 96.1361 99.2294L96.1854 99.256L100.7 101.84Z" fill="white"/>
<path d="M98.7202 106.97L96.9722 105.959L90.1284 122.09L91.295 122.763L98.7202 106.97Z" fill="white"/>
<path d="M88.7868 118.488L87.0388 117.481L85.1616 121.452L86.9096 122.459L88.7868 118.488Z" fill="white"/>
<path d="M91.7433 127.494L86.9097 122.459L88.7869 118.488L91.2949 122.763L98.7201 106.97L101.471 109.653L91.7433 127.494Z" fill="#F5F5F5"/>
<path d="M85.1616 121.452L86.9096 122.459L91.7432 127.494L89.999 126.494L85.1616 121.452Z" fill="#E0E0E0"/>
<path d="M136.42 62.2897C138.399 62.2897 140.298 61.5034 141.697 60.1037C143.097 58.7041 143.883 56.8058 143.883 54.8265V54.3857C143.884 53.555 143.721 52.7323 143.403 51.9647C143.086 51.1971 142.62 50.4996 142.033 49.912C141.445 49.3245 140.748 48.8584 139.981 48.5403C139.213 48.2223 138.391 48.0587 137.56 48.0587H135.28C133.602 48.0587 131.993 48.7252 130.806 49.9118C129.62 51.0983 128.953 52.7076 128.953 54.3857V54.8265C128.953 55.8069 129.146 56.7777 129.522 57.6834C129.897 58.5891 130.447 59.412 131.14 60.1051C131.834 60.7981 132.657 61.3478 133.563 61.7226C134.469 62.0975 135.44 62.2902 136.42 62.2897Z" fill="#263238"/>
<path d="M128.721 136.112C127.851 137.026 126.897 137.855 125.871 138.59C125.715 138.694 125.585 138.834 125.491 138.996C125.358 139.278 125.149 139.969 126.422 140.414C127.066 140.637 127.75 140.718 128.428 140.653C129.106 140.587 129.762 140.376 130.351 140.034C131.4 139.38 131.446 138.02 132.434 137.241C133.163 136.667 134.075 136.519 134.668 135.766C135.079 135.242 134.972 134.547 134.756 133.684C134.524 132.742 134.414 132.031 134.102 132.103L134.155 132.536C133.775 133.156 131.75 133.338 130.853 132.916C130.838 132.909 129.287 135.493 128.721 136.112Z" fill="#263238"/>
<path d="M127.836 136.99C128.14 136.713 128.436 136.424 128.721 136.112C129.318 135.338 129.867 134.528 130.367 133.688C130.711 133.179 130.873 132.568 130.826 131.955C130.754 131.301 130.576 129.633 130.576 129.633L133.768 129.405L134.148 132.536C134.224 133.247 133.638 133.878 132.597 134.775C131.556 135.671 130.241 137.758 129.299 138.282C128.356 138.806 127.688 138.787 127.285 138.518C126.882 138.248 126.825 138.027 127.836 136.99Z" fill="#B16668"/>
<path d="M140.862 136.397V135.915C140.676 136.481 139.798 138.901 138.464 140.117C137.408 141.083 135.964 142.196 135.595 143.275C135.227 144.354 137.606 144.769 138.594 144.594C139.734 144.392 141.231 143.739 142.04 142.747C142.606 142.048 142.971 141.227 143.378 140.668C143.784 140.11 144.719 139.506 144.94 138.867C145.061 138.518 144.917 137.754 144.746 137.108C144.575 136.462 144.423 135.861 144.221 135.915V136.295C143.743 136.67 143.15 136.87 142.542 136.861C142.052 136.868 140.858 136.77 140.862 136.397Z" fill="#263238"/>
<path d="M137.507 140.98C137.834 140.687 138.164 140.402 138.464 140.129C139.395 139.281 140.106 137.849 140.513 136.861C140.745 136.301 140.865 135.7 140.866 135.094V133.194H144.221V136.31V136.393C144.062 137.093 142.519 138.947 141.645 140.155C141.06 140.965 139.946 141.998 138.605 142.177C137.332 142.321 136.686 141.922 137.507 140.98Z" fill="#B16668"/>
<path d="M143.553 84.2384C146.156 89.9194 143.458 109.938 143.458 109.938C143.537 110.861 144.598 112.678 144.978 116.736C145.441 121.532 144.248 133.57 144.248 133.57C143.736 133.868 143.16 134.036 142.568 134.06C141.977 134.084 141.388 133.963 140.855 133.707C140.855 133.707 137.659 115.569 137.055 110.804C136.53 106.643 135.535 96.862 135.535 96.862L132.92 110.892C133.404 112.204 133.747 113.565 133.942 114.95C134.212 117.758 134.011 130.728 134.011 130.728C134.011 130.728 132.871 131.602 130.663 131.279C130.663 131.279 126.863 113.517 126.563 110.143C126.388 108.129 128.683 83.4062 128.683 83.4062L143.553 84.2384Z" fill="#5F80F8"/>
<path opacity="0.6" d="M143.553 84.2384C146.156 89.9194 143.458 109.938 143.458 109.938C143.537 110.861 144.598 112.678 144.978 116.736C145.441 121.532 144.248 133.57 144.248 133.57C143.736 133.868 143.16 134.036 142.568 134.06C141.977 134.084 141.388 133.963 140.855 133.707C140.855 133.707 137.659 115.569 137.055 110.804C136.53 106.643 135.535 96.862 135.535 96.862L132.92 110.892C133.404 112.204 133.747 113.565 133.942 114.95C134.212 117.758 134.011 130.728 134.011 130.728C134.011 130.728 132.871 131.602 130.663 131.279C130.663 131.279 126.863 113.517 126.563 110.143C126.388 108.129 128.683 83.4062 128.683 83.4062L143.553 84.2384Z" fill="black"/>
<path opacity="0.3" d="M135.531 96.862L134.687 92.2146C134.687 92.2146 131.111 91.4736 129.493 89.9346C129.493 89.9346 131.191 92.0512 133.718 92.7428L134.668 96.805L133.175 109.497L135.531 96.862Z" fill="black"/>
<path d="M147.794 81.7684C147.767 81.3884 147.068 77.4174 146.589 75.1906L141.911 76.6232L142.743 80.7196L146.68 83.8812C147.919 83.638 147.82 82.1408 147.794 81.7684Z" fill="#B16668"/>
<path d="M125.168 73.3781L122.957 77.4326L126.399 80.3814L129.55 75.3845L125.168 73.3781Z" fill="#B16668"/>
<path d="M133.467 64.3455C131.275 64.3683 128.858 65.1625 128.026 66.8839C127.194 68.6053 124.895 73.3438 124.895 73.3438C124.895 73.3438 126.943 76.1254 130.017 75.924L133.467 64.3455Z" fill="#5F80F8"/>
<path opacity="0.6" d="M133.467 64.3455C131.275 64.3683 128.858 65.1625 128.026 66.8839C127.194 68.6053 124.895 73.3438 124.895 73.3438C124.895 73.3438 126.943 76.1254 130.017 75.924L133.467 64.3455Z" fill="black"/>
<path d="M138.005 64.4215L139.832 64.4975C141.816 64.9725 142.534 66.3367 143.366 68.0961C143.977 69.4547 144.034 70.9975 143.526 72.3977L141.2 79.1237C141.2 79.1237 142.287 81.7532 143.553 84.2384C137.72 87.495 130.435 85.7813 128.679 83.4063C128.607 82.9009 128.706 80.6323 128.565 78.0483C128.417 75.2895 128.037 72.1773 128.47 70.4749C129.276 67.3133 130.781 64.3455 133.79 64.3455L138.005 64.4215Z" fill="#F5F5F5"/>
<path d="M139.84 64.4974C141.827 64.7786 144.753 65.1776 145.76 69.9086C146.783 74.7042 146.976 75.848 146.976 75.848C146.976 75.848 145.236 77.5846 141.934 77.5694C141.926 77.5694 139.015 68.153 139.84 64.4974Z" fill="#5F80F8"/>
<path opacity="0.6" d="M139.84 64.4974C141.827 64.7786 144.753 65.1776 145.76 69.9086C146.783 74.7042 146.976 75.848 146.976 75.848C146.976 75.848 145.236 77.5846 141.934 77.5694C141.926 77.5694 139.015 68.153 139.84 64.4974Z" fill="black"/>
<path d="M141.839 77.2768C141.459 76.0191 141.079 74.5827 140.718 73.0399C140.733 74.9794 140.931 76.9131 141.307 78.8158L141.839 77.2768Z" fill="#EBEBEB"/>
<path d="M131.389 51.0759C130.602 51.5433 129.629 53.5269 129.724 57.6841C129.804 61.2067 130.948 62.0769 131.522 62.3277C132.096 62.5785 133.201 62.4265 134.277 62.2479V64.3645C134.277 64.3645 132.791 66.0897 132.882 67.0587C132.973 68.0277 135.029 68.2595 136.42 67.3095C137.32 66.6611 138.093 65.8521 138.7 64.9231V59.8083C138.7 59.8083 139.426 60.7773 140.6 59.9907C141.774 59.2041 141.831 57.2509 141.143 56.5479C140.456 55.8449 138.962 56.0691 138.689 57.0381C138.689 57.0381 136.971 57.1027 134.687 55.8487C133.802 55.3675 133.042 54.6848 132.469 53.8557C131.896 53.0266 131.526 52.0743 131.389 51.0759Z" fill="#B16668"/>
<path d="M133.658 56.7987C133.656 56.8859 133.68 56.9716 133.727 57.0451C133.774 57.1187 133.842 57.1767 133.922 57.2121C134.002 57.2475 134.09 57.2586 134.176 57.2441C134.262 57.2295 134.342 57.19 134.406 57.1304C134.469 57.0708 134.514 56.9938 134.535 56.9089C134.555 56.8241 134.55 56.7351 134.52 56.6531C134.49 56.5712 134.436 56.4998 134.366 56.448C134.296 56.3962 134.212 56.3661 134.125 56.3617C134.066 56.3596 134.006 56.3693 133.951 56.3902C133.895 56.4111 133.844 56.4427 133.801 56.4833C133.757 56.5239 133.722 56.5726 133.698 56.6267C133.673 56.6808 133.659 56.7393 133.658 56.7987Z" fill="#263238"/>
<path d="M133.54 59.7855L132.51 60.1161C132.527 60.1858 132.559 60.2512 132.602 60.3085C132.646 60.3657 132.7 60.4135 132.763 60.449C132.825 60.4846 132.895 60.507 132.966 60.5151C133.037 60.5232 133.11 60.5167 133.179 60.4961C133.32 60.4483 133.436 60.3472 133.504 60.2143C133.571 60.0815 133.584 59.9276 133.54 59.7855Z" fill="#9A4A4D"/>
<path d="M130.025 55.4382L130.921 54.8188C130.884 54.756 130.834 54.7017 130.775 54.6593C130.715 54.617 130.647 54.5875 130.576 54.5729C130.504 54.5582 130.431 54.5587 130.359 54.5742C130.288 54.5897 130.22 54.6199 130.161 54.663C130.044 54.7504 129.965 54.8793 129.939 55.0234C129.914 55.1675 129.944 55.3159 130.025 55.4382Z" fill="#263238"/>
<path d="M130.23 56.4794C130.229 56.5665 130.254 56.6519 130.302 56.7249C130.349 56.798 130.417 56.8554 130.497 56.8902C130.577 56.925 130.665 56.9356 130.751 56.9206C130.836 56.9057 130.916 56.8659 130.979 56.8061C131.043 56.7463 131.087 56.6693 131.107 56.5845C131.127 56.4997 131.122 56.4109 131.092 56.3292C131.062 56.2475 131.008 56.1763 130.938 56.1247C130.868 56.073 130.784 56.0431 130.697 56.0386C130.577 56.0366 130.461 56.0815 130.374 56.1639C130.286 56.2462 130.235 56.3595 130.23 56.4794Z" fill="#263238"/>
<path d="M132.32 56.2249L132.251 58.8925L130.849 58.4593L132.32 56.2249Z" fill="#9A4A4D"/>
<path d="M134.277 62.2478C135.417 62.0996 137.739 61.4308 138.103 60.5074C137.958 60.9745 137.673 61.3856 137.286 61.6855C136.591 62.2821 134.277 62.9547 134.277 62.9547V62.2478Z" fill="#9A4A4D"/>
<path d="M115.729 73.1311L128.592 76.5169L132.392 92.4845L120.16 88.9315L115.729 73.1311Z" fill="#5F80F8"/>
<path opacity="0.15" d="M121.338 83.6951C121.22 84.0219 120.513 84.9263 119.016 84.8541L118.834 84.1929L121.338 83.6951Z" fill="black"/>
<path opacity="0.15" d="M124.214 84.1928C124.271 84.6184 125.145 85.4088 126.624 85.899C128.307 86.4614 130.887 86.165 130.887 86.165L130.655 85.3708L124.214 84.1928Z" fill="black"/>
<path opacity="0.15" d="M119.495 75.4414C119.495 75.4414 119.449 75.2211 119.388 74.9513C119.328 74.6814 120.088 74.6662 121.076 74.9246L122.976 75.4149C123.964 75.6733 124.815 76.1027 124.876 76.3725L124.982 76.8627L119.495 75.4414Z" fill="black"/>
<path d="M118.606 73.5908C118.568 73.4198 118.872 73.378 119.286 73.492L120.046 73.6972C120.046 73.6972 119.822 72.637 121.486 73.0094C123.15 73.3818 123.515 74.5826 123.515 74.5826L124.317 74.8106C124.762 74.936 125.161 75.1906 125.214 75.3464L125.309 75.6504L118.682 73.9062C118.682 73.9062 118.64 73.758 118.606 73.5908Z" fill="#37474F"/>
<path d="M119.518 74.1191C120.126 74.2673 120.376 74.3471 120.468 74.7651C120.57 75.2439 120.612 75.5935 120.612 75.5935L123.546 76.3535C123.546 76.3535 123.405 75.7493 123.359 75.5137C123.314 75.2781 123.413 75.1337 123.88 75.2591L123.918 75.0729L119.32 73.9177L119.518 74.1191Z" fill="#37474F"/>
<path d="M119.415 75.4871C119.415 75.4871 119.369 75.2667 119.309 74.9969C119.248 74.7271 120.008 74.7157 120.996 74.9703L122.896 75.4643C123.884 75.7189 124.735 76.1483 124.796 76.4181L124.902 76.9083L119.415 75.4871Z" fill="#37474F"/>
<path d="M146.68 83.8812L142.739 80.7196C142.739 80.7196 134.03 82.27 133.004 82.3498C132.463 82.3645 131.929 82.2152 131.474 81.9216C131.019 81.628 130.664 81.2037 130.454 80.7044C130.074 79.6974 129.379 79.8228 129.379 79.8228C129.379 79.8228 129.679 81.0958 129.759 81.5024C129.838 81.909 127.403 82.2624 126.042 81.7836C124.682 81.3048 122.71 81.9926 123.929 83.8432C125.149 85.6938 127.524 85.9104 129.17 85.9104C129.86 85.9053 130.549 85.8596 131.233 85.7736C131.765 85.7052 132.297 85.652 132.833 85.614C136.226 85.3708 145.16 84.36 146.68 83.8812Z" fill="#B16668"/>
<path d="M117.04 77.7974L117.61 79.8342C117.72 80.2142 119.214 80.9362 120.16 81.1984C121.106 81.4606 122.14 81.7646 121.68 83.0984C121.269 84.3182 119.711 84.5957 118.921 84.5615C118.131 84.5273 117.044 83.7711 116.618 82.5513C116.071 80.9932 116.364 79.3288 116.147 78.4206C115.93 77.5124 116.565 77.254 117.04 77.7974Z" fill="#B16668"/>
<path d="M142.933 70.4749C142.377 70.4754 141.827 70.3664 141.313 70.154C140.8 69.9417 140.333 69.6302 139.94 69.2375C139.547 68.8447 139.235 68.3783 139.022 67.8649C138.809 67.3515 138.7 66.8012 138.7 66.2455V60.3061C139.821 60.3071 140.897 60.753 141.689 61.546C142.482 62.3389 142.928 63.4141 142.929 64.5355L142.933 70.4749Z" fill="#263238"/>
</svg>
